<svg width="23" height="23" viewBox="0 0 23 23" fill="none" xmlns="http://www.w3.org/2000/svg">
<mask id="mask0_1_2283" style="mask-type:luminance" maskUnits="userSpaceOnUse" x="0" y="0" width="17" height="17">
<path d="M0.910004 0.879883H16.91V16.7827H0.910004V0.879883Z" fill="white"/>
</mask>
<g mask="url(#mask0_1_2283)">
<path fill-rule="evenodd" clip-rule="evenodd" d="M16.91 8.87971C16.91 4.46125 13.3281 0.879395 8.90953 0.879395C4.49099 0.879395 0.909058 4.46125 0.909058 8.87971C0.909058 12.8729 3.83471 16.1826 7.65945 16.7828V11.1923H5.62808V8.87971H7.65945V7.11714C7.65945 5.11206 8.85387 4.00452 10.6813 4.00452C11.5567 4.00452 12.4722 4.16077 12.4722 4.16077V6.1296H11.4634C10.4695 6.1296 10.1596 6.7463 10.1596 7.37898V8.87971H12.3785L12.0238 11.1923H10.1596V16.7828C13.9843 16.1826 16.91 12.8729 16.91 8.87971Z" fill="#1877F2"/>
</g>
<path fill-rule="evenodd" clip-rule="evenodd" d="M12.0238 11.1922L12.3785 8.87959H10.1596V7.37885C10.1596 6.74617 10.4695 6.12948 11.4634 6.12948H12.4722V4.16065C12.4722 4.16065 11.5567 4.00439 10.6813 4.00439C8.85386 4.00439 7.65945 5.11194 7.65945 7.11702V8.87959H5.62808V11.1922H7.65945V16.7827C8.06677 16.8466 8.48425 16.8799 8.90952 16.8799C9.3348 16.8799 9.75228 16.8466 10.1596 16.7827V11.1922H12.0238Z" fill="white"/>
</svg>
