<svg width="23" height="23" viewBox="0 0 23 23" fill="none" xmlns="http://www.w3.org/2000/svg">
<path d="M3.67098 1.29948C3.14415 1.5044 2.69862 1.77763 2.25309 2.22325C1.80756 2.66561 1.53439 3.11448 1.32952 3.63817C1.13114 4.14559 0.997809 4.72782 0.958784 5.58003C0.91976 6.43223 0.910004 6.70546 0.910004 8.87826C0.910004 11.0511 0.91976 11.3243 0.958784 12.1765C0.997809 13.0287 1.13439 13.6109 1.32952 14.1183C1.53439 14.6453 1.80756 15.0909 2.25309 15.5365C2.69862 15.9821 3.14415 16.2554 3.67098 16.4603C4.1783 16.6587 4.76041 16.7921 5.61244 16.8311C6.46448 16.8701 6.73765 16.8799 8.91 16.8799C11.0824 16.8799 11.3555 16.8701 12.2076 16.8311C13.0596 16.7921 13.6417 16.6554 14.149 16.4603C14.6759 16.2554 15.1214 15.9821 15.5669 15.5365C16.0124 15.0909 16.2856 14.6453 16.4905 14.1183C16.6889 13.6109 16.8222 13.0287 16.8612 12.1765C16.9002 11.3243 16.91 11.0511 16.91 8.87826C16.91 6.70546 16.9002 6.43223 16.8612 5.58003C16.8222 4.72782 16.6856 4.14559 16.4905 3.63817C16.2856 3.11448 16.0124 2.66561 15.5702 2.22325C15.1246 1.77763 14.6791 1.5044 14.1523 1.29948C13.645 1.10107 13.0628 0.967706 12.2108 0.928673C11.3588 0.889641 11.0856 0.879883 8.91326 0.879883C6.7409 0.879883 6.46773 0.889641 5.61569 0.928673C4.76041 0.964453 4.1783 1.10107 3.67098 1.29948ZM12.1425 2.36636C12.923 2.40214 13.3458 2.53225 13.6287 2.64284C14.0027 2.78921 14.2694 2.96161 14.549 3.24134C14.8287 3.52107 15.0011 3.78779 15.1474 4.16185C15.258 4.44483 15.3881 4.86769 15.4238 5.64833C15.4628 6.49078 15.4694 6.74449 15.4694 8.88151C15.4694 11.0185 15.4596 11.2722 15.4238 12.1147C15.3881 12.8953 15.258 13.3182 15.1474 13.6012C15.0011 13.9752 14.8287 14.2419 14.549 14.5217C14.2694 14.8014 14.0027 14.9738 13.6287 15.1202C13.3458 15.2308 12.923 15.3609 12.1425 15.3967C11.3002 15.4357 11.0466 15.4422 8.91 15.4422C6.77342 15.4422 6.51976 15.4324 5.67748 15.3967C4.897 15.3609 4.47423 15.2308 4.1913 15.1202C3.81732 14.9738 3.55065 14.8014 3.27098 14.5217C2.9913 14.2419 2.81895 13.9752 2.67261 13.6012C2.56204 13.3182 2.43195 12.8953 2.39618 12.1147C2.35716 11.2722 2.35065 11.0185 2.35065 8.88151C2.35065 6.74449 2.36041 6.49078 2.39618 5.64833C2.43195 4.86769 2.56204 4.44483 2.67261 4.16185C2.81895 3.78779 2.9913 3.52107 3.27098 3.24134C3.55065 2.96161 3.81732 2.78921 4.1913 2.64284C4.47423 2.53225 4.897 2.40214 5.67748 2.36636C6.51976 2.32733 6.77342 2.32083 8.91 2.32083C11.0466 2.32083 11.3002 2.32733 12.1425 2.36636Z" fill="url(#paint0_radial_1_2295)"/>
<path d="M4.80269 8.88159C4.80269 11.152 6.64334 12.9897 8.91001 12.9897C11.1767 12.9897 13.0173 11.1487 13.0173 8.88159C13.0173 6.61446 11.1799 4.77344 8.91001 4.77344C6.64009 4.77344 4.80269 6.61121 4.80269 8.88159ZM11.5767 8.88159C11.5767 10.3551 10.3832 11.5488 8.91001 11.5488C7.43683 11.5488 6.24334 10.3551 6.24334 8.88159C6.24334 7.40812 7.43683 6.21438 8.91001 6.21438C10.3832 6.21438 11.5767 7.40812 11.5767 8.88159Z" fill="url(#paint1_radial_1_2295)"/>
<path d="M13.1832 5.61084C13.7355 5.61084 14.1832 5.16312 14.1832 4.61084C14.1832 4.05856 13.7355 3.61084 13.1832 3.61084C12.6309 3.61084 12.1832 4.05856 12.1832 4.61084C12.1832 5.16312 12.6309 5.61084 13.1832 5.61084Z" fill="#654C9F"/>
<defs>
<radialGradient id="paint0_radial_1_2295" cx="0" cy="0" r="1" gradientUnits="userSpaceOnUse" gradientTransform="translate(30.0219 1454.39) scale(2313.22)">
<stop stop-color="#FED576"/>
<stop offset="0.2634" stop-color="#F47133"/>
<stop offset="0.6091" stop-color="#BC3081"/>
<stop offset="1" stop-color="#4C63D2"/>
</radialGradient>
<radialGradient id="paint1_radial_1_2295" cx="0" cy="0" r="1" gradientUnits="userSpaceOnUse" gradientTransform="translate(58.8987 748.9) rotate(-3.00009) scale(1187.87 1187.87)">
<stop stop-color="#FED576"/>
<stop offset="0.2634" stop-color="#F47133"/>
<stop offset="0.6091" stop-color="#BC3081"/>
<stop offset="1" stop-color="#4C63D2"/>
</radialGradient>
</defs>
</svg>
