<svg width="23" height="23" viewBox="0 0 23 23" fill="none" xmlns="http://www.w3.org/2000/svg">
<path d="M18.4627 3.87988H5.35733C4.558 3.87988 3.91 4.52788 3.91 5.32721V18.4325C3.91 19.2319 4.558 19.8799 5.35733 19.8799H18.4626C19.262 19.8799 19.91 19.2319 19.91 18.4325V5.32721C19.91 4.52788 19.262 3.87988 18.4627 3.87988ZM8.86108 17.6953C8.86108 17.928 8.67252 18.1165 8.43989 18.1165H6.64697C6.41434 18.1165 6.22577 17.928 6.22577 17.6953V10.1795C6.22577 9.94686 6.41434 9.75829 6.64697 9.75829H8.43989C8.67252 9.75829 8.86108 9.94686 8.86108 10.1795V17.6953ZM7.54343 9.04981C6.60274 9.04981 5.84014 8.28721 5.84014 7.34652C5.84014 6.40583 6.60274 5.64323 7.54343 5.64323C8.48412 5.64323 9.24672 6.40583 9.24672 7.34652C9.24672 8.28721 8.48416 9.04981 7.54343 9.04981ZM18.2308 17.7293C18.2308 17.9431 18.0574 18.1165 17.8436 18.1165H15.9196C15.7058 18.1165 15.5324 17.9431 15.5324 17.7293V14.2039C15.5324 13.678 15.6866 11.8994 14.158 11.8994C12.9723 11.8994 12.7318 13.1168 12.6835 13.6631V17.7293C12.6835 17.9431 12.5101 18.1165 12.2962 18.1165H10.4354C10.2216 18.1165 10.0482 17.9431 10.0482 17.7293V10.1456C10.0482 9.93169 10.2216 9.75829 10.4354 9.75829H12.2962C12.5101 9.75829 12.6835 9.93169 12.6835 10.1456V10.8013C13.1232 10.1415 13.7766 9.63218 15.1678 9.63218C18.2485 9.63218 18.2308 12.5103 18.2308 14.0917V17.7293Z" fill="#0077B7"/>
</svg>
