<svg width="17" height="17" viewBox="0 0 17 17" fill="none" xmlns="http://www.w3.org/2000/svg">
<path d="M7.31 7.17998V6.57998C7.11 6.51331 6.91 6.47998 6.71 6.47998C4.01 6.47998 1.81 8.67998 1.81 11.38C1.81 12.98 2.71 14.48 3.91 15.28C3.11 14.48 2.61 13.28 2.61 11.98C2.61 9.37998 4.71 7.27998 7.31 7.17998Z" fill="#25F4EE"/>
<path d="M7.40999 14.2799C8.60999 14.2799 9.60999 13.2799 9.70999 12.0799V1.57988H11.61C11.5433 1.37988 11.51 1.14655 11.51 0.879883H8.90999V11.4799C8.80999 12.5799 7.90999 13.5799 6.70999 13.5799C6.30999 13.5799 5.97666 13.4799 5.70999 13.2799C6.10999 13.8799 6.70999 14.2799 7.40999 14.2799Z" fill="#25F4EE"/>
<path d="M15.21 5.17998V4.57998C14.41 4.57998 13.81 4.37998 13.21 3.97998C13.71 4.57998 14.41 4.97998 15.21 5.17998Z" fill="#25F4EE"/>
<path d="M13.21 3.98008C12.61 3.28008 12.31 2.48008 12.31 1.58008H11.61C11.81 2.58008 12.41 3.38008 13.21 3.98008Z" fill="#FE2C55"/>
<path d="M6.70999 9.17969C5.50999 9.17969 4.50999 10.1797 4.50999 11.3797C4.50999 12.1797 4.90999 12.9797 5.70999 13.2797C5.40999 12.9797 5.20999 12.4797 5.20999 11.9797C5.20999 10.7797 6.20999 9.77969 7.40999 9.77969C7.67666 9.77969 7.90999 9.81302 8.10999 9.87969V7.17969C7.90999 7.17969 7.67666 7.17969 7.40999 7.17969C7.40999 7.17969 7.37666 7.17969 7.30999 7.17969V9.27969C7.10999 9.21302 6.90999 9.17969 6.70999 9.17969Z" fill="#FE2C55"/>
<path d="M15.21 5.17969V7.17969C13.81 7.17969 12.51 6.77969 11.51 5.97969V11.3797C11.51 13.9797 9.31 16.1797 6.71 16.1797C5.61 16.1797 4.71 15.8797 3.91 15.2797C4.81 16.2797 6.01 16.8797 7.41 16.8797C10.11 16.8797 12.31 14.6797 12.31 11.9797V6.67969C13.31 7.37969 14.61 7.87969 15.91 7.87969V5.17969C15.6433 5.17969 15.41 5.17969 15.21 5.17969Z" fill="#FE2C55"/>
<path d="M11.51 11.3801V5.98008C12.51 6.78008 13.81 7.18008 15.21 7.18008V5.18008C14.41 4.98008 13.71 4.58008 13.21 3.98008C12.41 3.38008 11.81 2.58008 11.61 1.58008H9.71V12.0801C9.61 13.2801 8.61 14.2801 7.41 14.2801C6.71 14.2801 6.11 13.8801 5.71 13.2801C4.91 12.9801 4.51 12.1801 4.51 11.3801C4.51 10.1801 5.51 9.18008 6.71 9.18008C6.91 9.18008 7.11 9.21341 7.31 9.28008V7.18008C4.71 7.28008 2.61 9.38008 2.61 11.9801C2.61 13.2801 3.11 14.4801 3.91 15.2801C4.71 15.8801 5.61 16.1801 6.71 16.1801C9.31 16.1801 11.51 13.9801 11.51 11.3801Z" fill="black"/>
</svg>
