<svg width="23" height="23" viewBox="0 0 23 23" fill="none" xmlns="http://www.w3.org/2000/svg">
<path d="M17.0662 4.37988H6.75375C5.45933 4.37988 4.41 5.42921 4.41 6.72363V17.0361C4.41 18.3306 5.45933 19.3799 6.75375 19.3799H17.0662C18.3607 19.3799 19.41 18.3306 19.41 17.0361V6.72363C19.41 5.42921 18.3607 4.37988 17.0662 4.37988Z" fill="#FF0000"/>
<path d="M17.135 9.19854C16.9975 8.71729 16.6538 8.37353 16.1725 8.23603C15.3475 8.02978 11.8412 8.02979 11.8412 8.02979C11.8412 8.02979 8.40375 8.02978 7.51 8.23603C7.02875 8.37353 6.685 8.71729 6.5475 9.19854C6.41 10.0923 6.41 11.8798 6.41 11.8798C6.41 11.8798 6.41 13.6673 6.61625 14.5611C6.75375 15.0423 7.0975 15.3861 7.57875 15.5236C8.40375 15.7298 11.91 15.7298 11.91 15.7298C11.91 15.7298 15.3475 15.7298 16.2412 15.5236C16.7225 15.3861 17.0663 15.0423 17.2038 14.5611C17.41 13.6673 17.41 11.8798 17.41 11.8798C17.41 11.8798 17.41 10.0923 17.135 9.19854ZM10.81 13.5298V10.2298L13.6975 11.8798L10.81 13.5298Z" fill="white"/>
</svg>
