<svg width="44" height="28" viewBox="0 0 44 28" fill="none" xmlns="http://www.w3.org/2000/svg">
<path fill-rule="evenodd" clip-rule="evenodd" d="M9.09338 20.1102C9.09338 20.6016 9.44598 20.9322 9.9377 20.9322C10.4293 20.9322 10.7821 20.6016 10.7821 20.1102C10.7821 19.6283 10.4293 19.2881 9.9377 19.2881C9.44598 19.2881 9.09338 19.6283 9.09338 20.1102Z" fill="#1677FF"/>
<path fill-rule="evenodd" clip-rule="evenodd" d="M9.20474 26.3937H10.6706V21.3291H9.20474V26.3937Z" fill="black"/>
<path fill-rule="evenodd" clip-rule="evenodd" d="M13.3897 25.5244C13.2227 25.5244 13.0651 25.5055 12.8887 25.4489V22.7086C13.195 22.4913 13.4455 22.3874 13.7609 22.3874C14.3083 22.3874 14.7446 22.8314 14.7446 23.7763C14.7446 24.9859 14.1042 25.5244 13.3897 25.5244ZM14.3175 21.2251C13.7794 21.2251 13.362 21.433 12.8887 21.8299V21.3291H11.4226V28H12.8887V26.3465C13.167 26.4221 13.4269 26.4598 13.7424 26.4598C15.0507 26.4598 16.2289 25.4771 16.2289 23.7292C16.2289 22.1606 15.3754 21.2251 14.3175 21.2251Z" fill="black"/>
<path fill-rule="evenodd" clip-rule="evenodd" d="M25.9908 21.3386L26 21.3291H24.6175L23.7453 24.4095H23.6989L22.6968 21.3291H21.0544L23.0308 26.4127L22.205 27.9623V28H23.4946L25.9908 21.3386Z" fill="black"/>
<path fill-rule="evenodd" clip-rule="evenodd" d="M19.3007 25.1653C18.9111 25.3826 18.6883 25.4677 18.4284 25.4677C18.0759 25.4677 17.8532 25.2315 17.8532 24.8534C17.8532 24.7117 17.8809 24.57 17.9924 24.4566C18.1687 24.2771 18.512 24.1447 19.3007 23.9559V25.1653ZM20.7666 25.1274V23.0109C20.7666 21.8581 20.0986 21.2251 18.9204 21.2251C18.1687 21.2251 17.649 21.3573 16.7027 21.6503L16.9624 22.8125C17.8252 22.4157 18.2059 22.2455 18.6047 22.2455C19.0871 22.2455 19.3007 22.5951 19.3007 23.1337V23.1715C17.6212 23.4929 17.1014 23.6724 16.7769 24.0031C16.5356 24.2487 16.4334 24.5983 16.4334 25.0047C16.4334 25.9779 17.1759 26.4975 17.8717 26.4975C18.3915 26.4975 18.809 26.2992 19.3749 25.8645L19.477 26.3937H20.9429L20.7666 25.1274Z" fill="black"/>
<path fill-rule="evenodd" clip-rule="evenodd" d="M18.5646 0H7.22392C5.74682 0 4.55099 1.22881 4.55099 2.7454V14.3917C4.55099 15.9074 5.74682 17.1366 7.22392 17.1366H18.5646C20.0409 17.1366 21.2365 15.9074 21.2365 14.3917V2.7454C21.2365 1.22881 20.0409 0 18.5646 0Z" fill="#1677FF"/>
<path fill-rule="evenodd" clip-rule="evenodd" d="M9.05968 13.178C6.46375 13.178 5.6963 11.078 6.97912 9.92916C7.40713 9.54098 8.18967 9.35137 8.60658 9.30886C10.1485 9.15231 11.576 9.75651 13.2605 10.6009C12.0764 12.1871 10.5684 13.178 9.05968 13.178ZM18.2885 10.7601C17.6212 10.5305 16.725 10.1793 15.7273 9.80849C16.3268 8.73857 16.8051 7.51996 17.1197 6.19592H13.831V4.97928H17.8599V4.30024H13.831V2.27197H12.1866C11.8979 2.27197 11.8979 2.56431 11.8979 2.56431V4.30024H7.8232V4.97928H11.8979V6.19592H8.53381V6.87496H15.0588C14.8198 7.71976 14.4994 8.51308 14.1188 9.23365C12.0017 8.51615 9.7423 7.93468 8.32313 8.29263C7.41558 8.5223 6.8307 8.93235 6.48728 9.36169C4.91087 11.3315 6.04117 14.3235 9.37053 14.3235C11.339 14.3235 13.2352 13.1962 14.7048 11.3388C16.8965 12.4211 21.2364 14.2791 21.2364 14.2791V11.6311C21.2364 11.6311 20.6915 11.5864 18.2885 10.7601Z" fill="white"/>
<path fill-rule="evenodd" clip-rule="evenodd" d="M6.73648 26.3939H8.20248V19.4961H6.73648V26.3939Z" fill="black"/>
<path fill-rule="evenodd" clip-rule="evenodd" d="M2.03217 24.0029L2.90436 20.932H2.94141L3.76726 24.0029H2.03217ZM4.16631 19.7319H2.19918L0 26.3935H1.35474L1.72592 25.0895H4.05494L4.40753 26.3935H6.1425L4.16631 19.7319Z" fill="black"/>
</svg>
