<svg width="44" height="28" viewBox="0 0 44 28" fill="none" xmlns="http://www.w3.org/2000/svg">
<path d="M42 0H2C0.89543 0 0 0.89543 0 2V26C0 27.1046 0.89543 28 2 28H42C43.1046 28 44 27.1046 44 26V2C44 0.89543 43.1046 0 42 0Z" fill="white"/>
<path d="M40.3208 24.9387L38.3686 22.7733L36.3413 24.9387H32.3618H23.802V14.8587H19.8225L24.7782 3.584H29.5836L31.3106 7.46667V3.584H37.3174L38.3686 6.496L39.4198 3.584H44V1.86667C44 0.821333 43.1741 0 42.1229 0H1.87713C0.825939 0 0 0.821333 0 1.86667V26.1333C0 27.1787 0.825939 28 1.87713 28H42.1229C43.1741 28 44 27.1787 44 26.1333V24.9387H40.3208Z" fill="#0071CE"/>
<path d="M19.0717 18.8161H22.2253L18.0956 14.4107L22.2253 10.0801H19.1468L16.5188 12.9174L13.9659 10.0801H10.8123L15.0171 14.4854L10.8123 18.8161H13.8908L16.5188 15.9787L19.0717 18.8161Z" fill="#0071CE"/>
<path d="M5.78157 16.8001V15.4561H10.7372V13.4401H5.78157V12.0961H10.8123V10.0801H3.37884V18.8161H10.8123V16.8001H5.78157Z" fill="#0071CE"/>
<path d="M19.8976 8.81067H22.1502V0L18.5461 0.0746667L16.5939 5.52533L14.5666 0.0746667H10.8123V8.81067H13.215V2.688L15.4676 8.81067H17.57L19.8976 2.688V8.81067Z" fill="#0071CE"/>
<path d="M6.98293 0.074707H3.90444L0 8.81071H2.62799L3.37884 7.09337H7.43345L8.1843 8.81071H10.8874L6.98293 0.074707ZM4.20478 5.07737L5.40614 2.24004L6.60751 5.07737H4.20478Z" fill="#0071CE"/>
<path d="M41.8225 19.1144L44 21.5038V16.7251L41.8225 19.1144Z" fill="#0071CE"/>
</svg>
