<svg width="40" height="30" viewBox="0 0 40 30" fill="none" xmlns="http://www.w3.org/2000/svg">
<mask id="mask0_1_2400" style="mask-type:luminance" maskUnits="userSpaceOnUse" x="0" y="0" width="40" height="30">
<path fill-rule="evenodd" clip-rule="evenodd" d="M0 0H39.5455V30H0V0Z" fill="white"/>
</mask>
<g mask="url(#mask0_1_2400)">
<path fill-rule="evenodd" clip-rule="evenodd" d="M39.5455 23.9481C39.5455 27.2943 36.7913 30.0073 33.394 30.0073H0V6.05907C0 2.71281 2.75419 0 6.15184 0H39.5455V23.9481Z" fill="#FFFFFE"/>
</g>
<mask id="mask1_1_2400" style="mask-type:luminance" maskUnits="userSpaceOnUse" x="28" y="15" width="5" height="3">
<path fill-rule="evenodd" clip-rule="evenodd" d="M28.6575 17.8129H31.2008C31.2808 17.8129 31.4321 17.8005 31.5042 17.7848C31.9924 17.6809 32.399 17.2539 32.399 16.6723C32.399 16.0906 31.9924 15.6626 31.5042 15.5585C31.4321 15.543 31.2808 15.5303 31.2008 15.5303H28.6575V17.8129Z" fill="white"/>
</mask>
<g mask="url(#mask1_1_2400)">
<path fill-rule="evenodd" clip-rule="evenodd" d="M28.6575 17.8129H31.2008C31.2808 17.8129 31.4321 17.8005 31.5042 17.7848C31.9924 17.6809 32.399 17.2539 32.399 16.6723C32.399 16.0906 31.9924 15.6626 31.5042 15.5585C31.4321 15.543 31.2808 15.5303 31.2008 15.5303H28.6575V17.8129Z" fill="url(#paint0_linear_1_2400)"/>
</g>
<mask id="mask2_1_2400" style="mask-type:luminance" maskUnits="userSpaceOnUse" x="26" y="2" width="12" height="26">
<path fill-rule="evenodd" clip-rule="evenodd" d="M30.9036 2.01953C28.477 2.01953 26.5095 3.95722 26.5095 6.34721V10.8424H32.727C32.8711 10.8424 33.0474 10.8523 33.1574 10.858C34.5644 10.9275 35.6022 11.6394 35.6022 12.875C35.6022 13.8466 34.8929 14.6762 33.6021 14.8631V14.9118C35.028 15.0093 36.1197 15.7821 36.1197 17.0001C36.1197 18.3174 34.9214 19.1644 33.3242 19.1644H26.5095V27.9872H32.9543C35.3808 27.9872 37.3482 26.0494 37.3482 23.6592V2.01953H30.9036Z" fill="white"/>
</mask>
<g mask="url(#mask2_1_2400)">
<path fill-rule="evenodd" clip-rule="evenodd" d="M30.9036 2.01953C28.477 2.01953 26.5095 3.95722 26.5095 6.34721V10.8424H32.727C32.8711 10.8424 33.0474 10.8523 33.1574 10.858C34.5644 10.9275 35.6022 11.6394 35.6022 12.875C35.6022 13.8466 34.8929 14.6762 33.6021 14.8631V14.9118C35.028 15.0093 36.1197 15.7821 36.1197 17.0001C36.1197 18.3174 34.9214 19.1644 33.3242 19.1644H26.5095V27.9872H32.9543C35.3808 27.9872 37.3482 26.0494 37.3482 23.6592V2.01953H30.9036Z" fill="url(#paint1_linear_1_2400)"/>
</g>
<mask id="mask3_1_2400" style="mask-type:luminance" maskUnits="userSpaceOnUse" x="28" y="12" width="5" height="3">
<path fill-rule="evenodd" clip-rule="evenodd" d="M32.0978 13.1894C32.0978 12.6177 31.6912 12.2344 31.2131 12.1548C31.1685 12.1472 31.0467 12.1357 30.9629 12.1357H28.6575V14.2428H30.9629C31.0467 14.2428 31.1685 14.231 31.2131 14.2234C31.6912 14.1437 32.0978 13.7607 32.0978 13.1894Z" fill="white"/>
</mask>
<g mask="url(#mask3_1_2400)">
<path fill-rule="evenodd" clip-rule="evenodd" d="M32.0978 13.1894C32.0978 12.6177 31.6912 12.2344 31.2131 12.1548C31.1685 12.1472 31.0467 12.1357 30.9629 12.1357H28.6575V14.2428H30.9629C31.0467 14.2428 31.1685 14.231 31.2131 14.2234C31.6912 14.1437 32.0978 13.7607 32.0978 13.1894Z" fill="url(#paint2_linear_1_2400)"/>
</g>
<mask id="mask4_1_2400" style="mask-type:luminance" maskUnits="userSpaceOnUse" x="2" y="2" width="12" height="26">
<path fill-rule="evenodd" clip-rule="evenodd" d="M6.59119 2.01953C4.16438 2.01953 2.19727 3.95722 2.19727 6.34721V17.0354C3.42952 17.6234 4.70269 18.0064 5.99844 18.0064C7.51764 18.0064 8.35233 17.093 8.35233 15.8639V10.8426H12.1313V15.8639C12.1313 17.8279 10.9074 19.403 6.70739 19.403C4.17963 19.403 2.19727 18.8662 2.19727 18.8662V27.9872H8.64176C11.0683 27.9872 13.0357 26.0494 13.0357 23.6592V2.01953H6.59119Z" fill="white"/>
</mask>
<g mask="url(#mask4_1_2400)">
<path fill-rule="evenodd" clip-rule="evenodd" d="M6.59119 2.01953C4.16438 2.01953 2.19727 3.95722 2.19727 6.34721V17.0354C3.42952 17.6234 4.70269 18.0064 5.99844 18.0064C7.51764 18.0064 8.35233 17.093 8.35233 15.8639V10.8426H12.1313V15.8639C12.1313 17.8279 10.9074 19.403 6.70739 19.403C4.17963 19.403 2.19727 18.8662 2.19727 18.8662V27.9872H8.64176C11.0683 27.9872 13.0357 26.0494 13.0357 23.6592V2.01953H6.59119Z" fill="url(#paint3_linear_1_2400)"/>
</g>
<mask id="mask5_1_2400" style="mask-type:luminance" maskUnits="userSpaceOnUse" x="14" y="2" width="12" height="26">
<path fill-rule="evenodd" clip-rule="evenodd" d="M18.7477 2.01953C16.3209 2.01953 14.3538 3.95722 14.3538 6.34721V12.0133C15.4671 11.0726 17.3923 10.4849 20.5202 10.6236C22.1946 10.6971 23.9701 11.1394 23.9701 11.1394V12.9719C23.0815 12.5283 22.0158 12.1174 20.6426 12.0149C18.2688 11.8383 16.8402 12.9809 16.8402 15.0036C16.8402 17.0259 18.2688 18.1683 20.6426 17.9908C22.0158 17.8893 23.0955 17.4674 23.9701 17.0351V18.8666C23.9701 18.8666 22.1946 19.3087 20.5202 19.3836C17.3923 19.5222 15.4671 18.9346 14.3538 17.9938V27.9872H20.7983C23.2247 27.9872 25.1919 26.0494 25.1919 23.6592V2.01953H18.7477Z" fill="white"/>
</mask>
<g mask="url(#mask5_1_2400)">
<path fill-rule="evenodd" clip-rule="evenodd" d="M18.7477 2.01953C16.3209 2.01953 14.3538 3.95722 14.3538 6.34721V12.0133C15.4671 11.0726 17.3923 10.4849 20.5202 10.6236C22.1946 10.6971 23.9701 11.1394 23.9701 11.1394V12.9719C23.0815 12.5283 22.0158 12.1174 20.6426 12.0149C18.2688 11.8383 16.8402 12.9809 16.8402 15.0036C16.8402 17.0259 18.2688 18.1683 20.6426 17.9908C22.0158 17.8893 23.0955 17.4674 23.9701 17.0351V18.8666C23.9701 18.8666 22.1946 19.3087 20.5202 19.3836C17.3923 19.5222 15.4671 18.9346 14.3538 17.9938V27.9872H20.7983C23.2247 27.9872 25.1919 26.0494 25.1919 23.6592V2.01953H18.7477Z" fill="url(#paint4_linear_1_2400)"/>
</g>
<defs>
<linearGradient id="paint0_linear_1_2400" x1="26.5098" y1="19.9863" x2="37.3762" y2="19.9863" gradientUnits="userSpaceOnUse">
<stop stop-color="#5FB345"/>
<stop offset="1" stop-color="#007444"/>
</linearGradient>
<linearGradient id="paint1_linear_1_2400" x1="26.5095" y1="28.0208" x2="37.3762" y2="28.0208" gradientUnits="userSpaceOnUse">
<stop stop-color="#5FB345"/>
<stop offset="1" stop-color="#007444"/>
</linearGradient>
<linearGradient id="paint2_linear_1_2400" x1="26.5096" y1="16.5169" x2="37.3757" y2="16.5169" gradientUnits="userSpaceOnUse">
<stop stop-color="#5FB345"/>
<stop offset="1" stop-color="#007444"/>
</linearGradient>
<linearGradient id="paint3_linear_1_2400" x1="2.18319" y1="28.2221" x2="13.2177" y2="28.2221" gradientUnits="userSpaceOnUse">
<stop stop-color="#006EAB"/>
<stop offset="1" stop-color="#2F2E61"/>
</linearGradient>
<linearGradient id="paint4_linear_1_2400" x1="14.2888" y1="27.8419" x2="25.0056" y2="27.8419" gradientUnits="userSpaceOnUse">
<stop stop-color="#D91F43"/>
<stop offset="1" stop-color="#613033"/>
</linearGradient>
</defs>
</svg>
