<svg width="44" height="28" viewBox="0 0 44 28" fill="none" xmlns="http://www.w3.org/2000/svg">
<path d="M27.9492 3.38623H16.0514V24.6133H27.9492V3.38623Z" fill="#FF5F00"/>
<path d="M16.8069 14C16.8031 9.85774 18.7182 5.94387 22.0003 3.38647C16.4254 -0.964067 8.41902 -0.330863 3.60815 4.84105C-1.20272 10.013 -1.20272 17.987 3.60815 23.1589C8.41902 28.3309 16.4254 28.9641 22.0003 24.6135C18.7183 22.0561 16.8031 18.1423 16.8069 14Z" fill="#EB001B"/>
<path d="M44 13.9999C44 19.1683 41.028 23.8832 36.3457 26.1421C31.6635 28.401 26.0931 27.8074 22.0003 24.6134C25.2794 22.0536 27.1937 18.1413 27.1937 13.9999C27.1937 9.85852 25.2794 5.94622 22.0003 3.38637C26.0931 0.192378 31.6635 -0.4012 36.3457 1.85772C41.028 4.11664 44 8.83148 44 13.9999Z" fill="#F79E1B"/>
<path d="M42.7027 22.3691V21.9314H42.8792V21.8422H42.4297V21.9314H42.6063V22.3691H42.7027ZM43.5754 22.3691V21.8413H43.4376L43.2791 22.2043L43.1206 21.8413H42.9828V22.3691H43.0801V21.971L43.2287 22.3142H43.3296L43.4782 21.9701V22.3691H43.5754Z" fill="#F79E1B"/>
</svg>
