<svg width="44" height="28" viewBox="0 0 44 28" fill="none" xmlns="http://www.w3.org/2000/svg">
<mask id="mask0_1_2357" style="mask-type:luminance" maskUnits="userSpaceOnUse" x="8" y="20" width="21" height="7">
<path d="M8 20.46H28.8V26.57H8V20.46Z" fill="white"/>
</mask>
<g mask="url(#mask0_1_2357)">
<path fill-rule="evenodd" clip-rule="evenodd" d="M28.5 21C28.7667 21.3333 28.8667 21.8 28.8 22.4C28.5333 23.8 27.7 24.5 26.3 24.5H25.6C25.4 24.5 25.3 24.6 25.3 24.8L25 26.4C25 26.5 24.9 26.6 24.8 26.6H23.7C23.6 26.6 23.5 26.5 23.5 26.4L24.4 20.7C24.4 20.6 24.6 20.5 24.7 20.5H26.9C27.6333 20.5 28.1667 20.6667 28.5 21ZM27 21.9C26.8 21.7 26.5 21.7 26.1 21.7H25.9C25.8 21.7 25.8 21.7 25.8 21.8L25.5 23.3H25.9C26.4 23.3 27 23.3 27.1 22.5C27.1667 22.2333 27.1333 22.0333 27 21.9Z" fill="#238EC2"/>
</g>
<mask id="mask1_1_2357" style="mask-type:luminance" maskUnits="userSpaceOnUse" x="8" y="20" width="21" height="7">
<path d="M8 20.46H28.8V26.57H8V20.46Z" fill="white"/>
</mask>
<g mask="url(#mask1_1_2357)">
<path fill-rule="evenodd" clip-rule="evenodd" d="M12.9 21C13.2333 21.3333 13.3333 21.8 13.2 22.4C13 23.8 12.1667 24.5 10.7 24.5H10.1C9.9 24.5 9.8 24.6 9.8 24.8L9.5 26.3C9.5 26.5 9.4 26.6 9.2 26.6H8.2C8.1 26.6 8 26.5 8 26.4L8.9 20.7C8.9 20.6 9 20.5 9.2 20.5H11.4C12.1333 20.5 12.6333 20.6667 12.9 21ZM11.5 21.9C11.3 21.7 10.9 21.7 10.5 21.7H10.4C10.3 21.7 10.2 21.7 10.2 21.8L10 23.3H10.3C10.9 23.3 11.5 23.3 11.6 22.5C11.6667 22.2333 11.6333 22.0333 11.5 21.9Z" fill="#253667"/>
</g>
<path fill-rule="evenodd" clip-rule="evenodd" d="M18 22.6999L17.5 26.2999C17.5 26.4999 17.3 26.5999 17.2 26.5999H16.2C16.1 26.5999 16.1 26.4999 16.1 26.3999V26.0999C16.1 26.0999 15.6 26.6999 14.7 26.6999C14.1 26.6999 13.7 26.4999 13.4 26.0999C13 25.6999 12.9 25.0999 13 24.4999C13.2 23.2999 14.1 22.3999 15.3 22.3999C15.8 22.3999 16.3 22.4999 16.5 22.7999L16.6 22.8999V22.6999C16.7 22.5999 16.7 22.4999 16.8 22.4999H17.9C18 22.4999 18.1 22.5999 18 22.6999ZM16.2 23.7999C16.0667 23.5999 15.8333 23.4999 15.5 23.4999C14.9 23.4999 14.5 23.8999 14.4 24.4999C14.3333 24.8332 14.3667 25.0999 14.5 25.2999C14.7 25.4999 14.9333 25.5999 15.2 25.5999C15.8 25.5999 16.3 25.1999 16.4 24.4999C16.4667 24.2332 16.4 23.9999 16.2 23.7999Z" fill="#253667"/>
<path fill-rule="evenodd" clip-rule="evenodd" d="M33.6 22.6999L33 26.2999C33 26.4999 32.9 26.5999 32.7 26.5999H31.8C31.7 26.5999 31.6 26.4999 31.6 26.3999V26.0999C31.6 26.0999 31.1 26.6999 30.2 26.6999C29.7 26.6999 29.2 26.4999 28.9 26.0999C28.5 25.6999 28.4 25.0999 28.5 24.4999C28.7 23.2999 29.7 22.3999 30.8 22.3999C31.3 22.3999 31.8 22.4999 32.1 22.7999V22.8999L32.2 22.6999C32.2 22.5999 32.3 22.4999 32.4 22.4999H33.4C33.5 22.4999 33.6 22.5999 33.6 22.6999ZM31.8 23.7999C31.6 23.5999 31.3667 23.4999 31.1 23.4999C30.5 23.4999 30 23.8999 29.9 24.4999C29.8333 24.8332 29.9 25.0999 30.1 25.2999C30.2333 25.4999 30.4667 25.5999 30.8 25.5999C31.4 25.5999 31.8 25.1999 32 24.4999C32 24.2332 31.9333 23.9999 31.8 23.7999Z" fill="#238EC2"/>
<mask id="mask2_1_2357" style="mask-type:luminance" maskUnits="userSpaceOnUse" x="18" y="20" width="18" height="8">
<path d="M18.56 20.46H36V28H18.56V20.46Z" fill="white"/>
</mask>
<g mask="url(#mask2_1_2357)">
<path fill-rule="evenodd" clip-rule="evenodd" d="M23.4 22.5H22.4C22.2667 22.5 22.1667 22.5333 22.1 22.6L20.7 24.8L20.1 22.7C20 22.6 19.9 22.5 19.8 22.5H18.7C18.6 22.5 18.5 22.6 18.6 22.7L19.7 26.2L18.6 27.7C18.6 27.8 18.6 28 18.8 28H19.8C19.9333 28 20.0333 27.9667 20.1 27.9L23.6 22.8C23.7 22.7 23.6 22.5 23.4 22.5Z" fill="#253667"/>
</g>
<mask id="mask3_1_2357" style="mask-type:luminance" maskUnits="userSpaceOnUse" x="18" y="20" width="18" height="8">
<path d="M18.56 20.46H36V28H18.56V20.46Z" fill="white"/>
</mask>
<g mask="url(#mask3_1_2357)">
<path fill-rule="evenodd" clip-rule="evenodd" d="M34.6 20.6L33.7 26.4C33.7 26.5 33.8 26.6 33.9 26.6H34.8C35 26.6 35.1 26.5 35.1 26.3L36 20.7C36 20.6 35.9 20.5 35.8 20.5H34.8C34.7 20.5 34.6 20.5 34.6 20.6Z" fill="#238EC2"/>
</g>
<path fill-rule="evenodd" clip-rule="evenodd" d="M28.8 4.6C29 3.2 28.8 2.3 28 1.4C27.2 0.4 25.7 0 23.7 0H18.1C17.7 0 17.4 0.3 17.3 0.7L15 15.7C14.9 16 15.2 16.2 15.5 16.2H18.9L18.7 17.8C18.7 18 18.9 18.3 19.1 18.3H22C22.4 18.3 22.7 18 22.7 17.7L22.8 17.5L23.3 14V13.8C23.4 13.4 23.7 13.2 24 13.2H24.5C27.3 13.2 29.5 12 30.2 8.7C30.4 7.3 30.3 6.1 29.6 5.3C29.4 5.03333 29.1333 4.8 28.8 4.6Z" fill="#238EC2"/>
<path fill-rule="evenodd" clip-rule="evenodd" d="M28.8 4.6C29 3.2 28.8 2.3 28 1.4C27.2 0.4 25.7 0 23.7 0H18.1C17.7 0 17.4 0.3 17.3 0.7L15 15.7C14.9 16 15.2 16.2 15.5 16.2H18.9L19.8 10.7V10.8C19.8 10.4 20.2 10.1 20.6 10.1H22.2C25.5 10.1 28 8.8 28.7 5C28.7667 4.86667 28.8 4.73333 28.8 4.6Z" fill="#20274F"/>
<path fill-rule="evenodd" clip-rule="evenodd" d="M20.7 4.7C20.8 4.4 20.9 4.2 21.1 4.1C21.2333 4.1 21.3333 4.1 21.4 4.1H25.8C26.3333 4.1 26.8333 4.13333 27.3 4.2C27.4333 4.2 27.5667 4.2 27.7 4.2C27.7667 4.26667 27.8667 4.3 28 4.3C28.0667 4.36667 28.1333 4.4 28.2 4.4C28.4 4.46667 28.6 4.53333 28.8 4.6C29 3.2 28.8 2.3 28 1.4C27.2 0.4 25.7 0 23.7 0H18.1C17.7 0 17.4 0.3 17.3 0.7L15 15.7C14.9 16 15.2 16.2 15.5 16.2H18.9L20.7 4.7Z" fill="#253667"/>
</svg>
