<svg width="44" height="28" viewBox="0 0 44 28" fill="none" xmlns="http://www.w3.org/2000/svg">
<path d="M8.75408 0.249023H19.6508C21.1736 0.249023 22.1224 1.50398 21.7628 3.04207L16.6894 25.0344C16.3297 26.5725 14.807 27.8275 13.2842 27.8275H2.38748C0.864693 27.8275 -0.0841767 26.5725 0.275475 25.0344L5.34887 3.04207C5.70852 1.49633 7.22365 0.249023 8.74643 0.249023H8.75408Z" fill="#D10429"/>
<path d="M18.6943 0.249023H31.2362C32.7513 0.249023 32.0626 1.50398 31.7106 3.04207L26.6296 25.0344C26.2776 26.5725 26.3847 27.8275 24.8696 27.8275H12.3277C10.8049 27.8275 9.86365 26.5725 10.2233 25.0344L15.3043 3.04207C15.6563 1.49633 17.1791 0.249023 18.7096 0.249023H18.6943Z" fill="#022E64"/>
<path d="M30.7923 0.249023H41.689C43.2118 0.249023 44.1607 1.50398 43.801 3.04207L38.7277 25.0344C38.368 26.5725 36.8452 27.8275 35.3224 27.8275H24.4257C22.8953 27.8275 21.9541 26.5725 22.3137 25.0344L27.3871 3.04207C27.7468 1.49633 29.2619 0.249023 30.7847 0.249023H30.7923Z" fill="#076F74"/>
<path fill-rule="evenodd" clip-rule="evenodd" d="M32.5753 16.5405L31.2438 20.9788H31.6035L31.3204 21.897H30.9684L30.8765 22.1801H29.6139L29.6981 21.897H27.1346L27.3871 21.0476H27.6473L28.9941 16.5405L29.2619 15.6299H30.5551L30.4174 16.089C30.4174 16.089 30.7617 15.8365 31.0908 15.7523C31.4198 15.6605 33.287 15.6299 33.287 15.6299L33.0115 16.5328H32.5677L32.5753 16.5405ZM29.4303 19.4177C29.4303 19.4177 29.8205 19.2188 30.0348 19.1575C30.249 19.104 30.5628 19.0657 30.5628 19.0657L30.8077 18.2469H29.7823L29.4303 19.4177ZM30.3026 16.5328L29.9659 17.673C29.9659 17.673 30.3409 17.497 30.5551 17.4358C30.7694 17.3822 31.0908 17.3669 31.0908 17.3669L31.3357 16.5405H30.3103L30.3026 16.5328ZM28.9635 20.9788H29.9965L30.2873 19.984H29.2696L28.9635 20.9788Z" fill="#FEFEFE"/>
<path fill-rule="evenodd" clip-rule="evenodd" d="M33.1033 15.6299H34.4807L34.496 16.1502C34.4883 16.2344 34.5572 16.2803 34.7256 16.2803H35.001L34.7485 17.1297H34.0063C33.3635 17.1833 33.1186 16.9001 33.1339 16.5864L33.111 15.6375L33.1033 15.6299ZM33.2717 19.7008H31.9555L32.1774 18.9433H33.6849L33.8991 18.2469H32.4146L32.6671 17.3899H36.7917L36.5315 18.2469H35.1464L34.9322 18.9433H36.3172L36.0877 19.7008H34.5955L34.3277 20.0222H34.9322L35.0852 20.9788C35.1005 21.0782 35.1005 21.1394 35.1311 21.1777C35.1617 21.2083 35.3454 21.2313 35.4525 21.2313H35.6285L35.3454 22.1648H34.8786C34.8097 22.1648 34.695 22.1572 34.5496 22.1572C34.4042 22.1419 34.3123 22.0577 34.2129 22.0118C34.1287 21.9735 33.9986 21.8664 33.968 21.6828L33.8226 20.7262L33.1492 21.6674C32.935 21.9659 32.6365 22.1954 32.1391 22.1954H31.1903L31.4428 21.3614H31.8101C31.9096 21.3614 32.0014 21.3231 32.0779 21.2848C32.1468 21.2542 32.208 21.216 32.2769 21.1165L33.2717 19.7008ZM18.8932 17.6194H22.3673L22.1148 18.4612H20.7297L20.5155 19.1728H21.9388L21.6786 20.0375H20.263L19.911 21.193C19.8727 21.3231 20.2553 21.3384 20.3854 21.3384L21.097 21.2389L20.8139 22.2031H19.2146C19.0922 22.2031 18.9927 22.1878 18.8473 22.1495C18.7172 22.1189 18.656 22.0577 18.5948 21.9659C18.5412 21.8741 18.4494 21.7975 18.5106 21.5909L18.9697 20.0605H18.1816L18.4417 19.1805H19.2299L19.4442 18.4688H18.656L18.9085 17.6271L18.8932 17.6194ZM22.7193 16.1043L22.4591 16.969H20.5078L20.2936 17.1603C20.2017 17.2445 20.1788 17.2139 20.0563 17.2751C19.9492 17.3287 19.7197 17.4434 19.4136 17.4434H18.7937L19.0463 16.6017H19.2376C19.3906 16.6017 19.5054 16.5864 19.559 16.5558C19.6202 16.5175 19.6967 16.4257 19.7656 16.288L20.1176 15.6299H21.5409L21.296 16.1043H22.7193ZM23.2856 15.6375H24.4946L24.3186 16.2497C24.3186 16.2497 24.7012 15.9436 24.969 15.8288C25.2445 15.7294 25.8414 15.6375 25.8414 15.6375L27.808 15.6299L27.1346 17.8873C27.0198 18.2699 26.8897 18.5148 26.8056 18.6372C26.7367 18.7443 26.6525 18.8514 26.4765 18.9509C26.3082 19.0351 26.1628 19.0887 26.0174 19.0963C25.8873 19.104 25.6807 19.1193 25.4129 19.1193H23.5228L22.9948 20.9022C22.9412 21.0782 22.9183 21.1624 22.9489 21.2083C22.9795 21.2542 23.0483 21.3001 23.1325 21.3001L23.9666 21.216L23.6835 22.1954H22.7499C22.4438 22.1954 22.2296 22.1878 22.0842 22.1801C21.9388 22.1648 21.7857 22.1801 21.6863 22.096C21.5944 22.0194 21.4643 21.9123 21.472 21.8128C21.4797 21.7134 21.5179 21.5527 21.5791 21.3308L23.2856 15.6375ZM23.8824 17.9102L23.76 18.3158H25.4894C25.696 18.2928 25.7343 18.3234 25.7496 18.3081L25.8797 17.9102H23.8824ZM23.9819 17.5506L23.9896 17.5353C23.9845 17.5404 23.9819 17.5429 23.9819 17.5429V17.5506ZM25.0379 17.0685C25.191 17.0379 26.1398 17.0532 26.1398 17.0532L26.2776 16.5711H24.2803L23.9896 17.5353C24.0278 17.5047 24.4104 17.1756 25.0379 17.0685Z" fill="#FEFEFE"/>
<path fill-rule="evenodd" clip-rule="evenodd" d="M26.8209 19.2418H26.8132V19.2265L26.8209 19.2418ZM26.7061 19.7698C26.6602 19.9381 26.6143 20.0682 26.4918 20.1753C26.3541 20.2901 26.2087 20.4049 25.8414 20.4049L25.168 20.4432L25.1603 21.0477C25.1527 21.216 25.1986 21.2007 25.2216 21.2313C25.2522 21.2619 25.2828 21.2696 25.3134 21.2849L25.5276 21.2696L26.1628 21.239L25.895 22.1343H25.1603C24.6476 22.1343 24.2574 22.119 24.135 22.0271C24.0125 21.943 23.9972 21.8511 23.9972 21.6751L24.0431 19.2877H25.2216L25.2063 19.7774H25.4894C25.5889 19.7774 25.6577 19.7698 25.696 19.7468C25.7419 19.7238 25.7649 19.6779 25.7802 19.6244L25.895 19.2418H26.8132L26.7061 19.7698ZM10.032 7.29671C10.1391 7.31967 10.4682 7.32732 11.5854 7.31967C11.5777 7.32732 11.5777 7.34263 11.5701 7.36558C11.4323 7.80176 10.6136 11.1381 10.6136 11.1381L10.5217 11.4978C10.3304 12.1865 10.1085 12.9823 9.25913 13.4873C8.77704 13.7781 8.05774 13.9465 7.29252 13.9465C6.69565 13.9465 5.63965 13.8546 5.27234 13.1965C5.14991 12.9976 5.09634 12.7527 5.09634 12.4543L5.22643 11.4442L5.30295 11.1458L6.10643 7.51863C6.10643 7.51863 6.15234 7.31967 6.16 7.28906C6.1753 7.31202 6.45078 7.32732 7.99652 7.31202C7.99652 7.31967 7.99652 7.33498 7.98887 7.35793C7.84347 7.78645 7.0553 11.0004 7.0553 11.0004C7.0553 11.008 6.90226 11.9569 6.90226 11.9569L6.90991 12.1176C6.95582 12.592 7.23895 12.8369 7.744 12.8369C8.05008 12.8369 8.31791 12.7527 8.54747 12.5614C8.94539 12.2324 9.06017 11.7197 9.22852 11.008C9.22852 11.008 9.98608 7.48037 10.032 7.28906V7.29671ZM14.5468 13.9158C14.0035 13.9082 13.8045 13.9082 13.1617 13.9388L13.1388 13.8929C13.1923 13.6404 13.2536 13.4031 13.2995 13.1583L13.3836 12.8216C13.4984 12.3012 13.6132 11.6814 13.6285 11.4978C13.6438 11.3906 13.6744 11.1075 13.3607 11.1075C13.223 11.1075 13.0852 11.1764 12.9475 11.2376C12.871 11.5207 12.7179 12.3012 12.6414 12.6532C12.4807 13.4031 12.473 13.495 12.3965 13.8623L12.3506 13.9082C11.792 13.9005 11.593 13.9005 10.9426 13.9311L10.912 13.8776C11.0191 13.4261 11.1263 12.9823 11.2257 12.5308C11.4936 11.3218 11.5701 10.8626 11.639 10.2428L11.6925 10.2122C12.3276 10.128 12.4807 10.1051 13.1694 9.96732L13.223 10.0285L13.1235 10.4111C13.2383 10.3423 13.353 10.2734 13.4678 10.2122C13.7969 10.0515 14.1489 10.0056 14.3478 10.0056C14.6463 10.0056 14.983 10.0974 15.113 10.4494C15.2431 10.7555 15.1666 11.1381 14.9906 11.9033L14.8988 12.2859C14.7304 13.1353 14.6998 13.2807 14.6003 13.8623L14.5391 13.9082L14.5468 13.9158ZM16.7659 13.9158C16.4369 13.9158 16.2226 13.9082 16.016 13.9158C15.8094 13.9158 15.6104 13.9311 15.3043 13.9388L15.289 13.9158L15.2737 13.8852C15.3579 13.5638 15.3962 13.4567 15.4497 13.3419C15.488 13.2271 15.5263 13.12 15.6028 12.791C15.7023 12.3701 15.7635 12.0717 15.8017 11.8038C15.8476 11.559 15.8783 11.3447 15.9089 11.0922L15.9318 11.0769L15.9548 11.0539C16.2838 11.008 16.4904 10.9774 16.7047 10.9468C16.919 10.9085 17.1409 10.8703 17.4852 10.8091L17.5005 10.8397L17.5082 10.8703L17.3169 11.6661C17.2556 11.9263 17.1868 12.1941 17.1332 12.4543C17.0184 13.0129 16.9572 13.2195 16.9343 13.3725C16.9036 13.5179 16.896 13.5868 16.8501 13.8776L16.8195 13.9005L16.7889 13.9235L16.7659 13.9158ZM21.7169 12.0181C21.6556 12.2783 21.4873 12.9058 21.12 13.319C20.6379 13.8317 19.9951 14.0077 19.3676 14.0077C19.1228 14.0077 18.7402 13.9771 18.48 13.8623C17.623 13.5103 17.7607 12.5767 17.8755 12.0564C17.9903 11.5437 18.1892 11.008 18.6101 10.6178C19.1916 10.0745 19.9339 10.0438 20.2553 10.0438C20.7756 10.0438 21.2807 10.1586 21.5715 10.5336C21.7475 10.7708 21.9005 11.1687 21.7092 12.0181H21.7169ZM20.064 10.9085C19.6278 10.9085 19.4518 11.4442 19.3141 12.087C19.2605 12.3165 19.2223 12.5231 19.2223 12.7221C19.2299 13.1277 19.4977 13.1277 19.5513 13.1277C19.7043 13.1277 19.8421 13.0282 19.9645 12.8598C20.1252 12.6303 20.2553 12.0946 20.2783 11.9569C20.4313 11.3065 20.4007 10.9085 20.064 10.9085ZM35.0623 14.0153C34.3965 14.0077 34.2052 14.0077 33.593 14.0383L33.5548 13.9924C33.7231 13.3572 33.8838 12.7145 34.0369 12.0793C34.2282 11.2452 34.2741 10.8932 34.3353 10.4035L34.3889 10.3652C35.0393 10.2734 35.223 10.2505 35.9116 10.1204L35.927 10.1739C35.8045 10.7019 35.6821 11.2223 35.5596 11.7426C35.3071 12.8369 35.2153 13.3955 35.1235 13.9771L35.0623 14.023V14.0153Z" fill="#FEFEFE"/>
<path fill-rule="evenodd" clip-rule="evenodd" d="M34.9245 12.2171C34.4424 12.7298 33.792 14.0383 32.935 14.0842C32.6901 14.0995 32.4452 14.0689 32.1774 13.9465C31.328 13.6174 31.4657 12.6762 31.5805 12.1635C31.6953 11.6508 31.9019 11.1151 32.3151 10.7325C32.8967 10.1892 33.5854 10.0362 33.8762 10.1586C34.6414 10.4571 34.519 11.3294 34.7103 11.7732C34.8327 12.0564 35.6056 11.2758 35.4143 12.1252C35.3607 12.3701 35.2995 11.8115 34.9245 12.2171ZM34.1134 12.0717C34.2588 11.4212 34.1134 11.031 33.769 11.031C33.3329 11.031 33.1569 11.5666 33.0191 12.1941C32.9656 12.4237 32.9273 12.6303 32.9273 12.8292C32.9426 13.2271 33.2104 13.2271 33.2563 13.2271C33.4017 13.2271 33.6772 13.1277 33.7843 12.967C33.9527 12.7374 34.0751 12.1941 34.1134 12.064V12.0717ZM25.4741 13.9158C24.9231 13.9082 24.7395 13.9082 24.0967 13.9388L24.0737 13.8929C24.1273 13.648 24.1885 13.4031 24.2421 13.1583L24.3186 12.8216C24.4334 12.3012 24.5558 11.6814 24.5635 11.4978C24.5788 11.3906 24.6094 11.1075 24.3033 11.1075C24.1656 11.1075 24.0202 11.1764 23.8901 11.2376C23.8212 11.5207 23.6605 12.3012 23.584 12.6532C23.431 13.4031 23.4156 13.495 23.3391 13.8623L23.2932 13.9082C22.7346 13.9005 22.5356 13.9005 21.8852 13.9311L21.8546 13.8776C21.9617 13.4261 22.0689 12.9823 22.1683 12.5308C22.4438 11.3218 22.505 10.8626 22.5816 10.2428L22.6275 10.2122C23.2626 10.128 23.4233 10.1051 24.1043 9.96732L24.1579 10.0285L24.0661 10.4111C24.1732 10.3423 24.2956 10.2734 24.4028 10.2122C24.7318 10.0515 25.0838 10.0056 25.2828 10.0056C25.5812 10.0056 25.9103 10.0974 26.048 10.4494C26.1781 10.7555 26.0939 11.1381 25.9179 11.9033L25.8261 12.2859C25.6501 13.1353 25.6271 13.2807 25.5276 13.8623L25.4664 13.9082L25.4741 13.9158ZM32.3457 7.87828C32.5064 8.09254 32.56 8.36802 32.56 8.6435C32.56 8.86541 32.5294 9.07202 32.4911 9.24802C32.3228 9.96732 31.9555 10.5642 31.4198 10.9621C30.6316 11.5513 29.6216 11.5513 28.7263 11.5513H28.6344C28.5732 11.5896 28.5043 11.6738 28.5043 11.6738C28.4967 11.712 28.2901 12.5767 28.2901 12.5767C28.2824 12.5767 28.0452 13.7475 28.007 13.9465C27.8233 13.9235 27.4024 13.9235 26.3694 13.9388C26.4153 13.7398 27.433 9.51585 27.433 9.51585C27.433 9.50819 27.8539 7.52628 27.8539 7.52628C27.8539 7.52628 27.8922 7.37324 27.9075 7.28906C28.0911 7.31202 28.5732 7.31967 29.7593 7.30437L30.2184 7.29671C31.1443 7.30437 31.9402 7.31202 32.3457 7.87828ZM30.4021 8.36802C30.3868 8.36802 29.4456 8.28385 29.4456 8.28385L29.2696 8.26854L29.2619 8.35271L29.2466 8.45219C29.2466 8.44454 28.7951 10.4265 28.7951 10.4265L28.7722 10.5259H29.0247C29.3996 10.5259 29.767 10.5106 30.0654 10.3576C30.4327 10.1816 30.7158 9.80663 30.8076 9.3628C30.9224 8.88071 30.7617 8.51341 30.4021 8.36802ZM40.5565 10.0362C40.5565 10.0362 37.8323 14.7576 37.4727 15.5305L37.3732 15.6529C36.8911 15.6529 36.7534 15.6529 36.1106 15.6758L36.0877 15.6146C36.5162 14.9642 36.6156 14.6811 37.0595 13.9465C36.983 13.1277 36.9447 12.8598 36.8758 12.3165C36.8376 11.9951 36.7916 11.6661 36.7534 11.3447C36.6769 10.679 36.6922 10.7708 36.608 10.3499L36.6003 10.3423C36.6003 10.3193 36.6003 10.2964 36.608 10.2658L36.6539 10.2198C37.3043 10.1357 37.3197 10.1127 38.039 9.97497L38.0925 10.0362L38.1843 11.8804C38.192 11.9186 38.192 11.9416 38.192 11.9798C38.567 11.1305 38.5593 11.3677 39.0184 10.2887V10.2964C39.0184 10.2811 39.0261 10.2658 39.0261 10.2581L39.072 10.2122C39.6918 10.128 39.8143 10.1051 40.4876 9.96732L40.5489 10.0285L40.5565 10.0362ZM16.169 10.6866C15.863 10.4953 15.9012 10.1433 16.2609 9.89845C16.6282 9.63828 17.1715 9.58471 17.4852 9.76837C17.7913 9.95202 17.7454 10.304 17.3781 10.5565C17.0184 10.8167 16.4675 10.8626 16.169 10.6866Z" fill="#FEFEFE"/>
<path d="M37.3656 15.6375L36.8376 16.5558C36.6692 16.8695 36.3555 17.1068 35.8657 17.1068L35.0163 17.0914L35.2612 16.265H35.4296C35.5137 16.265 35.575 16.2497 35.6285 16.2268C35.6744 16.2114 35.6974 16.1808 35.7357 16.1349L36.057 15.6299H37.3732L37.3656 15.6375Z" fill="#FEFEFE"/>
</svg>
