<svg width="44" height="28" viewBox="0 0 44 28" fill="none" xmlns="http://www.w3.org/2000/svg">
<path fill-rule="evenodd" clip-rule="evenodd" d="M44 26.3493C44 27.2664 43.2727 28 42.3636 28H1.63636C0.727273 28 0 27.2664 0 26.3493V1.65066C0 0.733624 0.727273 0 1.63636 0H42.3636C43.2727 0 44 0.733624 44 1.65066V26.3493Z" fill="#1A1F71"/>
<path fill-rule="evenodd" clip-rule="evenodd" d="M16.7273 8.13116L11.8182 19.9303H8.60606L6.18182 10.5154C6.06061 9.96522 5.87879 9.72068 5.45455 9.47614C4.72727 9.10933 3.51515 8.68138 2.48485 8.49797L2.54545 8.13116H7.69697C8.36364 8.13116 8.9697 8.55911 9.09091 9.35387L10.3636 16.201L13.5152 8.1923H16.7273V8.13116ZM29.2727 16.0788C29.2727 12.9609 25.0303 12.7774 25.0303 11.4325C25.0303 11.0045 25.4545 10.5766 26.303 10.4543C26.7273 10.3932 27.9394 10.332 29.2727 11.0045L29.8182 8.49797C29.0909 8.25343 28.1818 7.94775 26.9697 7.94775C24 7.94775 21.8788 9.53727 21.8788 11.8604C21.8788 13.5722 23.3939 14.4892 24.5455 15.0395C25.697 15.5897 26.1212 15.9565 26.1212 16.5067C26.1212 17.3015 25.2121 17.6683 24.303 17.6683C22.7879 17.6683 21.8788 17.2403 21.2121 16.9347L20.6667 19.5023C21.3939 19.808 22.6667 20.1137 24 20.1137C27.1515 20.1137 29.2121 18.5242 29.2727 16.0788ZM37.1515 19.9303H39.9394L37.5152 8.13116H34.9091C34.303 8.13116 33.8182 8.49797 33.6364 8.98705L29.0909 19.9303H32.2424L32.8485 18.1574H36.7273L37.1515 19.9303ZM33.7576 15.7731L35.3333 11.3713L36.2424 15.7731H33.7576ZM21.0303 8.13116L18.5455 19.9303H15.5152L18 8.13116H21.0303Z" fill="white"/>
</svg>
