<svg width="196" height="401" viewBox="0 0 196 401" fill="none" xmlns="http://www.w3.org/2000/svg">
<g clip-path="url(#clip0_1_1227)">
<g clip-path="url(#clip1_1_1227)">
<g clip-path="url(#clip2_1_1227)">
<path d="M166.06 0.939941H30.94C15.51 0.939941 2.95999 13.4899 2.95999 28.9199V373C2.95999 388.43 15.51 400.98 30.94 400.98H166.06C181.49 400.98 194.04 388.43 194.04 373V28.9199C194.04 13.4899 181.49 0.939941 166.06 0.939941ZM186.1 373C186.1 384.05 177.11 393.04 166.06 393.04H30.94C19.89 393.04 10.9 384.05 10.9 373V28.9199C10.9 17.8699 19.89 8.87994 30.94 8.87994H49.8C51.15 8.87994 52.25 9.97994 52.25 11.3299V17.8399C52.25 21.4899 55.6 24.4599 59.71 24.4599H137.29C141.4 24.4599 144.75 21.4899 144.75 17.8399V11.3299C144.75 9.97994 145.85 8.87994 147.2 8.87994H166.06C177.11 8.87994 186.1 17.8699 186.1 28.9199V373Z" fill="#CCCCCC"/>
<path d="M114.77 13.49H82.23C81.4 13.49 80.72 14.17 80.72 15C80.72 15.83 81.4 16.51 82.23 16.51H114.77C115.6 16.51 116.28 15.83 116.28 15C116.28 14.17 115.6 13.49 114.77 13.49Z" fill="#444444"/>
<path d="M0.75 52.17V67.68C0.75 68.88 1.72 69.85 2.92 69.85H2.96V49.99H2.92C1.72 49.99 0.75 50.96 0.75 52.16V52.17Z" fill="url(#paint0_linear_1_1227)"/>
<path style="mix-blend-mode:multiply" opacity="0.5" d="M0.75 52.17V67.68C0.75 68.88 1.72 69.85 2.92 69.85H2.96V49.99H2.92C1.72 49.99 0.75 50.96 0.75 52.16V52.17Z" fill="url(#paint1_linear_1_1227)"/>
<path d="M0.75 92.6799V122.05C0.75 123.29 1.75 124.29 2.99 124.29H3.2V90.4399H2.99C1.75 90.4399 0.75 91.4399 0.75 92.6799Z" fill="url(#paint2_linear_1_1227)"/>
<path style="mix-blend-mode:multiply" opacity="0.5" d="M0.75 92.6799V122.05C0.75 123.29 1.75 124.29 2.99 124.29H3.2V90.4399H2.99C1.75 90.4399 0.75 91.4399 0.75 92.6799Z" fill="url(#paint3_linear_1_1227)"/>
<path d="M0.75 135.49V164.86C0.75 166.1 1.75 167.1 2.99 167.1H3.2V133.25H2.99C1.75 133.25 0.75 134.25 0.75 135.49Z" fill="url(#paint4_linear_1_1227)"/>
<path style="mix-blend-mode:multiply" opacity="0.5" d="M0.75 135.49V164.86C0.75 166.1 1.75 167.1 2.99 167.1H3.2V133.25H2.99C1.75 133.25 0.75 134.25 0.75 135.49Z" fill="url(#paint5_linear_1_1227)"/>
<path d="M190.24 28.92V370C190.24 383.34 179.39 394.19 166.05 394.19H30.94C17.6 394.19 6.75 383.34 6.75 370V28.92C6.75 15.58 17.6 4.72998 30.94 4.72998H166.06C179.4 4.72998 190.25 15.58 190.25 28.92H190.24ZM166.05 9.00998H147.19C145.91 9.00998 144.87 10.05 144.87 11.33V17.84C144.87 21.56 141.47 24.58 137.28 24.58H59.71C55.52 24.58 52.12 21.56 52.12 17.84V11.33C52.12 10.05 51.08 9.00998 49.8 9.00998H30.94C19.94 9.00998 11.03 17.92 11.03 28.92V370C11.03 381 19.94 389.91 30.94 389.91H166.06C177.06 389.91 185.97 381 185.97 370V28.92C185.97 17.92 177.06 9.00998 166.06 9.00998H166.05ZM186.09 28.92V370C186.09 381.05 177.1 390.04 166.05 390.04H30.94C19.89 390.04 10.9 381.05 10.9 370V28.92C10.9 17.87 19.89 8.87998 30.94 8.87998H49.8C51.15 8.87998 52.25 9.97998 52.25 11.33V17.84C52.25 21.49 55.6 24.46 59.71 24.46H137.29C141.4 24.46 144.75 21.49 144.75 17.84V11.33C144.75 9.97998 145.85 8.87998 147.2 8.87998H166.06C177.11 8.87998 186.1 17.87 186.1 28.92H186.09ZM185.84 28.92C185.84 18.01 176.97 9.12998 166.05 9.12998H147.19C145.98 9.12998 144.99 10.12 144.99 11.33V17.84C144.99 21.63 141.53 24.71 137.28 24.71H59.71C55.46 24.71 52 21.63 52 17.84V11.33C52 10.12 51.01 9.12998 49.8 9.12998H30.94C20.03 9.12998 11.15 18.01 11.15 28.92V370C11.15 380.91 20.02 389.79 30.94 389.79H166.05C176.96 389.79 185.84 380.91 185.84 370V28.92Z" fill="#09090C"/>
<path d="M194.28 103.52V154.03C195.23 154.03 196 153.04 196 151.82V105.73C196 104.51 195.23 103.52 194.28 103.52Z" fill="url(#paint6_linear_1_1227)"/>
<path style="mix-blend-mode:multiply" opacity="0.5" d="M194.28 103.52V154.03C195.23 154.03 196 153.04 196 151.82V105.73C196 104.51 195.23 103.52 194.28 103.52Z" fill="url(#paint7_linear_1_1227)"/>
<mask id="mask0_1_1227" style="mask-type:luminance" maskUnits="userSpaceOnUse" x="11" y="9" width="175" height="381">
<mask id="mask1_1_1227" style="mask-type:luminance" maskUnits="userSpaceOnUse" x="11" y="9" width="175" height="381">
<mask id="mask2_1_1227" style="mask-type:luminance" maskUnits="userSpaceOnUse" x="11" y="9" width="175" height="381">
<path d="M166.06 9H147.2C145.92 9 144.88 10.04 144.88 11.32V17.83C144.88 21.55 141.48 24.57 137.29 24.57H59.71C55.52 24.57 52.12 21.55 52.12 17.83V11.32C52.12 10.04 51.08 9 49.8 9H30.94C19.94 9 11.03 17.91 11.03 28.91V370C11.03 381 19.94 389.91 30.94 389.91H166.06C177.06 389.91 185.97 381 185.97 370V28.92C185.97 17.92 177.06 9.01 166.06 9.01V9Z" fill="white"/>
</mask>
<g mask="url(#mask2_1_1227)">
<path d="M186.09 28.92V370C186.09 381.05 177.1 390.04 166.05 390.04H30.94C19.89 390.04 10.9 381.05 10.9 370V28.92C10.9 17.87 19.89 8.88 30.94 8.88H49.8C51.15 8.88 52.25 9.98001 52.25 11.33V17.84C52.25 21.49 55.6 24.46 59.71 24.46H137.29C141.4 24.46 144.75 21.49 144.75 17.84V11.33C144.75 9.98001 145.85 8.88 147.2 8.88H166.06C177.11 8.88 186.1 17.87 186.1 28.92H186.09Z" fill="white"/>
</g>
</mask>
<g mask="url(#mask1_1_1227)">
<path d="M185.84 28.92C185.84 18.01 176.97 9.13 166.05 9.13H147.19C145.98 9.13 144.99 10.12 144.99 11.33V17.84C144.99 21.63 141.53 24.71 137.28 24.71H59.71C55.46 24.71 52 21.63 52 17.84V11.33C52 10.12 51.01 9.13 49.8 9.13H30.94C20.03 9.13 11.15 18.01 11.15 28.92V370C11.15 380.91 20.02 389.79 30.94 389.79H166.05C176.96 389.79 185.84 380.91 185.84 370V28.92Z" fill="white"/>
</g>
</mask>
<g mask="url(#mask0_1_1227)">
<path d="M88.97 170.77H30.41C27.6762 170.77 25.46 172.986 25.46 175.72V175.73C25.46 178.464 27.6762 180.68 30.41 180.68H88.97C91.7038 180.68 93.92 178.464 93.92 175.73V175.72C93.92 172.986 91.7038 170.77 88.97 170.77Z" fill="#D0D2D3"/>
<path d="M7.94 113.29H188.55V383.27H7.94V113.29Z" fill="#E8E8E8"/>
<path d="M7.94 5.22998H188.55V138.66H7.94V5.22998Z" fill="url(#paint8_linear_1_1227)"/>
<path d="M7.94 380.44H188.55V394.91H7.94V380.44Z" fill="#FAFAFA"/>
<path d="M174.8 316.09H20.95C18.1941 316.09 15.96 318.324 15.96 321.08V372.32C15.96 375.076 18.1941 377.31 20.95 377.31H174.8C177.556 377.31 179.79 375.076 179.79 372.32V321.08C179.79 318.324 177.556 316.09 174.8 316.09Z" fill="white"/>
<path d="M174.8 231.41H20.95C18.1941 231.41 15.96 233.644 15.96 236.4V302.48C15.96 305.236 18.1941 307.47 20.95 307.47H174.8C177.556 307.47 179.79 305.236 179.79 302.48V236.4C179.79 233.644 177.556 231.41 174.8 231.41Z" fill="white"/>
<path d="M174.8 189.74H20.95C18.1941 189.74 15.96 191.974 15.96 194.73V218.64C15.96 221.396 18.1941 223.63 20.95 223.63H174.8C177.556 223.63 179.79 221.396 179.79 218.64V194.73C179.79 191.974 177.556 189.74 174.8 189.74Z" fill="white"/>
<path d="M178.14 122.316L18.4205 121.842C16.9348 121.837 15.7269 123.038 15.7225 124.524L15.6401 152.314C15.6357 153.799 16.8364 155.007 18.3221 155.012L178.041 155.485C179.527 155.49 180.735 154.289 180.739 152.803L180.822 125.014C180.826 123.528 179.625 122.32 178.14 122.316Z" fill="url(#paint9_linear_1_1227)"/>
<path d="M168.59 128.6H26.44C24.8715 128.6 23.6 129.871 23.6 131.44C23.6 133.008 24.8715 134.28 26.44 134.28H168.59C170.158 134.28 171.43 133.008 171.43 131.44C171.43 129.871 170.158 128.6 168.59 128.6Z" fill="white"/>
<path d="M163.59 137.04H26.44C24.8715 137.04 23.6 138.312 23.6 139.88C23.6 141.449 24.8715 142.72 26.44 142.72H163.59C165.158 142.72 166.43 141.449 166.43 139.88C166.43 138.312 165.158 137.04 163.59 137.04Z" fill="white"/>
<path d="M39.66 145.48H26.44C24.8715 145.48 23.6 146.752 23.6 148.32C23.6 149.888 24.8715 151.16 26.44 151.16H39.66C41.2285 151.16 42.5 149.888 42.5 148.32C42.5 146.752 41.2285 145.48 39.66 145.48Z" fill="white"/>
<path d="M136.9 101.64H59.55C58.4509 101.64 57.56 102.531 57.56 103.63V111.3C57.56 112.399 58.4509 113.29 59.55 113.29H136.9C137.999 113.29 138.89 112.399 138.89 111.3V103.63C138.89 102.531 137.999 101.64 136.9 101.64Z" stroke="white" stroke-width="0.5" stroke-miterlimit="10"/>
<path d="M113.2 106.14H82.51C81.654 106.14 80.96 106.834 80.96 107.69C80.96 108.546 81.654 109.24 82.51 109.24H113.2C114.056 109.24 114.75 108.546 114.75 107.69C114.75 106.834 114.056 106.14 113.2 106.14Z" fill="white"/>
<path d="M136.92 366.17H59.57C58.471 366.17 57.58 367.061 57.58 368.16V375.83C57.58 376.929 58.471 377.82 59.57 377.82H136.92C138.019 377.82 138.91 376.929 138.91 375.83V368.16C138.91 367.061 138.019 366.17 136.92 366.17Z" stroke="#606060" stroke-width="0.5" stroke-miterlimit="10"/>
<path d="M113.22 370.67H82.53C81.6739 370.67 80.98 371.364 80.98 372.22C80.98 373.076 81.6739 373.77 82.53 373.77H113.22C114.076 373.77 114.77 373.076 114.77 372.22C114.77 371.364 114.076 370.67 113.22 370.67Z" fill="#666666"/>
<path d="M51.82 48.29H19.71C18.9479 48.29 18.33 48.9079 18.33 49.67V52.59C18.33 53.3522 18.9479 53.97 19.71 53.97H51.82C52.5822 53.97 53.2 53.3522 53.2 52.59V49.67C53.2 48.9079 52.5822 48.29 51.82 48.29Z" fill="white"/>
<path d="M110.33 33.27H85.79C85.1218 33.27 84.58 33.8118 84.58 34.48V37.74C84.58 38.4083 85.1218 38.95 85.79 38.95H110.33C110.998 38.95 111.54 38.4083 111.54 37.74V34.48C111.54 33.8118 110.998 33.27 110.33 33.27Z" fill="white"/>
<path d="M42.82 73.4399H19.51C18.8583 73.4399 18.33 73.9682 18.33 74.6199V77.9399C18.33 78.5916 18.8583 79.1199 19.51 79.1199H42.82C43.4717 79.1199 44 78.5916 44 77.9399V74.6199C44 73.9682 43.4717 73.4399 42.82 73.4399Z" fill="white"/>
<path d="M35.71 82.26H19.33C18.7777 82.26 18.33 82.7077 18.33 83.26V86.94C18.33 87.4923 18.7777 87.94 19.33 87.94H35.71C36.2623 87.94 36.71 87.4923 36.71 86.94V83.26C36.71 82.7077 36.2623 82.26 35.71 82.26Z" fill="white"/>
<path d="M81.54 57.49H20.21C19.1717 57.49 18.33 58.3317 18.33 59.37V61.29C18.33 62.3283 19.1717 63.17 20.21 63.17H81.54C82.5783 63.17 83.42 62.3283 83.42 61.29V59.37C83.42 58.3317 82.5783 57.49 81.54 57.49Z" fill="white"/>
<path d="M59.06 48.54H56.42C56.2543 48.54 56.12 48.6744 56.12 48.84V52.18C56.12 52.3457 56.2543 52.48 56.42 52.48H59.06C59.2257 52.48 59.36 52.3457 59.36 52.18V48.84C59.36 48.6744 59.2257 48.54 59.06 48.54Z" stroke="white" stroke-width="0.5" stroke-miterlimit="10"/>
<path d="M61.06 50.02H58.42C58.2543 50.02 58.12 50.1543 58.12 50.32V53.66C58.12 53.8257 58.2543 53.96 58.42 53.96H61.06C61.2257 53.96 61.36 53.8257 61.36 53.66V50.32C61.36 50.1543 61.2257 50.02 61.06 50.02Z" stroke="white" stroke-width="0.5" stroke-miterlimit="10"/>
<path d="M17.91 39.4L14.62 36.11L17.91 32.83" stroke="white" stroke-width="0.75" stroke-miterlimit="10" stroke-linecap="round"/>
<path d="M168.24 210.08L170.62 207.71L168.24 205.33" stroke="#4A4A4A" stroke-width="0.75" stroke-miterlimit="10" stroke-linecap="round"/>
<path d="M166.48 36.84C167.104 36.84 167.61 36.334 167.61 35.71C167.61 35.0859 167.104 34.58 166.48 34.58C165.856 34.58 165.35 35.0859 165.35 35.71C165.35 36.334 165.856 36.84 166.48 36.84Z" fill="white"/>
<path d="M170.35 36.84C170.974 36.84 171.48 36.334 171.48 35.71C171.48 35.0859 170.974 34.58 170.35 34.58C169.726 34.58 169.22 35.0859 169.22 35.71C169.22 36.334 169.726 36.84 170.35 36.84Z" fill="white"/>
<path d="M174.05 36.84C174.674 36.84 175.18 36.334 175.18 35.71C175.18 35.0859 174.674 34.58 174.05 34.58C173.426 34.58 172.92 35.0859 172.92 35.71C172.92 36.334 173.426 36.84 174.05 36.84Z" fill="white"/>
<path d="M86.13 173.41H19.88C18.1237 173.41 16.7 174.834 16.7 176.59C16.7 178.346 18.1237 179.77 19.88 179.77H86.13C87.8863 179.77 89.31 178.346 89.31 176.59C89.31 174.834 87.8863 173.41 86.13 173.41Z" fill="#D0D2D3"/>
<path d="M115.4 205.27H41.65C39.8937 205.27 38.47 206.694 38.47 208.45C38.47 210.206 39.8937 211.63 41.65 211.63H115.4C117.156 211.63 118.58 210.206 118.58 208.45C118.58 206.694 117.156 205.27 115.4 205.27Z" fill="#D0D2D3"/>
<path d="M48.7 239.61H25.6C23.8437 239.61 22.42 241.034 22.42 242.79C22.42 244.546 23.8437 245.97 25.6 245.97H48.7C50.4563 245.97 51.88 244.546 51.88 242.79C51.88 241.034 50.4563 239.61 48.7 239.61Z" fill="#D0D2D3"/>
<path d="M125.12 259.38H103.58C102.172 259.38 101.03 260.522 101.03 261.93C101.03 263.338 102.172 264.48 103.58 264.48H125.12C126.528 264.48 127.67 263.338 127.67 261.93C127.67 260.522 126.528 259.38 125.12 259.38Z" fill="#EDEDED"/>
<path d="M113.53 268.46H102.9C101.867 268.46 101.03 269.297 101.03 270.33V271.69C101.03 272.723 101.867 273.56 102.9 273.56H113.53C114.563 273.56 115.4 272.723 115.4 271.69V270.33C115.4 269.297 114.563 268.46 113.53 268.46Z" fill="#D0D2D3"/>
<path d="M125.12 288.1H103.58C102.172 288.1 101.03 289.242 101.03 290.65C101.03 292.058 102.172 293.2 103.58 293.2H125.12C126.528 293.2 127.67 292.058 127.67 290.65C127.67 289.242 126.528 288.1 125.12 288.1Z" fill="#EDEDED"/>
<path d="M113.53 297.18H102.9C101.867 297.18 101.03 298.017 101.03 299.05V300.41C101.03 301.443 101.867 302.28 102.9 302.28H113.53C114.563 302.28 115.4 301.443 115.4 300.41V299.05C115.4 298.017 114.563 297.18 113.53 297.18Z" fill="#D0D2D3"/>
<path d="M30.16 204.18V208.68M31.63 207.45L30.16 208.92L28.69 207.45" stroke="#D0D2D3" stroke-width="0.5" stroke-miterlimit="10" stroke-linecap="round"/>
<path d="M31.34 205.98H32.81V210.91H27.49V205.98H29.03" stroke="#D0D2D3" stroke-width="0.5" stroke-miterlimit="10" stroke-linecap="round"/>
<path d="M162.96 240.59H167.32M162.96 245.09H165.14M162.96 242.84H168.68" stroke="#4A4A4A" stroke-linecap="round" stroke-linejoin="round"/>
<path d="M53.84 324.54H26.28C24.706 324.54 23.43 325.814 23.43 327.385C23.43 328.956 24.706 330.23 26.28 330.23H53.84C55.414 330.23 56.69 328.956 56.69 327.385C56.69 325.814 55.414 324.54 53.84 324.54Z" fill="#D0D2D3"/>
<path d="M75.81 295.54H38.37C36.796 295.54 35.52 296.814 35.52 298.385C35.52 299.956 36.796 301.23 38.37 301.23H75.81C77.384 301.23 78.66 299.956 78.66 298.385C78.66 296.814 77.384 295.54 75.81 295.54Z" fill="#D0D2D3"/>
<path d="M62.48 284.91H51.71C50.136 284.91 48.86 286.184 48.86 287.755C48.86 289.326 50.136 290.6 51.71 290.6H62.48C64.054 290.6 65.33 289.326 65.33 287.755C65.33 286.184 64.054 284.91 62.48 284.91Z" fill="#D0D2D3"/>
<path d="M68.19 347.9H26.28C24.706 347.9 23.43 349.174 23.43 350.745C23.43 352.316 24.706 353.59 26.28 353.59H68.19C69.764 353.59 71.04 352.316 71.04 350.745C71.04 349.174 69.764 347.9 68.19 347.9Z" fill="#D0D2D3"/>
<path d="M169.34 346.46H128.32C127.265 346.46 126.41 347.315 126.41 348.37V352.71C126.41 353.765 127.265 354.62 128.32 354.62H169.34C170.395 354.62 171.25 353.765 171.25 352.71V348.37C171.25 347.315 170.395 346.46 169.34 346.46Z" fill="#61CCE5"/>
<path d="M165.49 348.85H132.17C131.237 348.85 130.48 349.607 130.48 350.54C130.48 351.473 131.237 352.23 132.17 352.23H165.49C166.423 352.23 167.18 351.473 167.18 350.54C167.18 349.607 166.423 348.85 165.49 348.85Z" fill="white"/>
<path d="M169.24 326.05H163.45C163.124 326.05 162.86 326.314 162.86 326.64V330.52C162.86 330.846 163.124 331.11 163.45 331.11H169.24C169.566 331.11 169.83 330.846 169.83 330.52V326.64C169.83 326.314 169.566 326.05 169.24 326.05Z" fill="#606060"/>
<path d="M164.01 325.23H168.67M164.65 324.42H168.03" stroke="#606060" stroke-width="0.5" stroke-linecap="round" stroke-linejoin="round"/>
<path d="M31.42 291.14C31.42 276.41 43.36 264.48 58.08 264.48C72.8 264.48 84.74 276.42 84.74 291.14" stroke="#61CCE5" stroke-width="4.55" stroke-miterlimit="10" stroke-linecap="round"/>
<mask id="mask3_1_1227" style="mask-type:luminance" maskUnits="userSpaceOnUse" x="99" y="44" width="80" height="49">
<path d="M172.78 44H105.01C101.807 44 99.21 46.5967 99.21 49.8V86.63C99.21 89.8333 101.807 92.43 105.01 92.43H172.78C175.983 92.43 178.58 89.8333 178.58 86.63V49.8C178.58 46.5967 175.983 44 172.78 44Z" fill="white"/>
</mask>
<g mask="url(#mask3_1_1227)">
<path d="M99.38 43.37H178.27V92.52H99.38V43.37Z" fill="url(#paint10_linear_1_1227)"/>
<path d="M162.23 55.7C162.21 55.62 162.14 55.56 162.04 55.55H161.76C161.64 55.55 161.55 55.6501 161.55 55.7701V56.94C161.55 56.95 161.55 56.96 161.57 56.96H161.68V55.94C161.68 55.8 161.79 55.69 161.93 55.69H162.22L162.23 55.7Z" fill="#FFFEFE"/>
<path d="M167.92 57.88H161.04C160.681 57.88 160.39 58.171 160.39 58.53V65.41C160.39 65.769 160.681 66.06 161.04 66.06H167.92C168.279 66.06 168.57 65.769 168.57 65.41V58.53C168.57 58.171 168.279 57.88 167.92 57.88Z" fill="#0099C7"/>
<path d="M162.32 66.3499V66.5099C162.32 66.5499 162.32 66.5499 162.36 66.5499H162.42C162.44 66.5499 162.44 66.5499 162.44 66.5699V67.7799C162.44 67.8699 162.4 67.9399 162.33 67.9899C162.29 68.0199 162.25 68.0299 162.2 68.0299H161.93C161.84 68.0299 161.76 67.9899 161.72 67.8999C161.74 67.8799 161.76 67.8799 161.78 67.8799H162.04C162.14 67.8799 162.21 67.8299 162.27 67.7499C162.27 67.7399 162.28 67.7299 162.29 67.7199V67.6999H162.26C162.26 67.6999 162.25 67.7199 162.24 67.7199C162.19 67.7999 162.12 67.8399 162.03 67.8399H161.77C161.74 67.8399 161.7 67.8399 161.69 67.7999V66.6099C161.69 66.5399 161.71 66.5299 161.77 66.5299H162.16C162.22 66.5299 162.24 66.5299 162.24 66.4699C162.24 66.4599 162.24 66.4399 162.25 66.4299C162.27 66.4299 162.27 66.4499 162.28 66.4599V67.4499C162.28 67.4699 162.28 67.5199 162.29 67.5199C162.32 67.5199 162.31 67.4799 162.31 67.4499V66.4499C162.31 66.4199 162.31 66.3899 162.33 66.3699L162.32 66.3499ZM164.56 66.5499H164.66C164.69 66.5499 164.69 66.5599 164.69 66.5799V67.7599C164.69 67.8399 164.67 67.9199 164.61 67.9699C164.56 68.0099 164.51 68.0399 164.45 68.0399H164.17C164.08 68.0399 164.01 67.9899 163.97 67.9099C163.99 67.8899 164.01 67.8899 164.03 67.8899H164.29C164.39 67.8899 164.46 67.8399 164.52 67.7599C164.52 67.7599 164.53 67.7399 164.53 67.7299V67.6999H164.5C164.49 67.7099 164.48 67.7199 164.48 67.7399C164.44 67.7999 164.38 67.8399 164.31 67.8399H164.01C163.98 67.8399 163.94 67.8399 163.93 67.7999V66.6199C163.93 66.5399 163.95 66.5299 164.02 66.5299H164.44C164.46 66.5299 164.48 66.5299 164.5 66.5399C164.52 66.5699 164.52 66.5999 164.52 66.6299V67.4799C164.52 67.4899 164.52 67.5099 164.54 67.5099C164.56 67.5099 164.56 67.4899 164.56 67.4799V66.6299C164.56 66.5999 164.56 66.5699 164.58 66.5499H164.56ZM170.32 63.7499C170.41 63.7899 170.47 63.8599 170.47 63.9699V64.2399C170.47 64.3699 170.37 64.4899 170.21 64.4899H169.04C168.98 64.4899 168.98 64.4899 168.98 64.4299C168.98 64.3599 168.98 64.3699 168.92 64.3599H168.78C168.8 64.3299 168.83 64.3399 168.86 64.3399H169.9C169.91 64.3399 169.92 64.3399 169.92 64.3199C169.92 64.3099 169.92 64.2999 169.9 64.2999H169.05C168.99 64.2999 168.94 64.3099 168.88 64.2999C168.86 64.2999 168.83 64.2999 168.83 64.2699C168.85 64.2499 168.87 64.2499 168.9 64.2499C168.95 64.2499 168.96 64.2499 168.96 64.1899V63.7699C168.96 63.7099 168.98 63.6899 169.04 63.6899H170.21C170.24 63.6899 170.25 63.7199 170.26 63.7399C170.27 63.7899 170.26 63.8299 170.26 63.8799V64.0299C170.26 64.1199 170.22 64.1899 170.14 64.2399H170.12C170.12 64.2399 170.1 64.2699 170.11 64.2899C170.11 64.3099 170.13 64.2999 170.14 64.2899C170.18 64.2699 170.21 64.2499 170.23 64.2199C170.28 64.1599 170.3 64.0899 170.3 64.0199V63.7599C170.3 63.7499 170.3 63.7299 170.31 63.7199L170.32 63.7499ZM170.32 60.3899C170.41 60.4299 170.46 60.4999 170.47 60.5999V60.8999C170.47 61.0199 170.35 61.1199 170.22 61.1299H169.03C168.99 61.1299 168.99 61.1299 168.99 61.0899V60.9999C169.01 60.9699 169.04 60.9799 169.07 60.9799H169.91C169.92 60.9799 169.93 60.9799 169.93 60.9599C169.93 60.9499 169.92 60.9399 169.91 60.9399H169.06C169.03 60.9399 169 60.9399 168.98 60.9199C168.97 60.8999 168.97 60.8799 168.97 60.8599V60.4399C168.97 60.3599 168.99 60.3399 169.07 60.3399H170.23C170.26 60.3399 170.28 60.3799 170.28 60.3999C170.29 60.5099 170.3 60.6299 170.28 60.7399C170.27 60.8099 170.23 60.8599 170.17 60.8999C170.17 60.8999 170.15 60.9099 170.14 60.9199V60.9499H170.16C170.18 60.9499 170.2 60.9299 170.22 60.9199C170.3 60.8599 170.33 60.7799 170.33 60.6799V60.4299C170.33 60.4099 170.33 60.3999 170.34 60.3899H170.32ZM170.37 61.5299C170.44 61.5899 170.48 61.6599 170.48 61.7599V61.9899C170.48 62.1299 170.36 62.2499 170.23 62.2499H169.04C169 62.2499 168.99 62.2499 168.99 62.2099V62.1299C169.01 62.1099 169.04 62.1099 169.07 62.1099H169.92C169.92 62.1099 169.94 62.1099 169.94 62.0899C169.94 62.0799 169.94 62.0699 169.92 62.0699H169.07C169.04 62.0699 169.01 62.0699 168.99 62.0499C168.98 62.0299 168.98 62.0099 168.98 61.9899V61.5499C168.98 61.4799 169 61.4699 169.06 61.4599H170.23C170.23 61.4599 170.26 61.4799 170.27 61.4999C170.28 61.5299 170.29 61.5599 170.29 61.5899V61.7999C170.29 61.8999 170.25 61.9799 170.16 62.0199H170.15C170.15 62.0199 170.13 62.0499 170.14 62.0599C170.14 62.0699 170.16 62.0599 170.17 62.0599C170.25 62.0199 170.3 61.9599 170.32 61.8699C170.34 61.7599 170.33 61.6599 170.32 61.5499V61.4899H170.34C170.34 61.4899 170.36 61.4999 170.37 61.5099V61.5299ZM166.8 66.5499H166.9C166.9 66.5499 166.93 66.5499 166.93 66.5799V67.7799C166.93 67.9499 166.79 68.0599 166.66 68.0499H166.42C166.375 68.0512 166.33 68.0397 166.291 68.0167C166.252 67.9937 166.221 67.9601 166.2 67.9199C166.22 67.8999 166.24 67.8999 166.26 67.8999H166.52C166.63 67.8999 166.7 67.8399 166.75 67.7499C166.75 67.7399 166.77 67.7199 166.75 67.7099C166.73 67.6999 166.72 67.7099 166.71 67.7299C166.66 67.8199 166.58 67.8599 166.48 67.8599H166.23C166.2 67.8599 166.16 67.8599 166.15 67.8199V66.6299C166.15 66.5599 166.17 66.5499 166.23 66.5499H166.62C166.67 66.5499 166.7 66.5499 166.7 66.4899C166.7 66.4799 166.7 66.4599 166.71 66.4499C166.73 66.4499 166.73 66.4699 166.74 66.4799V67.4699C166.74 67.4899 166.73 67.5299 166.76 67.5399C166.8 67.5399 166.78 67.4999 166.78 67.4699V66.6599C166.78 66.6299 166.78 66.5999 166.8 66.5799V66.5499ZM165.68 66.5499H165.78C165.81 66.5499 165.81 66.5499 165.81 66.5799V67.7599C165.81 67.8199 165.8 67.8799 165.76 67.9299C165.71 67.9999 165.65 68.0299 165.57 68.0299H165.3C165.21 68.0299 165.13 67.9899 165.09 67.8999C165.11 67.8799 165.13 67.8799 165.15 67.8799H165.41C165.51 67.8799 165.59 67.8299 165.64 67.7399C165.64 67.7299 165.66 67.7099 165.64 67.6899C165.62 67.6799 165.61 67.6899 165.6 67.7099C165.55 67.7999 165.47 67.8399 165.37 67.8299H165.12C165.09 67.8299 165.05 67.8299 165.04 67.7899V66.5999C165.04 66.5299 165.06 66.5199 165.12 66.5199H165.56C165.58 66.5199 165.6 66.5199 165.62 66.5299C165.64 66.5599 165.64 66.5899 165.64 66.6199V67.4899C165.64 67.4899 165.64 67.5099 165.66 67.5099C165.67 67.5099 165.68 67.5099 165.68 67.4899V66.6199C165.68 66.5899 165.68 66.5599 165.7 66.5399L165.68 66.5499ZM163.44 66.5399H163.53C163.56 66.5399 163.56 66.5399 163.56 66.5799V67.7699C163.56 67.8799 163.51 67.9599 163.42 68.0099C163.38 68.0299 163.35 68.0399 163.31 68.0399H163.05C163.005 68.0412 162.96 68.0297 162.921 68.0067C162.882 67.9837 162.851 67.9501 162.83 67.9099C162.85 67.8899 162.87 67.8899 162.89 67.8899H163.15C163.25 67.8899 163.33 67.8299 163.38 67.7399C163.38 67.7299 163.4 67.7099 163.38 67.6999C163.36 67.6899 163.35 67.6999 163.34 67.7199C163.29 67.8099 163.21 67.8499 163.11 67.8399H162.86C162.83 67.8399 162.79 67.8399 162.78 67.7999V66.5999C162.78 66.5299 162.79 66.5199 162.86 66.5199H163.29C163.31 66.5199 163.33 66.5199 163.35 66.5299C163.37 66.5499 163.37 66.5799 163.37 66.6099V67.4699C163.37 67.4799 163.37 67.4999 163.39 67.4999C163.41 67.4999 163.41 67.4799 163.41 67.4699V66.6099C163.41 66.5799 163.41 66.5499 163.43 66.5299L163.44 66.5399ZM170.32 59.2699C170.41 59.3099 170.46 59.3799 170.47 59.4799V59.7799C170.47 59.8999 170.36 59.9999 170.23 60.0099H169.02C169 60.0099 168.98 60.0099 168.99 59.9799V59.9199C168.99 59.8999 168.99 59.8899 168.96 59.8899H168.77C168.79 59.8599 168.83 59.8699 168.85 59.8699H169.91C169.91 59.8699 169.93 59.8699 169.92 59.8499L169.91 59.8399H168.92C168.89 59.8399 168.86 59.8399 168.84 59.8199C168.85 59.7899 168.88 59.7999 168.9 59.7999C168.92 59.7999 168.95 59.7999 168.97 59.7899C168.98 59.7699 168.98 59.7599 168.98 59.7399V59.3099C168.98 59.2799 168.99 59.2599 169.02 59.2599H170.22C170.25 59.2599 170.25 59.2799 170.26 59.2999C170.27 59.3299 170.27 59.3599 170.27 59.3899V59.5899C170.27 59.6899 170.23 59.7599 170.15 59.8199H170.13C170.13 59.8199 170.11 59.8499 170.12 59.8599C170.12 59.8799 170.14 59.8699 170.15 59.8599C170.19 59.8399 170.23 59.8099 170.26 59.7699C170.3 59.7099 170.32 59.6499 170.31 59.5799V59.3299C170.31 59.3199 170.31 59.2999 170.32 59.2899V59.2699ZM159.52 59.2399H159.61C159.66 59.2399 159.66 59.2399 159.66 59.2899V59.9599C159.66 59.9999 159.66 60.0099 159.62 60.0099H158.43C158.33 60.0099 158.25 59.9599 158.2 59.8699C158.2 59.8699 158.2 59.8499 158.18 59.8499C158.16 59.8299 158.18 59.7999 158.16 59.7699V59.4699C158.16 59.3399 158.29 59.2299 158.42 59.2299H159.37C159.39 59.2299 159.42 59.2299 159.44 59.2499C159.45 59.2699 159.45 59.2899 159.45 59.3099V59.7399C159.45 59.8099 159.44 59.8299 159.36 59.8299H158.41C158.39 59.8299 158.35 59.8299 158.35 59.8399C158.35 59.8699 158.39 59.8599 158.41 59.8599H159.41C159.49 59.8599 159.49 59.8599 159.49 59.7799V59.3199C159.49 59.2899 159.49 59.2699 159.51 59.2399H159.52ZM159.52 61.4799H159.63C159.65 61.4799 159.66 61.4799 159.66 61.5099V62.2199C159.66 62.2399 159.66 62.2499 159.63 62.2499H158.46C158.4 62.2499 158.34 62.2399 158.29 62.2099H158.28C158.28 62.2099 158.25 62.1899 158.24 62.1699L158.21 62.1099H158.19C158.18 62.0799 158.18 62.0499 158.17 62.0299V61.7599C158.17 61.6099 158.28 61.4899 158.43 61.4899H159.37C159.4 61.4899 159.43 61.4899 159.45 61.5099C159.46 61.5299 159.46 61.5499 159.46 61.5699V61.9999C159.46 62.0699 159.45 62.0899 159.37 62.0899H158.37C158.36 62.0899 158.35 62.0899 158.35 62.1099C158.35 62.1199 158.36 62.1199 158.37 62.1299H159.46C159.46 62.1299 159.5 62.1199 159.5 62.0899V61.5799C159.5 61.5599 159.5 61.5299 159.52 61.5099V61.4799ZM158.32 61.0999C158.272 61.0778 158.23 61.0433 158.2 60.9999C158.2 60.9899 158.2 60.9699 158.17 60.9699C158.15 60.9499 158.17 60.9199 158.15 60.8999V60.5899C158.15 60.4699 158.24 60.3799 158.36 60.3599C158.4 60.3599 158.44 60.3499 158.48 60.3499H159.36C159.39 60.3499 159.41 60.3499 159.44 60.3699C159.45 60.3899 159.45 60.4099 159.45 60.4299V60.8599C159.45 60.9299 159.44 60.9499 159.36 60.9499H158.42C158.4 60.9499 158.35 60.9299 158.35 60.9699C158.35 60.9999 158.39 60.9899 158.42 60.9899H159.44C159.48 60.9899 159.49 60.9799 159.49 60.9399V60.4399C159.49 60.4199 159.49 60.3999 159.51 60.3799H159.61C159.64 60.3799 159.65 60.3799 159.65 60.4199V61.1299C159.64 61.1499 159.62 61.1399 159.6 61.1399H158.44C158.4 61.1399 158.35 61.1399 158.31 61.1199L158.32 61.0999ZM159.52 63.7199H159.63C159.65 63.7199 159.66 63.7199 159.66 63.7499V64.4299C159.66 64.4799 159.66 64.4799 159.61 64.4799H158.43C158.33 64.4799 158.25 64.4299 158.2 64.3399C158.2 64.3399 158.2 64.3199 158.18 64.3199C158.16 64.2999 158.18 64.2699 158.16 64.2499V63.9299C158.16 63.8299 158.22 63.7599 158.31 63.7299C158.36 63.7199 158.41 63.7099 158.46 63.7099H159.35C159.43 63.7099 159.43 63.7099 159.43 63.7899V64.1899C159.43 64.2599 159.43 64.2599 159.36 64.2599H158.41C158.39 64.2599 158.36 64.2599 158.34 64.2699C158.33 64.2899 158.34 64.2999 158.35 64.3099H159.41C159.46 64.3099 159.47 64.3099 159.47 64.2499V63.7599C159.47 63.7399 159.47 63.7099 159.49 63.6899L159.52 63.7199ZM170.32 62.6199C170.41 62.6599 170.46 62.7299 170.47 62.8299V63.1299C170.47 63.2299 170.41 63.2999 170.31 63.3399H170.2C170.2 63.3399 170.16 63.3299 170.13 63.3299H168.99C168.96 63.2699 168.98 63.2399 169.04 63.2399H169.85C169.87 63.2399 169.9 63.2399 169.92 63.2199C169.93 63.1999 169.92 63.1899 169.9 63.1799H169.04C169.01 63.1799 168.98 63.1799 168.96 63.1599V62.6699C168.96 62.5999 168.98 62.5799 169.05 62.5799H170.21C170.23 62.5799 170.24 62.5999 170.25 62.6199C170.26 62.6499 170.26 62.6799 170.26 62.7099V62.9299C170.26 63.0199 170.22 63.0999 170.14 63.1499C170.06 63.1999 170.11 63.1699 170.12 63.1899C170.13 63.2099 170.15 63.1899 170.17 63.1899C170.22 63.1699 170.25 63.1299 170.28 63.0899C170.31 63.0399 170.32 62.9799 170.32 62.9199V62.6699C170.32 62.6599 170.32 62.6399 170.33 62.6299L170.32 62.6199ZM159.52 62.5999H159.59C159.637 62.5999 159.66 62.6266 159.66 62.6799V63.2499C159.66 63.2966 159.637 63.3199 159.59 63.3199H158.51H159.65V63.3299C159.65 63.3399 159.62 63.3299 159.61 63.3299H158.36C158.29 63.3099 158.25 63.2699 158.21 63.2099C158.21 63.2099 158.21 63.1899 158.19 63.1899C158.17 63.1699 158.17 63.1399 158.17 63.1099V62.8299C158.17 62.6799 158.28 62.5699 158.43 62.5699H159.37C159.4 62.5699 159.43 62.5699 159.45 62.5899C159.46 62.6099 159.46 62.6299 159.46 62.6499V63.0799C159.46 63.1499 159.45 63.1699 159.37 63.1699H158.4C158.37 63.1699 158.35 63.1799 158.35 63.2099C158.35 63.2299 158.37 63.2199 158.38 63.2199H159.46C159.48 63.2199 159.49 63.2199 159.5 63.2099V62.6599C159.5 62.6299 159.5 62.6099 159.52 62.5899V62.5999ZM161.68 56.9699V55.9599C161.678 55.9256 161.683 55.8912 161.694 55.8588C161.706 55.8263 161.724 55.7966 161.747 55.7713C161.771 55.7461 161.799 55.7259 161.83 55.7119C161.862 55.6979 161.896 55.6904 161.93 55.6899H162.22C162.24 55.6899 162.25 55.7099 162.25 55.7299C162.25 55.7599 162.26 55.7999 162.26 55.8299V56.9299C162.26 56.9799 162.24 56.9999 162.19 56.9999H161.73C161.71 56.9999 161.69 56.9999 161.68 56.9799V56.9699Z" fill="#FFB64F"/>
<path d="M160.09 61.84V64.17C160.09 64.22 160.07 64.24 160.03 64.22C160.03 64.22 160.02 64.22 160.02 64.2V59.5C160.02 59.46 160.02 59.46 160.06 59.46C160.08 59.46 160.09 59.46 160.09 59.49V61.85V61.84Z" fill="#231704"/>
<path d="M168.19 57.9599C168.19 57.9599 168.2 57.9799 168.19 57.9899C168.18 57.9999 168.16 58.0099 168.14 58.0099C168.13 58.0099 168.12 57.9999 168.12 57.9899C168.1 57.9599 168.09 57.9299 168.06 57.8999C168.028 57.8774 168.004 57.8461 167.99 57.8099C167.99 57.8099 167.96 57.7799 167.94 57.7699C167.85 57.6927 167.738 57.6471 167.62 57.6399H163.61C163.61 57.6399 163.55 57.6199 163.57 57.5799C163.57 57.5799 163.57 57.5699 163.59 57.5699H167.57C167.84 57.5699 168.04 57.6899 168.17 57.9199C168.17 57.9299 168.18 57.9499 168.19 57.9599Z" fill="#211603"/>
<path d="M162.02 57.58H163.37L163.41 57.62C163.41 57.62 163.41 57.66 163.36 57.66H160.72C160.571 57.6558 160.425 57.7055 160.31 57.8C160.16 57.92 160.08 58.09 160.08 58.28V59.28C160.08 59.31 160.08 59.31 160.05 59.31C160 59.31 160.01 59.31 160.01 59.27V58.28C160.01 57.97 160.22 57.69 160.53 57.61C160.59 57.59 160.65 57.59 160.71 57.59H162.01L162.02 57.58Z" fill="#211602"/>
<path d="M160.52 65.8L160.35 65.72C160.35 65.72 160.31 65.69 160.3 65.68C160.211 65.6165 160.139 65.5323 160.091 65.4347C160.042 65.3371 160.018 65.2291 160.02 65.12V64.38C160.02 64.36 160.02 64.36 160.04 64.36H160.07C160.09 64.36 160.1 64.36 160.1 64.38V65.09C160.1 65.35 160.22 65.54 160.45 65.67C160.55 65.72 160.65 65.73 160.75 65.73H163.64C163.69 65.73 163.7 65.74 163.69 65.79C163.69 65.8 163.69 65.81 163.67 65.81H160.74C160.67 65.81 160.6 65.8 160.54 65.79L160.52 65.8Z" fill="#201504"/>
<path d="M166.16 67.82C166.16 67.82 166.22 67.84 166.25 67.84H166.5C166.59 67.84 166.66 67.79 166.7 67.71C166.7 67.7 166.7 67.68 166.72 67.68C166.74 67.68 166.76 67.68 166.77 67.7C166.78 67.7 166.77 67.72 166.77 67.73C166.73 67.84 166.62 67.91 166.5 67.92H166.15C166.096 67.897 166.048 67.8599 166.013 67.8124C165.978 67.7649 165.956 67.7088 165.95 67.65V66.41C165.95 66.35 165.95 66.36 166 66.36H166.76C166.78 66.36 166.79 66.36 166.79 66.39V67.51C166.79 67.55 166.79 67.55 166.75 67.55C166.71 67.55 166.71 67.55 166.71 67.5V66.44C166.68 66.46 166.66 66.45 166.63 66.45H166.12C166.06 66.45 166.05 66.45 166.05 66.52V67.62C166.05 67.69 166.07 67.75 166.13 67.79C166.14 67.79 166.15 67.81 166.16 67.83V67.82Z" fill="#201602"/>
<path d="M168.98 60.92H169.91C169.95 60.92 169.97 60.94 169.95 60.98C169.95 60.98 169.95 60.99 169.93 60.99H168.81C168.76 60.99 168.76 60.99 168.76 60.94V60.19C168.76 60.15 168.76 60.15 168.8 60.15H170.03C170.17 60.15 170.27 60.23 170.31 60.36V60.38C170.33 60.48 170.32 60.59 170.32 60.69C170.32 60.82 170.24 60.93 170.13 60.97C170.1 60.98 170.1 60.98 170.09 60.95C170.08 60.91 170.08 60.91 170.12 60.89C170.2 60.85 170.25 60.79 170.25 60.7V60.44C170.25 60.41 170.25 60.38 170.23 60.35C170.23 60.35 170.22 60.35 170.21 60.34C170.14 60.25 170.05 60.24 169.95 60.25H168.9C168.87 60.25 168.86 60.26 168.86 60.29V60.86C168.86 60.89 168.88 60.9 168.9 60.9C168.93 60.9 168.96 60.9 168.99 60.92H168.98Z" fill="#201502"/>
<path d="M170.32 61.51V61.82C170.32 61.95 170.25 62.05 170.13 62.09C170.12 62.09 170.1 62.11 170.09 62.09C170.08 62.05 170.08 62.04 170.1 62.03C170.2 61.99 170.24 61.91 170.24 61.81V61.59C170.24 61.55 170.24 61.51 170.22 61.48C170.2 61.48 170.19 61.46 170.18 61.45C170.156 61.4265 170.128 61.4082 170.097 61.3961C170.066 61.3841 170.033 61.3786 170 61.38H168.92C168.85 61.38 168.85 61.38 168.85 61.45V61.95C168.85 62.02 168.85 62.02 168.92 62.02C168.94 62.02 168.96 62.02 168.98 62.04H169.91L169.95 62.08C169.95 62.08 169.95 62.11 169.91 62.11H168.78C168.75 62.11 168.74 62.11 168.74 62.08V61.31C168.74 61.28 168.74 61.28 168.78 61.28H169.99C170.14 61.28 170.25 61.38 170.28 61.49C170.31 61.6 170.28 61.51 170.28 61.51H170.32Z" fill="#211602"/>
<path d="M164.56 66.55V67.5L164.52 67.54C164.52 67.54 164.48 67.54 164.48 67.5V66.55C164.46 66.53 164.46 66.51 164.46 66.49C164.46 66.46 164.45 66.45 164.42 66.45H163.85C163.82 66.45 163.81 66.46 163.81 66.49V67.6C163.81 67.67 163.83 67.73 163.89 67.78C163.9 67.79 163.91 67.8 163.92 67.82C163.95 67.84 163.98 67.84 164.02 67.84H164.26C164.36 67.84 164.43 67.79 164.47 67.7C164.47 67.69 164.47 67.67 164.49 67.67C164.51 67.67 164.53 67.67 164.54 67.69V67.72C164.5 67.83 164.39 67.91 164.27 67.91H163.93C163.81 67.86 163.72 67.75 163.72 67.62V66.37C163.72 66.35 163.72 66.34 163.74 66.35H164.53C164.55 66.35 164.55 66.35 164.55 66.38V66.56L164.56 66.55Z" fill="#211502"/>
<path d="M170.32 62.6201V62.9401C170.32 63.0601 170.25 63.1701 170.14 63.2101C170.12 63.2101 170.11 63.2301 170.09 63.2101C170.08 63.1701 170.08 63.1601 170.11 63.1501C170.2 63.1101 170.25 63.0401 170.25 62.9401V62.7101C170.25 62.6701 170.25 62.6401 170.23 62.6101C170.2 62.6101 170.19 62.5801 170.18 62.5701C170.164 62.5517 170.144 62.5369 170.121 62.5266C170.099 62.5162 170.075 62.5106 170.05 62.5101H168.92C168.87 62.5101 168.86 62.5101 168.86 62.5701V63.1101C168.86 63.1601 168.86 63.1601 168.92 63.1701C168.94 63.1701 168.96 63.1701 168.98 63.1801H169.9C169.94 63.1801 169.96 63.2034 169.96 63.2501C169.96 63.2501 169.93 63.2701 169.92 63.2701H168.81C168.77 63.2701 168.77 63.2701 168.77 63.2301V62.4701C168.77 62.4301 168.77 62.4301 168.82 62.4301H170C170.17 62.4301 170.28 62.5101 170.33 62.6601L170.32 62.6201Z" fill="#1F1602"/>
<path d="M159.52 60.36V60.96C159.52 61 159.52 61 159.48 61H158.35C158.35 61 158.33 61 158.33 60.98C158.33 60.93 158.33 60.93 158.38 60.93H159.38C159.45 60.93 159.44 60.93 159.44 60.87V60.37C159.42 60.35 159.42 60.33 159.42 60.3C159.42 60.27 159.41 60.26 159.38 60.26H158.26C158.14 60.26 158.06 60.34 158.05 60.46V60.72C158.05 60.79 158.08 60.85 158.14 60.89C158.15 60.89 158.17 60.91 158.18 60.93C158.19 60.93 158.19 60.95 158.19 60.96V60.99C158.19 60.99 158.16 61.01 158.15 60.99C158.101 60.9742 158.058 60.9454 158.024 60.9066C157.991 60.8678 157.969 60.8205 157.96 60.77V60.48C157.959 60.4389 157.966 60.398 157.981 60.3597C157.996 60.3215 158.019 60.2867 158.048 60.2577C158.077 60.2286 158.111 60.2058 158.15 60.1907C158.188 60.1756 158.229 60.1686 158.27 60.17H159.49C159.51 60.17 159.52 60.17 159.52 60.2V60.37V60.36ZM162.8 67.82C162.8 67.82 162.86 67.84 162.89 67.84H163.14C163.24 67.84 163.3 67.79 163.34 67.7C163.34 67.69 163.34 67.67 163.36 67.67C163.38 67.67 163.4 67.67 163.41 67.69V67.72C163.37 67.83 163.26 67.91 163.14 67.91H162.81C162.746 67.8905 162.69 67.8507 162.65 67.7966C162.61 67.7425 162.589 67.677 162.59 67.61V66.38C162.59 66.34 162.59 66.34 162.63 66.34H163.39C163.43 66.34 163.43 66.34 163.43 66.38V67.49C163.43 67.54 163.43 67.54 163.38 67.54C163.36 67.54 163.36 67.54 163.36 67.52V66.55C163.348 66.5361 163.341 66.5184 163.34 66.5C163.34 66.45 163.34 66.45 163.28 66.45H162.75C162.69 66.45 162.69 66.45 162.69 66.51V67.6C162.69 67.68 162.71 67.74 162.77 67.79C162.78 67.8 162.79 67.81 162.8 67.83V67.82Z" fill="#201602"/>
<path d="M158.17 64.27V64.33C158.17 64.35 158.15 64.35 158.14 64.34C158.091 64.3243 158.048 64.2954 158.014 64.2566C157.981 64.2178 157.959 64.1706 157.95 64.12V63.82C157.95 63.64 158.08 63.52 158.25 63.52H159.46C159.46 63.52 159.5 63.52 159.5 63.56V64.32C159.5 64.36 159.5 64.36 159.46 64.36H158.35C158.3 64.36 158.3 64.34 158.32 64.28C158.34 64.27 158.35 64.28 158.37 64.28H159.37C159.403 64.28 159.42 64.2634 159.42 64.23V63.67C159.42 63.61 159.42 63.61 159.36 63.61H158.24C158.12 63.62 158.05 63.7 158.04 63.81V64.06C158.04 64.13 158.08 64.18 158.13 64.22C158.15 64.23 158.16 64.24 158.17 64.26V64.27Z" fill="#201503"/>
<path d="M158.16 62.03C158.16 62.03 158.18 62.05 158.18 62.07C158.18 62.08 158.17 62.09 158.18 62.1C158.18 62.12 158.16 62.11 158.15 62.1C158.101 62.0853 158.057 62.0568 158.023 62.0178C157.989 61.9788 157.967 61.931 157.96 61.88V61.58C157.96 61.38 158.12 61.27 158.27 61.28H159.48C159.53 61.28 159.53 61.28 159.53 61.33V62.07C159.53 62.11 159.53 62.11 159.49 62.11H158.35V62.05C158.35 62.05 158.36 62.04 158.37 62.04H159.41C159.46 62.04 159.46 62.04 159.46 61.99V61.48C159.44 61.46 159.45 61.43 159.44 61.41C159.44 61.39 159.43 61.38 159.4 61.37H158.27C158.21 61.37 158.16 61.38 158.12 61.43C158.082 61.4706 158.06 61.5242 158.06 61.58V61.81C158.06 61.89 158.09 61.95 158.16 61.99C158.17 61.99 158.18 62.01 158.19 62.02L158.16 62.03Z" fill="#211602"/>
<path d="M165.68 66.55V67.49C165.68 67.53 165.68 67.53 165.64 67.53C165.61 67.53 165.61 67.53 165.61 67.49V66.54C165.6 66.52 165.59 66.5 165.6 66.48C165.6 66.45 165.58 66.44 165.55 66.44H164.99C164.95 66.44 164.94 66.46 164.94 66.5V67.59C164.94 67.67 164.96 67.73 165.02 67.78C165.03 67.78 165.04 67.8 165.05 67.81C165.08 67.83 165.11 67.83 165.14 67.83H165.39C165.48 67.83 165.55 67.78 165.59 67.7C165.59 67.69 165.59 67.67 165.61 67.67C165.63 67.67 165.65 67.67 165.66 67.69V67.72C165.63 67.8 165.57 67.86 165.49 67.9C165.45 67.91 165.42 67.92 165.38 67.92H165.04C164.985 67.8945 164.938 67.8553 164.903 67.8063C164.868 67.7572 164.846 67.6999 164.84 67.64V66.41C164.84 66.35 164.84 66.36 164.89 66.36H165.65C165.67 66.36 165.68 66.36 165.68 66.39V66.56V66.55Z" fill="#201502"/>
<path d="M158.17 63.15C158.17 63.15 158.19 63.17 158.19 63.18V63.21C158.19 63.24 158.17 63.23 158.15 63.22C158.108 63.2071 158.069 63.184 158.037 63.1526C158.006 63.1212 157.983 63.0825 157.97 63.04C157.959 63.0077 157.952 62.9741 157.95 62.94V62.7C157.95 62.55 158.04 62.44 158.17 62.41H159.47C159.47 62.41 159.51 62.41 159.51 62.45V63.21C159.51 63.23 159.51 63.25 159.5 63.26H158.33C158.31 63.24 158.33 63.22 158.32 63.2C158.32 63.2 158.32 63.19 158.34 63.19H159.39C159.44 63.19 159.44 63.19 159.44 63.14V62.63C159.44 62.63 159.42 62.59 159.42 62.57C159.42 62.53 159.4 62.52 159.37 62.52H158.27C158.12 62.52 158.04 62.6 158.04 62.75V62.93C158.04 63.02 158.07 63.1 158.14 63.15C158.15 63.15 158.16 63.17 158.17 63.18V63.15Z" fill="#1F1602"/>
<path d="M168.85 64.28H169.92C169.95 64.28 169.97 64.31 169.96 64.34H168.8C168.78 64.34 168.79 64.32 168.79 64.31V63.53C168.79 63.51 168.79 63.51 168.81 63.51H170.02C170.16 63.51 170.29 63.57 170.35 63.74V64.05C170.35 64.18 170.29 64.27 170.17 64.33C170.16 64.33 170.14 64.35 170.13 64.33C170.12 64.31 170.11 64.29 170.12 64.27C170.12 64.27 170.13 64.26 170.14 64.26C170.24 64.22 170.28 64.14 170.28 64.03V63.81C170.28 63.77 170.28 63.74 170.26 63.71C170.25 63.71 170.24 63.7 170.23 63.69C170.18 63.63 170.11 63.61 170.03 63.61H168.94C168.88 63.61 168.88 63.61 168.88 63.67V64.27L168.85 64.28Z" fill="#201503"/>
<path d="M158.17 59.79C158.17 59.79 158.19 59.81 158.17 59.82V59.85C158.17 59.87 158.15 59.86 158.13 59.85C158.081 59.8316 158.038 59.8007 158.004 59.7603C157.971 59.72 157.949 59.6716 157.94 59.62V59.28C157.96 59.15 158.06 59.05 158.19 59.03H159.47C159.5 59.03 159.5 59.03 159.5 59.06V59.82C159.5 59.86 159.5 59.86 159.46 59.86H158.35C158.34 59.86 158.32 59.86 158.31 59.85V59.8C158.31 59.8 158.32 59.79 158.33 59.79H159.37C159.43 59.79 159.42 59.79 159.42 59.74V59.23C159.4 59.21 159.41 59.18 159.41 59.15C159.41 59.12 159.4 59.11 159.37 59.11H158.23C158.12 59.12 158.04 59.2 158.03 59.31V59.57C158.03 59.64 158.07 59.69 158.12 59.73C158.14 59.74 158.15 59.75 158.16 59.77L158.17 59.79ZM168.84 59.8H169.91C169.95 59.8 169.96 59.82 169.95 59.86C169.95 59.86 169.95 59.87 169.93 59.87H168.76V59.06C168.76 59.04 168.76 59.03 168.78 59.03H170.01C170.08 59.03 170.14 59.04 170.19 59.08C170.25 59.12 170.29 59.18 170.31 59.26V59.58C170.31 59.71 170.24 59.81 170.12 59.85C170.11 59.85 170.09 59.87 170.08 59.85C170.07 59.81 170.07 59.8 170.1 59.79C170.143 59.7718 170.179 59.7411 170.204 59.7018C170.229 59.6625 170.242 59.6166 170.24 59.57V59.34C170.24 59.3 170.24 59.27 170.22 59.24H170.21V59.22H170.2C170.2 59.22 170.18 59.19 170.17 59.18H170.15V59.16H170.12C170.078 59.1477 170.034 59.1409 169.99 59.14H168.94C168.87 59.14 168.86 59.14 168.86 59.22V59.81L168.84 59.8Z" fill="#201502"/>
<path d="M161.68 67.82C161.68 67.82 161.75 67.84 161.78 67.84H162.01C162.11 67.84 162.19 67.8 162.23 67.7C162.23 67.7 162.23 67.68 162.25 67.68C162.27 67.68 162.29 67.68 162.3 67.7V67.73C162.279 67.7811 162.245 67.8256 162.201 67.859C162.157 67.8924 162.105 67.9135 162.05 67.92H161.69C161.637 67.8979 161.591 67.8622 161.555 67.8166C161.52 67.771 161.498 67.717 161.49 67.66V66.41C161.49 66.35 161.49 66.36 161.54 66.36H162.33V67.5C162.33 67.54 162.33 67.55 162.28 67.54C162.26 67.54 162.26 67.54 162.26 67.52V66.43C162.24 66.44 162.21 66.44 162.18 66.44H161.65C161.58 66.44 161.58 66.44 161.58 66.51V67.57C161.58 67.65 161.6 67.73 161.67 67.78C161.68 67.78 161.69 67.8 161.69 67.81L161.68 67.82ZM161.68 56.97H162.18C162.24 56.97 162.23 56.97 162.23 56.92V55.8C162.23 55.76 162.23 55.72 162.21 55.68C162.17 55.6 162.11 55.56 162.03 55.56H161.75C161.67 55.56 161.6 55.61 161.57 55.68C161.55 55.72 161.55 55.72 161.51 55.71H161.49V55.67C161.54 55.56 161.62 55.49 161.75 55.49H162.03C162.15 55.49 162.26 55.57 162.29 55.69V55.73C162.29 55.73 162.32 55.78 162.32 55.8V56.99C162.32 57.07 162.31 57.08 162.23 57.08H161.74C161.72 57.08 161.69 57.08 161.67 57.06H161.5C161.48 57.06 161.47 57.06 161.47 57.03V55.88H161.53C161.53 55.88 161.54 55.88 161.54 55.9V56.94C161.54 57 161.54 56.99 161.59 56.99H161.67L161.68 56.97Z" fill="#201503"/>
<path d="M161.68 57.05H162.26C162.31 57.05 162.31 57.05 162.31 57V55.71C162.4 55.76 162.44 55.84 162.44 55.94V57.13L162.41 57.16H161.72C161.72 57.16 161.68 57.16 161.68 57.12V57.03V57.05Z" fill="#FDB64E"/>
<path d="M158.35 63.35H159.64H158.36C158.37 63.33 158.39 63.34 158.41 63.34H159.63C159.63 63.34 159.65 63.34 159.65 63.32V62.68C159.65 62.66 159.65 62.65 159.62 62.65C159.6 62.65 159.58 62.65 159.56 62.63C159.627 62.63 159.66 62.66 159.66 62.72V63.35C159.66 63.35 159.66 63.39 159.62 63.39H158.42C158.39 63.39 158.37 63.39 158.35 63.38V63.35Z" fill="#F9B64D"/>
<path d="M169 63.31H170.18C170.2 63.31 170.22 63.3 170.23 63.33C170.26 63.33 170.29 63.32 170.32 63.33C170.35 63.34 170.31 63.33 170.3 63.33H170.28C170.28 63.33 170.25 63.33 170.23 63.34H169.01C169.01 63.34 168.98 63.31 169.01 63.29L169 63.31Z" fill="#F9B74C"/>
<path d="M158.32 61.1C158.46 61.13 158.6 61.12 158.75 61.12H159.66C159.66 61.12 159.66 61.14 159.65 61.14H158.45C158.41 61.14 158.36 61.14 158.32 61.11V61.1Z" fill="#F8BC5A"/>
<path d="M169 63.31V63.36C168.98 63.36 168.97 63.35 168.97 63.33V63.24H169.93C169.92 63.26 169.9 63.25 169.88 63.25H169.02C168.97 63.25 168.96 63.26 168.98 63.32L169 63.31Z" fill="#F8BB5F"/>
<path d="M158.23 62.16C158.23 62.16 158.26 62.18 158.27 62.2C158.25 62.2 158.24 62.18 158.23 62.16Z" fill="#FBECCE"/>
<path d="M170.23 63.36H170.28C170.27 63.37 170.25 63.36 170.23 63.36Z" fill="#FFB64F"/>
<path d="M170.37 61.53C170.37 61.53 170.35 61.53 170.34 61.51C170.35 61.51 170.36 61.51 170.37 61.53Z" fill="#F8E1B9"/>
<path d="M168.23 65.3101C168.19 65.455 168.102 65.582 167.98 65.6701C167.85 65.7701 167.71 65.8101 167.55 65.8101H163.88C163.84 65.8101 163.84 65.8101 163.84 65.7701C163.84 65.7301 163.84 65.73 163.88 65.73H167.54C167.677 65.7383 167.812 65.7004 167.924 65.6224C168.037 65.5444 168.12 65.4309 168.16 65.3L168.18 65.26C168.21 65.2 168.2 65.13 168.2 65.07V63.08C168.2 63.06 168.21 63.05 168.24 63.05C168.26 63.05 168.27 63.06 168.27 63.08V65.03C168.27 65.12 168.27 65.21 168.25 65.3L168.23 65.3101Z" fill="#201504"/>
<path d="M168.18 60.55V58.18C168.18 58.16 168.18 58.15 168.2 58.15C168.24 58.15 168.25 58.15 168.25 58.19V62.87C168.25 62.92 168.25 62.92 168.21 62.92C168.18 62.92 168.18 62.92 168.18 62.89V60.56V60.55Z" fill="#231605"/>
<path d="M168.23 65.31C168.23 65.31 168.23 65.22 168.24 65.18V63.09C168.24 63.09 168.24 63.07 168.22 63.07C168.2 63.07 168.2 63.07 168.2 63.09V65.06C168.2 65.11 168.19 65.17 168.19 65.22C168.19 65.23 168.19 65.25 168.17 65.26C168.19 65.13 168.18 64.99 168.18 64.86V63.1C168.18 63.06 168.2 63.04 168.24 63.06C168.24 63.06 168.25 63.06 168.25 63.08V65.1C168.25 65.17 168.25 65.23 168.23 65.3V65.32V65.31Z" fill="#221809"/>
<path d="M161.68 67.82C161.61 67.79 161.58 67.74 161.56 67.67V66.44C161.56 66.42 161.56 66.42 161.58 66.42H162.24V66.5C162.24 66.54 162.24 66.55 162.2 66.55H161.72C161.7 66.55 161.69 66.55 161.69 66.58V67.81L161.68 67.82Z" fill="#FEFEFE"/>
<path d="M163.92 67.82C163.883 67.8071 163.852 67.7825 163.83 67.7501C163.808 67.7176 163.798 67.679 163.8 67.64V66.44C163.8 66.43 163.8 66.42 163.82 66.42H164.44C164.49 66.42 164.48 66.42 164.48 66.47V66.55H163.96C163.92 66.55 163.92 66.55 163.92 66.59V67.81V67.82Z" fill="white"/>
<path d="M168.85 64.28V63.64C168.85 63.6 168.85 63.6 168.89 63.6H170.04C170.13 63.6 170.2 63.64 170.24 63.72C170.22 63.73 170.2 63.72 170.18 63.72H169.05C169.01 63.72 168.99 63.74 168.99 63.78V64.24C168.99 64.26 168.99 64.27 168.96 64.27H168.86L168.85 64.28ZM168.98 60.92H168.86C168.84 60.92 168.84 60.92 168.84 60.9V60.26C168.84 60.24 168.84 60.24 168.86 60.24H170.02C170.11 60.24 170.18 60.28 170.22 60.36H169.01C168.98 60.36 168.98 60.36 168.97 60.4V60.92H168.98Z" fill="#FEFFFE"/>
<path d="M168.98 62.04H168.87C168.83 62.04 168.83 62.04 168.83 62V61.38C168.83 61.36 168.83 61.35 168.86 61.35H170.02C170.11 61.35 170.17 61.39 170.22 61.47C170.2 61.48 170.18 61.47 170.16 61.47H169.03C168.99 61.47 168.97 61.49 168.97 61.53V62.03L168.98 62.04Z" fill="#FEFEFE"/>
<path d="M166.16 67.8199C166.128 67.8078 166.101 67.7876 166.08 67.7612C166.059 67.7349 166.045 67.7033 166.04 67.6699V66.4499C166.04 66.4399 166.04 66.4299 166.06 66.4299H166.72V66.4999C166.72 66.5599 166.72 66.5599 166.67 66.5599H166.2C166.18 66.5599 166.17 66.5599 166.17 66.5899V67.8199H166.16Z" fill="white"/>
<path d="M165.04 67.8199C164.96 67.7899 164.92 67.7199 164.91 67.6399V66.4599C164.91 66.4299 164.91 66.4299 164.94 66.4299H165.53C165.59 66.4299 165.58 66.4299 165.58 66.4899V66.5599H165.06C165.03 66.5599 165.03 66.5599 165.02 66.5899V67.8199H165.04Z" fill="#FDFEFD"/>
<path d="M162.8 67.82C162.72 67.79 162.68 67.72 162.67 67.64V66.48C162.67 66.42 162.67 66.43 162.72 66.43H163.32C163.36 66.43 163.36 66.43 163.36 66.47V66.56H162.84C162.82 66.56 162.81 66.56 162.81 66.59V67.83L162.8 67.82ZM168.84 59.8V59.14C168.84 59.12 168.84 59.12 168.86 59.12H170.02C170.06 59.12 170.1 59.12 170.13 59.15C170.13 59.15 170.14 59.15 170.15 59.16C170.16 59.17 170.15 59.16 170.16 59.16C170.17 59.16 170.19 59.19 170.21 59.21C170.23 59.23 170.21 59.21 170.21 59.22C170.21 59.23 170.21 59.24 170.2 59.24H169.03C168.97 59.24 168.97 59.24 168.97 59.3V59.79H168.84V59.8Z" fill="#FFFEFE"/>
<path d="M168.98 59.79V59.27C168.98 59.24 168.98 59.23 169.01 59.23H170.17C170.19 59.23 170.21 59.24 170.22 59.21C170.22 59.21 170.23 59.22 170.23 59.23C170.21 59.24 170.19 59.23 170.17 59.23H169.04C168.98 59.23 168.98 59.23 168.98 59.29V59.79Z" fill="#F9F6EA"/>
<path d="M158.17 59.79C158.09 59.77 158.03 59.7 158.02 59.6V59.32C158.02 59.2 158.12 59.11 158.24 59.11H159.41C159.42 59.11 159.43 59.11 159.43 59.13V59.24H158.41C158.27 59.24 158.16 59.35 158.16 59.49V59.78L158.17 59.79Z" fill="#FFFEFE"/>
<path d="M158.16 62.03C158.07 61.99 158.02 61.92 158.02 61.83V61.57C158.02 61.44 158.12 61.36 158.24 61.36H159.39C159.43 61.36 159.43 61.36 159.43 61.4V61.49H158.41C158.29 61.49 158.2 61.57 158.17 61.68V62.04L158.16 62.03Z" fill="#FEFEFE"/>
<path d="M158.17 60.91C158.128 60.8977 158.092 60.8728 158.065 60.8388C158.038 60.8048 158.022 60.7633 158.02 60.72V60.45C158.02 60.33 158.12 60.24 158.24 60.24H159.39C159.43 60.24 159.43 60.24 159.43 60.28V60.37H158.38C158.25 60.39 158.16 60.49 158.16 60.61V60.91H158.17ZM158.17 64.27C158.09 64.25 158.05 64.19 158.03 64.12V63.83C158.03 63.69 158.12 63.6 158.27 63.6H159.42C159.44 63.6 159.45 63.6 159.45 63.63V63.73C159.43 63.74 159.42 63.73 159.4 63.73H158.45C158.41 63.73 158.37 63.73 158.33 63.75C158.25 63.79 158.2 63.86 158.2 63.95V64.26L158.17 64.27Z" fill="#FEFFFE"/>
<path d="M158.31 63.75C158.31 63.75 158.36 63.73 158.38 63.72H159.43V64.24C159.43 64.28 159.43 64.28 159.39 64.28H158.33C158.34 64.26 158.37 64.27 158.38 64.27H159.35C159.42 64.27 159.42 64.27 159.42 64.2V63.78C159.42 63.73 159.42 63.73 159.37 63.73H158.41C158.37 63.73 158.33 63.75 158.29 63.75H158.31Z" fill="#F9B959"/>
<path d="M168.98 63.16H168.88C168.84 63.16 168.84 63.16 168.84 63.12V62.52C168.84 62.48 168.84 62.48 168.88 62.48H170.03C170.12 62.48 170.19 62.52 170.23 62.6C170.21 62.61 170.19 62.6 170.17 62.6H169.04C168.97 62.6 168.98 62.6 168.98 62.67V63.17V63.16ZM158.17 63.15C158.08 63.12 158.03 63.05 158.03 62.95V62.69C158.03 62.56 158.13 62.47 158.25 62.47H159.4C159.44 62.47 159.44 62.47 159.44 62.51V62.6H158.43C158.28 62.6 158.16 62.72 158.17 62.87V63.15Z" fill="#FFFFFE"/>
<path d="M158.34 63.24H159.51C159.51 63.24 159.52 63.25 159.51 63.26H159.49C159.47 63.24 159.45 63.26 159.43 63.26H158.33L158.34 63.24Z" fill="#F9BA5C"/>
<path d="M163.35 55.7C163.33 55.62 163.26 55.56 163.16 55.55H162.88C162.76 55.55 162.67 55.6501 162.67 55.7701V56.94C162.67 56.95 162.67 56.96 162.69 56.96H162.8V55.94C162.8 55.8 162.91 55.69 163.05 55.69H163.34L163.35 55.7Z" fill="#FFFEFE"/>
<path d="M162.81 55.9201C162.81 55.8001 162.92 55.6801 163.04 55.6801H163.34C163.37 55.6801 163.37 55.7101 163.37 55.7301V56.8801C163.37 56.9101 163.37 56.9301 163.36 56.9601H163.35C163.35 56.9601 163.33 56.9601 163.32 56.9701H163.28C163.28 56.9401 163.25 56.9401 163.23 56.9401H162.87C162.81 56.9401 162.8 56.9401 162.8 56.8701V55.9201H162.81Z" fill="#FFB64F"/>
<path d="M163.35 56.97H163.36V55.78C163.36 55.75 163.36 55.72 163.34 55.69C163.31 55.61 163.24 55.57 163.16 55.56H162.88C162.79 55.56 162.73 55.61 162.69 55.69V55.72C162.69 55.72 162.63 55.72 162.61 55.7C162.61 55.66 162.64 55.62 162.67 55.58C162.73 55.51 162.8 55.48 162.89 55.48H163.16C163.29 55.48 163.4 55.56 163.44 55.69V55.72C163.44 55.72 163.47 55.76 163.47 55.79V56.98C163.47 57.05 163.46 57.07 163.38 57.07H162.89C162.87 57.07 162.84 57.07 162.82 57.05H162.67C162.6 57.05 162.61 57.05 162.61 56.99V55.87H162.67V56.94C162.67 56.99 162.67 56.99 162.71 56.99H162.8C162.82 56.98 162.84 56.97 162.86 56.97H163.22C163.24 56.97 163.26 56.97 163.28 56.99H163.34L163.35 56.97Z" fill="#201503"/>
<path d="M162.8 57.05H163.38C163.43 57.05 163.43 57.05 163.43 57V55.73C163.43 55.73 163.48 55.75 163.49 55.78C163.53 55.83 163.56 55.89 163.56 55.95V57.14C163.56 57.18 163.56 57.18 163.51 57.18H162.84C162.8 57.18 162.8 57.18 162.8 57.14V57.05Z" fill="#FFB64F"/>
<path d="M163.29 56.97H162.8V55.93C162.81 55.93 162.8 55.91 162.82 55.9C162.83 55.9 162.82 55.92 162.82 55.92C162.8 55.94 162.8 55.97 162.8 55.99V56.9C162.8 56.93 162.8 56.93 162.84 56.93H163.29C163.3 56.95 163.29 56.96 163.28 56.98L163.29 56.97ZM163.35 56.97H163.33C163.33 56.97 163.33 56.94 163.35 56.92V56.97Z" fill="#FEB549"/>
<path d="M170.21 59.2C170.21 59.2 170.17 59.17 170.16 59.15C170.18 59.16 170.2 59.18 170.21 59.2ZM170.15 59.15C170.15 59.15 170.14 59.15 170.13 59.14C170.13 59.14 170.14 59.14 170.15 59.15Z" fill="#F9F6EA"/>
<path d="M164.47 55.7C164.45 55.62 164.38 55.56 164.28 55.55H164C163.88 55.55 163.79 55.6501 163.79 55.7701V56.94C163.79 56.95 163.79 56.96 163.81 56.96H163.92V55.94C163.92 55.8 164.03 55.69 164.17 55.69H164.46L164.47 55.7Z" fill="#FFFEFE"/>
<path d="M163.93 55.9201C163.93 55.8001 164.04 55.6801 164.16 55.6801H164.46C164.49 55.6801 164.49 55.7101 164.49 55.7301V56.8801C164.49 56.9101 164.49 56.9301 164.48 56.9601H164.47C164.47 56.9601 164.45 56.9601 164.44 56.9701H164.4C164.4 56.9401 164.37 56.9401 164.35 56.9401H163.99C163.93 56.9401 163.92 56.9401 163.92 56.8701V55.9201H163.93Z" fill="#FFB64F"/>
<path d="M164.47 56.97H164.48V55.78C164.48 55.75 164.48 55.72 164.46 55.69C164.43 55.61 164.36 55.57 164.28 55.56H164C163.91 55.56 163.85 55.61 163.81 55.69V55.72C163.81 55.72 163.75 55.72 163.73 55.7C163.73 55.66 163.76 55.62 163.79 55.58C163.85 55.51 163.92 55.48 164.01 55.48H164.28C164.41 55.48 164.52 55.56 164.56 55.69V55.72C164.56 55.72 164.59 55.76 164.59 55.79V56.98C164.59 57.05 164.58 57.07 164.5 57.07H164.01C163.99 57.07 163.96 57.07 163.94 57.05H163.79C163.72 57.05 163.73 57.05 163.73 56.99V55.87H163.79V56.94C163.79 56.99 163.79 56.99 163.83 56.99H163.92C163.94 56.98 163.96 56.97 163.98 56.97H164.34C164.36 56.97 164.38 56.97 164.4 56.99H164.46L164.47 56.97Z" fill="#201503"/>
<path d="M163.93 57.05H164.51C164.56 57.05 164.56 57.05 164.56 57V55.73C164.56 55.73 164.61 55.75 164.62 55.78C164.66 55.83 164.69 55.89 164.69 55.95V57.14C164.69 57.18 164.69 57.18 164.64 57.18H163.97C163.93 57.18 163.93 57.18 163.93 57.14V57.05Z" fill="#FFB64F"/>
<path d="M164.41 56.97H163.92V55.93C163.93 55.93 163.92 55.91 163.94 55.9C163.95 55.9 163.94 55.92 163.94 55.92C163.92 55.94 163.92 55.97 163.92 55.99V56.9C163.92 56.93 163.92 56.93 163.96 56.93H164.41C164.42 56.95 164.41 56.96 164.4 56.98L164.41 56.97ZM164.47 56.97H164.45C164.45 56.97 164.45 56.94 164.47 56.92V56.97Z" fill="#FEB549"/>
<path d="M165.59 55.7C165.57 55.62 165.5 55.56 165.4 55.55H165.12C165 55.55 164.91 55.6501 164.91 55.7701V56.94C164.91 56.95 164.91 56.96 164.93 56.96H165.04V55.94C165.04 55.8 165.15 55.69 165.29 55.69H165.58L165.59 55.7Z" fill="#FFFEFE"/>
<path d="M165.05 55.9201C165.05 55.8001 165.16 55.6801 165.28 55.6801H165.58C165.61 55.6801 165.61 55.7101 165.61 55.7301V56.8801C165.61 56.9101 165.61 56.9301 165.6 56.9601H165.59C165.59 56.9601 165.57 56.9601 165.56 56.9701H165.52C165.52 56.9401 165.49 56.9401 165.47 56.9401H165.11C165.05 56.9401 165.04 56.9401 165.04 56.8701V55.9201H165.05Z" fill="#FFB64F"/>
<path d="M165.59 56.97H165.6V55.78C165.6 55.75 165.6 55.72 165.58 55.69C165.55 55.61 165.48 55.57 165.4 55.56H165.12C165.03 55.56 164.97 55.61 164.93 55.69V55.72C164.93 55.72 164.87 55.72 164.85 55.7C164.85 55.66 164.88 55.62 164.91 55.58C164.97 55.51 165.04 55.48 165.13 55.48H165.4C165.53 55.48 165.64 55.56 165.68 55.69V55.72C165.68 55.72 165.71 55.76 165.71 55.79V56.98C165.71 57.05 165.7 57.07 165.62 57.07H165.13C165.11 57.07 165.08 57.07 165.06 57.05H164.91C164.84 57.05 164.85 57.05 164.85 56.99V55.87H164.91V56.94C164.91 56.99 164.91 56.99 164.95 56.99H165.04C165.06 56.98 165.08 56.97 165.1 56.97H165.46C165.48 56.97 165.5 56.97 165.52 56.99H165.58L165.59 56.97Z" fill="#201503"/>
<path d="M165.05 57.05H165.63C165.68 57.05 165.68 57.05 165.68 57V55.73C165.68 55.73 165.73 55.75 165.74 55.78C165.78 55.83 165.81 55.89 165.81 55.95V57.14C165.81 57.18 165.81 57.18 165.76 57.18H165.09C165.05 57.18 165.05 57.18 165.05 57.14V57.05Z" fill="#FFB64F"/>
<path d="M165.53 56.97H165.04V55.93C165.05 55.93 165.04 55.91 165.06 55.9C165.07 55.9 165.06 55.92 165.06 55.92C165.04 55.94 165.04 55.97 165.04 55.99V56.9C165.04 56.93 165.04 56.93 165.08 56.93H165.53C165.54 56.95 165.53 56.96 165.52 56.98L165.53 56.97ZM165.59 56.97H165.57C165.57 56.97 165.57 56.94 165.59 56.92V56.97Z" fill="#FEB549"/>
<path d="M166.72 55.7C166.7 55.62 166.63 55.56 166.53 55.55H166.25C166.13 55.55 166.04 55.6501 166.04 55.7701V56.94C166.04 56.95 166.04 56.96 166.06 56.96H166.17V55.94C166.17 55.8 166.28 55.69 166.42 55.69H166.71L166.72 55.7Z" fill="#FFFEFE"/>
<path d="M166.18 55.9201C166.18 55.8001 166.29 55.6801 166.41 55.6801H166.71C166.74 55.6801 166.74 55.7101 166.74 55.7301V56.8801C166.74 56.9101 166.74 56.9301 166.73 56.9601H166.72C166.72 56.9601 166.7 56.9601 166.69 56.9701H166.65C166.65 56.9401 166.62 56.9401 166.6 56.9401H166.24C166.18 56.9401 166.17 56.9401 166.17 56.8701V55.9201H166.18Z" fill="#FFB64F"/>
<path d="M166.72 56.97H166.73V55.78C166.73 55.75 166.73 55.72 166.71 55.69C166.68 55.61 166.61 55.57 166.53 55.56H166.25C166.16 55.56 166.1 55.61 166.06 55.69V55.72C166.06 55.72 166 55.72 165.98 55.7C165.98 55.66 166.01 55.62 166.04 55.58C166.1 55.51 166.17 55.48 166.26 55.48H166.53C166.66 55.48 166.77 55.56 166.81 55.69V55.72C166.81 55.72 166.84 55.76 166.84 55.79V56.98C166.84 57.05 166.83 57.07 166.75 57.07H166.26C166.24 57.07 166.21 57.07 166.19 57.05H166.04C165.97 57.05 165.98 57.05 165.98 56.99V55.87H166.04V56.94C166.04 56.99 166.04 56.99 166.08 56.99H166.17C166.19 56.98 166.21 56.97 166.23 56.97H166.59C166.61 56.97 166.63 56.97 166.65 56.99H166.71L166.72 56.97Z" fill="#201503"/>
<path d="M166.18 57.05H166.76C166.81 57.05 166.81 57.05 166.81 57V55.73C166.81 55.73 166.86 55.75 166.87 55.78C166.91 55.83 166.94 55.89 166.94 55.95V57.14C166.94 57.18 166.94 57.18 166.89 57.18H166.22C166.18 57.18 166.18 57.18 166.18 57.14V57.05Z" fill="#FFB64F"/>
<path d="M166.66 56.97H166.17V55.93C166.18 55.93 166.17 55.91 166.19 55.9C166.2 55.9 166.19 55.92 166.19 55.92C166.17 55.94 166.17 55.97 166.17 55.99V56.9C166.17 56.93 166.17 56.93 166.21 56.93H166.66C166.67 56.95 166.66 56.96 166.65 56.98L166.66 56.97ZM166.72 56.97H166.7C166.7 56.97 166.7 56.94 166.72 56.92V56.97Z" fill="#FEB549"/>
</g>
<path d="M126.24 59.5499H104.6C103.683 59.5499 102.94 60.2931 102.94 61.2099C102.94 62.1267 103.683 62.8699 104.6 62.8699H126.24C127.157 62.8699 127.9 62.1267 127.9 61.2099C127.9 60.2931 127.157 59.5499 126.24 59.5499Z" fill="white"/>
<path d="M113.29 64.9H104.6C103.683 64.9 102.94 65.6432 102.94 66.56C102.94 67.4768 103.683 68.22 104.6 68.22H113.29C114.207 68.22 114.95 67.4768 114.95 66.56C114.95 65.6432 114.207 64.9 113.29 64.9Z" fill="white"/>
</g>
</g>
</g>
</g>
<defs>
<linearGradient id="paint0_linear_1_1227" x1="1.86" y1="69.85" x2="1.86" y2="49.99" gradientUnits="userSpaceOnUse">
<stop stop-color="#6D6F71"/>
<stop offset="0.01" stop-color="#7B7D7F"/>
<stop offset="0.05" stop-color="#9B9C9E"/>
<stop offset="0.08" stop-color="#B6B7B8"/>
<stop offset="0.12" stop-color="#CCCDCE"/>
<stop offset="0.17" stop-color="#DDDDDE"/>
<stop offset="0.23" stop-color="#E9E9EA"/>
<stop offset="0.32" stop-color="#F0F0F1"/>
<stop offset="0.55" stop-color="#F2F2F3"/>
<stop offset="0.74" stop-color="#F0F0F1"/>
<stop offset="0.81" stop-color="#E9E9EA"/>
<stop offset="0.86" stop-color="#DDDDDE"/>
<stop offset="0.9" stop-color="#CCCDCE"/>
<stop offset="0.93" stop-color="#B6B7B8"/>
<stop offset="0.96" stop-color="#9B9C9E"/>
<stop offset="0.99" stop-color="#7B7D7F"/>
<stop offset="1" stop-color="#6D6F71"/>
</linearGradient>
<linearGradient id="paint1_linear_1_1227" x1="0.75" y1="59.92" x2="2.96" y2="59.92" gradientUnits="userSpaceOnUse">
<stop stop-color="#6D6F71"/>
<stop offset="0.01" stop-color="#7B7D7F"/>
<stop offset="0.05" stop-color="#9B9C9E"/>
<stop offset="0.08" stop-color="#B6B7B8"/>
<stop offset="0.12" stop-color="#CCCDCE"/>
<stop offset="0.17" stop-color="#DDDDDE"/>
<stop offset="0.23" stop-color="#E9E9EA"/>
<stop offset="0.32" stop-color="#F0F0F1"/>
<stop offset="0.55" stop-color="#F2F2F3"/>
<stop offset="0.74" stop-color="#F0F0F1"/>
<stop offset="0.81" stop-color="#E9E9EA"/>
<stop offset="0.86" stop-color="#DDDDDE"/>
<stop offset="0.9" stop-color="#CCCDCE"/>
<stop offset="0.93" stop-color="#B6B7B8"/>
<stop offset="0.96" stop-color="#9B9C9E"/>
<stop offset="0.99" stop-color="#7B7D7F"/>
<stop offset="1" stop-color="#6D6F71"/>
</linearGradient>
<linearGradient id="paint2_linear_1_1227" x1="1.98" y1="124.29" x2="1.98" y2="90.4399" gradientUnits="userSpaceOnUse">
<stop stop-color="#6D6F71"/>
<stop offset="0.01" stop-color="#7B7D7F"/>
<stop offset="0.05" stop-color="#9B9C9E"/>
<stop offset="0.08" stop-color="#B6B7B8"/>
<stop offset="0.12" stop-color="#CCCDCE"/>
<stop offset="0.17" stop-color="#DDDDDE"/>
<stop offset="0.23" stop-color="#E9E9EA"/>
<stop offset="0.32" stop-color="#F0F0F1"/>
<stop offset="0.55" stop-color="#F2F2F3"/>
<stop offset="0.74" stop-color="#F0F0F1"/>
<stop offset="0.81" stop-color="#E9E9EA"/>
<stop offset="0.86" stop-color="#DDDDDE"/>
<stop offset="0.9" stop-color="#CCCDCE"/>
<stop offset="0.93" stop-color="#B6B7B8"/>
<stop offset="0.96" stop-color="#9B9C9E"/>
<stop offset="0.99" stop-color="#7B7D7F"/>
<stop offset="1" stop-color="#6D6F71"/>
</linearGradient>
<linearGradient id="paint3_linear_1_1227" x1="0.75" y1="107.37" x2="3.2" y2="107.37" gradientUnits="userSpaceOnUse">
<stop stop-color="#6D6F71"/>
<stop offset="0.01" stop-color="#7B7D7F"/>
<stop offset="0.05" stop-color="#9B9C9E"/>
<stop offset="0.08" stop-color="#B6B7B8"/>
<stop offset="0.12" stop-color="#CCCDCE"/>
<stop offset="0.17" stop-color="#DDDDDE"/>
<stop offset="0.23" stop-color="#E9E9EA"/>
<stop offset="0.32" stop-color="#F0F0F1"/>
<stop offset="0.55" stop-color="#F2F2F3"/>
<stop offset="0.74" stop-color="#F0F0F1"/>
<stop offset="0.81" stop-color="#E9E9EA"/>
<stop offset="0.86" stop-color="#DDDDDE"/>
<stop offset="0.9" stop-color="#CCCDCE"/>
<stop offset="0.93" stop-color="#B6B7B8"/>
<stop offset="0.96" stop-color="#9B9C9E"/>
<stop offset="0.99" stop-color="#7B7D7F"/>
<stop offset="1" stop-color="#6D6F71"/>
</linearGradient>
<linearGradient id="paint4_linear_1_1227" x1="1.98" y1="167.1" x2="1.98" y2="133.25" gradientUnits="userSpaceOnUse">
<stop stop-color="#6D6F71"/>
<stop offset="0.01" stop-color="#7B7D7F"/>
<stop offset="0.05" stop-color="#9B9C9E"/>
<stop offset="0.08" stop-color="#B6B7B8"/>
<stop offset="0.12" stop-color="#CCCDCE"/>
<stop offset="0.17" stop-color="#DDDDDE"/>
<stop offset="0.23" stop-color="#E9E9EA"/>
<stop offset="0.32" stop-color="#F0F0F1"/>
<stop offset="0.55" stop-color="#F2F2F3"/>
<stop offset="0.74" stop-color="#F0F0F1"/>
<stop offset="0.81" stop-color="#E9E9EA"/>
<stop offset="0.86" stop-color="#DDDDDE"/>
<stop offset="0.9" stop-color="#CCCDCE"/>
<stop offset="0.93" stop-color="#B6B7B8"/>
<stop offset="0.96" stop-color="#9B9C9E"/>
<stop offset="0.99" stop-color="#7B7D7F"/>
<stop offset="1" stop-color="#6D6F71"/>
</linearGradient>
<linearGradient id="paint5_linear_1_1227" x1="0.75" y1="150.18" x2="3.2" y2="150.18" gradientUnits="userSpaceOnUse">
<stop stop-color="#6D6F71"/>
<stop offset="0.01" stop-color="#7B7D7F"/>
<stop offset="0.05" stop-color="#9B9C9E"/>
<stop offset="0.08" stop-color="#B6B7B8"/>
<stop offset="0.12" stop-color="#CCCDCE"/>
<stop offset="0.17" stop-color="#DDDDDE"/>
<stop offset="0.23" stop-color="#E9E9EA"/>
<stop offset="0.32" stop-color="#F0F0F1"/>
<stop offset="0.55" stop-color="#F2F2F3"/>
<stop offset="0.74" stop-color="#F0F0F1"/>
<stop offset="0.81" stop-color="#E9E9EA"/>
<stop offset="0.86" stop-color="#DDDDDE"/>
<stop offset="0.9" stop-color="#CCCDCE"/>
<stop offset="0.93" stop-color="#B6B7B8"/>
<stop offset="0.96" stop-color="#9B9C9E"/>
<stop offset="0.99" stop-color="#7B7D7F"/>
<stop offset="1" stop-color="#6D6F71"/>
</linearGradient>
<linearGradient id="paint6_linear_1_1227" x1="195.14" y1="154.03" x2="195.14" y2="103.52" gradientUnits="userSpaceOnUse">
<stop stop-color="#6D6F71"/>
<stop offset="0.01" stop-color="#7B7D7F"/>
<stop offset="0.05" stop-color="#9B9C9E"/>
<stop offset="0.08" stop-color="#B6B7B8"/>
<stop offset="0.12" stop-color="#CCCDCE"/>
<stop offset="0.17" stop-color="#DDDDDE"/>
<stop offset="0.23" stop-color="#E9E9EA"/>
<stop offset="0.32" stop-color="#F0F0F1"/>
<stop offset="0.55" stop-color="#F2F2F3"/>
<stop offset="0.74" stop-color="#F0F0F1"/>
<stop offset="0.81" stop-color="#E9E9EA"/>
<stop offset="0.86" stop-color="#DDDDDE"/>
<stop offset="0.9" stop-color="#CCCDCE"/>
<stop offset="0.93" stop-color="#B6B7B8"/>
<stop offset="0.96" stop-color="#9B9C9E"/>
<stop offset="0.99" stop-color="#7B7D7F"/>
<stop offset="1" stop-color="#6D6F71"/>
</linearGradient>
<linearGradient id="paint7_linear_1_1227" x1="194.28" y1="128.77" x2="196" y2="128.77" gradientUnits="userSpaceOnUse">
<stop stop-color="#6D6F71"/>
<stop offset="0.01" stop-color="#7B7D7F"/>
<stop offset="0.05" stop-color="#9B9C9E"/>
<stop offset="0.08" stop-color="#B6B7B8"/>
<stop offset="0.12" stop-color="#CCCDCE"/>
<stop offset="0.17" stop-color="#DDDDDE"/>
<stop offset="0.23" stop-color="#E9E9EA"/>
<stop offset="0.32" stop-color="#F0F0F1"/>
<stop offset="0.55" stop-color="#F2F2F3"/>
<stop offset="0.74" stop-color="#F0F0F1"/>
<stop offset="0.81" stop-color="#E9E9EA"/>
<stop offset="0.86" stop-color="#DDDDDE"/>
<stop offset="0.9" stop-color="#CCCDCE"/>
<stop offset="0.93" stop-color="#B6B7B8"/>
<stop offset="0.96" stop-color="#9B9C9E"/>
<stop offset="0.99" stop-color="#7B7D7F"/>
<stop offset="1" stop-color="#6D6F71"/>
</linearGradient>
<linearGradient id="paint8_linear_1_1227" x1="7.94" y1="71.95" x2="188.56" y2="71.95" gradientUnits="userSpaceOnUse">
<stop stop-color="#61CCE5"/>
<stop offset="0.39" stop-color="#6CD4E5"/>
<stop offset="1" stop-color="#87E8E5"/>
</linearGradient>
<linearGradient id="paint9_linear_1_1227" x1="15.6052" y1="138.359" x2="180.795" y2="138.388" gradientUnits="userSpaceOnUse">
<stop stop-color="#FF5A2B"/>
<stop offset="0.9" stop-color="#F2A040"/>
</linearGradient>
<linearGradient id="paint10_linear_1_1227" x1="138.82" y1="95.26" x2="138.82" y2="40.87" gradientUnits="userSpaceOnUse">
<stop stop-color="#FCFAD6"/>
<stop offset="0.08" stop-color="#DFF4D2"/>
<stop offset="0.27" stop-color="#A0E8C9"/>
<stop offset="0.45" stop-color="#6BDEC2"/>
<stop offset="0.62" stop-color="#42D6BC"/>
<stop offset="0.77" stop-color="#25D0B8"/>
<stop offset="0.91" stop-color="#13CDB5"/>
<stop offset="1" stop-color="#0DCCB5"/>
</linearGradient>
<clipPath id="clip0_1_1227">
<rect width="195" height="400" fill="white" transform="translate(0.75 0.939941)"/>
</clipPath>
<clipPath id="clip1_1_1227">
<rect width="195" height="400" fill="white" transform="translate(0.75 0.939941)"/>
</clipPath>
<clipPath id="clip2_1_1227">
<rect width="195" height="400" fill="white" transform="translate(0.75 0.939941)"/>
</clipPath>
</defs>
</svg>
