<svg width="196" height="401" viewBox="0 0 196 401" fill="none" xmlns="http://www.w3.org/2000/svg">
<g clip-path="url(#clip0_1_1147)">
<g clip-path="url(#clip1_1_1147)">
<g clip-path="url(#clip2_1_1147)">
<path d="M165.56 0.939941H30.44C15.01 0.939941 2.46001 13.4899 2.46001 28.9199V373C2.46001 388.43 15.01 400.98 30.44 400.98H165.56C180.99 400.98 193.54 388.43 193.54 373V28.9199C193.54 13.4899 180.99 0.939941 165.56 0.939941ZM185.6 373C185.6 384.05 176.61 393.04 165.56 393.04H30.44C19.39 393.04 10.4 384.05 10.4 373V28.9199C10.4 17.8699 19.39 8.87994 30.44 8.87994H49.3C50.65 8.87994 51.75 9.97994 51.75 11.3299V17.8399C51.75 21.4899 55.1 24.4599 59.21 24.4599H136.79C140.9 24.4599 144.25 21.4899 144.25 17.8399V11.3299C144.25 9.97994 145.35 8.87994 146.7 8.87994H165.56C176.61 8.87994 185.6 17.8699 185.6 28.9199V373Z" fill="#CCCCCC"/>
<path d="M114.27 13.49H81.73C80.9 13.49 80.22 14.17 80.22 15C80.22 15.83 80.9 16.51 81.73 16.51H114.27C115.1 16.51 115.78 15.83 115.78 15C115.78 14.17 115.1 13.49 114.27 13.49Z" fill="#444444"/>
<path d="M0.25 52.17V67.68C0.25 68.88 1.22 69.85 2.42 69.85H2.46V49.99H2.42C1.22 49.99 0.25 50.96 0.25 52.16V52.17Z" fill="url(#paint0_linear_1_1147)"/>
<path style="mix-blend-mode:multiply" opacity="0.5" d="M0.25 52.17V67.68C0.25 68.88 1.22 69.85 2.42 69.85H2.46V49.99H2.42C1.22 49.99 0.25 50.96 0.25 52.16V52.17Z" fill="url(#paint1_linear_1_1147)"/>
<path d="M0.25 92.6799V122.05C0.25 123.29 1.25 124.29 2.49 124.29H2.7V90.4399H2.49C1.25 90.4399 0.25 91.4399 0.25 92.6799Z" fill="url(#paint2_linear_1_1147)"/>
<path style="mix-blend-mode:multiply" opacity="0.5" d="M0.25 92.6799V122.05C0.25 123.29 1.25 124.29 2.49 124.29H2.7V90.4399H2.49C1.25 90.4399 0.25 91.4399 0.25 92.6799Z" fill="url(#paint3_linear_1_1147)"/>
<path d="M0.25 135.49V164.86C0.25 166.1 1.25 167.1 2.49 167.1H2.7V133.25H2.49C1.25 133.25 0.25 134.25 0.25 135.49Z" fill="url(#paint4_linear_1_1147)"/>
<path style="mix-blend-mode:multiply" opacity="0.5" d="M0.25 135.49V164.86C0.25 166.1 1.25 167.1 2.49 167.1H2.7V133.25H2.49C1.25 133.25 0.25 134.25 0.25 135.49Z" fill="url(#paint5_linear_1_1147)"/>
<path d="M193.53 103.52V154.03C194.48 154.03 195.25 153.04 195.25 151.82V105.73C195.25 104.51 194.48 103.52 193.53 103.52Z" fill="url(#paint6_linear_1_1147)"/>
<path style="mix-blend-mode:multiply" opacity="0.5" d="M193.53 103.52V154.03C194.48 154.03 195.25 153.04 195.25 151.82V105.73C195.25 104.51 194.48 103.52 193.53 103.52Z" fill="url(#paint7_linear_1_1147)"/>
<path d="M189.74 28.92V370C189.74 383.34 178.89 394.19 165.55 394.19H30.44C17.1 394.19 6.25 383.34 6.25 370V28.92C6.25 15.58 17.1 4.72998 30.44 4.72998H165.56C178.9 4.72998 189.75 15.58 189.75 28.92H189.74ZM165.55 9.00998H146.69C145.41 9.00998 144.37 10.05 144.37 11.33V17.84C144.37 21.56 140.97 24.58 136.78 24.58H59.21C55.02 24.58 51.62 21.56 51.62 17.84V11.33C51.62 10.05 50.58 9.00998 49.3 9.00998H30.44C19.44 9.00998 10.53 17.92 10.53 28.92V370C10.53 381 19.44 389.91 30.44 389.91H165.56C176.56 389.91 185.47 381 185.47 370V28.92C185.47 17.92 176.56 9.00998 165.56 9.00998H165.55ZM185.59 28.92V370C185.59 381.05 176.6 390.04 165.55 390.04H30.44C19.39 390.04 10.4 381.05 10.4 370V28.92C10.4 17.87 19.39 8.87998 30.44 8.87998H49.3C50.65 8.87998 51.75 9.97998 51.75 11.33V17.84C51.75 21.49 55.1 24.46 59.21 24.46H136.79C140.9 24.46 144.25 21.49 144.25 17.84V11.33C144.25 9.97998 145.35 8.87998 146.7 8.87998H165.56C176.61 8.87998 185.6 17.87 185.6 28.92H185.59ZM185.34 28.92C185.34 18.01 176.47 9.12998 165.55 9.12998H146.69C145.48 9.12998 144.49 10.12 144.49 11.33V17.84C144.49 21.63 141.03 24.71 136.78 24.71H59.21C54.96 24.71 51.5 21.63 51.5 17.84V11.33C51.5 10.12 50.51 9.12998 49.3 9.12998H30.44C19.53 9.12998 10.65 18.01 10.65 28.92V370C10.65 380.91 19.52 389.79 30.44 389.79H165.55C176.46 389.79 185.34 380.91 185.34 370V28.92Z" fill="#09090C"/>
<mask id="mask0_1_1147" style="mask-type:luminance" maskUnits="userSpaceOnUse" x="10" y="9" width="176" height="381">
<mask id="mask1_1_1147" style="mask-type:luminance" maskUnits="userSpaceOnUse" x="10" y="9" width="176" height="381">
<mask id="mask2_1_1147" style="mask-type:luminance" maskUnits="userSpaceOnUse" x="10" y="9" width="176" height="381">
<path d="M165.56 9H146.7C145.42 9 144.38 10.04 144.38 11.32V17.83C144.38 21.55 140.98 24.57 136.79 24.57H59.21C55.02 24.57 51.62 21.55 51.62 17.83V11.32C51.62 10.04 50.58 9 49.3 9H30.44C19.44 9 10.53 17.91 10.53 28.91V370C10.53 381 19.44 389.91 30.44 389.91H165.56C176.56 389.91 185.47 381 185.47 370V28.92C185.47 17.92 176.56 9.01 165.56 9.01V9Z" fill="white"/>
</mask>
<g mask="url(#mask2_1_1147)">
<path d="M185.59 28.92V370C185.59 381.05 176.6 390.04 165.55 390.04H30.44C19.39 390.04 10.4 381.05 10.4 370V28.92C10.4 17.87 19.39 8.88 30.44 8.88H49.3C50.65 8.88 51.75 9.98001 51.75 11.33V17.84C51.75 21.49 55.1 24.46 59.21 24.46H136.79C140.9 24.46 144.25 21.49 144.25 17.84V11.33C144.25 9.98001 145.35 8.88 146.7 8.88H165.56C176.61 8.88 185.6 17.87 185.6 28.92H185.59Z" fill="white"/>
</g>
</mask>
<g mask="url(#mask1_1_1147)">
<path d="M185.34 28.92C185.34 18.01 176.47 9.13 165.55 9.13H146.69C145.48 9.13 144.49 10.12 144.49 11.33V17.84C144.49 21.63 141.03 24.71 136.78 24.71H59.21C54.96 24.71 51.5 21.63 51.5 17.84V11.33C51.5 10.12 50.51 9.13 49.3 9.13H30.44C19.53 9.13 10.65 18.01 10.65 28.92V370C10.65 380.91 19.52 389.79 30.44 389.79H165.55C176.46 389.79 185.34 380.91 185.34 370V28.92Z" fill="white"/>
</g>
</mask>
<g mask="url(#mask0_1_1147)">
<path d="M7.88 7.52002H189V70.23H7.88V7.52002Z" fill="white"/>
<path d="M7.88 66.3101H189V372.34H7.88V66.3101Z" fill="#EFEFEF"/>
<path d="M178.494 73.7385L18.2846 73.2631C16.7935 73.2587 15.5811 74.464 15.5766 75.9551L15.494 103.815C15.4896 105.306 16.6948 106.519 18.186 106.523L178.395 106.998C179.886 107.003 181.099 105.798 181.103 104.306L181.186 76.4465C181.19 74.9553 179.985 73.7429 178.494 73.7385Z" fill="url(#paint8_linear_1_1147)"/>
<path d="M168.92 80.04H26.34C24.766 80.04 23.49 81.3138 23.49 82.885C23.49 84.4563 24.766 85.73 26.34 85.73H168.92C170.494 85.73 171.77 84.4563 171.77 82.885C171.77 81.3138 170.494 80.04 168.92 80.04Z" fill="white"/>
<path d="M163.91 88.5H26.34C24.766 88.5 23.49 89.7738 23.49 91.345C23.49 92.9163 24.766 94.19 26.34 94.19H163.91C165.484 94.19 166.76 92.9163 166.76 91.345C166.76 89.7738 165.484 88.5 163.91 88.5Z" fill="white"/>
<path d="M39.6 96.96H26.34C24.766 96.96 23.49 98.2337 23.49 99.805C23.49 101.376 24.766 102.65 26.34 102.65H39.6C41.174 102.65 42.45 101.376 42.45 99.805C42.45 98.2337 41.174 96.96 39.6 96.96Z" fill="white"/>
<path d="M160.09 54.99H143.98C142.991 54.99 142.19 55.7914 142.19 56.78V58.34C142.19 59.3286 142.991 60.13 143.98 60.13H160.09C161.079 60.13 161.88 59.3286 161.88 58.34V56.78C161.88 55.7914 161.079 54.99 160.09 54.99Z" fill="#D0D2D3"/>
<path d="M122.47 50.53H74.27C72.6628 50.53 71.36 51.8329 71.36 53.44V59.3C71.36 60.9072 72.6628 62.21 74.27 62.21H122.47C124.077 62.21 125.38 60.9072 125.38 59.3V53.44C125.38 51.8329 124.077 50.53 122.47 50.53Z" fill="#EDEDED"/>
<path d="M108.14 54.3301H89.07C88.0041 54.3301 87.14 55.1942 87.14 56.2601V57.5401C87.14 58.606 88.0041 59.4701 89.07 59.4701H108.14C109.206 59.4701 110.07 58.606 110.07 57.5401V56.2601C110.07 55.1942 109.206 54.3301 108.14 54.3301Z" fill="#D0D2D3"/>
<path d="M50.33 54.3301H37.38C36.4798 54.3301 35.75 55.0599 35.75 55.9601V57.8401C35.75 58.7403 36.4798 59.4701 37.38 59.4701H50.33C51.2302 59.4701 51.96 58.7403 51.96 57.8401V55.9601C51.96 55.0599 51.2302 54.3301 50.33 54.3301Z" fill="#D0D2D3"/>
<path d="M135.55 35.73H60.21C58.7962 35.73 57.65 36.8739 57.65 38.285C57.65 39.6961 58.7962 40.84 60.21 40.84H135.55C136.964 40.84 138.11 39.6961 138.11 38.285C138.11 36.8739 136.964 35.73 135.55 35.73Z" fill="#D0D2D3"/>
<path d="M19.46 41.58L16.17 38.29L19.46 35" stroke="#4A4A4A" stroke-width="0.75" stroke-miterlimit="10" stroke-linecap="round"/>
<path d="M166.75 39.42C167.374 39.42 167.88 38.9141 167.88 38.29C167.88 37.6659 167.374 37.16 166.75 37.16C166.126 37.16 165.62 37.6659 165.62 38.29C165.62 38.9141 166.126 39.42 166.75 39.42Z" fill="#4A4A4A"/>
<path d="M170.64 39.42C171.264 39.42 171.77 38.9141 171.77 38.29C171.77 37.6659 171.264 37.16 170.64 37.16C170.016 37.16 169.51 37.6659 169.51 38.29C169.51 38.9141 170.016 39.42 170.64 39.42Z" fill="#4A4A4A"/>
<path d="M174.36 39.42C174.984 39.42 175.49 38.9141 175.49 38.29C175.49 37.6659 174.984 37.16 174.36 37.16C173.736 37.16 173.23 37.6659 173.23 38.29C173.23 38.9141 173.736 39.42 174.36 39.42Z" fill="#4A4A4A"/>
<path d="M91.47 118.05H17.82C16.5387 118.05 15.5 119.089 15.5 120.37V122.11C15.5 123.391 16.5387 124.43 17.82 124.43H91.47C92.7513 124.43 93.79 123.391 93.79 122.11V120.37C93.79 119.089 92.7513 118.05 91.47 118.05Z" fill="#D0D2D3"/>
<path d="M29.08 260.27H167.25M29.08 267.73H167.25M26.68 275.19H169.98M18.36 322.01H156.52M18.36 330.86H53.93M18.36 338.95H80.28" stroke="#D0D2D3" stroke-width="4" stroke-linecap="round" stroke-linejoin="round"/>
<path d="M174.44 133.64H22.46C19.2015 133.64 16.56 136.282 16.56 139.54V299.1C16.56 302.359 19.2015 305 22.46 305H174.44C177.698 305 180.34 302.359 180.34 299.1V139.54C180.34 136.282 177.698 133.64 174.44 133.64Z" fill="white"/>
<path d="M145.1 166.2H51.8C49.0386 166.2 46.8 168.439 46.8 171.2V264.5C46.8 267.261 49.0386 269.5 51.8 269.5H145.1C147.861 269.5 150.1 267.261 150.1 264.5V171.2C150.1 168.439 147.861 166.2 145.1 166.2Z" fill="white"/>
<path d="M55.96 260.09H60.18V264.31H55.96V260.09ZM60.18 260.09H64.4V264.31H60.18V260.09ZM64.4 260.09H68.62V264.31H64.4V260.09ZM68.63 260.09H72.85V264.31H68.63V260.09ZM72.85 260.09H77.07V264.31H72.85V260.09ZM81.3 260.09H85.52V264.31H81.3V260.09ZM85.52 260.09H89.74V264.31H85.52V260.09ZM98.2 260.09H102.42V264.31H98.2V260.09ZM106.64 260.09H111.11V264.31H106.64V260.09ZM111.12 260.09H115.34V264.31H111.12V260.09ZM119.57 260.09H123.79V264.31H119.57V260.09ZM123.79 260.09H128.01V264.31H123.79V260.09ZM128.01 260.09H132.23V264.31H128.01V260.09ZM132.24 260.09H136.46V264.31H132.24V260.09ZM136.46 260.09H140.68V264.31H136.46V260.09ZM140.69 260.09H145.16V264.31H140.69V260.09ZM51.73 260.09H55.95V264.31H51.73V260.09Z" fill="#3B3B3B"/>
<path d="M72.85 255.87H77.07V260.09H72.85V255.87ZM85.52 255.87H89.74V260.09H85.52V255.87ZM93.97 255.87H98.19V260.09H93.97V255.87ZM98.2 255.87H102.42V260.09H98.2V255.87ZM102.42 255.87H106.64V260.09H102.42V255.87ZM106.64 255.87H111.11V260.09H106.64V255.87ZM119.57 255.87H123.79V260.09H119.57V255.87ZM140.69 255.87H145.16V260.09H140.69V255.87ZM51.73 255.87H55.95V260.09H51.73V255.87ZM60.18 251.65H64.4V255.87H60.18V251.65ZM64.4 251.65H68.62V255.87H64.4V251.65ZM72.85 251.65H77.07V255.87H72.85V251.65ZM81.3 251.65H85.52V255.87H81.3V251.65ZM85.52 251.65H89.74V255.87H85.52V251.65ZM89.75 251.65H93.97V255.87H89.75V251.65ZM98.2 251.65H102.42V255.87H98.2V251.65ZM102.42 251.65H106.64V255.87H102.42V251.65ZM106.64 251.65H111.11V255.87H106.64V251.65ZM111.12 251.65H115.34V255.87H111.12V251.65ZM119.57 251.65H123.79V255.87H119.57V251.65ZM128.01 251.65H132.23V255.87H128.01V251.65ZM132.24 251.65H136.46V255.87H132.24V251.65ZM140.69 251.65H145.16V255.87H140.69V251.65ZM51.73 251.65H55.95V255.87H51.73V251.65ZM60.18 247.42H64.4V251.64H60.18V247.42ZM64.4 247.42H68.62V251.64H64.4V247.42ZM72.85 247.42H77.07V251.64H72.85V247.42ZM81.3 247.42H85.52V251.64H81.3V247.42ZM89.75 247.42H93.97V251.64H89.75V247.42ZM98.2 247.42H102.42V251.64H98.2V247.42ZM119.57 247.42H123.79V251.64H119.57V247.42ZM128.01 247.42H132.23V251.64H128.01V247.42ZM132.24 247.42H136.46V251.64H132.24V247.42ZM140.69 247.42H145.16V251.64H140.69V247.42ZM51.73 247.42H55.95V251.64H51.73V247.42ZM72.85 243.2H77.07V247.42H72.85V243.2ZM81.3 243.2H85.52V247.42H81.3V243.2ZM85.52 243.2H89.74V247.42H85.52V243.2ZM89.75 243.2H93.97V247.42H89.75V243.2ZM98.2 243.2H102.42V247.42H98.2V243.2ZM102.42 243.2H106.64V247.42H102.42V243.2ZM111.12 243.2H115.34V247.42H111.12V243.2ZM119.57 243.2H123.79V247.42H119.57V243.2ZM140.69 243.2H145.16V247.42H140.69V243.2ZM51.73 243.2H55.95V247.42H51.73V243.2ZM55.96 238.97H60.18V243.19H55.96V238.97ZM60.18 238.97H64.4V243.19H60.18V238.97ZM64.4 238.97H68.62V243.19H64.4V238.97ZM68.63 238.97H72.85V243.19H68.63V238.97ZM72.85 238.97H77.07V243.19H72.85V238.97ZM81.3 238.97H85.52V243.19H81.3V238.97ZM89.75 238.97H93.97V243.19H89.75V238.97ZM93.97 238.97H98.19V243.19H93.97V238.97ZM102.42 238.97H106.64V243.19H102.42V238.97ZM119.57 238.97H123.79V243.19H119.57V238.97ZM123.79 238.97H128.01V243.19H123.79V238.97ZM128.01 238.97H132.23V243.19H128.01V238.97ZM132.24 238.97H136.46V243.19H132.24V238.97ZM136.46 238.97H140.68V243.19H136.46V238.97ZM140.69 238.97H145.16V243.19H140.69V238.97ZM51.73 238.97H55.95V243.19H51.73V238.97ZM93.97 234.75H98.19V238.97H93.97V234.75ZM98.2 234.75H102.42V238.97H98.2V234.75ZM102.42 234.75H106.64V238.97H102.42V234.75ZM111.12 234.75H115.34V238.97H111.12V234.75ZM55.96 230.53H60.18V234.75H55.96V230.53ZM60.18 230.53H64.4V234.75H60.18V230.53ZM64.4 230.53H68.62V234.75H64.4V230.53ZM68.63 230.53H72.85V234.75H68.63V230.53ZM81.3 230.53H85.52V234.75H81.3V230.53ZM85.52 230.53H89.74V234.75H85.52V230.53ZM89.75 230.53H93.97V234.75H89.75V230.53ZM98.2 230.53H102.42V234.75H98.2V230.53ZM102.42 230.53H106.64V234.75H102.42V230.53ZM106.64 230.53H111.11V234.75H106.64V230.53ZM119.57 230.53H123.79V234.75H119.57V230.53ZM123.79 230.53H128.01V234.75H123.79V230.53ZM128.01 230.53H132.23V234.75H128.01V230.53ZM136.46 230.53H140.68V234.75H136.46V230.53ZM140.69 230.53H145.16V234.75H140.69V230.53ZM60.18 226.3H64.4V230.52H60.18V226.3ZM64.4 226.3H68.62V230.52H64.4V226.3ZM77.08 226.3H81.3V230.52H77.08V226.3ZM81.3 226.3H85.52V230.52H81.3V226.3ZM89.75 226.3H93.97V230.52H89.75V226.3ZM102.42 226.3H106.64V230.52H102.42V226.3ZM111.12 226.3H115.34V230.52H111.12V226.3ZM123.79 226.3H128.01V230.52H123.79V226.3ZM128.01 226.3H132.23V230.52H128.01V226.3ZM55.96 222.08H60.18V226.3H55.96V222.08ZM64.4 222.08H68.62V226.3H64.4V222.08ZM68.63 222.08H72.85V226.3H68.63V222.08ZM72.85 222.08H77.07V226.3H72.85V222.08ZM77.08 222.08H81.3V226.3H77.08V222.08ZM85.52 222.08H89.74V226.3H85.52V222.08ZM89.75 222.08H93.97V226.3H89.75V222.08ZM93.97 222.08H98.19V226.3H93.97V222.08ZM98.2 222.08H102.42V226.3H98.2V222.08ZM102.42 222.08H106.64V226.3H102.42V222.08ZM106.64 222.08H111.11V226.3H106.64V222.08ZM128.01 222.08H132.23V226.3H128.01V222.08ZM132.24 222.08H136.46V226.3H132.24V222.08ZM140.69 222.08H145.16V226.3H140.69V222.08ZM51.73 222.08H55.95V226.3H51.73V222.08ZM55.96 217.85H60.18V222.07H55.96V217.85ZM60.18 217.85H64.4V222.07H60.18V217.85ZM64.4 217.85H68.62V222.07H64.4V217.85ZM81.3 217.85H85.52V222.07H81.3V217.85ZM85.52 217.85H89.74V222.07H85.52V217.85ZM102.42 217.85H106.64V222.07H102.42V217.85ZM115.34 217.85H119.56V222.07H115.34V217.85ZM119.57 217.85H123.79V222.07H119.57V217.85ZM128.01 217.85H132.23V222.07H128.01V217.85ZM132.24 217.85H136.46V222.07H132.24V217.85ZM136.46 217.85H140.68V222.07H136.46V217.85ZM140.69 217.85H145.16V222.07H140.69V217.85ZM51.73 217.85H55.95V222.07H51.73V217.85ZM64.4 213.63H68.62V217.85H64.4V213.63ZM68.63 213.63H72.85V217.85H68.63V213.63ZM72.85 213.63H77.07V217.85H72.85V213.63ZM77.08 213.63H81.3V217.85H77.08V213.63ZM81.3 213.63H85.52V217.85H81.3V213.63ZM85.52 213.63H89.74V217.85H85.52V213.63ZM98.2 213.63H102.42V217.85H98.2V213.63ZM111.12 213.63H115.34V217.85H111.12V213.63ZM115.34 213.63H119.56V217.85H115.34V213.63ZM132.24 213.63H136.46V217.85H132.24V213.63ZM51.73 213.63H55.95V217.85H51.73V213.63ZM55.96 209.41H60.18V213.63H55.96V209.41ZM60.18 209.41H64.4V213.63H60.18V209.41ZM64.4 209.41H68.62V213.63H64.4V209.41ZM68.63 209.41H72.85V213.63H68.63V209.41ZM77.08 209.41H81.3V213.63H77.08V209.41ZM85.52 209.41H89.74V213.63H85.52V209.41ZM89.75 209.41H93.97V213.63H89.75V209.41ZM98.2 209.41H102.42V213.63H98.2V209.41ZM102.42 209.41H106.64V213.63H102.42V209.41ZM106.64 209.41H111.11V213.63H106.64V209.41ZM111.12 209.41H115.34V213.63H111.12V209.41ZM119.57 209.41H123.79V213.63H119.57V209.41ZM123.79 209.41H128.01V213.63H123.79V209.41ZM128.01 209.41H132.23V213.63H128.01V209.41ZM132.24 209.41H136.46V213.63H132.24V209.41ZM140.69 209.41H145.16V213.63H140.69V209.41ZM55.96 205.18H60.18V209.4H55.96V205.18ZM64.4 205.18H68.62V209.4H64.4V205.18ZM72.85 205.18H77.07V209.4H72.85V205.18ZM77.08 205.18H81.3V209.4H77.08V205.18ZM89.75 205.18H93.97V209.4H89.75V205.18ZM93.97 205.18H98.19V209.4H93.97V205.18ZM98.2 205.18H102.42V209.4H98.2V205.18ZM106.64 205.18H111.11V209.4H106.64V205.18ZM111.12 205.18H115.34V209.4H111.12V205.18ZM115.34 205.18H119.56V209.4H115.34V205.18ZM123.79 205.18H128.01V209.4H123.79V205.18ZM132.24 205.18H136.46V209.4H132.24V205.18ZM136.46 205.18H140.68V209.4H136.46V205.18ZM140.69 205.18H145.16V209.4H140.69V205.18ZM51.73 205.18H55.95V209.4H51.73V205.18ZM55.96 200.96H60.18V205.18H55.96V200.96ZM72.85 200.96H77.07V205.18H72.85V200.96ZM77.08 200.96H81.3V205.18H77.08V200.96ZM85.52 200.96H89.74V205.18H85.52V200.96ZM89.75 200.96H93.97V205.18H89.75V200.96ZM98.2 200.96H102.42V205.18H98.2V200.96ZM102.42 200.96H106.64V205.18H102.42V200.96ZM111.12 200.96H115.34V205.18H111.12V200.96ZM115.34 200.96H119.56V205.18H115.34V200.96ZM119.57 200.96H123.79V205.18H119.57V200.96ZM123.79 200.96H128.01V205.18H123.79V200.96ZM128.01 200.96H132.23V205.18H128.01V200.96ZM132.24 200.96H136.46V205.18H132.24V200.96ZM51.73 200.96H55.95V205.18H51.73V200.96ZM85.52 196.73H89.74V200.95H85.52V196.73ZM93.97 196.73H98.19V200.95H93.97V196.73ZM98.2 196.73H102.42V200.95H98.2V196.73ZM106.64 196.73H111.11V200.95H106.64V196.73ZM111.12 196.73H115.34V200.95H111.12V196.73ZM115.34 196.73H119.56V200.95H115.34V196.73ZM55.96 192.51H60.18V196.73H55.96V192.51ZM60.18 192.51H64.4V196.73H60.18V192.51ZM64.4 192.51H68.62V196.73H64.4V192.51ZM68.63 192.51H72.85V196.73H68.63V192.51ZM72.85 192.51H77.07V196.73H72.85V192.51ZM81.3 192.51H85.52V196.73H81.3V192.51ZM85.52 192.51H89.74V196.73H85.52V192.51ZM98.2 192.51H102.42V196.73H98.2V192.51ZM115.34 192.51H119.56V196.73H115.34V192.51ZM119.57 192.51H123.79V196.73H119.57V192.51ZM128.01 192.51H132.23V196.73H128.01V192.51ZM140.69 192.51H145.16V196.73H140.69V192.51ZM51.73 192.51H55.95V196.73H51.73V192.51ZM72.85 188.29H77.07V192.51H72.85V188.29ZM106.64 188.29H111.11V192.51H106.64V188.29ZM111.12 188.29H115.34V192.51H111.12V188.29ZM119.57 188.29H123.79V192.51H119.57V188.29ZM123.79 188.29H128.01V192.51H123.79V188.29ZM132.24 188.29H136.46V192.51H132.24V188.29ZM136.46 188.29H140.68V192.51H136.46V188.29ZM140.69 188.29H145.16V192.51H140.69V188.29ZM51.73 188.29H55.95V192.51H51.73V188.29ZM60.18 184.06H64.4V188.28H60.18V184.06ZM64.4 184.06H68.62V188.28H64.4V184.06ZM72.85 184.06H77.07V188.28H72.85V184.06ZM81.3 184.06H85.52V188.28H81.3V184.06ZM85.52 184.06H89.74V188.28H85.52V184.06ZM93.97 184.06H98.19V188.28H93.97V184.06ZM98.2 184.06H102.42V188.28H98.2V184.06ZM106.64 184.06H111.11V188.28H106.64V184.06ZM123.79 184.06H128.01V188.28H123.79V184.06ZM128.01 184.06H132.23V188.28H128.01V184.06ZM132.24 184.06H136.46V188.28H132.24V184.06ZM51.73 184.06H55.95V188.28H51.73V184.06ZM60.18 179.84H64.4V184.06H60.18V179.84ZM64.4 179.84H68.62V184.06H64.4V179.84ZM72.85 179.84H77.07V184.06H72.85V179.84ZM81.3 179.84H85.52V184.06H81.3V179.84ZM89.75 179.84H93.97V184.06H89.75V179.84ZM93.97 179.84H98.19V184.06H93.97V179.84ZM98.2 179.84H102.42V184.06H98.2V179.84ZM102.42 179.84H106.64V184.06H102.42V179.84ZM106.64 179.84H111.11V184.06H106.64V179.84ZM115.34 179.84H119.56V184.06H115.34V179.84ZM119.57 179.84H123.79V184.06H119.57V179.84ZM123.79 179.84H128.01V184.06H123.79V179.84ZM132.24 179.84H136.46V184.06H132.24V179.84ZM136.46 179.84H140.68V184.06H136.46V179.84ZM140.69 179.84H145.16V184.06H140.69V179.84ZM51.73 179.84H55.95V184.06H51.73V179.84ZM72.85 175.61H77.07V179.83H72.85V175.61ZM89.75 175.61H93.97V179.83H89.75V175.61ZM93.97 175.61H98.19V179.83H93.97V175.61ZM102.42 175.61H106.64V179.83H102.42V175.61ZM106.64 175.61H111.11V179.83H106.64V175.61ZM111.12 175.61H115.34V179.83H111.12V175.61ZM115.34 175.61H119.56V179.83H115.34V175.61ZM136.46 175.61H140.68V179.83H136.46V175.61ZM51.73 175.61H55.95V179.83H51.73V175.61ZM55.96 171.39H60.18V175.61H55.96V171.39ZM60.18 171.39H64.4V175.61H60.18V171.39ZM64.4 171.39H68.62V175.61H64.4V171.39ZM68.63 171.39H72.85V175.61H68.63V171.39ZM72.85 171.39H77.07V175.61H72.85V171.39ZM81.3 171.39H85.52V175.61H81.3V171.39ZM85.52 171.39H89.74V175.61H85.52V171.39ZM106.64 171.39H111.11V175.61H106.64V171.39ZM115.34 171.39H119.56V175.61H115.34V171.39ZM123.79 171.39H128.01V175.61H123.79V171.39ZM128.01 171.39H132.23V175.61H128.01V171.39ZM140.69 171.39H145.16V175.61H140.69V171.39ZM51.73 171.39H55.95V175.61H51.73V171.39Z" fill="#3B3B3B"/>
<path d="M108.39 221.06V210.53C108.39 209.65 107.62 209.73 107.62 209.73H106.42C106.42 209.73 104.63 209.63 103.23 211.03C101.76 212.5 101.73 214.26 101.73 214.26V214.33H99.48C98.61 214.33 97.61 214.59 96.53 215.63C95.17 216.94 95.05 218.4 95.04 218.76V218.84C95.04 218.84 93.26 218.87 92.82 218.87C92.38 218.87 90.91 219.04 89.7 220.37C88.48 221.69 88.51 223.27 88.51 223.27V225.41C88.51 225.96 89.21 225.97 89.21 225.97H103.5C103.97 225.97 105.74 225.78 107.09 224.23C108.44 222.68 108.4 221.05 108.4 221.05L108.39 221.06Z" fill="white" stroke="white" stroke-width="3.43" stroke-linecap="round" stroke-linejoin="round"/>
<path d="M108.39 221.06V210.53C108.39 209.65 107.62 209.73 107.62 209.73H106.42C106.42 209.73 104.63 209.63 103.23 211.03C101.76 212.5 101.73 214.26 101.73 214.26V214.33L101.76 225.97H103.49C103.96 225.97 105.73 225.78 107.08 224.23C108.43 222.68 108.39 221.05 108.39 221.05V221.06Z" fill="url(#paint9_linear_1_1147)"/>
<path d="M92.82 218.88C92.37 218.88 90.91 219.05 89.7 220.38C88.48 221.7 88.51 223.28 88.51 223.28V225.42C88.51 225.97 89.21 225.98 89.21 225.98H94.77L95.04 218.84C95.04 218.84 93.27 218.87 92.82 218.87V218.88Z" fill="url(#paint10_linear_1_1147)"/>
<path d="M101.72 214.34H99.47C98.6 214.34 97.6 214.6 96.52 215.64C95.16 216.95 95.04 218.41 95.03 218.77V219.22L95.09 225.99H101.45L101.71 214.36V214.34H101.72Z" fill="url(#paint11_linear_1_1147)"/>
<path d="M95.09 225.98H95.1L95.04 219.21L95.09 225.98Z" fill="url(#paint12_linear_1_1147)"/>
<path d="M95.09 225.98H95.1L95.04 219.21L95.09 225.98Z" fill="url(#paint13_linear_1_1147)"/>
<path d="M101.72 214.35L101.46 225.98H101.47L101.72 214.35Z" fill="url(#paint14_linear_1_1147)"/>
<path opacity="0.61" d="M101.72 214.35L101.46 225.98H101.47L101.72 214.35Z" fill="#B30D31"/>
<path d="M101.72 214.35L101.47 225.98H101.75L101.72 214.34V214.36V214.35Z" fill="url(#paint15_linear_1_1147)"/>
<path d="M101.72 214.35L101.47 225.98H101.75L101.72 214.34V214.36V214.35Z" fill="url(#paint16_linear_1_1147)"/>
<path opacity="0.61" d="M101.72 214.35L101.47 225.98H101.75L101.72 214.34V214.36V214.35Z" fill="#B30D31"/>
<path d="M95.04 218.84L94.77 225.98H95.09L95.04 219.21V218.84Z" fill="url(#paint17_linear_1_1147)"/>
<path d="M95.04 218.84L94.77 225.98H95.09L95.04 219.21V218.84Z" fill="url(#paint18_linear_1_1147)"/>
<path opacity="0.59" d="M95.04 218.84L94.77 225.98H95.09L95.04 219.21V218.84Z" fill="#C64E28"/>
<path d="M136.23 287.48H60.67C59.0131 287.48 57.67 288.823 57.67 290.48V296.16C57.67 297.817 59.0131 299.16 60.67 299.16H136.23C137.887 299.16 139.23 297.817 139.23 296.16V290.48C139.23 288.823 137.887 287.48 136.23 287.48Z" stroke="#606060" stroke-width="0.5" stroke-miterlimit="10"/>
<path d="M113.46 291.99H82.68C81.824 291.99 81.13 292.684 81.13 293.54V293.55C81.13 294.406 81.824 295.1 82.68 295.1H113.46C114.316 295.1 115.01 294.406 115.01 293.55V293.54C115.01 292.684 114.316 291.99 113.46 291.99Z" fill="#606060"/>
<path d="M7.88 345.16H189V399.52H7.88V345.16Z" fill="white"/>
<path d="M175.88 354.36H20.17C18.4358 354.36 17.03 355.766 17.03 357.5V370.44C17.03 372.174 18.4358 373.58 20.17 373.58H175.88C177.614 373.58 179.02 372.174 179.02 370.44V357.5C179.02 355.766 177.614 354.36 175.88 354.36Z" fill="#4A4A4A"/>
<path d="M66.59 363.96H129.46" stroke="white" stroke-width="4" stroke-linecap="round" stroke-linejoin="round"/>
<path d="M182.1 336.12V322.65C182.1 320.993 180.757 319.65 179.1 319.65H165.63C163.973 319.65 162.63 320.993 162.63 322.65V336.12C162.63 337.777 163.973 339.12 165.63 339.12H179.1C180.757 339.12 182.1 337.777 182.1 336.12Z" fill="url(#paint19_linear_1_1147)"/>
<path d="M174.77 326.48H169.94C169.59 326.48 169.31 326.76 169.31 327.11V330.17C169.31 330.52 169.59 330.8 169.94 330.8H170.75L170.62 332.29L172.38 330.8H174.76C175.11 330.8 175.39 330.52 175.39 330.17V327.11C175.39 326.76 175.11 326.48 174.76 326.48H174.77Z" stroke="white" stroke-width="0.75" stroke-linecap="round" stroke-linejoin="round"/>
<path d="M170.65 327.73H173.52M170.65 328.73H173.52M170.65 329.73H172.96" stroke="white" stroke-width="0.5" stroke-linecap="round" stroke-linejoin="round"/>
</g>
</g>
</g>
</g>
<defs>
<linearGradient id="paint0_linear_1_1147" x1="1.36" y1="69.85" x2="1.36" y2="49.99" gradientUnits="userSpaceOnUse">
<stop stop-color="#6D6F71"/>
<stop offset="0.01" stop-color="#7B7D7F"/>
<stop offset="0.05" stop-color="#9B9C9E"/>
<stop offset="0.08" stop-color="#B6B7B8"/>
<stop offset="0.12" stop-color="#CCCDCE"/>
<stop offset="0.17" stop-color="#DDDDDE"/>
<stop offset="0.23" stop-color="#E9E9EA"/>
<stop offset="0.32" stop-color="#F0F0F1"/>
<stop offset="0.55" stop-color="#F2F2F3"/>
<stop offset="0.74" stop-color="#F0F0F1"/>
<stop offset="0.81" stop-color="#E9E9EA"/>
<stop offset="0.86" stop-color="#DDDDDE"/>
<stop offset="0.9" stop-color="#CCCDCE"/>
<stop offset="0.93" stop-color="#B6B7B8"/>
<stop offset="0.96" stop-color="#9B9C9E"/>
<stop offset="0.99" stop-color="#7B7D7F"/>
<stop offset="1" stop-color="#6D6F71"/>
</linearGradient>
<linearGradient id="paint1_linear_1_1147" x1="0.25" y1="59.92" x2="2.46" y2="59.92" gradientUnits="userSpaceOnUse">
<stop stop-color="#6D6F71"/>
<stop offset="0.01" stop-color="#7B7D7F"/>
<stop offset="0.05" stop-color="#9B9C9E"/>
<stop offset="0.08" stop-color="#B6B7B8"/>
<stop offset="0.12" stop-color="#CCCDCE"/>
<stop offset="0.17" stop-color="#DDDDDE"/>
<stop offset="0.23" stop-color="#E9E9EA"/>
<stop offset="0.32" stop-color="#F0F0F1"/>
<stop offset="0.55" stop-color="#F2F2F3"/>
<stop offset="0.74" stop-color="#F0F0F1"/>
<stop offset="0.81" stop-color="#E9E9EA"/>
<stop offset="0.86" stop-color="#DDDDDE"/>
<stop offset="0.9" stop-color="#CCCDCE"/>
<stop offset="0.93" stop-color="#B6B7B8"/>
<stop offset="0.96" stop-color="#9B9C9E"/>
<stop offset="0.99" stop-color="#7B7D7F"/>
<stop offset="1" stop-color="#6D6F71"/>
</linearGradient>
<linearGradient id="paint2_linear_1_1147" x1="1.48" y1="124.29" x2="1.48" y2="90.4399" gradientUnits="userSpaceOnUse">
<stop stop-color="#6D6F71"/>
<stop offset="0.01" stop-color="#7B7D7F"/>
<stop offset="0.05" stop-color="#9B9C9E"/>
<stop offset="0.08" stop-color="#B6B7B8"/>
<stop offset="0.12" stop-color="#CCCDCE"/>
<stop offset="0.17" stop-color="#DDDDDE"/>
<stop offset="0.23" stop-color="#E9E9EA"/>
<stop offset="0.32" stop-color="#F0F0F1"/>
<stop offset="0.55" stop-color="#F2F2F3"/>
<stop offset="0.74" stop-color="#F0F0F1"/>
<stop offset="0.81" stop-color="#E9E9EA"/>
<stop offset="0.86" stop-color="#DDDDDE"/>
<stop offset="0.9" stop-color="#CCCDCE"/>
<stop offset="0.93" stop-color="#B6B7B8"/>
<stop offset="0.96" stop-color="#9B9C9E"/>
<stop offset="0.99" stop-color="#7B7D7F"/>
<stop offset="1" stop-color="#6D6F71"/>
</linearGradient>
<linearGradient id="paint3_linear_1_1147" x1="0.25" y1="107.37" x2="2.7" y2="107.37" gradientUnits="userSpaceOnUse">
<stop stop-color="#6D6F71"/>
<stop offset="0.01" stop-color="#7B7D7F"/>
<stop offset="0.05" stop-color="#9B9C9E"/>
<stop offset="0.08" stop-color="#B6B7B8"/>
<stop offset="0.12" stop-color="#CCCDCE"/>
<stop offset="0.17" stop-color="#DDDDDE"/>
<stop offset="0.23" stop-color="#E9E9EA"/>
<stop offset="0.32" stop-color="#F0F0F1"/>
<stop offset="0.55" stop-color="#F2F2F3"/>
<stop offset="0.74" stop-color="#F0F0F1"/>
<stop offset="0.81" stop-color="#E9E9EA"/>
<stop offset="0.86" stop-color="#DDDDDE"/>
<stop offset="0.9" stop-color="#CCCDCE"/>
<stop offset="0.93" stop-color="#B6B7B8"/>
<stop offset="0.96" stop-color="#9B9C9E"/>
<stop offset="0.99" stop-color="#7B7D7F"/>
<stop offset="1" stop-color="#6D6F71"/>
</linearGradient>
<linearGradient id="paint4_linear_1_1147" x1="1.48" y1="167.1" x2="1.48" y2="133.25" gradientUnits="userSpaceOnUse">
<stop stop-color="#6D6F71"/>
<stop offset="0.01" stop-color="#7B7D7F"/>
<stop offset="0.05" stop-color="#9B9C9E"/>
<stop offset="0.08" stop-color="#B6B7B8"/>
<stop offset="0.12" stop-color="#CCCDCE"/>
<stop offset="0.17" stop-color="#DDDDDE"/>
<stop offset="0.23" stop-color="#E9E9EA"/>
<stop offset="0.32" stop-color="#F0F0F1"/>
<stop offset="0.55" stop-color="#F2F2F3"/>
<stop offset="0.74" stop-color="#F0F0F1"/>
<stop offset="0.81" stop-color="#E9E9EA"/>
<stop offset="0.86" stop-color="#DDDDDE"/>
<stop offset="0.9" stop-color="#CCCDCE"/>
<stop offset="0.93" stop-color="#B6B7B8"/>
<stop offset="0.96" stop-color="#9B9C9E"/>
<stop offset="0.99" stop-color="#7B7D7F"/>
<stop offset="1" stop-color="#6D6F71"/>
</linearGradient>
<linearGradient id="paint5_linear_1_1147" x1="0.25" y1="150.18" x2="2.7" y2="150.18" gradientUnits="userSpaceOnUse">
<stop stop-color="#6D6F71"/>
<stop offset="0.01" stop-color="#7B7D7F"/>
<stop offset="0.05" stop-color="#9B9C9E"/>
<stop offset="0.08" stop-color="#B6B7B8"/>
<stop offset="0.12" stop-color="#CCCDCE"/>
<stop offset="0.17" stop-color="#DDDDDE"/>
<stop offset="0.23" stop-color="#E9E9EA"/>
<stop offset="0.32" stop-color="#F0F0F1"/>
<stop offset="0.55" stop-color="#F2F2F3"/>
<stop offset="0.74" stop-color="#F0F0F1"/>
<stop offset="0.81" stop-color="#E9E9EA"/>
<stop offset="0.86" stop-color="#DDDDDE"/>
<stop offset="0.9" stop-color="#CCCDCE"/>
<stop offset="0.93" stop-color="#B6B7B8"/>
<stop offset="0.96" stop-color="#9B9C9E"/>
<stop offset="0.99" stop-color="#7B7D7F"/>
<stop offset="1" stop-color="#6D6F71"/>
</linearGradient>
<linearGradient id="paint6_linear_1_1147" x1="194.39" y1="154.03" x2="194.39" y2="103.52" gradientUnits="userSpaceOnUse">
<stop stop-color="#6D6F71"/>
<stop offset="0.01" stop-color="#7B7D7F"/>
<stop offset="0.05" stop-color="#9B9C9E"/>
<stop offset="0.08" stop-color="#B6B7B8"/>
<stop offset="0.12" stop-color="#CCCDCE"/>
<stop offset="0.17" stop-color="#DDDDDE"/>
<stop offset="0.23" stop-color="#E9E9EA"/>
<stop offset="0.32" stop-color="#F0F0F1"/>
<stop offset="0.55" stop-color="#F2F2F3"/>
<stop offset="0.74" stop-color="#F0F0F1"/>
<stop offset="0.81" stop-color="#E9E9EA"/>
<stop offset="0.86" stop-color="#DDDDDE"/>
<stop offset="0.9" stop-color="#CCCDCE"/>
<stop offset="0.93" stop-color="#B6B7B8"/>
<stop offset="0.96" stop-color="#9B9C9E"/>
<stop offset="0.99" stop-color="#7B7D7F"/>
<stop offset="1" stop-color="#6D6F71"/>
</linearGradient>
<linearGradient id="paint7_linear_1_1147" x1="193.53" y1="128.77" x2="195.25" y2="128.77" gradientUnits="userSpaceOnUse">
<stop stop-color="#6D6F71"/>
<stop offset="0.01" stop-color="#7B7D7F"/>
<stop offset="0.05" stop-color="#9B9C9E"/>
<stop offset="0.08" stop-color="#B6B7B8"/>
<stop offset="0.12" stop-color="#CCCDCE"/>
<stop offset="0.17" stop-color="#DDDDDE"/>
<stop offset="0.23" stop-color="#E9E9EA"/>
<stop offset="0.32" stop-color="#F0F0F1"/>
<stop offset="0.55" stop-color="#F2F2F3"/>
<stop offset="0.74" stop-color="#F0F0F1"/>
<stop offset="0.81" stop-color="#E9E9EA"/>
<stop offset="0.86" stop-color="#DDDDDE"/>
<stop offset="0.9" stop-color="#CCCDCE"/>
<stop offset="0.93" stop-color="#B6B7B8"/>
<stop offset="0.96" stop-color="#9B9C9E"/>
<stop offset="0.99" stop-color="#7B7D7F"/>
<stop offset="1" stop-color="#6D6F71"/>
</linearGradient>
<linearGradient id="paint8_linear_1_1147" x1="15.4759" y1="89.9012" x2="181.176" y2="89.9301" gradientUnits="userSpaceOnUse">
<stop stop-color="#FF5A2B"/>
<stop offset="0.9" stop-color="#F2A040"/>
</linearGradient>
<linearGradient id="paint9_linear_1_1147" x1="104.54" y1="208.81" x2="105.47" y2="225.32" gradientUnits="userSpaceOnUse">
<stop offset="0.02" stop-color="#A55582"/>
<stop offset="0.42" stop-color="#B4496F"/>
<stop offset="0.57" stop-color="#BC4768"/>
<stop offset="0.82" stop-color="#D44455"/>
<stop offset="0.91" stop-color="#DE434D"/>
</linearGradient>
<linearGradient id="paint10_linear_1_1147" x1="93.52" y1="219.46" x2="87.7" y2="234.34" gradientUnits="userSpaceOnUse">
<stop stop-color="#FFDE65"/>
<stop offset="0.02" stop-color="#FFD954"/>
<stop offset="0.13" stop-color="#FFC706"/>
<stop offset="0.14" stop-color="#FDC10B"/>
<stop offset="0.26" stop-color="#F39B30"/>
<stop offset="0.32" stop-color="#F08D3F"/>
<stop offset="0.47" stop-color="#EB6948"/>
</linearGradient>
<linearGradient id="paint11_linear_1_1147" x1="97.32" y1="214.3" x2="99.71" y2="227.09" gradientUnits="userSpaceOnUse">
<stop offset="0.02" stop-color="#CD5C6C"/>
<stop offset="0.09" stop-color="#D65F68"/>
<stop offset="0.27" stop-color="#E86561"/>
<stop offset="0.4" stop-color="#EF685F"/>
<stop offset="0.65" stop-color="#EE754F"/>
<stop offset="0.96" stop-color="#EE8241"/>
</linearGradient>
<linearGradient id="paint12_linear_1_1147" x1="95.93" y1="220.4" x2="90.1098" y2="235.28" gradientUnits="userSpaceOnUse">
<stop stop-color="#FFDE65"/>
<stop offset="0.02" stop-color="#FFD954"/>
<stop offset="0.13" stop-color="#FFC706"/>
<stop offset="0.14" stop-color="#FDC10B"/>
<stop offset="0.26" stop-color="#F39B30"/>
<stop offset="0.32" stop-color="#F08D3F"/>
<stop offset="0.47" stop-color="#EB6948"/>
</linearGradient>
<linearGradient id="paint13_linear_1_1147" x1="93.6501" y1="214.99" x2="96.0401" y2="227.77" gradientUnits="userSpaceOnUse">
<stop offset="0.02" stop-color="#CD5C6C"/>
<stop offset="0.09" stop-color="#D65F68"/>
<stop offset="0.27" stop-color="#E86561"/>
<stop offset="0.4" stop-color="#EF685F"/>
<stop offset="0.65" stop-color="#EE754F"/>
<stop offset="0.96" stop-color="#EE8241"/>
</linearGradient>
<linearGradient id="paint14_linear_1_1147" x1="100.39" y1="213.73" x2="102.78" y2="226.51" gradientUnits="userSpaceOnUse">
<stop offset="0.02" stop-color="#CD5C6C"/>
<stop offset="0.09" stop-color="#D65F68"/>
<stop offset="0.27" stop-color="#E86561"/>
<stop offset="0.4" stop-color="#EF685F"/>
<stop offset="0.65" stop-color="#EE754F"/>
<stop offset="0.96" stop-color="#EE8241"/>
</linearGradient>
<linearGradient id="paint15_linear_1_1147" x1="100.97" y1="209.01" x2="101.9" y2="225.52" gradientUnits="userSpaceOnUse">
<stop offset="0.02" stop-color="#A55582"/>
<stop offset="0.42" stop-color="#B4496F"/>
<stop offset="0.57" stop-color="#BC4768"/>
<stop offset="0.82" stop-color="#D44455"/>
<stop offset="0.91" stop-color="#DE434D"/>
</linearGradient>
<linearGradient id="paint16_linear_1_1147" x1="100.39" y1="213.73" x2="102.78" y2="226.51" gradientUnits="userSpaceOnUse">
<stop offset="0.02" stop-color="#CD5C6C"/>
<stop offset="0.09" stop-color="#D65F68"/>
<stop offset="0.27" stop-color="#E86561"/>
<stop offset="0.4" stop-color="#EF685F"/>
<stop offset="0.65" stop-color="#EE754F"/>
<stop offset="0.96" stop-color="#EE8241"/>
</linearGradient>
<linearGradient id="paint17_linear_1_1147" x1="95.86" y1="220.37" x2="90.05" y2="235.26" gradientUnits="userSpaceOnUse">
<stop stop-color="#FFDE65"/>
<stop offset="0.02" stop-color="#FFD954"/>
<stop offset="0.13" stop-color="#FFC706"/>
<stop offset="0.14" stop-color="#FDC10B"/>
<stop offset="0.26" stop-color="#F39B30"/>
<stop offset="0.32" stop-color="#F08D3F"/>
<stop offset="0.47" stop-color="#EB6948"/>
</linearGradient>
<linearGradient id="paint18_linear_1_1147" x1="93.52" y1="215.01" x2="95.91" y2="227.8" gradientUnits="userSpaceOnUse">
<stop offset="0.02" stop-color="#CD5C6C"/>
<stop offset="0.09" stop-color="#D65F68"/>
<stop offset="0.27" stop-color="#E86561"/>
<stop offset="0.4" stop-color="#EF685F"/>
<stop offset="0.65" stop-color="#EE754F"/>
<stop offset="0.96" stop-color="#EE8241"/>
</linearGradient>
<linearGradient id="paint19_linear_1_1147" x1="163.37" y1="329.39" x2="181.49" y2="329.39" gradientUnits="userSpaceOnUse">
<stop stop-color="#EE6934"/>
<stop offset="0.39" stop-color="#F26646"/>
<stop offset="1" stop-color="#FD606D"/>
</linearGradient>
<clipPath id="clip0_1_1147">
<rect width="195" height="400" fill="white" transform="translate(0.25 0.939941)"/>
</clipPath>
<clipPath id="clip1_1_1147">
<rect width="195" height="400" fill="white" transform="translate(0.25 0.939941)"/>
</clipPath>
<clipPath id="clip2_1_1147">
<rect width="195" height="400" fill="white" transform="translate(0.25 0.939941)"/>
</clipPath>
</defs>
</svg>
