<svg width="196" height="401" viewBox="0 0 196 401" fill="none" xmlns="http://www.w3.org/2000/svg">
<g clip-path="url(#clip0_1_986)">
<g clip-path="url(#clip1_1_986)">
<path d="M122.86 173.56V199.89C122.86 199.89 122.95 203.97 119.58 207.84C116.21 211.71 111.78 212.18 110.6 212.18H105.56L106.2 182.89C106.2 182.89 106.28 178.49 109.96 174.81C113.64 171.13 117.94 171.55 117.94 171.55H120.93C120.93 171.55 122.86 171.37 122.86 173.56Z" fill="url(#paint0_linear_1_986)"/>
<path d="M89.49 194.34L89.64 212.18H74.9C74.9 212.18 73.15 212.14 73.15 210.77V205.42C73.15 205.42 73.08 201.48 76.13 198.17C79.18 194.86 82.81 194.43 83.94 194.43C85.07 194.43 89.5 194.34 89.5 194.34H89.49Z" fill="url(#paint1_linear_1_986)"/>
<path d="M106.26 212.18H88.81L89.48 194.34C89.48 194.34 89.27 190.09 93.2 186.32C95.89 183.73 98.39 183.08 100.57 183.08H106.18L106.26 212.18Z" fill="url(#paint2_linear_1_986)"/>
<path opacity="0.61" d="M105.54 212.18H106.27L106.19 183.08L105.54 212.18Z" fill="#B30D31"/>
<path opacity="0.59" d="M89.49 194.12L88.8 212.18H89.62L89.49 194.12Z" fill="#C64E28"/>
<path d="M82.19 218.17H84.44V227.13H82.19V226.18C81.75 226.6 81.31 226.9 80.87 227.08C80.43 227.26 79.95 227.36 79.43 227.36C78.27 227.36 77.27 226.91 76.43 226.01C75.17 224.66 75.16 224 75.16 222.66C75.16 221.32 75.57 220.14 76.39 219.26C77.21 218.38 78.2 217.93 79.37 217.93C79.91 217.93 80.41 218.03 80.88 218.23C81.35 218.43 81.79 218.74 82.19 219.14V218.15V218.17ZM79.83 220.01C79.14 220.01 78.56 220.26 78.1 220.75C77.64 221.24 77.41 221.87 77.41 222.64C77.41 223.41 77.64 224.05 78.11 224.55C78.58 225.05 79.15 225.3 79.84 225.3C80.53 225.3 81.13 225.05 81.6 224.56C82.07 224.07 82.3 223.42 82.3 222.63C82.3 221.84 82.07 221.22 81.6 220.74C81.14 220.26 80.55 220.02 79.84 220.02L79.83 220.01ZM87.58 214.49C87.97 214.49 88.31 214.63 88.59 214.92C88.87 215.21 89.01 215.55 89.01 215.96C89.01 216.37 88.87 216.7 88.59 216.99C88.31 217.27 87.98 217.41 87.59 217.41C87.2 217.41 86.85 217.27 86.57 216.98C86.29 216.69 86.15 216.34 86.15 215.93C86.15 215.52 86.29 215.2 86.57 214.92C86.85 214.64 87.19 214.5 87.58 214.5V214.49ZM86.46 218.18H88.71V227.14H86.46V218.18ZM90.22 218.17H92.15V219.3C92.36 218.86 92.64 218.52 92.98 218.29C93.33 218.06 93.7 217.94 94.12 217.94C94.41 217.94 94.72 218.02 95.03 218.17L94.33 220.11C94.07 219.98 93.85 219.91 93.68 219.91C93.33 219.91 93.04 220.12 92.8 220.55C92.56 220.98 92.44 221.82 92.44 223.07V227.13H90.22V218.17ZM102.76 218.17H105.01V227.13H102.76V226.18C102.32 226.6 101.88 226.9 101.44 227.08C101 227.26 100.52 227.36 100 227.36C98.84 227.36 97.84 226.91 97 226.01C96.16 225.11 95.73 224 95.73 222.66C95.73 221.32 96.14 220.14 96.96 219.26C97.78 218.38 98.77 217.93 99.94 217.93C100.48 217.93 100.98 218.03 101.45 218.23C101.92 218.43 102.36 218.74 102.76 219.14V218.15V218.17ZM100.4 220.01C99.71 220.01 99.13 220.26 98.67 220.75C98.21 221.24 97.98 221.87 97.98 222.64C97.98 223.795 98.21 224.05 98.68 224.55C99.15 225.05 99.72 225.3 100.41 225.3C101.1 225.3 101.7 225.05 102.17 224.56C102.64 224.07 102.87 223.42 102.87 222.63C102.87 221.84 102.64 221.22 102.17 220.74C101.7 220.26 101.12 220.02 100.41 220.02L100.4 220.01ZM107.03 214.72H109.28V227.14H107.03V214.72ZM115.53 217.94C116.38 217.94 117.17 218.15 117.91 218.57C118.65 218.99 119.23 219.57 119.65 220.29C120.07 221.01 120.28 221.8 120.28 222.64C120.28 223.48 120.07 224.28 119.65 225.01C119.23 225.75 118.66 226.32 117.93 226.74C117.2 227.16 116.41 227.36 115.53 227.36C114.25 227.36 113.15 226.9 112.24 225.99C111.33 225.08 110.88 223.97 110.88 222.66C110.88 221.26 111.39 220.09 112.42 219.16C113.32 218.35 114.36 217.94 115.52 217.94H115.53ZM115.57 220.06C114.87 220.06 114.29 220.3 113.83 220.79C113.37 221.28 113.13 221.9 113.13 222.66C113.13 223.42 113.36 224.07 113.82 224.55C114.28 225.03 114.86 225.27 115.56 225.27C116.61 225.27 116.85 225.03 117.32 224.54C117.79 224.05 118.02 223.42 118.02 222.65C118.02 221.88 117.79 221.26 117.33 220.78C116.87 220.3 116.28 220.06 115.57 220.06Z" fill="#4A4A4C"/>
<path d="M165.56 0.939941H30.44C15.01 0.939941 2.45999 13.4899 2.45999 28.9199V373C2.45999 388.43 15.01 400.98 30.44 400.98H165.56C180.99 400.98 193.54 388.43 193.54 373V28.9199C193.54 13.4899 180.99 0.939941 165.56 0.939941ZM185.6 373C185.6 384.05 176.61 393.04 165.56 393.04H30.44C19.39 393.04 10.4 384.05 10.4 373V28.9199C10.4 17.8699 19.39 8.87994 30.44 8.87994H49.3C50.65 8.87994 51.75 9.97994 51.75 11.3299V17.8399C51.75 21.4899 55.1 24.4599 59.21 24.4599H136.79C140.9 24.4599 144.25 21.4899 144.25 17.8399V11.3299C144.25 9.97994 145.35 8.87994 146.7 8.87994H165.56C176.61 8.87994 185.6 17.8699 185.6 28.9199V373Z" fill="#CCCCCC"/>
<path d="M114.27 13.49H81.73C80.9 13.49 80.22 14.17 80.22 15C80.22 15.83 80.9 16.51 81.73 16.51H114.27C115.1 16.51 115.78 15.83 115.78 15C115.78 14.17 115.1 13.49 114.27 13.49Z" fill="#444444"/>
<path d="M0.25 52.17V67.68C0.25 68.88 1.22 69.85 2.42 69.85H2.46V49.99H2.42C1.22 49.99 0.25 50.96 0.25 52.16V52.17Z" fill="url(#paint3_linear_1_986)"/>
<path style="mix-blend-mode:multiply" opacity="0.5" d="M0.25 52.17V67.68C0.25 68.88 1.22 69.85 2.42 69.85H2.46V49.99H2.42C1.22 49.99 0.25 50.96 0.25 52.16V52.17Z" fill="url(#paint4_linear_1_986)"/>
<path d="M0.25 92.6799V122.05C0.25 123.29 1.25 124.29 2.49 124.29H2.7V90.4399H2.49C1.25 90.4399 0.25 91.4399 0.25 92.6799Z" fill="url(#paint5_linear_1_986)"/>
<path style="mix-blend-mode:multiply" opacity="0.5" d="M0.25 92.6799V122.05C0.25 123.29 1.25 124.29 2.49 124.29H2.7V90.4399H2.49C1.25 90.4399 0.25 91.4399 0.25 92.6799Z" fill="url(#paint6_linear_1_986)"/>
<path d="M0.25 135.49V164.86C0.25 166.1 1.25 167.1 2.49 167.1H2.7V133.25H2.49C1.25 133.25 0.25 134.25 0.25 135.49Z" fill="url(#paint7_linear_1_986)"/>
<path style="mix-blend-mode:multiply" opacity="0.5" d="M0.25 135.49V164.86C0.25 166.1 1.25 167.1 2.49 167.1H2.7V133.25H2.49C1.25 133.25 0.25 134.25 0.25 135.49Z" fill="url(#paint8_linear_1_986)"/>
<path d="M189.74 28.92V370C189.74 383.34 178.89 394.19 165.55 394.19H30.44C17.1 394.19 6.25 383.34 6.25 370V28.92C6.25 15.58 17.1 4.72998 30.44 4.72998H165.56C178.9 4.72998 189.75 15.58 189.75 28.92H189.74ZM165.55 9.00998H146.69C145.41 9.00998 144.37 10.05 144.37 11.33V17.84C144.37 21.56 140.97 24.58 136.78 24.58H59.21C55.02 24.58 51.62 21.56 51.62 17.84V11.33C51.62 10.05 50.58 9.00998 49.3 9.00998H30.44C19.44 9.00998 10.53 17.92 10.53 28.92V370C10.53 381 19.44 389.91 30.44 389.91H165.56C176.56 389.91 185.47 381 185.47 370V28.92C185.47 17.92 176.56 9.00998 165.56 9.00998H165.55ZM185.59 28.92V370C185.59 381.05 176.6 390.04 165.55 390.04H30.44C19.39 390.04 10.4 381.05 10.4 370V28.92C10.4 17.87 19.39 8.87998 30.44 8.87998H49.3C50.65 8.87998 51.75 9.97998 51.75 11.33V17.84C51.75 21.49 55.1 24.46 59.21 24.46H136.79C140.9 24.46 144.25 21.49 144.25 17.84V11.33C144.25 9.97998 145.35 8.87998 146.7 8.87998H165.56C176.61 8.87998 185.6 17.87 185.6 28.92H185.59ZM185.34 28.92C185.34 18.01 176.47 9.12998 165.55 9.12998H146.69C145.48 9.12998 144.49 10.12 144.49 11.33V17.84C144.49 21.63 141.03 24.71 136.78 24.71H59.21C54.96 24.71 51.5 21.63 51.5 17.84V11.33C51.5 10.12 50.51 9.12998 49.3 9.12998H30.44C19.53 9.12998 10.65 18.01 10.65 28.92V370C10.65 380.91 19.52 389.79 30.44 389.79H165.55C176.46 389.79 185.34 380.91 185.34 370V28.92Z" fill="#09090C"/>
<path d="M193.53 103.52V154.03C194.48 154.03 195.25 153.04 195.25 151.82V105.73C195.25 104.51 194.48 103.52 193.53 103.52Z" fill="url(#paint9_linear_1_986)"/>
<path style="mix-blend-mode:multiply" opacity="0.5" d="M193.53 103.52V154.03C194.48 154.03 195.25 153.04 195.25 151.82V105.73C195.25 104.51 194.48 103.52 193.53 103.52Z" fill="url(#paint10_linear_1_986)"/>
</g>
</g>
<defs>
<linearGradient id="paint0_linear_1_986" x1="112.87" y1="169.28" x2="115.21" y2="210.55" gradientUnits="userSpaceOnUse">
<stop offset="0.02" stop-color="#A55582"/>
<stop offset="0.42" stop-color="#B4496F"/>
<stop offset="0.57" stop-color="#BC4768"/>
<stop offset="0.82" stop-color="#D44455"/>
<stop offset="0.91" stop-color="#DE434D"/>
</linearGradient>
<linearGradient id="paint1_linear_1_986" x1="86.04" y1="196.02" x2="71.5" y2="233.22" gradientUnits="userSpaceOnUse">
<stop stop-color="#FFDE65"/>
<stop offset="0.02" stop-color="#FFD954"/>
<stop offset="0.13" stop-color="#FFC706"/>
<stop offset="0.14" stop-color="#FDC10B"/>
<stop offset="0.26" stop-color="#F39B30"/>
<stop offset="0.32" stop-color="#F08D3F"/>
<stop offset="0.47" stop-color="#EB6948"/>
</linearGradient>
<linearGradient id="paint2_linear_1_986" x1="94.78" y1="183.06" x2="100.75" y2="215.02" gradientUnits="userSpaceOnUse">
<stop offset="0.02" stop-color="#CD5C6C"/>
<stop offset="0.09" stop-color="#D65F68"/>
<stop offset="0.27" stop-color="#E86561"/>
<stop offset="0.4" stop-color="#EF685F"/>
<stop offset="0.65" stop-color="#EE754F"/>
<stop offset="0.96" stop-color="#EE8241"/>
</linearGradient>
<linearGradient id="paint3_linear_1_986" x1="1.36" y1="69.85" x2="1.36" y2="49.99" gradientUnits="userSpaceOnUse">
<stop stop-color="#6D6F71"/>
<stop offset="0.01" stop-color="#7B7D7F"/>
<stop offset="0.05" stop-color="#9B9C9E"/>
<stop offset="0.08" stop-color="#B6B7B8"/>
<stop offset="0.12" stop-color="#CCCDCE"/>
<stop offset="0.17" stop-color="#DDDDDE"/>
<stop offset="0.23" stop-color="#E9E9EA"/>
<stop offset="0.32" stop-color="#F0F0F1"/>
<stop offset="0.55" stop-color="#F2F2F3"/>
<stop offset="0.74" stop-color="#F0F0F1"/>
<stop offset="0.81" stop-color="#E9E9EA"/>
<stop offset="0.86" stop-color="#DDDDDE"/>
<stop offset="0.9" stop-color="#CCCDCE"/>
<stop offset="0.93" stop-color="#B6B7B8"/>
<stop offset="0.96" stop-color="#9B9C9E"/>
<stop offset="0.99" stop-color="#7B7D7F"/>
<stop offset="1" stop-color="#6D6F71"/>
</linearGradient>
<linearGradient id="paint4_linear_1_986" x1="0.25" y1="59.92" x2="2.46" y2="59.92" gradientUnits="userSpaceOnUse">
<stop stop-color="#6D6F71"/>
<stop offset="0.01" stop-color="#7B7D7F"/>
<stop offset="0.05" stop-color="#9B9C9E"/>
<stop offset="0.08" stop-color="#B6B7B8"/>
<stop offset="0.12" stop-color="#CCCDCE"/>
<stop offset="0.17" stop-color="#DDDDDE"/>
<stop offset="0.23" stop-color="#E9E9EA"/>
<stop offset="0.32" stop-color="#F0F0F1"/>
<stop offset="0.55" stop-color="#F2F2F3"/>
<stop offset="0.74" stop-color="#F0F0F1"/>
<stop offset="0.81" stop-color="#E9E9EA"/>
<stop offset="0.86" stop-color="#DDDDDE"/>
<stop offset="0.9" stop-color="#CCCDCE"/>
<stop offset="0.93" stop-color="#B6B7B8"/>
<stop offset="0.96" stop-color="#9B9C9E"/>
<stop offset="0.99" stop-color="#7B7D7F"/>
<stop offset="1" stop-color="#6D6F71"/>
</linearGradient>
<linearGradient id="paint5_linear_1_986" x1="1.48" y1="124.29" x2="1.48" y2="90.4399" gradientUnits="userSpaceOnUse">
<stop stop-color="#6D6F71"/>
<stop offset="0.01" stop-color="#7B7D7F"/>
<stop offset="0.05" stop-color="#9B9C9E"/>
<stop offset="0.08" stop-color="#B6B7B8"/>
<stop offset="0.12" stop-color="#CCCDCE"/>
<stop offset="0.17" stop-color="#DDDDDE"/>
<stop offset="0.23" stop-color="#E9E9EA"/>
<stop offset="0.32" stop-color="#F0F0F1"/>
<stop offset="0.55" stop-color="#F2F2F3"/>
<stop offset="0.74" stop-color="#F0F0F1"/>
<stop offset="0.81" stop-color="#E9E9EA"/>
<stop offset="0.86" stop-color="#DDDDDE"/>
<stop offset="0.9" stop-color="#CCCDCE"/>
<stop offset="0.93" stop-color="#B6B7B8"/>
<stop offset="0.96" stop-color="#9B9C9E"/>
<stop offset="0.99" stop-color="#7B7D7F"/>
<stop offset="1" stop-color="#6D6F71"/>
</linearGradient>
<linearGradient id="paint6_linear_1_986" x1="0.25" y1="107.37" x2="2.7" y2="107.37" gradientUnits="userSpaceOnUse">
<stop stop-color="#6D6F71"/>
<stop offset="0.01" stop-color="#7B7D7F"/>
<stop offset="0.05" stop-color="#9B9C9E"/>
<stop offset="0.08" stop-color="#B6B7B8"/>
<stop offset="0.12" stop-color="#CCCDCE"/>
<stop offset="0.17" stop-color="#DDDDDE"/>
<stop offset="0.23" stop-color="#E9E9EA"/>
<stop offset="0.32" stop-color="#F0F0F1"/>
<stop offset="0.55" stop-color="#F2F2F3"/>
<stop offset="0.74" stop-color="#F0F0F1"/>
<stop offset="0.81" stop-color="#E9E9EA"/>
<stop offset="0.86" stop-color="#DDDDDE"/>
<stop offset="0.9" stop-color="#CCCDCE"/>
<stop offset="0.93" stop-color="#B6B7B8"/>
<stop offset="0.96" stop-color="#9B9C9E"/>
<stop offset="0.99" stop-color="#7B7D7F"/>
<stop offset="1" stop-color="#6D6F71"/>
</linearGradient>
<linearGradient id="paint7_linear_1_986" x1="1.48" y1="167.1" x2="1.48" y2="133.25" gradientUnits="userSpaceOnUse">
<stop stop-color="#6D6F71"/>
<stop offset="0.01" stop-color="#7B7D7F"/>
<stop offset="0.05" stop-color="#9B9C9E"/>
<stop offset="0.08" stop-color="#B6B7B8"/>
<stop offset="0.12" stop-color="#CCCDCE"/>
<stop offset="0.17" stop-color="#DDDDDE"/>
<stop offset="0.23" stop-color="#E9E9EA"/>
<stop offset="0.32" stop-color="#F0F0F1"/>
<stop offset="0.55" stop-color="#F2F2F3"/>
<stop offset="0.74" stop-color="#F0F0F1"/>
<stop offset="0.81" stop-color="#E9E9EA"/>
<stop offset="0.86" stop-color="#DDDDDE"/>
<stop offset="0.9" stop-color="#CCCDCE"/>
<stop offset="0.93" stop-color="#B6B7B8"/>
<stop offset="0.96" stop-color="#9B9C9E"/>
<stop offset="0.99" stop-color="#7B7D7F"/>
<stop offset="1" stop-color="#6D6F71"/>
</linearGradient>
<linearGradient id="paint8_linear_1_986" x1="0.25" y1="150.18" x2="2.7" y2="150.18" gradientUnits="userSpaceOnUse">
<stop stop-color="#6D6F71"/>
<stop offset="0.01" stop-color="#7B7D7F"/>
<stop offset="0.05" stop-color="#9B9C9E"/>
<stop offset="0.08" stop-color="#B6B7B8"/>
<stop offset="0.12" stop-color="#CCCDCE"/>
<stop offset="0.17" stop-color="#DDDDDE"/>
<stop offset="0.23" stop-color="#E9E9EA"/>
<stop offset="0.32" stop-color="#F0F0F1"/>
<stop offset="0.55" stop-color="#F2F2F3"/>
<stop offset="0.74" stop-color="#F0F0F1"/>
<stop offset="0.81" stop-color="#E9E9EA"/>
<stop offset="0.86" stop-color="#DDDDDE"/>
<stop offset="0.9" stop-color="#CCCDCE"/>
<stop offset="0.93" stop-color="#B6B7B8"/>
<stop offset="0.96" stop-color="#9B9C9E"/>
<stop offset="0.99" stop-color="#7B7D7F"/>
<stop offset="1" stop-color="#6D6F71"/>
</linearGradient>
<linearGradient id="paint9_linear_1_986" x1="194.39" y1="154.03" x2="194.39" y2="103.52" gradientUnits="userSpaceOnUse">
<stop stop-color="#6D6F71"/>
<stop offset="0.01" stop-color="#7B7D7F"/>
<stop offset="0.05" stop-color="#9B9C9E"/>
<stop offset="0.08" stop-color="#B6B7B8"/>
<stop offset="0.12" stop-color="#CCCDCE"/>
<stop offset="0.17" stop-color="#DDDDDE"/>
<stop offset="0.23" stop-color="#E9E9EA"/>
<stop offset="0.32" stop-color="#F0F0F1"/>
<stop offset="0.55" stop-color="#F2F2F3"/>
<stop offset="0.74" stop-color="#F0F0F1"/>
<stop offset="0.81" stop-color="#E9E9EA"/>
<stop offset="0.86" stop-color="#DDDDDE"/>
<stop offset="0.9" stop-color="#CCCDCE"/>
<stop offset="0.93" stop-color="#B6B7B8"/>
<stop offset="0.96" stop-color="#9B9C9E"/>
<stop offset="0.99" stop-color="#7B7D7F"/>
<stop offset="1" stop-color="#6D6F71"/>
</linearGradient>
<linearGradient id="paint10_linear_1_986" x1="193.53" y1="128.77" x2="195.25" y2="128.77" gradientUnits="userSpaceOnUse">
<stop stop-color="#6D6F71"/>
<stop offset="0.01" stop-color="#7B7D7F"/>
<stop offset="0.05" stop-color="#9B9C9E"/>
<stop offset="0.08" stop-color="#B6B7B8"/>
<stop offset="0.12" stop-color="#CCCDCE"/>
<stop offset="0.17" stop-color="#DDDDDE"/>
<stop offset="0.23" stop-color="#E9E9EA"/>
<stop offset="0.32" stop-color="#F0F0F1"/>
<stop offset="0.55" stop-color="#F2F2F3"/>
<stop offset="0.74" stop-color="#F0F0F1"/>
<stop offset="0.81" stop-color="#E9E9EA"/>
<stop offset="0.86" stop-color="#DDDDDE"/>
<stop offset="0.9" stop-color="#CCCDCE"/>
<stop offset="0.93" stop-color="#B6B7B8"/>
<stop offset="0.96" stop-color="#9B9C9E"/>
<stop offset="0.99" stop-color="#7B7D7F"/>
<stop offset="1" stop-color="#6D6F71"/>
</linearGradient>
<clipPath id="clip0_1_986">
<rect width="195" height="400" fill="white" transform="translate(0.25 0.939941)"/>
</clipPath>
<clipPath id="clip1_1_986">
<rect width="195" height="400" fill="white" transform="translate(0.25 0.939941)"/>
</clipPath>
</defs>
</svg>
