<svg width="196" height="401" viewBox="0 0 196 401" fill="none" xmlns="http://www.w3.org/2000/svg">
<g clip-path="url(#clip0_1_1008)">
<g clip-path="url(#clip1_1_1008)">
<g clip-path="url(#clip2_1_1008)">
<path d="M165.81 0.939941H30.69C15.27 0.939941 2.72 13.4899 2.72 28.9199V373C2.72 388.43 15.27 400.98 30.7 400.98H165.81C181.24 400.98 193.79 388.43 193.79 373V28.9199C193.79 13.4899 181.24 0.939941 165.81 0.939941ZM185.85 373C185.85 384.05 176.86 393.04 165.81 393.04H30.69C19.64 393.04 10.65 384.05 10.65 373V28.9199C10.65 17.8699 19.64 8.87994 30.69 8.87994H49.55C50.9 8.87994 52 9.97994 52 11.3299V17.8399C52 21.4899 55.35 24.4599 59.46 24.4599H137.04C141.15 24.4599 144.5 21.4899 144.5 17.8399V11.3299C144.5 9.97994 145.6 8.87994 146.95 8.87994H165.81C176.86 8.87994 185.85 17.8699 185.85 28.9199V373Z" fill="#CCCCCC"/>
<path d="M114.52 13.49H81.98C81.15 13.49 80.47 14.17 80.47 15C80.47 15.83 81.15 16.51 81.98 16.51H114.52C115.35 16.51 116.03 15.83 116.03 15C116.03 14.17 115.35 13.49 114.52 13.49Z" fill="#444444"/>
<path d="M0.5 52.17V67.68C0.5 68.88 1.47 69.85 2.67 69.85H2.71V49.99H2.67C1.47 49.99 0.5 50.96 0.5 52.16V52.17Z" fill="url(#paint0_linear_1_1008)"/>
<path style="mix-blend-mode:multiply" opacity="0.5" d="M0.5 52.17V67.68C0.5 68.88 1.47 69.85 2.67 69.85H2.71V49.99H2.67C1.47 49.99 0.5 50.96 0.5 52.16V52.17Z" fill="url(#paint1_linear_1_1008)"/>
<path d="M0.5 92.6799V122.05C0.5 123.29 1.5 124.29 2.74 124.29H2.95V90.4399H2.74C1.5 90.4399 0.5 91.4399 0.5 92.6799Z" fill="url(#paint2_linear_1_1008)"/>
<path style="mix-blend-mode:multiply" opacity="0.5" d="M0.5 92.6799V122.05C0.5 123.29 1.5 124.29 2.74 124.29H2.95V90.4399H2.74C1.5 90.4399 0.5 91.4399 0.5 92.6799Z" fill="url(#paint3_linear_1_1008)"/>
<path d="M0.5 135.49V164.86C0.5 166.1 1.5 167.1 2.74 167.1H2.95V133.25H2.74C1.5 133.25 0.5 134.25 0.5 135.49Z" fill="url(#paint4_linear_1_1008)"/>
<path style="mix-blend-mode:multiply" opacity="0.5" d="M0.5 135.49V164.86C0.5 166.1 1.5 167.1 2.74 167.1H2.95V133.25H2.74C1.5 133.25 0.5 134.25 0.5 135.49Z" fill="url(#paint5_linear_1_1008)"/>
<path d="M190 28.92V370C190 383.34 179.15 394.19 165.81 394.19H30.69C17.35 394.19 6.5 383.34 6.5 370V28.92C6.5 15.58 17.35 4.72998 30.69 4.72998H165.81C179.15 4.72998 190 15.58 190 28.92ZM165.81 9.00998H146.95C145.67 9.00998 144.63 10.05 144.63 11.33V17.84C144.63 21.56 141.23 24.58 137.04 24.58H59.46C55.27 24.58 51.87 21.56 51.87 17.84V11.33C51.87 10.05 50.83 9.00998 49.55 9.00998H30.69C19.69 9.00998 10.78 17.92 10.78 28.92V370C10.78 381 19.69 389.91 30.69 389.91H165.81C176.81 389.91 185.72 381 185.72 370V28.92C185.72 17.92 176.81 9.00998 165.81 9.00998ZM185.85 28.92V370C185.85 381.05 176.86 390.04 165.81 390.04H30.69C19.64 390.04 10.65 381.05 10.65 370V28.92C10.65 17.87 19.64 8.87998 30.69 8.87998H49.55C50.9 8.87998 52 9.97998 52 11.33V17.84C52 21.49 55.35 24.46 59.46 24.46H137.04C141.15 24.46 144.5 21.49 144.5 17.84V11.33C144.5 9.97998 145.6 8.87998 146.95 8.87998H165.81C176.86 8.87998 185.85 17.87 185.85 28.92ZM185.6 28.92C185.6 18.01 176.73 9.12998 165.81 9.12998H146.95C145.74 9.12998 144.75 10.12 144.75 11.33V17.84C144.75 21.63 141.29 24.71 137.04 24.71H59.46C55.21 24.71 51.75 21.63 51.75 17.84V11.33C51.75 10.12 50.76 9.12998 49.55 9.12998H30.69C19.78 9.12998 10.9 18.01 10.9 28.92V370C10.9 380.91 19.77 389.79 30.69 389.79H165.81C176.72 389.79 185.6 380.91 185.6 370V28.92Z" fill="#09090C"/>
<path d="M194.03 103.52V154.03C194.98 154.03 195.75 153.04 195.75 151.82V105.73C195.75 104.51 194.98 103.52 194.03 103.52Z" fill="url(#paint6_linear_1_1008)"/>
<path style="mix-blend-mode:multiply" opacity="0.5" d="M194.03 103.52V154.03C194.98 154.03 195.75 153.04 195.75 151.82V105.73C195.75 104.51 194.98 103.52 194.03 103.52Z" fill="url(#paint7_linear_1_1008)"/>
<mask id="mask0_1_1008" style="mask-type:luminance" maskUnits="userSpaceOnUse" x="10" y="9" width="176" height="381">
<mask id="mask1_1_1008" style="mask-type:luminance" maskUnits="userSpaceOnUse" x="10" y="9" width="176" height="381">
<mask id="mask2_1_1008" style="mask-type:luminance" maskUnits="userSpaceOnUse" x="10" y="9" width="176" height="381">
<path d="M165.81 9H146.95C145.67 9 144.63 10.04 144.63 11.32V17.83C144.63 21.55 141.23 24.57 137.04 24.57H59.46C55.27 24.57 51.87 21.55 51.87 17.83V11.32C51.87 10.04 50.83 9 49.55 9H30.69C19.69 9 10.78 17.91 10.78 28.91V370C10.78 381 19.69 389.91 30.69 389.91H165.81C176.81 389.91 185.72 381 185.72 370V28.92C185.72 17.92 176.81 9.01 165.81 9.01V9Z" fill="white"/>
</mask>
<g mask="url(#mask2_1_1008)">
<path d="M185.85 28.92V370C185.85 381.05 176.86 390.04 165.81 390.04H30.69C19.64 390.04 10.65 381.05 10.65 370V28.92C10.65 17.87 19.64 8.88 30.69 8.88H49.55C50.9 8.88 52 9.98001 52 11.33V17.84C52 21.49 55.35 24.46 59.46 24.46H137.04C141.15 24.46 144.5 21.49 144.5 17.84V11.33C144.5 9.98001 145.6 8.88 146.95 8.88H165.81C176.86 8.88 185.85 17.87 185.85 28.92Z" fill="white"/>
</g>
</mask>
<g mask="url(#mask1_1_1008)">
<path d="M185.59 28.92C185.59 18.01 176.72 9.13 165.8 9.13H146.94C145.73 9.13 144.74 10.12 144.74 11.33V17.84C144.74 21.63 141.28 24.71 137.03 24.71H59.46C55.21 24.71 51.75 21.63 51.75 17.84V11.33C51.75 10.12 50.76 9.13 49.55 9.13H30.69C19.78 9.13 10.9 18.01 10.9 28.92V370C10.9 380.91 19.77 389.79 30.69 389.79H165.81C176.72 389.79 185.6 380.91 185.6 370V28.92H185.59Z" fill="white"/>
</g>
</mask>
<g mask="url(#mask0_1_1008)">
<path d="M7.69 38.62H188.81V370.96H7.69V38.62Z" fill="#F0F0F0"/>
<path d="M7.69 359.36H188.81V395.46H7.69V359.36Z" fill="white"/>
<path d="M176.54 303.45H18.78C17.1231 303.45 15.78 304.793 15.78 306.45V324.84C15.78 326.497 17.1231 327.84 18.78 327.84H176.54C178.197 327.84 179.54 326.497 179.54 324.84V306.45C179.54 304.793 178.197 303.45 176.54 303.45Z" fill="white"/>
<path d="M176.54 332.09H18.78C17.1231 332.09 15.78 333.433 15.78 335.09V353.48C15.78 355.137 17.1231 356.48 18.78 356.48H176.54C178.197 356.48 179.54 355.137 179.54 353.48V335.09C179.54 333.433 178.197 332.09 176.54 332.09Z" fill="white"/>
<path d="M176.54 246.18H18.78C17.1231 246.18 15.78 247.523 15.78 249.18V267.57C15.78 269.227 17.1231 270.57 18.78 270.57H176.54C178.197 270.57 179.54 269.227 179.54 267.57V249.18C179.54 247.523 178.197 246.18 176.54 246.18Z" fill="white"/>
<path d="M176.54 274.82H18.78C17.1231 274.82 15.78 276.163 15.78 277.82V296.21C15.78 297.867 17.1231 299.21 18.78 299.21H176.54C178.197 299.21 179.54 297.867 179.54 296.21V277.82C179.54 276.163 178.197 274.82 176.54 274.82Z" fill="white"/>
<path d="M176.54 188.92H18.78C17.1231 188.92 15.78 190.263 15.78 191.92V210.31C15.78 211.967 17.1231 213.31 18.78 213.31H176.54C178.197 213.31 179.54 211.967 179.54 210.31V191.92C179.54 190.263 178.197 188.92 176.54 188.92Z" fill="white"/>
<path d="M176.54 217.55H18.78C17.1231 217.55 15.78 218.893 15.78 220.55V238.94C15.78 240.597 17.1231 241.94 18.78 241.94H176.54C178.197 241.94 179.54 240.597 179.54 238.94V220.55C179.54 218.893 178.197 217.55 176.54 217.55Z" fill="white"/>
<path d="M7.69 3.45996H188.81V108.97H7.69V3.45996Z" fill="white"/>
<path d="M42.02 381.83H33.65C32.9873 381.83 32.45 382.367 32.45 383.03V383.04C32.45 383.703 32.9873 384.24 33.65 384.24H42.02C42.6827 384.24 43.22 383.703 43.22 383.04V383.03C43.22 382.367 42.6827 381.83 42.02 381.83Z" fill="#606060"/>
<path d="M163.77 381.83H153.48C152.817 381.83 152.28 382.367 152.28 383.03V383.04C152.28 383.703 152.817 384.24 153.48 384.24H163.77C164.433 384.24 164.97 383.703 164.97 383.04V383.03C164.97 382.367 164.433 381.83 163.77 381.83Z" fill="#A1A1A1"/>
<path d="M106.64 381.83H89.9C89.2373 381.83 88.7 382.367 88.7 383.03V383.04C88.7 383.703 89.2373 384.24 89.9 384.24H106.64C107.303 384.24 107.84 383.703 107.84 383.04V383.03C107.84 382.367 107.303 381.83 106.64 381.83Z" fill="#A1A1A1"/>
<path d="M24.69 280.49H40.89V292.79H24.69V280.49Z" fill="#D82F28"/>
<path d="M34.13 287.19L34.94 289.69L32.81 288.15L30.68 289.69L31.49 287.19L29.37 285.64H32L32.81 283.14L33.63 285.64H36.25L34.13 287.19Z" fill="#FBFF5E"/>
<path d="M36.56 308.89H41.96V321.19H36.56V308.89Z" fill="#D82F28"/>
<path d="M31.16 308.89H36.56V321.19H31.16V308.89Z" fill="#FFFCF2"/>
<path d="M25.76 308.89H31.16V321.19H25.76V308.89Z" fill="#00267E"/>
<path d="M25.17 252.08H41.37V256.18H25.17V252.08Z" fill="#F09D4B"/>
<path d="M25.17 256.18H41.37V260.28H25.17V256.18Z" fill="#FFFCF2"/>
<path d="M25.17 260.28H41.37V264.38H25.17V260.28Z" fill="#3F8427"/>
<path d="M33.27 256.39C32.25 256.39 31.42 257.21 31.42 258.23C31.42 259.25 32.25 260.08 33.27 260.08C34.29 260.08 35.12 259.25 35.12 258.23C35.12 257.21 34.29 256.39 33.27 256.39ZM33.27 256.57L33.22 257.5L33.27 258.03L33.32 257.5L33.27 256.57ZM33.27 256.57H33.41C33.41 256.57 33.44 256.66 33.49 256.66C33.53 256.66 33.56 256.63 33.56 256.59C33.61 256.59 33.65 256.61 33.7 256.62L33.42 257.5L33.33 258.02L33.51 257.52L33.71 256.61C33.71 256.61 33.8 256.64 33.84 256.65V256.68C33.84 256.72 33.87 256.76 33.92 256.76C33.95 256.76 33.98 256.74 33.99 256.71C34.03 256.73 34.07 256.75 34.11 256.78L33.61 257.56L33.39 258.05L33.7 257.62L34.12 256.8C34.12 256.8 34.2 256.85 34.24 256.87C34.23 256.88 34.22 256.9 34.22 256.92C34.22 256.96 34.25 257 34.3 257C34.32 257 34.35 257 34.36 256.97C34.4 257 34.43 257.03 34.46 257.07L33.77 257.69L33.43 258.1L33.84 257.76L34.46 257.07C34.46 257.07 34.52 257.14 34.55 257.17C34.53 257.18 34.52 257.21 34.52 257.23C34.52 257.27 34.55 257.31 34.59 257.31C34.61 257.31 34.62 257.31 34.64 257.3C34.67 257.34 34.69 257.38 34.71 257.42L33.89 257.84L33.46 258.15L33.94 257.93L34.72 257.42C34.72 257.42 34.77 257.51 34.79 257.55C34.76 257.56 34.74 257.59 34.74 257.62C34.74 257.66 34.77 257.7 34.81 257.7H34.84C34.85 257.74 34.87 257.79 34.88 257.83L33.97 258.02L33.47 258.2L33.99 258.11L34.87 257.83L34.9 257.96C34.86 257.96 34.83 257.99 34.83 258.04C34.83 258.09 34.87 258.12 34.91 258.12C34.95 258.12 34.91 258.21 34.91 258.26L33.98 258.22L33.45 258.27L33.98 258.32L34.91 258.27V258.41C34.91 258.41 34.83 258.45 34.83 258.49C34.83 258.53 34.86 258.56 34.9 258.57C34.9 258.62 34.88 258.66 34.87 258.7L34.55 258.6L33.98 258.42L33.46 258.33L33.96 258.51L34.87 258.7C34.87 258.7 34.85 258.79 34.83 258.83H34.8C34.8 258.83 34.72 258.86 34.72 258.9V258.93C34.72 258.93 34.73 258.95 34.74 258.96H34.76C34.74 259.01 34.72 259.06 34.69 259.1L33.91 258.6L33.43 258.38L33.68 258.56L33.86 258.69L34.68 259.11C34.68 259.11 34.63 259.19 34.6 259.23C34.59 259.23 34.57 259.22 34.56 259.22C34.52 259.22 34.48 259.25 34.48 259.29C34.48 259.31 34.48 259.34 34.51 259.35C34.48 259.38 34.45 259.42 34.42 259.45L33.8 258.76L33.39 258.42L33.73 258.83L34.42 259.45C34.42 259.45 34.36 259.51 34.32 259.54C34.3061 259.528 34.2885 259.521 34.27 259.52C34.23 259.52 34.19 259.56 34.19 259.6V259.63C34.15 259.65 34.11 259.68 34.07 259.71L33.65 258.89L33.34 258.45L33.56 258.93L34.06 259.71L33.94 259.77C33.9349 259.755 33.9254 259.743 33.9129 259.734C33.9004 259.725 33.8854 259.72 33.87 259.72C33.83 259.72 33.79 259.76 33.79 259.8V259.83C33.75 259.84 33.7 259.86 33.66 259.87L33.46 258.96L33.28 258.47L33.37 258.99L33.65 259.87L33.51 259.9C33.51 259.87 33.47 259.84 33.44 259.84C33.4 259.84 33.36 259.87 33.36 259.91C33.36 259.95 33.27 259.93 33.22 259.93L33.27 259L33.22 258.47L33.17 259L33.22 259.93H33.08C33.08 259.93 33.05 259.85 33 259.85C32.96 259.85 32.93 259.88 32.93 259.91C32.88 259.91 32.84 259.89 32.8 259.88L33.08 259L33.17 258.48L32.99 258.97L32.8 259.88C32.8 259.88 32.71 259.86 32.67 259.84V259.81C32.67 259.77 32.64 259.73 32.6 259.73C32.57 259.73 32.54 259.75 32.53 259.78L32.41 259.72L32.91 258.94L33.13 258.46L32.82 258.89L32.4 259.72C32.4 259.72 32.32 259.67 32.28 259.64C32.28 259.64 32.29 259.62 32.29 259.6C32.29 259.56 32.26 259.52 32.22 259.52C32.19 259.52 32.17 259.53 32.16 259.55C32.1247 259.522 32.0913 259.492 32.06 259.46L32.75 258.84L33.09 258.43L32.68 258.77L32.06 259.46L31.96 259.36C31.98 259.35 31.99 259.32 31.99 259.3C31.99 259.26 31.96 259.23 31.91 259.23C31.89 259.23 31.88 259.23 31.86 259.24C31.83 259.2 31.81 259.16 31.79 259.12L32.62 258.7L33.05 258.4L32.57 258.62L31.79 259.12L31.73 259C31.76 259 31.78 258.96 31.78 258.93C31.78 258.89 31.75 258.85 31.7 258.85H31.67C31.66 258.81 31.64 258.76 31.63 258.72L32.54 258.53L33.04 258.35L32.51 258.44L31.63 258.72L31.6 258.58C31.64 258.58 31.67 258.55 31.67 258.51C31.67 258.47 31.64 258.43 31.59 258.43C31.54 258.43 31.59 258.34 31.59 258.29L32.52 258.34L33.05 258.29L32.52 258.24L31.59 258.28V258.14H31.6C31.6 258.14 31.68 258.11 31.68 258.06C31.68 258.02 31.65 257.99 31.61 257.98C31.61 257.94 31.63 257.89 31.64 257.85L32.52 258.13L33.05 258.22L32.55 258.04L31.64 257.85C31.64 257.85 31.67 257.76 31.68 257.72H31.71C31.75 257.72 31.79 257.69 31.79 257.64C31.79 257.61 31.77 257.58 31.74 257.57C31.76 257.53 31.78 257.48 31.8 257.44L32.58 257.95L33.06 258.17L32.63 257.86L31.8 257.44C31.8 257.44 31.85 257.36 31.88 257.32C31.89 257.33 31.91 257.34 31.93 257.34C31.97 257.34 32.01 257.31 32.01 257.26C32.01 257.24 32 257.22 31.98 257.2C32.01 257.17 32.04 257.13 32.07 257.1L32.69 257.79L33.1 258.13L32.76 257.72L32.07 257.1C32.07 257.1 32.14 257.04 32.17 257.01C32.18 257.03 32.2 257.04 32.23 257.04C32.27 257.04 32.31 257.01 32.31 256.96C32.31 256.94 32.31 256.93 32.29 256.91C32.33 256.89 32.37 256.86 32.41 256.84L32.83 257.66L33.14 258.09L32.92 257.61L32.42 256.83C32.42 256.83 32.5 256.78 32.54 256.76C32.55 256.79 32.58 256.81 32.61 256.81C32.65 256.81 32.69 256.78 32.69 256.74V256.71C32.73 256.69 32.78 256.68 32.82 256.67L33.02 257.58L33.2 258.08L33.11 257.56L32.83 256.68L32.96 256.65C32.96 256.69 33 256.72 33.03 256.72C33.07 256.72 33.11 256.69 33.11 256.64C33.11 256.59 33.2 256.63 33.25 256.63" fill="#130179"/>
<path d="M33.27 257.95C33.42 257.95 33.54 258.08 33.54 258.22C33.54 258.36 33.42 258.5 33.27 258.5C33.12 258.5 32.99 258.37 32.99 258.22C32.99 258.07 33.11 257.95 33.27 257.95Z" fill="white"/>
<path d="M33.27 258.02C33.39 258.02 33.48 258.11 33.48 258.23C33.48 258.35 33.38 258.45 33.27 258.45C33.16 258.45 33.05 258.35 33.05 258.23C33.05 258.11 33.15 258.02 33.27 258.02Z" fill="#130179"/>
<path d="M24.69 337.3H40.89V341.4H24.69V337.3Z" fill="#DA4042"/>
<path d="M24.69 341.4H40.89V345.5H24.69V341.4Z" fill="#FFFCF2"/>
<path d="M24.69 345.5H40.89V349.6H24.69V345.5Z" fill="#479ED8"/>
<path d="M25.43 223.67H41.63V235.97H25.43V223.67Z" fill="#DA1D30"/>
<path d="M30.2 226.75C31.9 226.75 33.28 228.13 33.28 229.82C33.28 231.51 31.9 232.89 30.2 232.89C28.5 232.89 27.13 231.51 27.13 229.82C27.13 228.13 28.51 226.75 30.2 226.75Z" fill="white"/>
<path d="M30.96 227.36C32.32 227.36 33.42 228.46 33.42 229.82C33.42 231.18 32.32 232.28 30.96 232.28C29.6 232.28 28.5 231.18 28.5 229.82C28.5 228.46 29.6 227.36 30.96 227.36Z" fill="#DA1D30"/>
<path d="M32.79 229.82L34.25 230.3L34.49 229.56L32.79 229.82Z" fill="white"/>
<path d="M32.79 229.82L34.25 229.35L34.49 230.08L32.79 229.82Z" fill="white"/>
<path d="M33.86 228.36V229.9H34.62L33.86 228.36Z" fill="white"/>
<path d="M33.86 228.36L34.76 229.6L34.14 230.05L33.86 228.36Z" fill="white"/>
<path d="M33.86 231.29L34.76 230.04L34.14 229.59L33.86 231.29Z" fill="white"/>
<path d="M33.86 231.29V229.75H34.62L33.86 231.29Z" fill="white"/>
<path d="M35.57 228.92L34.11 229.39L34.35 230.12L35.57 228.92Z" fill="white"/>
<path d="M35.57 228.92L34.67 230.16L34.05 229.71L35.57 228.92Z" fill="white"/>
<path d="M35.57 230.73L34.67 229.48L34.05 229.93L35.57 230.73Z" fill="white"/>
<path d="M35.57 230.73L34.11 230.25L34.35 229.52L35.57 230.73Z" fill="white"/>
<mask id="mask3_1_1008" style="mask-type:luminance" maskUnits="userSpaceOnUse" x="25" y="195" width="17" height="13">
<path d="M25.45 195.26H41.65V207.56H25.45V195.26Z" fill="white"/>
</mask>
<g mask="url(#mask3_1_1008)">
<path d="M25.45 195.26H41.65V207.56H25.45V195.26Z" fill="#1F2A78"/>
<path d="M25.45 197.31H41.65V205.51H25.45V197.31Z" fill="#FFFCF2"/>
<path d="M25.45 199.36H41.65V203.46H25.45V199.36Z" fill="#AA2335"/>
</g>
<path d="M72.65 199.46H50.9C49.4806 199.46 48.33 200.611 48.33 202.03C48.33 203.449 49.4806 204.6 50.9 204.6H72.65C74.0694 204.6 75.22 203.449 75.22 202.03C75.22 200.611 74.0694 199.46 72.65 199.46Z" fill="#D0D2D3"/>
<path d="M72.65 228.15H50.9C49.4806 228.15 48.33 229.301 48.33 230.72C48.33 232.139 49.4806 233.29 50.9 233.29H72.65C74.0694 233.29 75.22 232.139 75.22 230.72C75.22 229.301 74.0694 228.15 72.65 228.15Z" fill="#D0D2D3"/>
<path d="M72.65 255.93H50.9C49.4806 255.93 48.33 257.081 48.33 258.5C48.33 259.919 49.4806 261.07 50.9 261.07H72.65C74.0694 261.07 75.22 259.919 75.22 258.5C75.22 257.081 74.0694 255.93 72.65 255.93Z" fill="#D0D2D3"/>
<path d="M72.65 284.55H50.9C49.4806 284.55 48.33 285.701 48.33 287.12C48.33 288.539 49.4806 289.69 50.9 289.69H72.65C74.0694 289.69 75.22 288.539 75.22 287.12C75.22 285.701 74.0694 284.55 72.65 284.55Z" fill="#D0D2D3"/>
<path d="M72.65 313.16H50.9C49.4806 313.16 48.33 314.311 48.33 315.73C48.33 317.149 49.4806 318.3 50.9 318.3H72.65C74.0694 318.3 75.22 317.149 75.22 315.73C75.22 314.311 74.0694 313.16 72.65 313.16Z" fill="#D0D2D3"/>
<path d="M72.65 341.78H50.9C49.4806 341.78 48.33 342.931 48.33 344.35C48.33 345.769 49.4806 346.92 50.9 346.92H72.65C74.0694 346.92 75.22 345.769 75.22 344.35C75.22 342.931 74.0694 341.78 72.65 341.78Z" fill="#D0D2D3"/>
<path d="M179.02 149.44V121.98C179.02 120.323 177.677 118.98 176.02 118.98L19.02 118.98C17.3631 118.98 16.02 120.323 16.02 121.98V149.44C16.02 151.097 17.3631 152.44 19.02 152.44H176.02C177.677 152.44 179.02 151.097 179.02 149.44Z" fill="url(#paint8_linear_1_1008)"/>
<path d="M25.64 143.21V140.32C25.64 140.32 29.24 138.84 31.43 139.54L32.84 140.25C32.84 140.25 33.55 140.6 35.66 140.67C35.66 140.67 37.96 140.53 37.92 141.59C37.9 142.27 33.9 142.72 33.9 142.72C33.9 142.72 38.75 142.08 41.76 141.74C43.88 141.5 44.35 141.34 44.49 142.08C44.65 142.93 43.97 142.97 42.8 143.28C39.86 144.04 33.98 145.4 33.98 145.4L28.19 143.35L25.65 143.21H25.64Z" stroke="white" stroke-width="0.5" stroke-linecap="round" stroke-linejoin="round"/>
<path d="M37.56 130.14C38.4934 130.14 39.25 129.383 39.25 128.45C39.25 127.517 38.4934 126.76 37.56 126.76C36.6266 126.76 35.87 127.517 35.87 128.45C35.87 129.383 36.6266 130.14 37.56 130.14Z" stroke="white" stroke-width="0.5" stroke-miterlimit="10"/>
<path d="M39.85 127.67H40.67C40.95 127.67 41.17 127.46 41.17 127.2C41.17 126.94 40.95 126.73 40.67 126.73H39.09L39.85 127.66V127.67ZM39.85 129.22H40.67C40.95 129.22 41.17 129.43 41.17 129.69C41.17 129.95 40.95 130.16 40.67 130.16H39.09L39.85 129.23V129.22ZM39.93 128H40.87C41.12 128 41.32 128.2 41.32 128.45C41.32 128.7 41.12 128.9 40.87 128.9H39.93V128.01V128Z" fill="white"/>
<path d="M32.11 134.37C33.0434 134.37 33.8 133.613 33.8 132.68C33.8 131.747 33.0434 130.99 32.11 130.99C31.1766 130.99 30.42 131.747 30.42 132.68C30.42 133.613 31.1766 134.37 32.11 134.37Z" stroke="white" stroke-width="0.5" stroke-miterlimit="10"/>
<path d="M34.4 131.9H35.22C35.5 131.9 35.72 131.69 35.72 131.43C35.72 131.17 35.5 130.96 35.22 130.96H33.64L34.4 131.89V131.9ZM34.4 133.45H35.22C35.5 133.45 35.72 133.66 35.72 133.92C35.72 134.18 35.5 134.39 35.22 134.39H33.64L34.4 133.46V133.45ZM34.48 132.23H35.42C35.67 132.23 35.87 132.43 35.87 132.68C35.87 132.93 35.67 133.13 35.42 133.13H34.48V132.24V132.23Z" fill="white"/>
<path d="M37.56 138.74C38.4934 138.74 39.25 137.983 39.25 137.05C39.25 136.117 38.4934 135.36 37.56 135.36C36.6266 135.36 35.87 136.117 35.87 137.05C35.87 137.983 36.6266 138.74 37.56 138.74Z" stroke="white" stroke-width="0.5" stroke-miterlimit="10"/>
<path d="M39.85 136.28H40.67C40.95 136.28 41.17 136.07 41.17 135.81C41.17 135.55 40.95 135.34 40.67 135.34H39.09L39.85 136.27V136.28ZM39.85 137.83H40.67C40.95 137.83 41.17 138.04 41.17 138.3C41.17 138.56 40.95 138.77 40.67 138.77H39.09L39.85 137.84V137.83ZM39.94 136.61H40.88C41.13 136.61 41.33 136.81 41.33 137.06C41.33 137.31 41.13 137.51 40.88 137.51H39.94V136.62V136.61Z" fill="white"/>
<path d="M138.68 129.86H56.38C55.0932 129.86 54.05 130.903 54.05 132.19C54.05 133.477 55.0932 134.52 56.38 134.52H138.68C139.967 134.52 141.01 133.477 141.01 132.19C141.01 130.903 139.967 129.86 138.68 129.86Z" fill="white"/>
<path d="M138.68 138.19H56.38C55.0932 138.19 54.05 139.233 54.05 140.52C54.05 141.807 55.0932 142.85 56.38 142.85H138.68C139.967 142.85 141.01 141.807 141.01 140.52C141.01 139.233 139.967 138.19 138.68 138.19Z" fill="white"/>
<path d="M115.64 96.27H80.21C78.7906 96.27 77.64 97.4206 77.64 98.84C77.64 100.259 78.7906 101.41 80.21 101.41H115.64C117.059 101.41 118.21 100.259 118.21 98.84C118.21 97.4206 117.059 96.27 115.64 96.27Z" fill="#D0D2D3"/>
<path d="M90.23 50.3199H20.46C17.7649 50.3199 15.58 52.5048 15.58 55.1999V55.7599C15.58 58.4551 17.7649 60.6399 20.46 60.6399H90.23C92.9252 60.6399 95.11 58.4551 95.11 55.7599V55.1999C95.11 52.5048 92.9252 50.3199 90.23 50.3199Z" fill="#D0D2D3"/>
<path d="M166.97 96.2799H139.59C138.331 96.2799 137.31 97.3007 137.31 98.5599V99.1399C137.31 100.399 138.331 101.42 139.59 101.42H166.97C168.229 101.42 169.25 100.399 169.25 99.1399V98.5599C169.25 97.3007 168.229 96.2799 166.97 96.2799Z" fill="#D0D2D3"/>
<path d="M175.65 66.7899H21.16C18.5146 66.7899 16.37 68.9345 16.37 71.5799V77.9299C16.37 80.5754 18.5146 82.7199 21.16 82.7199H175.65C178.295 82.7199 180.44 80.5754 180.44 77.9299V71.5799C180.44 68.9345 178.295 66.7899 175.65 66.7899Z" fill="#DEDEDF"/>
<path d="M178.24 31.6599H146.88C146.079 31.6599 145.43 32.3091 145.43 33.1099V41.8699C145.43 42.6707 146.079 43.3199 146.88 43.3199H178.24C179.041 43.3199 179.69 42.6707 179.69 41.8699V33.1099C179.69 32.3091 179.041 31.6599 178.24 31.6599Z" stroke="#DEDEDF" stroke-width="0.75" stroke-miterlimit="10"/>
<path d="M163.18 34.9199H162.68C161.658 34.9199 160.83 35.7482 160.83 36.7699V38.5799C160.83 39.6016 161.658 40.4299 162.68 40.4299H163.18C164.202 40.4299 165.03 39.6016 165.03 38.5799V36.7699C165.03 35.7482 164.202 34.9199 163.18 34.9199Z" fill="#D0D2D3"/>
<path d="M169.49 34.9199H168.99C167.968 34.9199 167.14 35.7482 167.14 36.7699V38.5799C167.14 39.6016 167.968 40.4299 168.99 40.4299H169.49C170.512 40.4299 171.34 39.6016 171.34 38.5799V36.7699C171.34 35.7482 170.512 34.9199 169.49 34.9199Z" fill="#D0D2D3"/>
<path d="M156.65 34.9199H152.58C151.558 34.9199 150.73 35.746 150.73 36.7649C150.73 37.7839 151.558 38.6099 152.58 38.6099H156.65C157.672 38.6099 158.5 37.7839 158.5 36.7649C158.5 35.746 157.672 34.9199 156.65 34.9199Z" fill="#D0D2D3"/>
<path d="M175 26.1H156.16C155.304 26.1 154.61 26.7917 154.61 27.645C154.61 28.4983 155.304 29.19 156.16 29.19H175C175.856 29.19 176.55 28.4983 176.55 27.645C176.55 26.7917 175.856 26.1 175 26.1Z" fill="#D0D2D3"/>
<path d="M148.85 29.7799C150.06 29.7799 151.04 28.7994 151.04 27.5899C151.04 26.3804 150.06 25.3999 148.85 25.3999C147.641 25.3999 146.66 26.3804 146.66 27.5899C146.66 28.7994 147.641 29.7799 148.85 29.7799Z" stroke="#D0D2D3" stroke-width="0.75" stroke-miterlimit="10"/>
<path d="M151.81 26.59H152.87C153.23 26.59 153.52 26.32 153.52 25.99C153.52 25.66 153.23 25.39 152.87 25.39H150.83L151.81 26.6V26.59ZM151.81 28.59H152.87C153.23 28.59 153.52 28.86 153.52 29.19C153.52 29.52 153.23 29.79 152.87 29.79H150.83L151.81 28.58V28.59ZM151.91 27.01H153.12C153.274 27.01 153.421 27.0711 153.53 27.1799C153.639 27.2887 153.7 27.4362 153.7 27.59C153.7 27.7438 153.639 27.8914 153.53 28.0001C153.421 28.1089 153.274 28.17 153.12 28.17H151.91V27.02V27.01Z" fill="#D0D2D3"/>
<path d="M34 367.78H41.62L42.53 370.1C42.89 371.01 42.22 371.99 41.24 371.99C40.45 371.99 39.82 371.33 39.86 370.53L39.9 369.7H39.19V370.7C39.17 371.41 38.59 371.99 37.88 371.99C37.15 371.99 36.57 371.39 36.58 370.66L36.6 369.7H35.96L35.86 370.73C35.79 371.44 35.2 371.98 34.49 371.98C33.55 371.98 32.88 371.06 33.18 370.17L33.98 367.77L34 367.78ZM34.07 373.24H35.23V375.35C35.23 375.55 35.4 375.72 35.6 375.72H40.17C40.37 375.72 40.54 375.55 40.54 375.35V373.24H41.59V376.48C41.59 376.98 41.19 377.38 40.69 377.38H34.96C34.46 377.38 34.06 376.98 34.06 376.48V373.24H34.07Z" fill="#606060"/>
<path d="M94.65 369.73H93.52C93.4482 369.73 93.39 369.788 93.39 369.86V370.4C93.39 370.472 93.4482 370.53 93.52 370.53H94.65C94.7218 370.53 94.78 370.472 94.78 370.4V369.86C94.78 369.788 94.7218 369.73 94.65 369.73Z" fill="#A1A1A1"/>
<path d="M94.65 370.88H93.52C93.4482 370.88 93.39 370.938 93.39 371.01V371.55C93.39 371.622 93.4482 371.68 93.52 371.68H94.65C94.7218 371.68 94.78 371.622 94.78 371.55V371.01C94.78 370.938 94.7218 370.88 94.65 370.88Z" fill="#A1A1A1"/>
<path d="M94.65 373.76H93.52C93.4482 373.76 93.39 373.818 93.39 373.89V374.43C93.39 374.502 93.4482 374.56 93.52 374.56H94.65C94.7218 374.56 94.78 374.502 94.78 374.43V373.89C94.78 373.818 94.7218 373.76 94.65 373.76Z" fill="#A1A1A1"/>
<path d="M94.65 374.86H93.52C93.4482 374.86 93.39 374.918 93.39 374.99V375.53C93.39 375.602 93.4482 375.66 93.52 375.66H94.65C94.7218 375.66 94.78 375.602 94.78 375.53V374.99C94.78 374.918 94.7218 374.86 94.65 374.86Z" fill="#A1A1A1"/>
<path d="M93.98 373.37C94.339 373.37 94.63 373.079 94.63 372.72C94.63 372.361 94.339 372.07 93.98 372.07C93.621 372.07 93.33 372.361 93.33 372.72C93.33 373.079 93.621 373.37 93.98 373.37Z" fill="#A1A1A1"/>
<path d="M103.15 369.73H102.02C101.948 369.73 101.89 369.788 101.89 369.86V370.4C101.89 370.472 101.948 370.53 102.02 370.53H103.15C103.222 370.53 103.28 370.472 103.28 370.4V369.86C103.28 369.788 103.222 369.73 103.15 369.73Z" fill="#A1A1A1"/>
<path d="M103.15 370.88H102.02C101.948 370.88 101.89 370.938 101.89 371.01V371.55C101.89 371.622 101.948 371.68 102.02 371.68H103.15C103.222 371.68 103.28 371.622 103.28 371.55V371.01C103.28 370.938 103.222 370.88 103.15 370.88Z" fill="#A1A1A1"/>
<path d="M103.15 373.76H102.02C101.948 373.76 101.89 373.818 101.89 373.89V374.43C101.89 374.502 101.948 374.56 102.02 374.56H103.15C103.222 374.56 103.28 374.502 103.28 374.43V373.89C103.28 373.818 103.222 373.76 103.15 373.76Z" fill="#A1A1A1"/>
<path d="M103.15 374.86H102.02C101.948 374.86 101.89 374.918 101.89 374.99V375.53C101.89 375.602 101.948 375.66 102.02 375.66H103.15C103.222 375.66 103.28 375.602 103.28 375.53V374.99C103.28 374.918 103.222 374.86 103.15 374.86Z" fill="#A1A1A1"/>
<path d="M102.47 373.37C102.829 373.37 103.12 373.079 103.12 372.72C103.12 372.361 102.829 372.07 102.47 372.07C102.111 372.07 101.82 372.361 101.82 372.72C101.82 373.079 102.111 373.37 102.47 373.37Z" fill="#A1A1A1"/>
<path d="M100.59 369.75H95.87C95.4779 369.75 95.16 370.068 95.16 370.46V374.93C95.16 375.322 95.4779 375.64 95.87 375.64H100.59C100.982 375.64 101.3 375.322 101.3 374.93V370.46C101.3 370.068 100.982 369.75 100.59 369.75Z" fill="#A1A1A1"/>
<path d="M95.27 367.84V368.97C95.27 369.042 95.3282 369.1 95.4 369.1H95.94C96.0118 369.1 96.07 369.042 96.07 368.97V367.84C96.07 367.768 96.0118 367.71 95.94 367.71H95.4C95.3282 367.71 95.27 367.768 95.27 367.84Z" fill="#A1A1A1"/>
<path d="M96.41 367.85V368.98C96.41 369.052 96.4682 369.11 96.54 369.11H97.08C97.1518 369.11 97.21 369.052 97.21 368.98V367.85C97.21 367.778 97.1518 367.72 97.08 367.72H96.54C96.4682 367.72 96.41 367.778 96.41 367.85Z" fill="#A1A1A1"/>
<path d="M99.3 367.85V368.98C99.3 369.052 99.3582 369.11 99.43 369.11H99.97C100.042 369.11 100.1 369.052 100.1 368.98V367.85C100.1 367.778 100.042 367.72 99.97 367.72H99.43C99.3582 367.72 99.3 367.778 99.3 367.85Z" fill="#A1A1A1"/>
<path d="M100.39 367.85V368.98C100.39 369.052 100.448 369.11 100.52 369.11H101.06C101.132 369.11 101.19 369.052 101.19 368.98V367.85C101.19 367.778 101.132 367.72 101.06 367.72H100.52C100.448 367.72 100.39 367.778 100.39 367.85Z" fill="#A1A1A1"/>
<path d="M98.26 369.17C98.619 369.17 98.91 368.879 98.91 368.52C98.91 368.161 98.619 367.87 98.26 367.87C97.901 367.87 97.61 368.161 97.61 368.52C97.61 368.879 97.901 369.17 98.26 369.17Z" fill="#A1A1A1"/>
<path d="M95.27 376.34V377.47C95.27 377.542 95.3282 377.6 95.4 377.6H95.94C96.0118 377.6 96.07 377.542 96.07 377.47V376.34C96.07 376.268 96.0118 376.21 95.94 376.21H95.4C95.3282 376.21 95.27 376.268 95.27 376.34Z" fill="#A1A1A1"/>
<path d="M96.42 376.34V377.47C96.42 377.542 96.4782 377.6 96.55 377.6H97.09C97.1618 377.6 97.22 377.542 97.22 377.47V376.34C97.22 376.268 97.1618 376.21 97.09 376.21H96.55C96.4782 376.21 96.42 376.268 96.42 376.34Z" fill="#A1A1A1"/>
<path d="M99.3 376.35V377.48C99.3 377.552 99.3582 377.61 99.43 377.61H99.97C100.042 377.61 100.1 377.552 100.1 377.48V376.35C100.1 376.278 100.042 376.22 99.97 376.22H99.43C99.3582 376.22 99.3 376.278 99.3 376.35Z" fill="#A1A1A1"/>
<path d="M100.4 376.34V377.47C100.4 377.542 100.458 377.6 100.53 377.6H101.07C101.142 377.6 101.2 377.542 101.2 377.47V376.34C101.2 376.268 101.142 376.21 101.07 376.21H100.53C100.458 376.21 100.4 376.268 100.4 376.34Z" fill="#A1A1A1"/>
<path d="M98.26 377.67C98.619 377.67 98.91 377.379 98.91 377.02C98.91 376.661 98.619 376.37 98.26 376.37C97.901 376.37 97.61 376.661 97.61 377.02C97.61 377.379 97.901 377.67 98.26 377.67Z" fill="#A1A1A1"/>
<path d="M158.64 376.98C161.076 376.98 163.05 375.005 163.05 372.57C163.05 370.134 161.076 368.16 158.64 368.16C156.204 368.16 154.23 370.134 154.23 372.57C154.23 375.005 156.204 376.98 158.64 376.98Z" stroke="#A1A1A1" stroke-width="0.41" stroke-miterlimit="10"/>
<mask id="mask4_1_1008" style="mask-type:luminance" maskUnits="userSpaceOnUse" x="154" y="368" width="10" height="9">
<path d="M158.64 376.98C161.076 376.98 163.05 375.005 163.05 372.57C163.05 370.134 161.076 368.16 158.64 368.16C156.204 368.16 154.23 370.134 154.23 372.57C154.23 375.005 156.204 376.98 158.64 376.98Z" fill="white"/>
</mask>
<g mask="url(#mask4_1_1008)">
<path d="M157.05 373.96H160.11C160.65 373.96 161.08 374.4 161.08 374.93V377.24H156.07V374.93C156.07 374.39 156.51 373.96 157.04 373.96H157.05Z" fill="#A1A1A1"/>
<path d="M158.56 373.3C159.449 373.3 160.17 372.579 160.17 371.69C160.17 370.801 159.449 370.08 158.56 370.08C157.671 370.08 156.95 370.801 156.95 371.69C156.95 372.579 157.671 373.3 158.56 373.3Z" fill="#A1A1A1"/>
</g>
<path d="M167.61 199.46L170.11 201.95L167.61 204.44" stroke="#4A4A4A" stroke-width="0.75" stroke-miterlimit="10" stroke-linecap="round"/>
<path d="M167.61 134.11L170.11 136.6L167.61 139.09" stroke="white" stroke-width="0.75" stroke-miterlimit="10" stroke-linecap="round"/>
<path d="M167.61 227.97L170.11 230.46L167.61 232.95M167.61 256.26L170.11 258.76L167.61 261.25M167.61 284.77L170.11 287.26L167.61 289.76M167.61 313.28L170.11 315.77L167.61 318.26M167.61 341.79L170.11 344.28L167.61 346.77" stroke="#4A4A4A" stroke-width="0.75" stroke-miterlimit="10" stroke-linecap="round"/>
<path d="M182.66 349.97V336.5C182.66 334.843 181.317 333.5 179.66 333.5H166.19C164.533 333.5 163.19 334.843 163.19 336.5V349.97C163.19 351.627 164.533 352.97 166.19 352.97H179.66C181.317 352.97 182.66 351.627 182.66 349.97Z" fill="url(#paint9_linear_1_1008)"/>
<path d="M175.33 340.33H170.5C170.15 340.33 169.87 340.61 169.87 340.96V344.02C169.87 344.37 170.15 344.65 170.5 344.65H171.31L171.18 346.14L172.94 344.65H175.32C175.67 344.65 175.95 344.37 175.95 344.02V340.96C175.95 340.61 175.67 340.33 175.32 340.33H175.33Z" stroke="white" stroke-width="0.75" stroke-linecap="round" stroke-linejoin="round"/>
<path d="M171.21 341.58H174.08M171.21 342.58H174.08M171.21 343.58H173.52" stroke="white" stroke-width="0.5" stroke-linecap="round" stroke-linejoin="round"/>
<path d="M174.7 34.9199H174.2C173.178 34.9199 172.35 35.7482 172.35 36.7699V38.5799C172.35 39.6016 173.178 40.4299 174.2 40.4299H174.7C175.722 40.4299 176.55 39.6016 176.55 38.5799V36.7699C176.55 35.7482 175.722 34.9199 174.7 34.9199Z" fill="#D0D2D3"/>
<path d="M66.41 92.5499H19.37C17.7131 92.5499 16.37 93.8931 16.37 95.5499V102.16C16.37 103.817 17.7131 105.16 19.37 105.16H66.41C68.0669 105.16 69.41 103.817 69.41 102.16V95.5499C69.41 93.8931 68.0669 92.5499 66.41 92.5499Z" fill="#EDEDED"/>
<path d="M56.32 96.27H29.45C28.2018 96.27 27.19 97.2819 27.19 98.53V99.15C27.19 100.398 28.2018 101.41 29.45 101.41H56.32C57.5682 101.41 58.58 100.398 58.58 99.15V98.53C58.58 97.2819 57.5682 96.27 56.32 96.27Z" fill="#D0D2D3"/>
<path d="M88.73 170.77H30.17C27.4362 170.77 25.22 172.986 25.22 175.72V175.73C25.22 178.464 27.4362 180.68 30.17 180.68H88.73C91.4638 180.68 93.68 178.464 93.68 175.73V175.72C93.68 172.986 91.4638 170.77 88.73 170.77Z" fill="#D0D2D3"/>
</g>
</g>
</g>
</g>
<defs>
<linearGradient id="paint0_linear_1_1008" x1="1.61" y1="69.85" x2="1.61" y2="49.99" gradientUnits="userSpaceOnUse">
<stop stop-color="#6D6F71"/>
<stop offset="0.01" stop-color="#7B7D7F"/>
<stop offset="0.05" stop-color="#9B9C9E"/>
<stop offset="0.08" stop-color="#B6B7B8"/>
<stop offset="0.12" stop-color="#CCCDCE"/>
<stop offset="0.17" stop-color="#DDDDDE"/>
<stop offset="0.23" stop-color="#E9E9EA"/>
<stop offset="0.32" stop-color="#F0F0F1"/>
<stop offset="0.55" stop-color="#F2F2F3"/>
<stop offset="0.74" stop-color="#F0F0F1"/>
<stop offset="0.81" stop-color="#E9E9EA"/>
<stop offset="0.86" stop-color="#DDDDDE"/>
<stop offset="0.9" stop-color="#CCCDCE"/>
<stop offset="0.93" stop-color="#B6B7B8"/>
<stop offset="0.96" stop-color="#9B9C9E"/>
<stop offset="0.99" stop-color="#7B7D7F"/>
<stop offset="1" stop-color="#6D6F71"/>
</linearGradient>
<linearGradient id="paint1_linear_1_1008" x1="0.5" y1="59.92" x2="2.72" y2="59.92" gradientUnits="userSpaceOnUse">
<stop stop-color="#6D6F71"/>
<stop offset="0.01" stop-color="#7B7D7F"/>
<stop offset="0.05" stop-color="#9B9C9E"/>
<stop offset="0.08" stop-color="#B6B7B8"/>
<stop offset="0.12" stop-color="#CCCDCE"/>
<stop offset="0.17" stop-color="#DDDDDE"/>
<stop offset="0.23" stop-color="#E9E9EA"/>
<stop offset="0.32" stop-color="#F0F0F1"/>
<stop offset="0.55" stop-color="#F2F2F3"/>
<stop offset="0.74" stop-color="#F0F0F1"/>
<stop offset="0.81" stop-color="#E9E9EA"/>
<stop offset="0.86" stop-color="#DDDDDE"/>
<stop offset="0.9" stop-color="#CCCDCE"/>
<stop offset="0.93" stop-color="#B6B7B8"/>
<stop offset="0.96" stop-color="#9B9C9E"/>
<stop offset="0.99" stop-color="#7B7D7F"/>
<stop offset="1" stop-color="#6D6F71"/>
</linearGradient>
<linearGradient id="paint2_linear_1_1008" x1="1.73" y1="124.29" x2="1.73" y2="90.4399" gradientUnits="userSpaceOnUse">
<stop stop-color="#6D6F71"/>
<stop offset="0.01" stop-color="#7B7D7F"/>
<stop offset="0.05" stop-color="#9B9C9E"/>
<stop offset="0.08" stop-color="#B6B7B8"/>
<stop offset="0.12" stop-color="#CCCDCE"/>
<stop offset="0.17" stop-color="#DDDDDE"/>
<stop offset="0.23" stop-color="#E9E9EA"/>
<stop offset="0.32" stop-color="#F0F0F1"/>
<stop offset="0.55" stop-color="#F2F2F3"/>
<stop offset="0.74" stop-color="#F0F0F1"/>
<stop offset="0.81" stop-color="#E9E9EA"/>
<stop offset="0.86" stop-color="#DDDDDE"/>
<stop offset="0.9" stop-color="#CCCDCE"/>
<stop offset="0.93" stop-color="#B6B7B8"/>
<stop offset="0.96" stop-color="#9B9C9E"/>
<stop offset="0.99" stop-color="#7B7D7F"/>
<stop offset="1" stop-color="#6D6F71"/>
</linearGradient>
<linearGradient id="paint3_linear_1_1008" x1="0.5" y1="107.37" x2="2.95" y2="107.37" gradientUnits="userSpaceOnUse">
<stop stop-color="#6D6F71"/>
<stop offset="0.01" stop-color="#7B7D7F"/>
<stop offset="0.05" stop-color="#9B9C9E"/>
<stop offset="0.08" stop-color="#B6B7B8"/>
<stop offset="0.12" stop-color="#CCCDCE"/>
<stop offset="0.17" stop-color="#DDDDDE"/>
<stop offset="0.23" stop-color="#E9E9EA"/>
<stop offset="0.32" stop-color="#F0F0F1"/>
<stop offset="0.55" stop-color="#F2F2F3"/>
<stop offset="0.74" stop-color="#F0F0F1"/>
<stop offset="0.81" stop-color="#E9E9EA"/>
<stop offset="0.86" stop-color="#DDDDDE"/>
<stop offset="0.9" stop-color="#CCCDCE"/>
<stop offset="0.93" stop-color="#B6B7B8"/>
<stop offset="0.96" stop-color="#9B9C9E"/>
<stop offset="0.99" stop-color="#7B7D7F"/>
<stop offset="1" stop-color="#6D6F71"/>
</linearGradient>
<linearGradient id="paint4_linear_1_1008" x1="1.73" y1="167.1" x2="1.73" y2="133.25" gradientUnits="userSpaceOnUse">
<stop stop-color="#6D6F71"/>
<stop offset="0.01" stop-color="#7B7D7F"/>
<stop offset="0.05" stop-color="#9B9C9E"/>
<stop offset="0.08" stop-color="#B6B7B8"/>
<stop offset="0.12" stop-color="#CCCDCE"/>
<stop offset="0.17" stop-color="#DDDDDE"/>
<stop offset="0.23" stop-color="#E9E9EA"/>
<stop offset="0.32" stop-color="#F0F0F1"/>
<stop offset="0.55" stop-color="#F2F2F3"/>
<stop offset="0.74" stop-color="#F0F0F1"/>
<stop offset="0.81" stop-color="#E9E9EA"/>
<stop offset="0.86" stop-color="#DDDDDE"/>
<stop offset="0.9" stop-color="#CCCDCE"/>
<stop offset="0.93" stop-color="#B6B7B8"/>
<stop offset="0.96" stop-color="#9B9C9E"/>
<stop offset="0.99" stop-color="#7B7D7F"/>
<stop offset="1" stop-color="#6D6F71"/>
</linearGradient>
<linearGradient id="paint5_linear_1_1008" x1="0.5" y1="150.18" x2="2.95" y2="150.18" gradientUnits="userSpaceOnUse">
<stop stop-color="#6D6F71"/>
<stop offset="0.01" stop-color="#7B7D7F"/>
<stop offset="0.05" stop-color="#9B9C9E"/>
<stop offset="0.08" stop-color="#B6B7B8"/>
<stop offset="0.12" stop-color="#CCCDCE"/>
<stop offset="0.17" stop-color="#DDDDDE"/>
<stop offset="0.23" stop-color="#E9E9EA"/>
<stop offset="0.32" stop-color="#F0F0F1"/>
<stop offset="0.55" stop-color="#F2F2F3"/>
<stop offset="0.74" stop-color="#F0F0F1"/>
<stop offset="0.81" stop-color="#E9E9EA"/>
<stop offset="0.86" stop-color="#DDDDDE"/>
<stop offset="0.9" stop-color="#CCCDCE"/>
<stop offset="0.93" stop-color="#B6B7B8"/>
<stop offset="0.96" stop-color="#9B9C9E"/>
<stop offset="0.99" stop-color="#7B7D7F"/>
<stop offset="1" stop-color="#6D6F71"/>
</linearGradient>
<linearGradient id="paint6_linear_1_1008" x1="194.89" y1="154.03" x2="194.89" y2="103.52" gradientUnits="userSpaceOnUse">
<stop stop-color="#6D6F71"/>
<stop offset="0.01" stop-color="#7B7D7F"/>
<stop offset="0.05" stop-color="#9B9C9E"/>
<stop offset="0.08" stop-color="#B6B7B8"/>
<stop offset="0.12" stop-color="#CCCDCE"/>
<stop offset="0.17" stop-color="#DDDDDE"/>
<stop offset="0.23" stop-color="#E9E9EA"/>
<stop offset="0.32" stop-color="#F0F0F1"/>
<stop offset="0.55" stop-color="#F2F2F3"/>
<stop offset="0.74" stop-color="#F0F0F1"/>
<stop offset="0.81" stop-color="#E9E9EA"/>
<stop offset="0.86" stop-color="#DDDDDE"/>
<stop offset="0.9" stop-color="#CCCDCE"/>
<stop offset="0.93" stop-color="#B6B7B8"/>
<stop offset="0.96" stop-color="#9B9C9E"/>
<stop offset="0.99" stop-color="#7B7D7F"/>
<stop offset="1" stop-color="#6D6F71"/>
</linearGradient>
<linearGradient id="paint7_linear_1_1008" x1="194.03" y1="128.77" x2="195.75" y2="128.77" gradientUnits="userSpaceOnUse">
<stop stop-color="#6D6F71"/>
<stop offset="0.01" stop-color="#7B7D7F"/>
<stop offset="0.05" stop-color="#9B9C9E"/>
<stop offset="0.08" stop-color="#B6B7B8"/>
<stop offset="0.12" stop-color="#CCCDCE"/>
<stop offset="0.17" stop-color="#DDDDDE"/>
<stop offset="0.23" stop-color="#E9E9EA"/>
<stop offset="0.32" stop-color="#F0F0F1"/>
<stop offset="0.55" stop-color="#F2F2F3"/>
<stop offset="0.74" stop-color="#F0F0F1"/>
<stop offset="0.81" stop-color="#E9E9EA"/>
<stop offset="0.86" stop-color="#DDDDDE"/>
<stop offset="0.9" stop-color="#CCCDCE"/>
<stop offset="0.93" stop-color="#B6B7B8"/>
<stop offset="0.96" stop-color="#9B9C9E"/>
<stop offset="0.99" stop-color="#7B7D7F"/>
<stop offset="1" stop-color="#6D6F71"/>
</linearGradient>
<linearGradient id="paint8_linear_1_1008" x1="22.34" y1="135.71" x2="173.99" y2="135.71" gradientUnits="userSpaceOnUse">
<stop offset="0.04" stop-color="#FD606D"/>
<stop offset="0.19" stop-color="#FD726D"/>
<stop offset="0.35" stop-color="#FE806E"/>
<stop offset="0.49" stop-color="#FF866F"/>
<stop offset="0.76" stop-color="#FFA470"/>
<stop offset="1" stop-color="#FFBC71"/>
</linearGradient>
<linearGradient id="paint9_linear_1_1008" x1="163.94" y1="343.24" x2="182.06" y2="343.24" gradientUnits="userSpaceOnUse">
<stop stop-color="#EE6934"/>
<stop offset="0.39" stop-color="#F26646"/>
<stop offset="1" stop-color="#FD606D"/>
</linearGradient>
<clipPath id="clip0_1_1008">
<rect width="195" height="400" fill="white" transform="translate(0.75 0.939941)"/>
</clipPath>
<clipPath id="clip1_1_1008">
<rect width="195" height="400" fill="white" transform="translate(0.75 0.939941)"/>
</clipPath>
<clipPath id="clip2_1_1008">
<rect width="195" height="400" fill="white" transform="translate(0.75 0.939941)"/>
</clipPath>
</defs>
</svg>
