<svg width="139" height="45" viewBox="0 0 139 45" fill="none" xmlns="http://www.w3.org/2000/svg">
<g clip-path="url(#clip0_1_2165)">
<path d="M8.9995 1.79053H130.001C133.13 1.79053 134.265 2.11635 135.409 2.72819C136.553 3.34003 137.451 4.23787 138.062 5.3819C138.674 6.52594 139 7.6607 139 10.79V34.2102C139 37.3395 138.674 38.4743 138.062 39.6183C137.451 40.7624 136.553 41.6602 135.409 42.2721C134.265 42.8839 133.13 43.2097 130.001 43.2097H8.9995C5.87017 43.2097 4.73541 42.8839 3.59137 42.2721C2.44734 41.6602 1.5495 40.7624 0.937663 39.6183C0.325827 38.4743 0 37.3395 0 34.2102V10.79C0 7.6607 0.325827 6.52594 0.937663 5.3819C1.5495 4.23787 2.44734 3.34003 3.59137 2.72819C4.73541 2.11635 5.87017 1.79053 8.9995 1.79053Z" fill="black"/>
<path fill-rule="evenodd" clip-rule="evenodd" d="M111.481 33.3816H113.45V20.2177H111.481V33.3816ZM129.223 24.9595L126.965 30.6669H126.897L124.554 24.9595H122.432L125.947 32.9362L123.943 37.3736H125.997L131.413 24.9595H129.223ZM118.051 31.8863C117.407 31.8863 116.507 31.5651 116.507 30.769C116.507 29.7529 117.628 29.3632 118.596 29.3632C119.46 29.3632 119.869 29.5496 120.395 29.8034C120.242 31.0228 119.189 31.8863 118.051 31.8863ZM118.29 24.672C116.864 24.672 115.387 25.2985 114.775 26.6875L116.524 27.4151C116.897 26.6875 117.593 26.4506 118.323 26.4506C119.342 26.4506 120.378 27.0592 120.395 28.1428V28.2786C120.038 28.0764 119.274 27.7711 118.34 27.7711C116.455 27.7711 114.537 28.8041 114.537 30.7343C114.537 32.496 116.082 33.6312 117.814 33.6312C119.137 33.6312 119.869 33.0383 120.326 32.3433H120.395V33.3605H122.297V28.3134C122.297 25.9756 120.547 24.672 118.29 24.672ZM106.116 26.5622H103.314V22.0499H106.116C107.589 22.0499 108.425 23.2662 108.425 24.3055C108.425 25.3259 107.589 26.5622 106.116 26.5622ZM106.065 20.2177H101.346V33.3816H103.314V28.3944H106.065C108.249 28.3944 110.395 26.8181 110.395 24.3055C110.395 21.7941 108.249 20.2177 106.065 20.2177ZM80.3281 31.8895C78.9674 31.8895 77.8284 30.7522 77.8284 29.1916C77.8284 27.6142 78.9674 26.46 80.3281 26.46C81.6709 26.46 82.7255 27.6142 82.7255 29.1916C82.7255 30.7522 81.6709 31.8895 80.3281 31.8895ZM82.5893 25.6966H82.5217C82.0794 25.1711 81.2286 24.6962 80.1582 24.6962C77.9128 24.6962 75.8544 26.6643 75.8544 29.1916C75.8544 31.702 77.9128 33.6533 80.1582 33.6533C81.2286 33.6533 82.0794 33.1784 82.5217 32.6361H82.5893V33.2795C82.5893 34.9938 81.6709 35.9089 80.192 35.9089C78.9843 35.9089 78.2359 35.0443 77.9297 34.3146L76.2122 35.0275C76.7052 36.2153 78.0142 37.6738 80.192 37.6738C82.5048 37.6738 84.4609 36.3164 84.4609 33.0088V24.9668H82.5893V25.6966ZM85.8216 33.3816H87.7935V20.2177H85.8216V33.3816ZM90.7018 29.0389C90.6511 27.3088 92.0456 26.4263 93.0485 26.4263C93.8318 26.4263 94.4947 26.817 94.7164 27.3762L90.7018 29.0389ZM96.8245 27.5457C96.4497 26.5453 95.3107 24.6962 92.9809 24.6962C90.668 24.6962 88.7457 26.5116 88.7457 29.1747C88.7457 31.6852 90.6511 33.6533 93.2015 33.6533C95.259 33.6533 96.4497 32.3981 96.9438 31.6683L95.4131 30.65C94.9022 31.3966 94.2055 31.8895 93.2015 31.8895C92.1987 31.8895 91.484 31.4314 91.0259 30.5321L97.0282 28.0554L96.8245 27.5457ZM48.996 26.0704V27.9701H53.5531C53.418 29.0389 53.0601 29.8192 52.5165 30.3615C51.8525 31.0239 50.8148 31.7536 48.996 31.7536C46.189 31.7536 43.9954 29.497 43.9954 26.698C43.9954 23.8991 46.189 21.6424 48.996 21.6424C50.5097 21.6424 51.615 22.2363 52.431 22.9998L53.7748 21.6593C52.6347 20.5736 51.122 19.7417 48.996 19.7417C45.1514 19.7417 41.9201 22.8639 41.9201 26.698C41.9201 30.5321 45.1514 33.6533 48.996 33.6533C51.0703 33.6533 52.6347 32.9741 53.8593 31.702C55.1176 30.4468 55.5092 28.683 55.5092 27.2572C55.5092 26.817 55.4754 26.4095 55.4068 26.0704H48.996ZM60.6902 31.8895C59.3306 31.8895 58.1567 30.769 58.1567 29.1747C58.1567 27.5626 59.3306 26.46 60.6902 26.46C62.0509 26.46 63.2248 27.5626 63.2248 29.1747C63.2248 30.769 62.0509 31.8895 60.6902 31.8895ZM60.6902 24.6962C58.2074 24.6962 56.1838 26.579 56.1838 29.1747C56.1838 31.7536 58.2074 33.6533 60.6902 33.6533C63.1741 33.6533 65.1978 31.7536 65.1978 29.1747C65.1978 26.579 63.1741 24.6962 60.6902 24.6962ZM70.5224 31.8895C69.1617 31.8895 67.9878 30.769 67.9878 29.1747C67.9878 27.5626 69.1617 26.46 70.5224 26.46C71.8831 26.46 73.0559 27.5626 73.0559 29.1747C73.0559 30.769 71.8831 31.8895 70.5224 31.8895ZM70.5224 24.6962C68.0395 24.6962 66.0159 26.579 66.0159 29.1747C66.0159 31.7536 68.0395 33.6533 70.5224 33.6533C73.0052 33.6533 75.0289 31.7536 75.0289 29.1747C75.0289 26.579 73.0052 24.6962 70.5224 24.6962Z" fill="white"/>
<path fill-rule="evenodd" clip-rule="evenodd" d="M48.6523 12.5771C48.6523 13.4595 48.3905 14.1619 47.8658 14.6863C47.2694 15.3097 46.4935 15.6214 45.5392 15.6214C44.625 15.6214 43.847 15.3055 43.2084 14.6726C42.5676 14.0408 42.2488 13.2563 42.2488 12.3212C42.2488 11.385 42.5676 10.6016 43.2084 9.96872C43.847 9.33691 44.625 9.021 45.5392 9.021C45.9921 9.021 46.427 9.10945 46.8387 9.28531C47.2514 9.46222 47.5819 9.69704 47.8299 9.99084L47.2726 10.5468C46.8535 10.0477 46.276 9.79708 45.5392 9.79708C44.8721 9.79708 44.2957 10.0309 43.809 10.4984C43.3224 10.967 43.0796 11.5735 43.0796 12.3212C43.0796 13.0678 43.3224 13.6754 43.809 14.1429C44.2957 14.6115 44.8721 14.8443 45.5392 14.8443C46.2465 14.8443 46.8355 14.6094 47.3084 14.1387C47.6146 13.8323 47.7919 13.4069 47.8384 12.8593H45.5392V12.1001H48.6079C48.6375 12.2654 48.6523 12.4233 48.6523 12.5771ZM53.518 9.93829H50.634V11.9412H53.234V12.7004H50.634V14.7033H53.518V15.4804H49.8201V9.16221H53.518V9.93829ZM56.9498 15.4801H56.1359V9.93797H54.3667V9.16189H58.7191V9.93797H56.9498V15.4801ZM61.8683 15.48V9.16179H62.6822V15.48H61.8683ZM66.2917 15.4801H65.4778V9.93797H63.7086V9.16189H68.061V9.93797H66.2917V15.4801ZM72.257 14.1345C72.7257 14.6084 73.2989 14.8443 73.9777 14.8443C74.6554 14.8443 75.2297 14.6084 75.6984 14.1345C76.1671 13.6606 76.4025 13.0562 76.4025 12.3212C76.4025 11.5862 76.1671 10.9807 75.6984 10.5079C75.2297 10.034 74.6554 9.79708 73.9777 9.79708C73.2989 9.79708 72.7257 10.034 72.257 10.5079C71.7894 10.9807 71.5539 11.5862 71.5539 12.3212C71.5539 13.0562 71.7894 13.6606 72.257 14.1345ZM76.3001 14.6631C75.6772 15.3023 74.9035 15.6214 73.9777 15.6214C73.0519 15.6214 72.2781 15.3023 71.6563 14.6631C71.0335 14.025 70.7232 13.2447 70.7232 12.3212C70.7232 11.3977 71.0335 10.6163 71.6563 9.9782C72.2781 9.34006 73.0519 9.021 73.9777 9.021C74.8982 9.021 75.6699 9.34112 76.2958 9.98241C76.9208 10.6237 77.2332 11.403 77.2332 12.3212C77.2332 13.2447 76.9218 14.025 76.3001 14.6631ZM78.3753 15.4801V9.16189H79.3655L82.4437 14.0764H82.4796L82.4437 12.8591V9.16189H83.2587V15.4801H82.4089L79.1892 10.3265H79.1533L79.1892 11.5449V15.4801H78.3753Z" fill="white"/>
<path fill-rule="evenodd" clip-rule="evenodd" d="M10.6579 9.37772C10.308 9.79058 10.1313 10.3199 10.1641 10.8571V34.146C10.1313 34.6833 10.3079 35.2126 10.6579 35.6254L10.7369 35.7014L23.9568 22.6555V22.3477L10.7369 9.30127L10.6579 9.37772Z" fill="url(#paint0_linear_1_2165)"/>
<path fill-rule="evenodd" clip-rule="evenodd" d="M28.3632 27.0058L23.9568 22.6553V22.3475L28.3643 17.998L28.4636 18.054L33.6846 20.9815C35.1759 21.8176 35.1759 23.1857 33.6846 24.0223L28.4636 26.9499L28.3632 27.0058Z" fill="url(#paint1_linear_1_2165)"/>
<path fill-rule="evenodd" clip-rule="evenodd" d="M28.4636 26.9494L23.9568 22.5015L10.6579 35.6253C11.2849 36.171 12.2169 36.1981 12.8754 35.6899L28.4636 26.9494Z" fill="url(#paint2_linear_1_2165)"/>
<path fill-rule="evenodd" clip-rule="evenodd" d="M28.4636 18.0534L12.8754 9.31284C12.2169 8.80465 11.2849 8.83182 10.6579 9.3775L23.9568 22.5014L28.4636 18.0534Z" fill="url(#paint3_linear_1_2165)"/>
<path opacity="0.2" fill-rule="evenodd" clip-rule="evenodd" d="M28.3643 26.8516L12.8754 35.5362C12.245 36.0099 11.373 36.0144 10.7374 35.5475L10.6579 35.6259L10.7369 35.7019L10.7374 35.7013C11.3729 36.1686 12.2451 36.164 12.8754 35.6901L28.4636 26.9495L28.3643 26.8516Z" fill="black"/>
<path opacity="0.12" fill-rule="evenodd" clip-rule="evenodd" d="M10.6579 35.4721C10.3081 35.0592 10.1314 34.5299 10.1641 33.9927V34.1465C10.1314 34.6838 10.3081 35.2131 10.6579 35.6259L10.7374 35.5475L10.6579 35.4721Z" fill="black"/>
<path opacity="0.12" fill-rule="evenodd" clip-rule="evenodd" d="M33.6846 23.868L28.3643 26.8515L28.4636 26.9494L33.6846 24.0219C34.3101 23.754 34.7386 23.1718 34.8032 22.502C34.6694 23.1059 34.2548 23.6121 33.6846 23.868Z" fill="black"/>
<path opacity="0.25" fill-rule="evenodd" clip-rule="evenodd" d="M12.8754 9.4673L33.6846 21.1349C34.255 21.3908 34.6696 21.8973 34.8032 22.5015C34.739 21.8314 34.3104 21.2488 33.6846 20.981L12.8754 9.31345C11.3841 8.47724 10.1641 9.17182 10.1641 10.8575V11.0114C10.1641 9.32577 11.3841 8.6312 12.8754 9.4673Z" fill="white"/>
</g>
<defs>
<linearGradient id="paint0_linear_1_2165" x1="2509.77" y1="86.6087" x2="-1096.5" y2="376.227" gradientUnits="userSpaceOnUse">
<stop stop-color="#00A0FF"/>
<stop offset="0.00657" stop-color="#00A1FF"/>
<stop offset="0.2601" stop-color="#00BEFF"/>
<stop offset="0.5122" stop-color="#00D2FF"/>
<stop offset="0.7604" stop-color="#00DFFF"/>
<stop offset="1" stop-color="#00E3FF"/>
</linearGradient>
<linearGradient id="paint1_linear_1_2165" x1="2334.51" y1="283.726" x2="-2777.81" y2="283.726" gradientUnits="userSpaceOnUse">
<stop stop-color="#FFE000"/>
<stop offset="0.4087" stop-color="#FFBD00"/>
<stop offset="0.7754" stop-color="#FFA500"/>
<stop offset="1" stop-color="#FF9C00"/>
</linearGradient>
<linearGradient id="paint2_linear_1_2165" x1="3051.3" y1="165.093" x2="-1342.6" y2="2395.53" gradientUnits="userSpaceOnUse">
<stop stop-color="#FF3A44"/>
<stop offset="1" stop-color="#C31162"/>
</linearGradient>
<linearGradient id="paint3_linear_1_2165" x1="-652.354" y1="-423.163" x2="1309.72" y2="572.807" gradientUnits="userSpaceOnUse">
<stop stop-color="#32A071"/>
<stop offset="0.0685" stop-color="#2DA771"/>
<stop offset="0.4762" stop-color="#15CF74"/>
<stop offset="0.8009" stop-color="#06E775"/>
<stop offset="1" stop-color="#00F076"/>
</linearGradient>
<clipPath id="clip0_1_2165">
<rect width="139" height="41.4192" fill="white" transform="translate(0 1.79053)"/>
</clipPath>
</defs>
</svg>
