<svg width="132" height="45" viewBox="0 0 132 45" fill="none" xmlns="http://www.w3.org/2000/svg">
<g clip-path="url(#clip0_1_2157)">
<path d="M8.46082 3.02979H123.539C126.481 3.02979 127.548 3.33611 128.624 3.91132C129.699 4.48654 130.543 5.33064 131.118 6.40619C131.694 7.48175 132 8.54859 132 11.4906V33.509C132 36.451 131.694 37.5178 131.118 38.5934C130.543 39.6689 129.699 40.513 128.624 41.0882C127.548 41.6635 126.481 41.9698 123.539 41.9698H8.46082C5.51881 41.9698 4.45196 41.6635 3.37641 41.0882C2.30085 40.513 1.45675 39.6689 0.881538 38.5934C0.306325 37.5178 0 36.451 0 33.509V11.4906C0 8.54859 0.306325 7.48175 0.881538 6.40619C1.45675 5.33064 2.30085 4.48654 3.37641 3.91132C4.45196 3.33611 5.51881 3.02979 8.46082 3.02979Z" fill="black"/>
<path d="M48.2846 29.6858H43.5464L42.4086 33.0641H40.4017L44.8896 20.5653H46.9747L51.4626 33.0641H49.4214L48.2846 29.6858ZM44.0372 28.1269H47.7929L45.9415 22.6442H45.8896L44.0372 28.1269ZM61.1549 28.5083C61.1549 31.34 59.6475 33.1594 57.3728 33.1594C56.197 33.2212 55.0894 32.602 54.5213 31.5651H54.4782V36.0786H52.618V23.9515H54.4186V25.4671H54.4529C55.0463 24.4367 56.155 23.8178 57.3385 23.8561C59.6387 23.8562 61.1549 25.6844 61.1549 28.5083ZM59.2428 28.5083C59.2428 26.6634 58.2946 25.4504 56.8478 25.4504C55.4265 25.4504 54.4704 26.6889 54.4704 28.5083C54.4704 30.3443 55.4265 31.574 56.8478 31.574C58.2946 31.574 59.2428 30.3699 59.2428 28.5083ZM71.1297 28.5083C71.1297 31.34 69.6223 33.1594 67.3476 33.1594C66.1718 33.2212 65.0642 32.602 64.4961 31.5651H64.453V36.0786H62.5928V23.9515H64.3934V25.4671H64.4276C65.021 24.4367 66.1297 23.8178 67.3133 23.8562C69.6135 23.8562 71.1297 25.6844 71.1297 28.5083ZM69.2176 28.5083C69.2176 26.6634 68.2694 25.4504 66.8226 25.4504C65.4013 25.4504 64.4452 26.6889 64.4452 28.5083C64.4452 30.3443 65.4013 31.574 66.8226 31.574C68.2694 31.574 69.2176 30.3699 69.2176 28.5083ZM77.7222 29.5816C77.86 30.8211 79.0575 31.6349 80.6939 31.6349C82.2619 31.6349 83.39 30.821 83.39 29.7034C83.39 28.7333 82.7096 28.1524 81.0986 27.7543L79.4876 27.3641C77.2051 26.8097 76.1454 25.7364 76.1454 23.9947C76.1454 21.8382 78.0145 20.3569 80.6685 20.3569C83.2951 20.3569 85.0958 21.8382 85.1564 23.9947H83.2785C83.1661 22.7474 82.1406 21.9945 80.6421 21.9945C79.1435 21.9945 78.1181 22.7562 78.1181 23.8649C78.1181 24.7486 78.773 25.2685 80.3752 25.6666L81.7447 26.0047C84.2951 26.6112 85.3548 27.6413 85.3548 29.4695C85.3548 31.8078 83.5023 33.2723 80.556 33.2723C77.7994 33.2723 75.9382 31.8422 75.8179 29.5815L77.7222 29.5816ZM89.3696 21.795V23.9515H91.093V25.4327H89.3696V30.4564C89.3696 31.2368 89.7146 31.6005 90.4722 31.6005C90.6768 31.5969 90.8811 31.5825 91.0842 31.5572V33.0296C90.7436 33.0936 90.3973 33.1226 90.0509 33.1161C88.2161 33.1161 87.5005 32.4232 87.5005 30.6559V25.4327H86.1828V23.9515H87.5005V21.795H89.3696ZM92.0911 28.5083C92.0911 25.6411 93.7705 23.8394 96.3893 23.8394C99.0169 23.8394 100.689 25.6411 100.689 28.5083C100.689 31.3833 99.0257 33.1771 96.3893 33.1771C93.7538 33.1771 92.0911 31.3833 92.0911 28.5083ZM98.7931 28.5083C98.7931 26.5415 97.8967 25.3806 96.3893 25.3806C94.8819 25.3806 93.9865 26.5503 93.9865 28.5083C93.9865 30.4829 94.8819 31.6349 96.3893 31.6349C97.8967 31.6349 98.7931 30.4829 98.7931 28.5083ZM102.222 23.9515H103.996V25.5025H104.04C104.287 24.504 105.197 23.8169 106.219 23.8561C106.434 23.8554 106.648 23.8788 106.857 23.9259V25.6755C106.586 25.5923 106.304 25.5542 106.021 25.5625C105.474 25.5402 104.945 25.7593 104.572 26.1624C104.199 26.5655 104.021 27.1122 104.082 27.659V33.064H102.222L102.222 23.9515ZM115.434 30.3876C115.183 32.0418 113.581 33.1771 111.531 33.1771C108.895 33.1771 107.259 31.401 107.259 28.5515C107.259 25.6932 108.904 23.8394 111.453 23.8394C113.961 23.8394 115.537 25.5713 115.537 28.3343V28.9751H109.136V29.0882C109.077 29.7666 109.31 30.4381 109.776 30.932C110.243 31.4258 110.897 31.6943 111.574 31.6693C112.477 31.7543 113.328 31.2331 113.667 30.3876L115.434 30.3876ZM109.145 27.6679L113.676 27.6679C113.71 27.0583 113.489 26.4621 113.067 26.0231C112.645 25.5841 112.06 25.342 111.453 25.3551C110.841 25.3514 110.253 25.5936 109.82 26.028C109.387 26.4623 109.144 27.0526 109.145 27.6679Z" fill="white"/>
<path d="M43.7446 11.0481C44.5331 10.9894 45.3054 11.3007 45.849 11.8963C46.3925 12.492 46.65 13.3092 46.5506 14.123C46.5506 16.1001 45.5209 17.2365 43.7446 17.2365H41.5905V11.0481H43.7446ZM42.5168 16.3614H43.6411C44.2046 16.3963 44.7533 16.1659 45.1348 15.7342C45.5163 15.3024 45.6901 14.7152 45.6078 14.1357C45.6841 13.5585 45.5078 12.9762 45.1273 12.5479C44.7467 12.1197 44.2016 11.8903 43.6411 11.9226H42.5168V16.3614ZM47.5969 14.8993C47.5197 14.0623 47.9065 13.2521 48.595 12.8087C49.2836 12.3653 50.1548 12.3653 50.8434 12.8087C51.5319 13.2521 51.9187 14.0623 51.8415 14.8993C51.9202 15.7373 51.5337 16.549 50.8446 16.9934C50.1554 17.4377 49.283 17.4377 48.5938 16.9934C47.9047 16.549 47.5182 15.7373 47.5969 14.8993ZM50.928 14.8993C50.928 13.887 50.4897 13.295 49.7207 13.295C48.9486 13.295 48.5143 13.887 48.5143 14.8994C48.5143 15.9198 48.9487 16.5072 49.7207 16.5072C50.4898 16.5072 50.928 15.9157 50.928 14.8993ZM57.4838 17.2365H56.5625L55.6323 13.7969H55.5621L54.6358 17.2365H53.7233L52.4828 12.5663H53.3836L54.1898 16.1299H54.2562L55.1814 12.5663H56.0335L56.9587 16.1299H57.029L57.8313 12.5663H58.7194L57.4838 17.2365ZM59.7628 12.5663H60.6177V13.3082H60.6841C60.9149 12.7619 61.4542 12.4278 62.0271 12.4761C62.4707 12.4415 62.9053 12.6181 63.2084 12.956C63.5114 13.2939 63.6499 13.7565 63.5848 14.2131V17.2364H62.6966V14.4446C62.6966 13.6941 62.3824 13.3208 61.7255 13.3208C61.4247 13.3063 61.1327 13.4288 60.9261 13.6563C60.7196 13.8838 60.6191 14.1935 60.6509 14.5043V17.2365H59.7628L59.7628 12.5663ZM65 10.7432H65.8882V17.2364H65V10.7432ZM67.1228 14.8993C67.0457 14.0622 67.4326 13.2521 68.1212 12.8087C68.8097 12.3653 69.681 12.3653 70.3696 12.8087C71.0582 13.2521 71.4451 14.0622 71.368 14.8993C71.4465 15.7374 71.06 16.549 70.3708 16.9934C69.6816 17.4377 68.8092 17.4377 68.12 16.9934C67.4308 16.549 67.0443 15.7374 67.1228 14.8993ZM70.4539 14.8993C70.4539 13.887 70.0157 13.295 69.2466 13.295C68.4746 13.295 68.0403 13.887 68.0403 14.8994C68.0403 15.9198 68.4746 16.5072 69.2466 16.5072C70.0157 16.5072 70.4539 15.9157 70.4539 14.8993ZM72.303 15.9157C72.303 15.0751 72.9061 14.5904 73.9768 14.5216L75.1958 14.4486V14.0455C75.1958 13.5523 74.8816 13.2738 74.2745 13.2738C73.7787 13.2738 73.4351 13.4626 73.3366 13.7928H72.4767C72.5675 12.9907 73.2946 12.4761 74.3155 12.4761C75.4438 12.4761 76.0801 13.059 76.0801 14.0455V17.2365H75.2251V16.5802H75.1549C74.8645 17.0594 74.3481 17.3396 73.8031 17.3134C73.421 17.3547 73.04 17.2263 72.7542 16.96C72.4684 16.6937 72.3045 16.3143 72.303 15.9157ZM75.1958 15.5167V15.1262L74.0969 15.1991C73.4771 15.2422 73.196 15.461 73.196 15.8727C73.196 16.293 73.5474 16.5376 74.0305 16.5376C74.3166 16.5676 74.6021 16.4759 74.8217 16.2835C75.0414 16.091 75.1764 15.8143 75.1958 15.5167ZM77.2474 14.8993C77.2474 13.4236 77.9784 12.4888 79.1155 12.4888C79.6896 12.4613 80.2274 12.7806 80.4955 13.3081H80.5619V10.7432H81.4501V17.2364H80.599V16.4986H80.5287C80.2403 17.0218 79.6959 17.3356 79.1155 17.3134C77.9706 17.3135 77.2474 16.3786 77.2474 14.8993ZM78.1649 14.8993C78.1649 15.8899 78.6148 16.486 79.3673 16.486C80.1159 16.486 80.5785 15.8813 80.5785 14.9034C80.5785 13.9301 80.111 13.3168 79.3673 13.3168C78.6197 13.3168 78.1649 13.9169 78.1649 14.8993ZM85.1247 14.8993C85.0476 14.0623 85.4344 13.2521 86.1229 12.8087C86.8114 12.3653 87.6827 12.3653 88.3712 12.8087C89.0597 13.2521 89.4465 14.0623 89.3694 14.8993C89.448 15.7373 89.0616 16.549 88.3724 16.9934C87.6833 17.4377 86.8108 17.4377 86.1217 16.9934C85.4325 16.549 85.0461 15.7373 85.1247 14.8993ZM88.4558 14.8993C88.4558 13.887 88.0176 13.295 87.2485 13.295C86.4765 13.295 86.0422 13.887 86.0422 14.8994C86.0422 15.9198 86.4765 16.5072 87.2485 16.5072C88.0176 16.5072 88.4558 15.9157 88.4558 14.8993ZM90.5611 12.5663H91.4161V13.3082H91.4824C91.7132 12.7619 92.2526 12.4278 92.8254 12.4761C93.269 12.4415 93.7036 12.6181 94.0067 12.956C94.3097 13.2939 94.4482 13.7565 94.3831 14.2131V17.2364H93.495V14.4446C93.495 13.6941 93.1807 13.3208 92.5238 13.3208C92.223 13.3063 91.931 13.4288 91.7244 13.6563C91.5179 13.8838 91.4174 14.1935 91.4492 14.5043V17.2365H90.5611V12.5663ZM99.4017 11.4035V12.5875H100.377V13.3639H99.4017V15.7653C99.4017 16.2545 99.596 16.4687 100.038 16.4687C100.151 16.4684 100.264 16.4613 100.377 16.4475V17.2152C100.217 17.2448 100.056 17.2605 99.8936 17.2623C98.9059 17.2623 98.5126 16.9017 98.5126 16.0013V13.3638H97.7982V12.5875H98.5126V11.4035H99.4017ZM101.59 10.7432H102.47V13.3168H102.541C102.782 12.7658 103.331 12.4312 103.913 12.4802C104.354 12.4553 104.783 12.6357 105.082 12.9724C105.382 13.3091 105.521 13.767 105.463 14.2212V17.2365H104.574V14.4486C104.574 13.7027 104.239 13.3249 103.611 13.3249C103.302 13.2986 102.998 13.4151 102.779 13.6434C102.561 13.8717 102.451 14.1884 102.478 14.5089V17.2364H101.59L101.59 10.7432ZM110.641 15.9755C110.392 16.8564 109.571 17.4256 108.691 17.3266C108.091 17.343 107.515 17.0849 107.114 16.6207C106.714 16.1565 106.53 15.5332 106.612 14.9161C106.533 14.2972 106.715 13.6729 107.113 13.2048C107.512 12.7366 108.086 12.4708 108.687 12.4761C109.94 12.4761 110.695 13.3639 110.695 14.8305V15.1521H107.517V15.2037C107.489 15.5503 107.603 15.893 107.831 16.1478C108.06 16.4025 108.381 16.5455 108.716 16.5416C109.15 16.5958 109.573 16.3721 109.786 15.9754L110.641 15.9755ZM107.517 14.4704H109.79C109.813 14.1535 109.706 13.8413 109.495 13.6109C109.284 13.3805 108.989 13.2533 108.683 13.2606C108.372 13.2565 108.073 13.3827 107.854 13.6105C107.635 13.8383 107.513 14.1484 107.517 14.4704Z" fill="white"/>
<path fill-rule="evenodd" clip-rule="evenodd" d="M30.7336 22.8027C30.7357 24.7345 31.8863 26.4779 33.6558 27.2304C33.3155 28.342 32.8025 29.3925 32.1359 30.343C31.2406 31.6896 30.3019 33.0052 28.812 33.0295C27.3644 33.0631 26.8779 32.1729 25.2174 32.1729C23.5415 32.1729 23.0229 33.0052 21.6345 33.0631C20.2156 33.116 19.1312 31.6259 18.2034 30.2919C16.3489 27.5677 14.9049 22.6147 16.8409 19.2445C17.7499 17.6019 19.4497 16.5596 21.3182 16.4989C22.7384 16.4695 24.0572 17.4633 24.9304 17.4633C25.7869 17.4633 27.4165 16.2745 29.0974 16.4519C30.6951 16.5022 32.1757 17.307 33.0926 18.6236C31.6458 19.5179 30.7555 21.0952 30.7336 22.8027ZM27.9993 14.6603C27.2112 15.6459 26.017 16.2136 24.7593 16.2006C24.6793 14.9648 25.0912 13.7477 25.9041 12.8174C26.7274 11.8745 27.8738 11.278 29.1149 11.147C29.2118 12.4194 28.8116 13.6797 27.9993 14.6603Z" fill="white"/>
</g>
<defs>
<clipPath id="clip0_1_2157">
<rect width="132" height="38.94" fill="white" transform="translate(0 3.02979)"/>
</clipPath>
</defs>
</svg>
