<svg width="175" height="132" viewBox="0 0 175 132" fill="none" xmlns="http://www.w3.org/2000/svg">
<g clip-path="url(#clip0_1_1498)">
<g clip-path="url(#clip1_1_1498)">
<path d="M44.3692 93.5887L57.8794 5.0698C58.2277 2.77811 60.3691 1.20358 62.6607 1.55281L126.104 11.2648C128.395 11.617 129.967 13.7581 129.62 16.05L116.11 104.569C115.761 106.861 113.62 108.435 111.328 108.086L47.8856 98.3739C45.5945 98.0217 44.0219 95.8806 44.3692 93.5887Z" fill="url(#paint0_linear_1_1498)"/>
<g style="mix-blend-mode:screen" opacity="0.5">
<path d="M129.609 16.0569L116.108 104.552C116.005 105.234 115.736 105.88 115.323 106.432C114.91 106.985 114.367 107.426 113.742 107.718C113.815 107.501 113.868 107.278 113.901 107.051L127.402 18.5659C127.573 17.4609 127.299 16.3329 126.638 15.4309C125.977 14.5289 124.986 13.9269 123.882 13.7579L60.465 4.05092C59.6355 3.9236 58.7868 4.04832 58.029 4.40892C58.672 2.46792 60.61 1.26492 62.632 1.55192L126.059 11.2589C127.168 11.4189 128.166 12.0159 128.833 12.9169C129.5 13.8179 129.779 14.9489 129.608 16.0579L129.609 16.0569Z" fill="#FFBF70"/>
</g>
<g style="mix-blend-mode:multiply" opacity="0.5">
<path d="M117.54 95.194L116.108 104.552C115.756 106.85 113.611 108.427 111.316 108.076L47.889 98.37C46.786 98.203 45.794 97.603 45.134 96.703C44.474 95.803 44.199 94.676 44.37 93.572L53.317 34.834C53.728 43.171 55.592 51.372 58.825 59.066C63.8134 70.9746 72.3985 81.0268 83.38 87.817C93.618 94.042 105.65 96.641 117.54 95.194Z" fill="#FFBF70"/>
</g>
<path d="M82.058 90.4949C83.9192 90.4949 85.428 88.9838 85.428 87.1199C85.428 85.2559 83.9192 83.7449 82.058 83.7449C80.1968 83.7449 78.688 85.2559 78.688 87.1199C78.688 88.9838 80.1968 90.4949 82.058 90.4949Z" fill="white"/>
<path d="M90.469 88.8218L89.753 93.5408L72.852 90.9528L73.568 86.2438L78.131 86.9408C78.159 87.8714 78.5123 88.7627 79.1295 89.4598C79.7466 90.1568 80.5887 90.6154 81.509 90.7558C83.407 91.0438 85.24 89.9328 85.865 88.1158L90.468 88.8228L90.469 88.8218ZM91.284 83.2868L90.568 87.9958L85.995 87.2988C85.9732 86.3632 85.6224 85.4652 85.0043 84.7626C84.3862 84.06 83.5402 83.5976 82.615 83.4568C80.706 83.1678 78.866 84.2918 78.25 86.1238L73.687 85.4268L74.403 80.7078L91.284 83.2868ZM84.573 70.6438C71.173 68.5918 61.972 56.0508 64.02 42.6318C66.068 29.2128 78.591 19.9978 91.991 22.0478C105.391 24.0978 114.595 36.6368 112.549 50.0558C110.493 63.4718 97.974 72.6848 84.573 70.6438ZM91.632 24.3998C87.2919 23.7363 82.8524 24.3758 78.876 26.2373C74.8996 28.0989 71.5652 31.0987 69.295 34.8568C67.0224 38.6177 65.9143 42.9673 66.1104 47.3572C66.3065 51.747 67.7981 55.9805 70.397 59.5238C75.712 66.7668 84.862 70.0888 93.577 67.9418C97.8413 66.8891 101.698 64.5958 104.659 61.3516C107.62 58.1074 109.552 54.0582 110.212 49.7158C112.048 37.5898 103.736 26.2638 91.631 24.3988L91.632 24.3998Z" fill="white"/>
<path d="M83.58 69.3038L90.641 23.0398L92.98 23.3978L85.919 69.6618L83.58 69.3038Z" fill="white"/>
<path d="M65.427 44.2348L65.784 41.8928L111.492 48.8888L111.135 51.2308L65.427 44.2348Z" fill="white"/>
<path d="M73.777 65.8749C73.281 65.8049 72.883 65.4299 72.783 64.9389C69.8753 50.9217 72.165 36.3255 79.225 23.8719C79.437 23.4839 79.848 23.2469 80.29 23.2569C80.5069 23.2617 80.7182 23.3263 80.9008 23.4434C81.0834 23.5606 81.2302 23.7258 81.325 23.9209C81.519 24.3189 81.476 24.7909 81.213 25.1469C74.5734 37.1105 72.4062 51.0459 75.099 64.4609C75.222 65.1029 74.812 65.7249 74.174 65.8649C74.0424 65.8863 73.9095 65.8896 73.777 65.8749ZM96.205 69.2999C96.0656 69.2814 95.9307 69.2377 95.807 69.1709C95.5328 69.0175 95.3305 68.7619 95.244 68.4599C95.158 68.1579 95.196 67.8329 95.349 67.5589C101.941 55.5713 104.085 41.6399 101.403 28.2249C101.245 27.5939 101.621 26.9519 102.248 26.7809C102.398 26.7403 102.555 26.7302 102.709 26.7509C102.863 26.7717 103.012 26.823 103.146 26.9019C103.417 27.0609 103.613 27.3219 103.69 27.6269C106.607 41.6269 104.384 56.2094 97.427 68.7039C97.3109 68.9185 97.1305 69.0915 96.9112 69.1985C96.6919 69.3056 96.4447 69.3414 96.204 69.3009L96.205 69.2999Z" fill="white"/>
<path d="M109.934 39.2638C109.771 39.242 109.615 39.1843 109.477 39.0948C97.5494 32.5207 83.6723 30.4035 70.327 33.1218C69.697 33.2318 69.093 32.8208 68.964 32.1938C68.835 31.5668 69.227 30.9498 69.849 30.8018C83.796 27.8778 98.328 30.1198 110.749 37.1138C111.221 37.4148 111.418 38.0058 111.221 38.5298C111.024 39.0538 110.487 39.3688 109.934 39.2838V39.2638ZM85.836 62.2308C78.81 61.1688 72.03 58.8588 65.814 55.4108C65.245 55.0958 65.036 54.3798 65.347 53.8078C65.4993 53.5329 65.7542 53.3293 66.056 53.2417C66.3579 53.154 66.6821 53.1893 66.958 53.3398C78.982 59.9228 92.933 62.0688 106.376 59.4028C106.581 59.3381 106.799 59.3303 107.007 59.3803C107.216 59.4304 107.407 59.5363 107.56 59.6868C107.872 59.9928 107.99 60.4468 107.867 60.8668C107.744 61.2868 107.4 61.6048 106.972 61.6938C100.023 63.2013 92.8525 63.3828 85.836 62.2308Z" fill="white"/>
<path d="M149.005 52.6137C144.45 50.3577 138.931 52.2187 136.667 56.7747C134.987 60.1697 136.249 69.8767 136.756 74.6947C136.895 75.9887 137.85 76.9147 138.953 76.2377C139.44 75.9487 139.947 75.6107 140.573 75.2417C144.977 72.4737 151.678 67.9147 153.159 64.9177C155.391 60.3697 153.533 54.8707 149.003 52.6127L149.005 52.6137ZM149.134 62.9677C148.721 63.8038 148.069 64.4984 147.261 64.9636C146.453 65.4288 145.524 65.6436 144.594 65.5807C142.692 65.4517 141.055 64.1887 140.446 62.3797C139.837 60.5707 140.377 58.5727 141.813 57.3177C143.249 56.0627 145.299 55.7977 147.007 56.6457C149.333 57.8077 150.281 60.6357 149.125 62.9677H149.134Z" fill="url(#paint1_linear_1_1498)"/>
<path d="M17.398 113.871L15.996 115.125L15.181 115.862L9.96201 105.07L18.223 100.849L18.114 102.591L17.398 113.871Z" fill="url(#paint2_linear_1_1498)"/>
<path style="mix-blend-mode:multiply" opacity="0.5" d="M15.996 115.125L15.181 115.862L9.94199 105.04L18.203 100.819L18.094 102.561C16.185 103.813 14.912 105.832 14.604 108.096C14.3387 110.526 14.8245 112.979 15.996 115.125Z" fill="url(#paint3_linear_1_1498)"/>
<path d="M15.28 97.0158L9.096 103.955L0 96.1598L1.183 95.3828L2.485 94.5168L12.347 96.4478L15.28 97.0158Z" fill="url(#paint4_linear_1_1498)"/>
<path style="mix-blend-mode:multiply" opacity="0.5" d="M15.28 97.0158L9.096 103.985L0 96.1598L1.183 95.3828C2.72914 96.8322 4.66329 97.8008 6.75 98.1708C8.78 98.4778 10.839 97.8438 12.347 96.4488L15.28 97.0158Z" fill="url(#paint5_linear_1_1498)"/>
<path d="M15.996 99.6538L12.805 102.561L11.145 103.935L9.45499 105.269L7.73499 106.573L5.99499 107.827L2.37599 110.186C2.30199 110.224 2.20999 110.198 2.16699 110.126C2.14775 110.1 2.13736 110.069 2.13736 110.036C2.13736 110.004 2.14775 109.973 2.16699 109.947L5.36799 107.04L7.01799 105.666L8.70799 104.332L10.428 103.038L12.178 101.774L15.797 99.4238C15.857 99.3718 15.946 99.3718 16.006 99.4238C16.022 99.4386 16.0347 99.4567 16.043 99.4769C16.0513 99.497 16.0551 99.5188 16.0542 99.5406C16.0532 99.5624 16.0475 99.5837 16.0375 99.6031C16.0274 99.6225 16.0133 99.6404 15.996 99.6538Z" fill="url(#paint6_linear_1_1498)"/>
<path d="M15.201 74.2869C14.356 74.9439 13.561 75.2829 13.421 75.1429C13.281 75.0029 13.858 74.2969 14.703 73.6399C15.548 72.9829 16.333 72.6439 16.473 72.7839C16.613 72.9239 16.046 73.6399 15.2 74.2869H15.201Z" fill="url(#paint7_linear_1_1498)"/>
<path d="M18.79 76.3979C17.945 77.0449 17.15 77.3939 17.01 77.2539C16.87 77.1139 17.447 76.3979 18.292 75.7509C19.137 75.1039 19.922 74.7549 20.062 74.8949C20.202 75.0349 19.635 75.7409 18.789 76.3979H18.79Z" fill="url(#paint8_linear_1_1498)"/>
<path d="M23.86 80.649C23.025 81.306 22.23 81.645 22.09 81.505C21.95 81.365 22.517 80.659 23.363 80.002C24.209 79.345 25.003 79.006 25.143 79.146C25.283 79.286 24.685 80.002 23.86 80.649Z" fill="url(#paint9_linear_1_1498)"/>
<path d="M25.848 83.2969C25.013 83.9539 24.218 84.2929 24.078 84.1529C23.938 84.0129 24.515 83.3069 25.351 82.6499C26.187 81.9929 26.991 81.6539 27.131 81.7939C27.271 81.9339 26.723 82.6499 25.849 83.2969H25.848Z" fill="url(#paint10_linear_1_1498)"/>
<path d="M20.877 69.1999L19.565 67.4979C19.014 66.7859 19.143 65.7609 19.853 65.2079L21.563 63.8939C21.67 63.8069 21.808 63.7669 21.945 63.7839C22.082 63.8009 22.206 63.8729 22.289 63.9839L24.963 67.4579C25.0067 67.5134 25.0387 67.5772 25.0569 67.6454C25.0752 67.7137 25.0793 67.7849 25.0691 67.8548C25.0589 67.9247 25.0346 67.9918 24.9976 68.052C24.9606 68.1122 24.9118 68.1642 24.854 68.2049L23.154 69.5189C22.8094 69.7774 22.3764 69.889 21.9497 69.8292C21.523 69.7695 21.1373 69.5432 20.877 69.1999Z" fill="url(#paint11_linear_1_1498)"/>
<path d="M17.5368 68.4471L20.0007 66.5445L21.8587 68.9569L19.3948 70.8596L17.5368 68.4471Z" fill="url(#paint12_linear_1_1498)"/>
<path d="M32.718 73.3219L31.406 71.6199C31.142 71.2769 31.026 70.8429 31.082 70.4129C31.138 69.9829 31.362 69.5939 31.705 69.3299L33.405 68.0159C33.633 67.8389 33.961 67.8789 34.141 68.1059L36.785 71.5799C36.8279 71.6331 36.8597 71.6943 36.8785 71.76C36.8973 71.8257 36.9027 71.8945 36.8944 71.9623C36.8861 72.0301 36.8642 72.0955 36.8302 72.1547C36.7961 72.2139 36.7505 72.2657 36.696 72.3069L34.996 73.6209C34.6538 73.8816 34.2224 73.9965 33.7959 73.9405C33.3694 73.8845 32.9823 73.6622 32.719 73.3219H32.718Z" fill="url(#paint13_linear_1_1498)"/>
<path d="M29.4314 72.5804L31.8952 70.6778L33.7532 73.0902L31.2894 74.9929L29.4314 72.5804Z" fill="url(#paint14_linear_1_1498)"/>
<path d="M42.262 74.7748L27.737 86.5618L21.454 78.2688L7.76401 69.1498L11.224 67.5168L12.725 66.8198L39.11 73.9278L42.262 74.7748Z" fill="url(#paint15_linear_1_1498)"/>
<path style="mix-blend-mode:multiply" opacity="0.5" d="M42.262 74.7749L27.737 86.5619L21.454 78.2689L7.76401 69.1989L11.224 67.5659C13.1188 70.2182 15.5681 72.4263 18.402 74.0369C19.1041 74.4862 19.8725 74.8223 20.679 75.0329C21.49 75.2109 22.338 75.0869 23.065 74.6849C23.6 74.2729 24.108 73.8269 24.586 73.3509C24.8291 73.1193 25.1346 72.9638 25.4649 72.9038C25.7953 72.8437 26.136 72.8817 26.445 73.0129C25.5866 74.044 24.9139 75.2165 24.457 76.4779C24.033 77.7309 24.273 79.1139 25.093 80.1519C25.89 80.9119 26.983 81.2759 28.075 81.1479C29.1501 81.0152 30.1896 80.6771 31.137 80.1519C34.224 78.6479 36.955 76.5029 39.15 73.8599L42.262 74.7749Z" fill="url(#paint16_linear_1_1498)"/>
<path d="M40.025 106.523C39.18 107.18 38.603 107.847 38.743 108.026C38.883 108.205 39.678 107.827 40.523 107.17C41.368 106.513 41.935 105.846 41.805 105.667C41.675 105.488 40.87 105.876 40.025 106.523Z" fill="url(#paint17_linear_1_1498)"/>
<path d="M38.902 102.511C38.057 103.168 37.49 103.835 37.62 104.014C37.75 104.193 38.555 103.815 39.4 103.158C40.245 102.501 40.822 101.834 40.682 101.655C40.542 101.476 39.767 101.864 38.902 102.511Z" fill="url(#paint18_linear_1_1498)"/>
<path d="M36.078 96.5378C35.233 97.1848 34.656 97.8618 34.796 98.0408C34.936 98.2198 35.731 97.8318 36.576 97.1848C37.421 96.5378 37.988 95.8608 37.849 95.6818C37.71 95.5028 36.924 95.8808 36.079 96.5378H36.078Z" fill="url(#paint19_linear_1_1498)"/>
<path d="M34.04 93.8899C33.195 94.5369 32.618 95.2139 32.758 95.3929C32.898 95.5719 33.693 95.1839 34.538 94.5369C35.383 93.8899 35.95 93.2129 35.811 93.0339C35.672 92.8549 34.886 93.2329 34.041 93.8899H34.04Z" fill="url(#paint20_linear_1_1498)"/>
<path d="M46.378 102.372L47.72 104.045C47.8505 104.215 48.0131 104.357 48.1987 104.464C48.3843 104.571 48.5891 104.64 48.8015 104.668C49.0139 104.696 49.2297 104.682 49.4366 104.626C49.6434 104.57 49.8372 104.474 50.007 104.344L51.697 103.05C51.7515 103.009 51.7971 102.957 51.8312 102.898C51.8653 102.838 51.8871 102.773 51.8954 102.705C51.9037 102.637 51.8983 102.568 51.8795 102.503C51.8607 102.437 51.8289 102.376 51.786 102.323L49.112 98.8577C49.029 98.7477 48.906 98.6757 48.77 98.6567C48.634 98.6377 48.496 98.6747 48.386 98.7577L46.726 100.062C46.372 100.321 46.136 100.71 46.071 101.144C46.006 101.578 46.116 102.02 46.378 102.372Z" fill="url(#paint21_linear_1_1498)"/>
<path d="M44.2497 103.181L46.7077 101.281L48.5634 103.687L46.1054 105.588L44.2497 103.181Z" fill="url(#paint22_linear_1_1498)"/>
<path d="M45.403 89.7977L46.725 91.4997C46.8555 91.6696 47.0181 91.8122 47.2037 91.9191C47.3893 92.0261 47.5941 92.0955 47.8065 92.1233C48.0189 92.151 48.2347 92.1367 48.4416 92.081C48.6484 92.0253 48.8422 91.9294 49.012 91.7987L50.702 90.4847C50.8098 90.398 50.8802 90.2731 50.8986 90.136C50.917 89.9989 50.8821 89.8599 50.801 89.7477L48.127 86.2827C47.948 86.0577 47.624 86.0137 47.391 86.1827L45.731 87.5067C45.384 87.7667 45.154 88.1537 45.092 88.5837C45.03 89.0137 45.142 89.4507 45.403 89.7977Z" fill="url(#paint23_linear_1_1498)"/>
<path d="M43.4297 90.7706L45.8936 88.8679L47.7516 91.2804L45.2877 93.1831L43.4297 90.7706Z" fill="url(#paint24_linear_1_1498)"/>
<path d="M46.616 110.824L43.107 115.025L37.768 99.4549L31.366 91.2619L46.428 80.1809L46.448 82.2719L46.607 109.849L46.616 110.824Z" fill="url(#paint25_linear_1_1498)"/>
<path style="mix-blend-mode:multiply" opacity="0.5" d="M46.616 110.824L43.107 114.995L37.778 99.4439L31.376 91.2609L46.428 80.1509V82.2319L41.915 85.7259C39.902 87.2159 38.24 89.1289 37.044 91.3309C36.5466 92.2458 36.3028 93.2771 36.338 94.3179C36.377 95.3609 36.943 96.3139 37.839 96.8469C38.46 97.0874 39.1315 97.1678 39.7917 97.0808C40.4519 96.9938 41.0796 96.7421 41.617 96.3489C42.76 95.6819 44.182 93.4319 45.077 94.3579C46.369 95.8019 42.095 96.9459 41.23 98.6689C40.464 100.103 40.783 101.855 41.131 103.448C41.3787 105.157 42.0184 106.786 43 108.207C43.86 109.299 45.203 109.895 46.589 109.8L46.619 110.825L46.616 110.824Z" fill="url(#paint26_linear_1_1498)"/>
<path d="M37.579 88.5238C31.4121 93.1835 24.924 97.402 18.163 101.148L9.57301 105.728C9.46725 105.81 9.34631 105.871 9.21709 105.906C9.08786 105.942 8.9529 105.952 8.81991 105.935C8.68692 105.918 8.55851 105.876 8.44202 105.81C8.32553 105.743 8.22324 105.655 8.14101 105.549C7.79501 105.104 7.87501 104.462 8.32001 104.115C13.297 98.4558 18.581 93.0748 24.147 87.9968C26.662 85.7168 29.327 83.4468 32.1 81.3468C46.486 70.2468 60.424 62.0428 61.925 64.0238C63.426 66.0048 51.954 77.4238 37.578 88.5248L37.579 88.5238Z" fill="url(#paint27_linear_1_1498)"/>
<path style="mix-blend-mode:multiply" opacity="0.5" d="M18.511 96.7569C18.02 98.1659 17.9 99.6779 18.163 101.147L9.57301 105.727C9.46725 105.809 9.34631 105.87 9.21709 105.905C9.08786 105.941 8.9529 105.951 8.81991 105.934C8.68692 105.917 8.55851 105.875 8.44202 105.809C8.32553 105.742 8.22324 105.654 8.14101 105.548C7.79501 105.103 7.87501 104.461 8.32001 104.114C13.297 98.4549 18.581 93.0738 24.147 87.9958C23.153 89.1608 22.258 90.3549 21.373 91.5799C20.1617 93.1504 19.1973 94.896 18.511 96.7569Z" fill="url(#paint28_linear_1_1498)"/>
<path d="M26.425 94.4868L26.753 94.2578L26.932 94.5068L26.584 94.7258L26.425 94.4868Z" fill="url(#paint29_linear_1_1498)"/>
<path d="M27.419 93.7798L28.085 93.3018L28.294 93.6208L27.608 94.0588L27.419 93.7798Z" fill="url(#paint30_linear_1_1498)"/>
<path d="M28.741 92.8239L29.407 92.3459L29.656 92.7139L28.98 93.1719L28.741 92.8239Z" fill="url(#paint31_linear_1_1498)"/>
<path d="M30.063 91.8689L30.729 91.3909L31.017 91.8089L30.341 92.2669L30.063 91.8689Z" fill="url(#paint32_linear_1_1498)"/>
<path d="M31.386 90.9128L32.052 90.4348L32.37 90.8828L31.694 91.3508L31.386 90.9128Z" fill="url(#paint33_linear_1_1498)"/>
<path d="M32.708 89.9467L33.374 89.4688L33.712 89.9467L33.046 90.4147L32.708 89.9467Z" fill="url(#paint34_linear_1_1498)"/>
<path d="M34.03 88.9819L34.686 88.4939L35.064 89.0119L34.388 89.4799L34.03 88.9819Z" fill="url(#paint35_linear_1_1498)"/>
<path d="M35.342 88.0058L35.998 87.5278L36.396 88.0658L35.73 88.5438L35.342 88.0058Z" fill="url(#paint36_linear_1_1498)"/>
<path d="M36.655 87.0398L37.311 86.5518L37.729 87.1098L37.063 87.5878L36.655 87.0398Z" fill="url(#paint37_linear_1_1498)"/>
<path d="M37.967 86.0649L38.623 85.5669L39.05 86.1439L38.384 86.6219L37.967 86.0649Z" fill="url(#paint38_linear_1_1498)"/>
<path d="M39.279 85.0788L39.925 84.5808L40.372 85.1678L39.706 85.6558L39.279 85.0788Z" fill="url(#paint39_linear_1_1498)"/>
<path d="M40.582 84.0839L41.228 83.5859L41.685 84.1829L41.029 84.6809L40.582 84.0839Z" fill="url(#paint40_linear_1_1498)"/>
<path d="M41.874 83.0878L42.52 82.5798L42.987 83.1968L42.341 83.6948L41.874 83.0878Z" fill="url(#paint41_linear_1_1498)"/>
<path d="M43.1656 82.0834L43.81 81.5828L44.2792 82.1883L43.6353 82.6897L43.1656 82.0834Z" fill="url(#paint42_linear_1_1498)"/>
<path d="M44.4623 81.0776L45.1025 80.5717L45.5713 81.1648L44.9311 81.6708L44.4623 81.0776Z" fill="url(#paint43_linear_1_1498)"/>
<path d="M45.7394 80.0624L46.3741 79.5495L46.8414 80.131L46.2061 80.6431L45.7394 80.0624Z" fill="url(#paint44_linear_1_1498)"/>
<path d="M47.004 79.0258L47.64 78.5078L48.107 79.0658L47.481 79.6038L47.004 79.0258Z" fill="url(#paint45_linear_1_1498)"/>
<path d="M48.276 77.9909L48.902 77.4729L49.349 77.9909L48.733 78.5389L48.276 77.9909Z" fill="url(#paint46_linear_1_1498)"/>
<path d="M49.529 76.9447L50.145 76.4067L50.572 76.8947L49.966 77.4427L49.529 76.9447Z" fill="url(#paint47_linear_1_1498)"/>
<path d="M50.762 75.8698L51.378 75.3318L51.776 75.7598L51.18 76.3368L50.762 75.8698Z" fill="url(#paint48_linear_1_1498)"/>
<path d="M51.985 74.7848L52.581 74.2368L52.939 74.5948L52.362 75.1818L51.985 74.7848Z" fill="url(#paint49_linear_1_1498)"/>
<path d="M53.198 73.6498L53.486 73.3608L53.814 73.6798L53.526 73.9788L53.198 73.6498Z" fill="url(#paint50_linear_1_1498)"/>
<path d="M22.935 90.4748L23.253 90.2158L23.054 89.9868L22.746 90.2558L22.935 90.4748Z" fill="url(#paint51_linear_1_1498)"/>
<path d="M23.89 89.6979L24.516 89.1899L24.277 88.9009L23.661 89.4389L23.89 89.6979Z" fill="url(#paint52_linear_1_1498)"/>
<path d="M25.152 88.6729L25.788 88.1649L25.5 87.8169L24.894 88.3649L25.152 88.6729Z" fill="url(#paint53_linear_1_1498)"/>
<path d="M26.425 87.658L27.071 87.14L26.743 86.752L26.117 87.29L26.425 87.658Z" fill="url(#paint54_linear_1_1498)"/>
<path d="M27.697 86.6318L28.333 86.1238L27.985 85.6858L27.359 86.2138L27.697 86.6318Z" fill="url(#paint55_linear_1_1498)"/>
<path d="M28.98 85.6069L29.616 85.0989L29.238 84.6409L28.612 85.1689L28.98 85.6069Z" fill="url(#paint56_linear_1_1498)"/>
<path d="M30.262 84.591L30.898 84.083L30.5 83.585L29.874 84.113L30.262 84.591Z" fill="url(#paint57_linear_1_1498)"/>
<path d="M31.545 83.5858L32.191 83.0778L31.764 82.5498L31.128 83.0678L31.545 83.5858Z" fill="url(#paint58_linear_1_1498)"/>
<path d="M32.827 82.5699L33.473 82.0619L33.036 81.5239L32.4 82.0319L32.827 82.5699Z" fill="url(#paint59_linear_1_1498)"/>
<path d="M34.12 81.5648L34.766 81.0568L34.319 80.4988L33.683 81.0068L34.12 81.5648Z" fill="url(#paint60_linear_1_1498)"/>
<path d="M35.412 80.5589L36.058 80.0609L35.611 79.4839L34.965 79.9919L35.412 80.5589Z" fill="url(#paint61_linear_1_1498)"/>
<path d="M36.704 79.5638L37.36 79.0758L36.903 78.4788L36.257 78.9768L36.704 79.5638Z" fill="url(#paint62_linear_1_1498)"/>
<path d="M38.017 78.5779L38.673 78.0899L38.206 77.4729L37.56 77.9709L38.017 78.5779Z" fill="url(#paint63_linear_1_1498)"/>
<path d="M38.8721 76.9882L39.525 76.4987L39.9769 77.1048L39.324 77.5943L38.8721 76.9882Z" fill="url(#paint64_linear_1_1498)"/>
<path d="M40.1875 76.0092L40.8445 75.5254L41.2913 76.1352L40.6342 76.6191L40.1875 76.0092Z" fill="url(#paint65_linear_1_1498)"/>
<path d="M41.519 75.0428L42.1806 74.5652L42.6165 75.1707L41.9542 75.6474L41.519 75.0428Z" fill="url(#paint66_linear_1_1498)"/>
<path d="M43.286 74.6949L43.952 74.2269L43.534 73.6299L42.858 74.0979L43.286 74.6949Z" fill="url(#paint67_linear_1_1498)"/>
<path d="M44.618 73.7498L45.284 73.2818L44.906 72.7148L44.22 73.1728L44.618 73.7498Z" fill="url(#paint68_linear_1_1498)"/>
<path d="M45.96 72.8239L46.636 72.3659L46.288 71.8179L45.592 72.2659L45.96 72.8239Z" fill="url(#paint69_linear_1_1498)"/>
<path d="M47.322 71.9079L47.998 71.4599L47.69 70.9619L46.984 71.3799L47.322 71.9079Z" fill="url(#paint70_linear_1_1498)"/>
<path d="M48.684 71.0218L49.38 70.5838L49.122 70.1458L48.406 70.5538L48.684 71.0218Z" fill="url(#paint71_linear_1_1498)"/>
<path d="M50.106 70.1558L50.454 69.9468L50.245 69.5488L49.877 69.7378L50.106 70.1558Z" fill="url(#paint72_linear_1_1498)"/>
<path d="M56.349 65.8048C56.349 65.8048 58.735 65.5158 59.262 66.0138C59.789 66.5118 58.914 68.7218 58.914 68.7218H59.252C59.252 68.7218 61.24 66.4118 60.892 65.1878C60.544 63.9638 56.597 65.3368 56.597 65.3368L56.349 65.8048Z" fill="url(#paint73_linear_1_1498)"/>
<path d="M57.144 66.0938L57.85 64.8198L57.144 66.0938Z" fill="url(#paint74_linear_1_1498)"/>
<path d="M58.397 66.1239L59.839 64.4019L58.397 66.1239Z" fill="url(#paint75_linear_1_1498)"/>
<path d="M59.153 66.7609L61.032 66.0039L59.153 66.7609Z" fill="url(#paint76_linear_1_1498)"/>
<path d="M59.063 67.7759L60.077 67.8259L59.063 67.7759Z" fill="url(#paint77_linear_1_1498)"/>
<path d="M87.9794 99.9816L165.612 79.7466L173.914 111.685L96.2815 131.92L87.9794 99.9816Z" fill="url(#paint78_linear_1_1498)"/>
<path d="M87.983 99.9731L165.615 79.7381L166.354 82.5806L88.7219 102.816L87.983 99.9731Z" fill="url(#paint79_linear_1_1498)"/>
<path d="M95.611 129.059L173.243 108.824L173.982 111.667L96.3499 131.902L95.611 129.059Z" fill="url(#paint80_linear_1_1498)"/>
<g opacity="0.89">
<path d="M120.621 96.1396L121.068 97.8916" stroke="#FFBA66" stroke-width="1.618"/>
<path d="M122.093 101.834L125.682 115.612" stroke="#FFBA66" stroke-width="1.618" stroke-dasharray="5.46 5.46"/>
<path d="M126.188 117.584L126.645 119.336" stroke="#FFBA66" stroke-width="1.618"/>
<path d="M156.241 89.9308L164.688 87.7288L165.134 89.4438L156.687 91.6458L156.241 89.9308ZM156.888 92.4318L165.335 90.2298L165.478 90.7788L157.031 92.9808L156.888 92.4318ZM157.191 93.6398L165.638 91.4378L165.781 91.9868L157.334 94.1888L157.191 93.6398ZM157.695 95.3608L166.162 93.1758L166.304 93.7258L157.837 95.9108L157.695 95.3608ZM157.833 96.0618L166.28 93.8598L166.643 95.2568L158.196 97.4588L157.833 96.0618ZM158.522 98.5868L166.989 96.4018L167.153 97.0388L158.686 99.2238L158.522 98.5868ZM158.793 99.6358L167.26 97.4508L167.548 98.5708L159.081 100.756L158.793 99.6358Z" fill="#FFBA66"/>
<path d="M159.024 100.645L167.471 98.4428L167.634 99.0688L159.187 101.271L159.024 100.645ZM159.259 101.571L167.706 99.3688L167.871 100.005L159.424 102.207L159.259 101.571ZM159.498 102.508L167.945 100.306L168.015 100.576L159.568 102.778L159.498 102.508ZM159.717 103.291L168.164 101.089L168.342 101.773L159.895 103.975L159.717 103.291ZM159.985 104.342L168.432 102.14L168.547 102.583L160.1 104.785L159.985 104.342ZM160.174 105.065L168.621 102.863L168.914 103.99L160.467 106.192L160.174 105.065ZM160.6 106.721L169.047 104.519L169.215 105.165L160.768 107.367L160.6 106.721ZM94.777 108.24L104.343 105.771L104.582 106.698L95.016 109.167L94.777 108.24ZM126.089 104.048L135.633 101.56L135.846 102.379L126.302 104.867L126.089 104.048ZM145.424 95.3388L154.968 92.8508L155.181 93.6698L145.637 96.1578L145.424 95.3388ZM145.881 97.1008L150.836 95.8088L151.049 96.6278L146.094 97.9198L145.881 97.1008ZM128.24 112.126L137.784 109.638L137.997 110.457L128.453 112.945L128.24 112.126ZM126.474 105.529L142.31 101.401L142.523 102.22L126.687 106.348L126.474 105.529ZM126.839 106.938L131.207 105.799L131.42 106.618L127.052 107.757L126.839 106.938ZM128.575 113.437L140.996 110.199L141.209 111.018L128.788 114.256L128.575 113.437ZM141.725 109.999L145.477 109.021L145.69 109.84L141.938 110.818L141.725 109.999ZM97.12 117.169L106.686 114.7L106.925 115.627L97.359 118.096L97.12 117.169ZM97.526 118.306L101.018 117.396L101.258 118.321L97.766 119.231L97.526 118.306ZM95.199 109.536L109.111 105.91L109.351 106.835L95.439 110.461L95.199 109.536ZM110.43 105.571L114.509 104.508L114.749 105.433L110.67 106.496L110.43 105.571ZM95.63 111.197L100.364 109.963L100.604 110.888L95.87 112.122L95.63 111.197ZM97.923 119.826L109.507 116.807L109.747 117.732L98.163 120.751L97.923 119.826ZM126.934 95.5318C125.638 95.8548 124.666 96.9288 124.472 98.2518C124.278 99.5748 124.902 100.884 126.05 101.565C127.198 102.246 128.644 102.166 129.71 101.36C130.231 100.965 130.623 100.425 130.837 99.8076C131.05 99.19 131.076 98.5229 130.91 97.8908C130.691 97.0535 130.15 96.3364 129.406 95.8948C128.661 95.4533 127.774 95.3228 126.934 95.5318ZM130.672 99.3948C130.602 99.3948 130.414 99.5738 130.105 99.7428C130.079 99.2768 130.012 98.8138 129.906 98.3588L130.691 98.1498C130.769 98.5615 130.762 98.9848 130.671 99.3938L130.672 99.3948ZM128.684 101.565L128.475 100.769C128.932 100.641 129.378 100.474 129.807 100.271V100.938C129.481 101.229 129.094 101.444 128.674 101.565H128.684ZM127.093 101.625L126.745 101.067C127.225 101.038 127.701 100.965 128.167 100.848L128.376 101.644C127.949 101.732 127.508 101.725 127.084 101.624H127.094L127.093 101.625ZM124.946 99.6338L125.721 99.4348C125.848 99.8833 126.014 100.32 126.218 100.739H125.572C125.287 100.425 125.07 100.056 124.936 99.6538L124.946 99.6338ZM124.876 98.0708C125.052 97.9456 125.235 97.8294 125.423 97.7228C125.448 98.2158 125.518 98.7055 125.632 99.1858L124.857 99.3848C124.759 98.9515 124.765 98.501 124.876 98.0708ZM126.864 95.9208L127.063 96.6878C126.603 96.8175 126.157 96.991 125.731 97.2058C125.716 96.9908 125.716 96.7738 125.731 96.5588C126.055 96.2537 126.442 96.0227 126.864 95.8818V95.9208ZM128.445 95.8608C128.569 96.033 128.682 96.2127 128.783 96.3988C128.307 96.4228 127.834 96.4928 127.371 96.6078L127.172 95.8408C127.59 95.7444 128.024 95.7376 128.445 95.8208V95.8608ZM127.451 96.9258C127.942 96.8027 128.446 96.7327 128.952 96.7168C129.186 97.1818 129.372 97.6688 129.509 98.1708L127.889 98.5988L127.452 96.9258H127.451ZM127.143 97.0058L127.58 98.6788L125.95 99.1068C125.828 98.5978 125.758 98.0768 125.741 97.5538C126.185 97.3067 126.655 97.1098 127.143 96.9668V97.0058ZM126.03 99.4048L127.66 98.9868L128.078 100.58C127.582 100.7 127.076 100.77 126.567 100.789C126.337 100.335 126.157 99.8575 126.03 99.3648V99.4048ZM128.386 100.5L127.968 98.9068L129.588 98.4788C129.704 98.9618 129.771 99.4553 129.787 99.9518C129.335 100.161 128.866 100.331 128.385 100.46V100.5H128.386ZM129.828 98.0708C129.697 97.5951 129.524 97.1319 129.311 96.6868C129.523 96.6758 129.735 96.6758 129.947 96.6868C130.253 97.0168 130.481 97.4116 130.613 97.8418L129.828 98.0708ZM129.56 96.3688H129.142L128.933 96.0108C129.155 96.0964 129.366 96.21 129.559 96.3488L129.56 96.3688ZM125.424 96.9168V97.3448L125.046 97.5638C125.142 97.3256 125.269 97.1013 125.424 96.8968V96.9168ZM125.931 101.088H126.378L126.597 101.476C126.358 101.367 126.134 101.226 125.931 101.058V101.088ZM130.106 100.59V100.132L130.504 99.9028C130.399 100.141 130.265 100.365 130.106 100.57V100.59Z" fill="#FFBA66"/>
</g>
</g>
</g>
<defs>
<linearGradient id="paint0_linear_1_1498" x1="-939.138" y1="1735.42" x2="8686.33" y2="-4132.66" gradientUnits="userSpaceOnUse">
<stop offset="0.24" stop-color="#DE7F00"/>
<stop offset="0.52" stop-color="#FFAE3D"/>
<stop offset="0.88" stop-color="#FFDA6A"/>
</linearGradient>
<linearGradient id="paint1_linear_1_1498" x1="551.989" y1="1344.41" x2="1565.41" y2="1256.69" gradientUnits="userSpaceOnUse">
<stop stop-color="#F28A00"/>
<stop offset="0.04" stop-color="#F88B10"/>
<stop offset="0.09" stop-color="#FD8D1D"/>
<stop offset="0.14" stop-color="#FF8D21"/>
<stop offset="0.32" stop-color="#FC821D"/>
<stop offset="0.64" stop-color="#F46411"/>
<stop offset="1" stop-color="#E83A00"/>
</linearGradient>
<linearGradient id="paint2_linear_1_1498" x1="286.368" y1="706.236" x2="579.056" y2="765.757" gradientUnits="userSpaceOnUse">
<stop stop-color="#99CBDD"/>
<stop offset="0.82" stop-color="#E1E6E5"/>
</linearGradient>
<linearGradient id="paint3_linear_1_1498" x1="-14907.6" y1="23876.9" x2="-14116.3" y2="23876.9" gradientUnits="userSpaceOnUse">
<stop stop-color="#99CBDD"/>
<stop offset="0.82" stop-color="#E1E6E5"/>
</linearGradient>
<linearGradient id="paint4_linear_1_1498" x1="-15077.2" y1="23819.9" x2="-13562.1" y2="23819.9" gradientUnits="userSpaceOnUse">
<stop stop-color="#99CBDD"/>
<stop offset="0.82" stop-color="#E1E6E5"/>
</linearGradient>
<linearGradient id="paint5_linear_1_1498" x1="-15077.2" y1="23735" x2="-13562.1" y2="23735" gradientUnits="userSpaceOnUse">
<stop stop-color="#99CBDD"/>
<stop offset="0.82" stop-color="#E1E6E5"/>
</linearGradient>
<linearGradient id="paint6_linear_1_1498" x1="-14802.7" y1="23821.1" x2="-13649.5" y2="23821.1" gradientUnits="userSpaceOnUse">
<stop stop-color="#99CBDD"/>
<stop offset="0.82" stop-color="#E1E6E5"/>
</linearGradient>
<linearGradient id="paint7_linear_1_1498" x1="-15512.1" y1="23319.6" x2="-15251.6" y2="23319.6" gradientUnits="userSpaceOnUse">
<stop stop-color="#99CBDD"/>
<stop offset="0.82" stop-color="#E1E6E5"/>
</linearGradient>
<linearGradient id="paint8_linear_1_1498" x1="-15473.7" y1="23244.9" x2="-15214.2" y2="23244.9" gradientUnits="userSpaceOnUse">
<stop stop-color="#99CBDD"/>
<stop offset="0.82" stop-color="#E1E6E5"/>
</linearGradient>
<linearGradient id="paint9_linear_1_1498" x1="-15401" y1="23140.8" x2="-15141.4" y2="23140.8" gradientUnits="userSpaceOnUse">
<stop stop-color="#99CBDD"/>
<stop offset="0.82" stop-color="#E1E6E5"/>
</linearGradient>
<linearGradient id="paint10_linear_1_1498" x1="-15345.2" y1="23097.7" x2="-15085.7" y2="23097.7" gradientUnits="userSpaceOnUse">
<stop stop-color="#99CBDD"/>
<stop offset="0.82" stop-color="#E1E6E5"/>
</linearGradient>
<linearGradient id="paint11_linear_1_1498" x1="-15691.3" y1="23365.8" x2="-15088.9" y2="23365.8" gradientUnits="userSpaceOnUse">
<stop stop-color="#99CBDD"/>
<stop offset="0.82" stop-color="#E1E6E5"/>
</linearGradient>
<linearGradient id="paint12_linear_1_1498" x1="26.47" y1="56.9863" x2="441.244" y2="141.271" gradientUnits="userSpaceOnUse">
<stop stop-color="#99CBDD"/>
<stop offset="0.82" stop-color="#E1E6E5"/>
</linearGradient>
<linearGradient id="paint13_linear_1_1498" x1="-15618.2" y1="23125" x2="-15015.8" y2="23125" gradientUnits="userSpaceOnUse">
<stop stop-color="#99CBDD"/>
<stop offset="0.82" stop-color="#E1E6E5"/>
</linearGradient>
<linearGradient id="paint14_linear_1_1498" x1="-117.241" y1="-42.1799" x2="296.939" y2="44.5522" gradientUnits="userSpaceOnUse">
<stop stop-color="#99CBDD"/>
<stop offset="0.82" stop-color="#E1E6E5"/>
</linearGradient>
<linearGradient id="paint15_linear_1_1498" x1="-15621.7" y1="24068.8" x2="-12129.2" y2="24068.8" gradientUnits="userSpaceOnUse">
<stop stop-color="#99CBDD"/>
<stop offset="0.82" stop-color="#E1E6E5"/>
</linearGradient>
<linearGradient id="paint16_linear_1_1498" x1="-15621.7" y1="24045.5" x2="-12129.2" y2="24045.5" gradientUnits="userSpaceOnUse">
<stop stop-color="#99CBDD"/>
<stop offset="0.82" stop-color="#E1E6E5"/>
</linearGradient>
<linearGradient id="paint17_linear_1_1498" x1="-14883.4" y1="22778.3" x2="-14623.9" y2="22778.3" gradientUnits="userSpaceOnUse">
<stop stop-color="#99CBDD"/>
<stop offset="0.82" stop-color="#E1E6E5"/>
</linearGradient>
<linearGradient id="paint18_linear_1_1498" x1="-14962.3" y1="22804.1" x2="-14702.8" y2="22804.1" gradientUnits="userSpaceOnUse">
<stop stop-color="#99CBDD"/>
<stop offset="0.82" stop-color="#E1E6E5"/>
</linearGradient>
<linearGradient id="paint19_linear_1_1498" x1="-15081.6" y1="22865.9" x2="-14822.1" y2="22865.9" gradientUnits="userSpaceOnUse">
<stop stop-color="#99CBDD"/>
<stop offset="0.82" stop-color="#E1E6E5"/>
</linearGradient>
<linearGradient id="paint20_linear_1_1498" x1="-15132.4" y1="22910.1" x2="-14871.8" y2="22910.1" gradientUnits="userSpaceOnUse">
<stop stop-color="#99CBDD"/>
<stop offset="0.82" stop-color="#E1E6E5"/>
</linearGradient>
<linearGradient id="paint21_linear_1_1498" x1="-15021.5" y1="22799.8" x2="-14419.2" y2="22799.8" gradientUnits="userSpaceOnUse">
<stop stop-color="#99CBDD"/>
<stop offset="0.82" stop-color="#E1E6E5"/>
</linearGradient>
<linearGradient id="paint22_linear_1_1498" x1="-120.294" y1="-2.15888" x2="294.074" y2="84.3676" gradientUnits="userSpaceOnUse">
<stop stop-color="#99CBDD"/>
<stop offset="0.82" stop-color="#E1E6E5"/>
</linearGradient>
<linearGradient id="paint23_linear_1_1498" x1="-15272.3" y1="22831.4" x2="-14669.8" y2="22831.4" gradientUnits="userSpaceOnUse">
<stop stop-color="#99CBDD"/>
<stop offset="0.82" stop-color="#E1E6E5"/>
</linearGradient>
<linearGradient id="paint24_linear_1_1498" x1="-113.092" y1="-15.7555" x2="302.037" y2="71.1756" gradientUnits="userSpaceOnUse">
<stop stop-color="#99CBDD"/>
<stop offset="0.82" stop-color="#E1E6E5"/>
</linearGradient>
<linearGradient id="paint25_linear_1_1498" x1="-15205.7" y1="24306.7" x2="-13322.8" y2="24306.7" gradientUnits="userSpaceOnUse">
<stop stop-color="#99CBDD"/>
<stop offset="0.82" stop-color="#E1E6E5"/>
</linearGradient>
<linearGradient id="paint26_linear_1_1498" x1="-15209.6" y1="24309.7" x2="-13326.4" y2="24309.7" gradientUnits="userSpaceOnUse">
<stop stop-color="#99CBDD"/>
<stop offset="0.82" stop-color="#E1E6E5"/>
</linearGradient>
<linearGradient id="paint27_linear_1_1498" x1="-14906.8" y1="24873.7" x2="-10409.3" y2="24873.7" gradientUnits="userSpaceOnUse">
<stop stop-color="#99CBDD"/>
<stop offset="0.82" stop-color="#E1E6E5"/>
</linearGradient>
<linearGradient id="paint28_linear_1_1498" x1="-14907" y1="24031.2" x2="-13658.3" y2="24031.2" gradientUnits="userSpaceOnUse">
<stop stop-color="#99CBDD"/>
<stop offset="0.82" stop-color="#E1E6E5"/>
</linearGradient>
<linearGradient id="paint29_linear_1_1498" x1="-7694.42" y1="10859.9" x2="-7669.07" y2="10859.9" gradientUnits="userSpaceOnUse">
<stop stop-color="#99CBDD"/>
<stop offset="0.82" stop-color="#E1E6E5"/>
</linearGradient>
<linearGradient id="paint30_linear_1_1498" x1="-13327.7" y1="17490.6" x2="-13255.1" y2="17490.6" gradientUnits="userSpaceOnUse">
<stop stop-color="#99CBDD"/>
<stop offset="0.82" stop-color="#E1E6E5"/>
</linearGradient>
<linearGradient id="paint31_linear_1_1498" x1="-13958" y1="19054.3" x2="-13877.4" y2="19054.3" gradientUnits="userSpaceOnUse">
<stop stop-color="#99CBDD"/>
<stop offset="0.82" stop-color="#E1E6E5"/>
</linearGradient>
<linearGradient id="paint32_linear_1_1498" x1="-14575.7" y1="20178.9" x2="-14487" y2="20178.9" gradientUnits="userSpaceOnUse">
<stop stop-color="#99CBDD"/>
<stop offset="0.82" stop-color="#E1E6E5"/>
</linearGradient>
<linearGradient id="paint33_linear_1_1498" x1="-15056.8" y1="21072.3" x2="-14962.3" y2="21072.3" gradientUnits="userSpaceOnUse">
<stop stop-color="#99CBDD"/>
<stop offset="0.82" stop-color="#E1E6E5"/>
</linearGradient>
<linearGradient id="paint34_linear_1_1498" x1="-15232.1" y1="21735.3" x2="-15133.7" y2="21735.3" gradientUnits="userSpaceOnUse">
<stop stop-color="#99CBDD"/>
<stop offset="0.82" stop-color="#E1E6E5"/>
</linearGradient>
<linearGradient id="paint35_linear_1_1498" x1="-15255.3" y1="22626" x2="-15153.8" y2="22626" gradientUnits="userSpaceOnUse">
<stop stop-color="#99CBDD"/>
<stop offset="0.82" stop-color="#E1E6E5"/>
</linearGradient>
<linearGradient id="paint36_linear_1_1498" x1="-15277.5" y1="22831" x2="-15173.1" y2="22831" gradientUnits="userSpaceOnUse">
<stop stop-color="#99CBDD"/>
<stop offset="0.82" stop-color="#E1E6E5"/>
</linearGradient>
<linearGradient id="paint37_linear_1_1498" x1="-15299.7" y1="22808.7" x2="-15193.3" y2="22808.7" gradientUnits="userSpaceOnUse">
<stop stop-color="#99CBDD"/>
<stop offset="0.82" stop-color="#E1E6E5"/>
</linearGradient>
<linearGradient id="paint38_linear_1_1498" x1="-15306.9" y1="22765.1" x2="-15199.5" y2="22765.1" gradientUnits="userSpaceOnUse">
<stop stop-color="#99CBDD"/>
<stop offset="0.82" stop-color="#E1E6E5"/>
</linearGradient>
<linearGradient id="paint39_linear_1_1498" x1="-15329.3" y1="22742.1" x2="-15220" y2="22742.1" gradientUnits="userSpaceOnUse">
<stop stop-color="#99CBDD"/>
<stop offset="0.82" stop-color="#E1E6E5"/>
</linearGradient>
<linearGradient id="paint40_linear_1_1498" x1="-15350.7" y1="22720.2" x2="-15241.4" y2="22720.2" gradientUnits="userSpaceOnUse">
<stop stop-color="#99CBDD"/>
<stop offset="0.82" stop-color="#E1E6E5"/>
</linearGradient>
<linearGradient id="paint41_linear_1_1498" x1="-15372.2" y1="22698.1" x2="-15260.9" y2="22698.1" gradientUnits="userSpaceOnUse">
<stop stop-color="#99CBDD"/>
<stop offset="0.82" stop-color="#E1E6E5"/>
</linearGradient>
<linearGradient id="paint42_linear_1_1498" x1="-25.8352" y1="34.1212" x2="81.6652" y2="63.218" gradientUnits="userSpaceOnUse">
<stop stop-color="#99CBDD"/>
<stop offset="0.82" stop-color="#E1E6E5"/>
</linearGradient>
<linearGradient id="paint43_linear_1_1498" x1="209.739" y1="176.016" x2="315.927" y2="205.237" gradientUnits="userSpaceOnUse">
<stop stop-color="#99CBDD"/>
<stop offset="0.82" stop-color="#E1E6E5"/>
</linearGradient>
<linearGradient id="paint44_linear_1_1498" x1="66.8038" y1="131.981" x2="171.587" y2="162.748" gradientUnits="userSpaceOnUse">
<stop stop-color="#99CBDD"/>
<stop offset="0.82" stop-color="#E1E6E5"/>
</linearGradient>
<linearGradient id="paint45_linear_1_1498" x1="-15457.6" y1="22617.3" x2="-15349.2" y2="22617.3" gradientUnits="userSpaceOnUse">
<stop stop-color="#99CBDD"/>
<stop offset="0.82" stop-color="#E1E6E5"/>
</linearGradient>
<linearGradient id="paint46_linear_1_1498" x1="-15477.4" y1="22589" x2="-15372.1" y2="22589" gradientUnits="userSpaceOnUse">
<stop stop-color="#99CBDD"/>
<stop offset="0.82" stop-color="#E1E6E5"/>
</linearGradient>
<linearGradient id="paint47_linear_1_1498" x1="-15496.1" y1="22562.7" x2="-15394.8" y2="22562.7" gradientUnits="userSpaceOnUse">
<stop stop-color="#99CBDD"/>
<stop offset="0.82" stop-color="#E1E6E5"/>
</linearGradient>
<linearGradient id="paint48_linear_1_1498" x1="-15531" y1="22512.6" x2="-15433.6" y2="22512.6" gradientUnits="userSpaceOnUse">
<stop stop-color="#99CBDD"/>
<stop offset="0.82" stop-color="#E1E6E5"/>
</linearGradient>
<linearGradient id="paint49_linear_1_1498" x1="-14922" y1="21361.8" x2="-14835.2" y2="21361.8" gradientUnits="userSpaceOnUse">
<stop stop-color="#99CBDD"/>
<stop offset="0.82" stop-color="#E1E6E5"/>
</linearGradient>
<linearGradient id="paint50_linear_1_1498" x1="-9620.42" y1="13983.2" x2="-9582.85" y2="13983.2" gradientUnits="userSpaceOnUse">
<stop stop-color="#99CBDD"/>
<stop offset="0.82" stop-color="#E1E6E5"/>
</linearGradient>
<linearGradient id="paint51_linear_1_1498" x1="-7737.14" y1="11355.7" x2="-7712.3" y2="11355.7" gradientUnits="userSpaceOnUse">
<stop stop-color="#99CBDD"/>
<stop offset="0.82" stop-color="#E1E6E5"/>
</linearGradient>
<linearGradient id="paint52_linear_1_1498" x1="-13092.9" y1="18472.4" x2="-13025.4" y2="18472.4" gradientUnits="userSpaceOnUse">
<stop stop-color="#99CBDD"/>
<stop offset="0.82" stop-color="#E1E6E5"/>
</linearGradient>
<linearGradient id="paint53_linear_1_1498" x1="-13714.1" y1="19812.5" x2="-13638.1" y2="19812.5" gradientUnits="userSpaceOnUse">
<stop stop-color="#99CBDD"/>
<stop offset="0.82" stop-color="#E1E6E5"/>
</linearGradient>
<linearGradient id="paint54_linear_1_1498" x1="-14659.7" y1="20942.4" x2="-14572.9" y2="20942.4" gradientUnits="userSpaceOnUse">
<stop stop-color="#99CBDD"/>
<stop offset="0.82" stop-color="#E1E6E5"/>
</linearGradient>
<linearGradient id="paint55_linear_1_1498" x1="-14989.8" y1="21840.4" x2="-14898.2" y2="21840.4" gradientUnits="userSpaceOnUse">
<stop stop-color="#99CBDD"/>
<stop offset="0.82" stop-color="#E1E6E5"/>
</linearGradient>
<linearGradient id="paint56_linear_1_1498" x1="-15322.6" y1="22276.9" x2="-15226.2" y2="22276.9" gradientUnits="userSpaceOnUse">
<stop stop-color="#99CBDD"/>
<stop offset="0.82" stop-color="#E1E6E5"/>
</linearGradient>
<linearGradient id="paint57_linear_1_1498" x1="-15347" y1="22943.6" x2="-15246.6" y2="22943.6" gradientUnits="userSpaceOnUse">
<stop stop-color="#99CBDD"/>
<stop offset="0.82" stop-color="#E1E6E5"/>
</linearGradient>
<linearGradient id="paint58_linear_1_1498" x1="-15357.6" y1="22922.4" x2="-15254.2" y2="22922.4" gradientUnits="userSpaceOnUse">
<stop stop-color="#99CBDD"/>
<stop offset="0.82" stop-color="#E1E6E5"/>
</linearGradient>
<linearGradient id="paint59_linear_1_1498" x1="-15380" y1="22899.4" x2="-15274.7" y2="22899.4" gradientUnits="userSpaceOnUse">
<stop stop-color="#99CBDD"/>
<stop offset="0.82" stop-color="#E1E6E5"/>
</linearGradient>
<linearGradient id="paint60_linear_1_1498" x1="-15403.5" y1="22876.8" x2="-15296.2" y2="22876.8" gradientUnits="userSpaceOnUse">
<stop stop-color="#99CBDD"/>
<stop offset="0.82" stop-color="#E1E6E5"/>
</linearGradient>
<linearGradient id="paint61_linear_1_1498" x1="-15425" y1="22832.6" x2="-15316.7" y2="22832.6" gradientUnits="userSpaceOnUse">
<stop stop-color="#99CBDD"/>
<stop offset="0.82" stop-color="#E1E6E5"/>
</linearGradient>
<linearGradient id="paint62_linear_1_1498" x1="-15447.5" y1="22809.7" x2="-15338.2" y2="22809.7" gradientUnits="userSpaceOnUse">
<stop stop-color="#99CBDD"/>
<stop offset="0.82" stop-color="#E1E6E5"/>
</linearGradient>
<linearGradient id="paint63_linear_1_1498" x1="-15469.9" y1="22787.6" x2="-15358.6" y2="22787.6" gradientUnits="userSpaceOnUse">
<stop stop-color="#99CBDD"/>
<stop offset="0.82" stop-color="#E1E6E5"/>
</linearGradient>
<linearGradient id="paint64_linear_1_1498" x1="37.8496" y1="70.6336" x2="144.926" y2="100.853" gradientUnits="userSpaceOnUse">
<stop stop-color="#99CBDD"/>
<stop offset="0.82" stop-color="#E1E6E5"/>
</linearGradient>
<linearGradient id="paint65_linear_1_1498" x1="40.3034" y1="71.3514" x2="146.416" y2="101.325" gradientUnits="userSpaceOnUse">
<stop stop-color="#99CBDD"/>
<stop offset="0.82" stop-color="#E1E6E5"/>
</linearGradient>
<linearGradient id="paint66_linear_1_1498" x1="41.1888" y1="69.9238" x2="146.644" y2="101.218" gradientUnits="userSpaceOnUse">
<stop stop-color="#99CBDD"/>
<stop offset="0.82" stop-color="#E1E6E5"/>
</linearGradient>
<linearGradient id="paint67_linear_1_1498" x1="-15564.5" y1="22680.5" x2="-15455.1" y2="22680.5" gradientUnits="userSpaceOnUse">
<stop stop-color="#99CBDD"/>
<stop offset="0.82" stop-color="#E1E6E5"/>
</linearGradient>
<linearGradient id="paint68_linear_1_1498" x1="-15582.6" y1="22649.7" x2="-15475.3" y2="22649.7" gradientUnits="userSpaceOnUse">
<stop stop-color="#99CBDD"/>
<stop offset="0.82" stop-color="#E1E6E5"/>
</linearGradient>
<linearGradient id="paint69_linear_1_1498" x1="-15599.5" y1="22641" x2="-15495.1" y2="22641" gradientUnits="userSpaceOnUse">
<stop stop-color="#99CBDD"/>
<stop offset="0.82" stop-color="#E1E6E5"/>
</linearGradient>
<linearGradient id="paint70_linear_1_1498" x1="-15616.3" y1="21481.3" x2="-15514.9" y2="21481.3" gradientUnits="userSpaceOnUse">
<stop stop-color="#99CBDD"/>
<stop offset="0.82" stop-color="#E1E6E5"/>
</linearGradient>
<linearGradient id="paint71_linear_1_1498" x1="-15316.5" y1="19873" x2="-15222" y2="19873" gradientUnits="userSpaceOnUse">
<stop stop-color="#99CBDD"/>
<stop offset="0.82" stop-color="#E1E6E5"/>
</linearGradient>
<linearGradient id="paint72_linear_1_1498" x1="-9051.72" y1="13777.2" x2="-9015.94" y2="13777.2" gradientUnits="userSpaceOnUse">
<stop stop-color="#99CBDD"/>
<stop offset="0.82" stop-color="#E1E6E5"/>
</linearGradient>
<linearGradient id="paint73_linear_1_1498" x1="-15739.3" y1="22519.4" x2="-15290.9" y2="22519.4" gradientUnits="userSpaceOnUse">
<stop stop-color="#99CBDD"/>
<stop offset="0.82" stop-color="#E1E6E5"/>
</linearGradient>
<linearGradient id="paint74_linear_1_1498" x1="-11145.3" y1="22417.6" x2="-11114.2" y2="22417.6" gradientUnits="userSpaceOnUse">
<stop stop-color="#99CBDD"/>
<stop offset="0.82" stop-color="#E1E6E5"/>
</linearGradient>
<linearGradient id="paint75_linear_1_1498" x1="-15738" y1="22409.6" x2="-15630.6" y2="22409.6" gradientUnits="userSpaceOnUse">
<stop stop-color="#99CBDD"/>
<stop offset="0.82" stop-color="#E1E6E5"/>
</linearGradient>
<linearGradient id="paint76_linear_1_1498" x1="-15721.5" y1="17015.3" x2="-15551.5" y2="17015.3" gradientUnits="userSpaceOnUse">
<stop stop-color="#99CBDD"/>
<stop offset="0.82" stop-color="#E1E6E5"/>
</linearGradient>
<linearGradient id="paint77_linear_1_1498" x1="-15699.7" y1="1187.6" x2="-15600.3" y2="1187.6" gradientUnits="userSpaceOnUse">
<stop stop-color="#99CBDD"/>
<stop offset="0.82" stop-color="#E1E6E5"/>
</linearGradient>
<linearGradient id="paint78_linear_1_1498" x1="-401.178" y1="1944.69" x2="9217.66" y2="-694.202" gradientUnits="userSpaceOnUse">
<stop stop-color="#F0F3F1"/>
<stop offset="0.28" stop-color="#E2F7F8"/>
<stop offset="0.51" stop-color="#DCF9FA"/>
<stop offset="0.91" stop-color="#EFF2F2"/>
<stop offset="0.95" stop-color="#F1F1F1"/>
<stop offset="1" stop-color="#99CBDD"/>
</linearGradient>
<linearGradient id="paint79_linear_1_1498" x1="437.984" y1="163.284" x2="7333.01" y2="-3253.69" gradientUnits="userSpaceOnUse">
<stop offset="0.34" stop-color="#FF7E59"/>
<stop offset="0.76" stop-color="#FFA862"/>
<stop offset="0.98" stop-color="#FFBA66"/>
</linearGradient>
<linearGradient id="paint80_linear_1_1498" x1="2119.76" y1="-243.6" x2="8330.51" y2="-4116.7" gradientUnits="userSpaceOnUse">
<stop offset="0.34" stop-color="#FF7E59"/>
<stop offset="0.76" stop-color="#FFA862"/>
<stop offset="0.98" stop-color="#FFBA66"/>
</linearGradient>
<clipPath id="clip0_1_1498">
<rect width="175" height="131" fill="white" transform="translate(0 0.919922)"/>
</clipPath>
<clipPath id="clip1_1_1498">
<rect width="175" height="131" fill="white" transform="translate(0 0.919922)"/>
</clipPath>
</defs>
</svg>
