<svg width="175" height="131" viewBox="0 0 175 131" fill="none" xmlns="http://www.w3.org/2000/svg">
<g clip-path="url(#clip0_1_1668)">
<g clip-path="url(#clip1_1_1668)">
<path d="M45.022 29.521C47.6113 18.3943 40.6833 7.27372 29.548 4.68245C18.4127 2.09118 7.2867 9.01053 4.69743 20.1372C2.10817 31.264 9.03611 42.3846 20.1714 44.9758C31.3068 47.5671 42.4327 40.6478 45.022 29.521Z" fill="url(#paint0_linear_1_1668)"/>
<path d="M32.347 42.834C28.9156 44.2997 25.1266 44.7146 21.4593 44.0263C17.792 43.3379 14.4113 41.5773 11.745 38.967C9.08007 36.3583 7.25022 33.0168 6.48767 29.3664C5.72511 25.716 6.06423 21.9213 7.46199 18.464C8.3851 16.1663 9.75235 14.0732 11.4854 12.3046C13.2185 10.536 15.2835 9.12653 17.562 8.157C19.8412 7.18674 22.2893 6.67524 24.7664 6.65173C27.2434 6.62822 29.7008 7.09317 31.998 8.02C39.073 10.866 43.737 17.69 43.813 25.31C43.889 32.93 39.364 39.847 32.347 42.834ZM18.003 9.194C9.00399 13.041 4.82599 23.445 8.66899 32.439C12.512 41.433 22.922 45.615 31.926 41.783C40.93 37.951 45.124 27.552 41.295 18.552C39.448 14.225 35.957 10.808 31.588 9.053C27.219 7.298 22.332 7.349 18.002 9.195L18.003 9.194Z" fill="url(#paint1_linear_1_1668)"/>
<path opacity="0.63" d="M28.417 28.5399C28.3427 28.2639 28.2175 28.0041 28.048 27.7739C27.892 27.5563 27.6854 27.3799 27.446 27.2599C27.1556 27.1224 26.8492 27.0213 26.534 26.9589C26.1166 26.8869 25.6951 26.8415 25.272 26.8229C24.4789 26.7956 23.6882 26.7211 22.904 26.5999C22.235 26.5095 21.5818 26.3268 20.963 26.0569C20.4213 25.8082 19.9358 25.452 19.536 25.0099C18.7299 24.0268 18.3431 22.7659 18.459 21.4999C18.5257 20.9298 18.7143 20.3807 19.012 19.8899C19.322 19.3759 19.723 18.9219 20.196 18.5519C20.7337 18.1378 21.333 17.8105 21.972 17.5819L21.293 15.2549L23.166 14.7019L23.855 17.0679C24.4976 16.9607 25.1534 16.9607 25.796 17.0679C26.3997 17.1747 26.9787 17.3917 27.504 17.7079C28.0227 18.0408 28.4739 18.4687 28.834 18.9689C29.2544 19.5146 29.5793 20.1276 29.795 20.7819L26.408 21.7519C26.2626 21.0325 25.8499 20.395 25.253 19.9679C24.9984 19.8243 24.7162 19.7362 24.4251 19.7095C24.134 19.6828 23.8405 19.718 23.564 19.8129C23.2503 19.8982 22.9545 20.0395 22.691 20.2299C22.4847 20.3874 22.3128 20.5854 22.186 20.8119C22.0708 21.0305 22.0078 21.2729 22.002 21.5199C21.9907 21.7851 22.0235 22.0504 22.099 22.3049C22.169 22.5539 22.281 22.7899 22.429 23.0029C22.584 23.2063 22.783 23.3721 23.011 23.4879C23.3024 23.6318 23.6129 23.7331 23.933 23.7889C24.3696 23.8683 24.8103 23.9234 25.253 23.9539L27.582 24.2159C28.2364 24.3128 28.8737 24.5021 29.475 24.7779C30.045 25.0371 30.548 25.4237 30.945 25.9079C31.342 26.3922 31.6226 26.9611 31.765 27.5709C31.9491 28.1564 32.0087 28.774 31.94 29.3839C31.8675 29.9479 31.6755 30.4899 31.377 30.9739C31.0601 31.4835 30.6524 31.9306 30.174 32.2929C29.6244 32.6999 29.0197 33.0265 28.378 33.2629L29.019 35.4259L27.156 35.9689L26.525 33.8159C25.8703 33.9474 25.2021 33.9995 24.535 33.9709C23.8637 33.9453 23.204 33.7872 22.594 33.5059C21.9835 33.2195 21.4434 32.8023 21.012 32.2839C20.5049 31.6613 20.1376 30.9369 19.935 30.1599L23.322 29.1899C23.4364 29.6355 23.6376 30.0541 23.914 30.4219C24.1314 30.7053 24.4146 30.9315 24.739 31.0809C25.0447 31.2153 25.3761 31.2815 25.71 31.2749C26.039 31.2655 26.3654 31.2134 26.681 31.1199C27.0274 31.0364 27.3563 30.8918 27.652 30.6929C27.8873 30.5409 28.086 30.3387 28.234 30.1009C28.3731 29.8846 28.4594 29.6387 28.486 29.3829C28.524 29.0999 28.5 28.8129 28.418 28.5389L28.417 28.5399Z" fill="white"/>
<path d="M142.708 22.7219L154.355 84.7849C154.599 86.1056 154.311 87.4693 153.552 88.5778C152.794 89.6862 151.627 90.4492 150.308 90.6999L41.364 111.142C40.0432 111.386 38.6792 111.098 37.5701 110.341C36.4609 109.583 35.6966 108.417 35.444 107.098L23.797 45.0349C23.5526 43.7143 23.8412 42.3506 24.5996 41.2421C25.358 40.1336 26.5245 39.3706 27.844 39.1199L136.788 18.6679C138.11 18.4236 139.475 18.7129 140.585 19.4724C141.694 20.2319 142.458 21.401 142.708 22.7219Z" fill="url(#paint2_linear_1_1668)"/>
<g opacity="0.5">
<path d="M43.077 91.8201L72.13 86.3661C72.721 86.2558 73.3315 86.3844 73.8278 86.7237C74.324 87.0631 74.6654 87.5854 74.777 88.1761L74.832 88.4671C74.9432 89.0578 74.8151 89.6686 74.4761 90.165C74.137 90.6613 73.6147 91.0027 73.024 91.1141L43.97 96.5671C43.379 96.6774 42.7685 96.5488 42.2722 96.2094C41.776 95.8701 41.4346 95.3478 41.323 94.7571L41.268 94.4661C41.1568 93.8753 41.2849 93.2646 41.6239 92.7682C41.963 92.2718 42.4853 91.9304 43.076 91.8191L43.077 91.8201ZM81.34 84.6421L110.393 79.1881C110.984 79.0778 111.595 79.2064 112.091 79.5457C112.587 79.8851 112.928 80.4074 113.04 80.9981L113.095 81.2891C113.206 81.8798 113.078 82.4906 112.739 82.9869C112.4 83.4833 111.878 83.8247 111.287 83.9361L82.233 89.3891C81.642 89.4994 81.0315 89.3707 80.5352 89.0314C80.039 88.6921 79.6976 88.1698 79.586 87.5791L79.531 87.2881C79.4198 86.6973 79.5478 86.0866 79.8869 85.5902C80.2259 85.0938 80.7483 84.7524 81.339 84.6411L81.34 84.6421ZM41.684 66.9411C41.8854 67.8348 41.8621 68.7646 41.616 69.6471C41.4771 70.072 41.2263 70.4516 40.89 70.7461C40.5538 71.0407 40.1445 71.2393 39.705 71.3211C39.2655 71.4028 38.8122 71.3652 38.3922 71.2122C37.9722 71.0592 37.6009 70.7963 37.317 70.4511C36.8069 69.6997 36.4574 68.8511 36.2903 67.9584C36.1232 67.0657 36.1422 66.1481 36.346 65.2631C36.4847 64.8376 36.7346 64.4569 37.0699 64.1604C37.4052 63.864 37.8137 63.6626 38.253 63.5771C38.6923 63.4915 39.1465 63.5245 39.5688 63.6727C39.9911 63.8209 40.3664 64.0788 40.656 64.4201C41.2012 65.163 41.5546 66.0289 41.685 66.9411H41.684ZM40.354 67.1831C40.2607 66.6145 40.0771 66.0646 39.81 65.5541C39.451 64.9241 39.004 64.6521 38.48 64.7491C37.956 64.8461 37.626 65.2631 37.509 65.9711C37.4451 66.5474 37.4745 67.1301 37.596 67.6971C37.9393 69.5004 38.5863 70.3151 39.537 70.1411C40.071 70.0441 40.381 69.6371 40.508 68.9091C40.5496 68.3292 40.4982 67.7463 40.354 67.1831ZM47.643 65.8171C47.8519 66.7096 47.832 67.6404 47.585 68.5231C47.4469 68.9502 47.1961 69.3321 46.859 69.6285C46.522 69.925 46.1112 70.1249 45.67 70.2074C45.2287 70.2898 44.7734 70.2516 44.3521 70.0969C43.9307 69.9421 43.559 69.6765 43.276 69.3281C42.762 68.5785 42.4102 67.7299 42.243 66.8366C42.0758 65.9432 42.0969 65.0248 42.305 64.1401C42.4446 63.7132 42.6967 63.3317 43.0348 63.0359C43.3728 62.7401 43.7843 62.5409 44.226 62.4591C45.126 62.2921 46.045 62.6271 46.624 63.3361C47.165 64.0661 47.5152 64.9195 47.643 65.8191V65.8171ZM46.313 66.0591C46.2225 65.4867 46.0387 64.933 45.769 64.4201C45.41 63.7901 44.973 63.5281 44.449 63.6251C43.925 63.7221 43.585 64.1291 43.478 64.8471C43.4056 65.4227 43.432 66.0064 43.556 66.5731C43.8993 68.3771 44.5463 69.1917 45.497 69.0171C46.031 68.9201 46.341 68.5031 46.468 67.7761C46.5085 67.1995 46.4562 66.6191 46.313 66.0591ZM53.65 64.7011C53.8514 65.5948 53.8281 66.5246 53.582 67.4071C53.4431 67.832 53.1923 68.2116 52.856 68.5061C52.5198 68.8007 52.1105 68.9993 51.671 69.0811C51.2315 69.1628 50.7782 69.1252 50.3582 68.9722C49.9382 68.8192 49.5669 68.5563 49.283 68.2111C48.734 67.4793 48.374 66.6233 48.235 65.7191C48.0344 64.8291 48.0543 63.9036 48.293 63.0231C48.4339 62.5961 48.6867 62.2147 49.025 61.9186C49.3633 61.6224 49.7748 61.4223 50.2166 61.3391C50.6585 61.2559 51.1146 61.2926 51.5374 61.4454C51.9603 61.5983 52.3344 61.8616 52.621 62.2081C53.1618 62.9426 53.5151 63.799 53.65 64.7011ZM52.311 64.9431C52.1995 64.3712 51.9962 63.821 51.709 63.3141C51.35 62.6841 50.903 62.4121 50.379 62.5091C49.855 62.6061 49.515 63.0231 49.408 63.7311C49.3412 64.3069 49.3675 64.8897 49.486 65.4571C49.826 67.2611 50.457 68.0851 51.427 67.9101C51.961 67.8031 52.281 67.3961 52.398 66.6691C52.4473 66.0907 52.4048 65.5082 52.272 64.9431H52.311ZM59.571 63.5761C59.769 64.4717 59.7356 65.403 59.474 66.2821C59.3385 66.7098 59.0898 67.0928 58.7542 67.3906C58.4186 67.6883 58.0086 67.8897 57.5679 67.9732C57.1271 68.0568 56.6719 68.0195 56.2506 67.8652C55.8293 67.711 55.4576 67.4455 55.175 67.0971C54.6258 66.3627 54.269 65.5026 54.137 64.5951C53.928 63.7093 53.948 62.785 54.195 61.9091C54.3346 61.4835 54.5858 61.1032 54.9225 60.8077C55.2591 60.5123 55.6688 60.3125 56.1089 60.2293C56.5489 60.1461 57.0033 60.1824 57.4246 60.3345C57.8458 60.4866 58.2186 60.7489 58.504 61.0941C59.061 61.82 59.4281 62.6735 59.572 63.5771L59.571 63.5761ZM58.241 63.8281C58.1477 63.2595 57.9641 62.7096 57.697 62.1991C57.338 61.5591 56.901 61.2971 56.367 61.3941C55.833 61.4911 55.513 61.8981 55.396 62.6161C55.3236 63.1917 55.35 63.7754 55.474 64.3421C55.81 66.1454 56.457 66.9601 57.415 66.7861C57.949 66.6891 58.259 66.2721 58.386 65.5541C58.4305 64.9746 58.3822 64.3918 58.241 63.8281ZM68.607 61.8891C68.8113 62.782 68.7914 63.7117 68.549 64.5951C68.4109 65.0222 68.1601 65.4041 67.823 65.7005C67.486 65.997 67.0752 66.1969 66.634 66.2794C66.1927 66.3618 65.7374 66.3236 65.3161 66.1689C64.8947 66.0141 64.523 65.7485 64.24 65.4001C63.6908 64.6657 63.334 63.8056 63.202 62.8981C62.993 62.0123 63.0129 61.088 63.26 60.2121C63.3985 59.7844 63.6497 59.402 63.9873 59.1051C64.3248 58.8082 64.7362 58.6079 65.178 58.5251C66.078 58.3561 66.999 58.6901 67.579 59.3981C68.1234 60.1305 68.4771 60.9869 68.608 61.8901L68.607 61.8891ZM67.239 62.1311C67.154 61.5781 66.9837 61.0417 66.734 60.5411C66.375 59.9111 65.938 59.6391 65.404 59.7361C64.87 59.8331 64.55 60.2501 64.433 60.9581C64.3606 61.5337 64.387 62.1174 64.511 62.6841C64.847 64.4874 65.478 65.3021 66.404 65.1281C66.938 65.0311 67.248 64.6241 67.375 63.8961C67.4271 63.3043 67.3811 62.7079 67.239 62.1311ZM74.575 60.7641C74.7731 61.6514 74.7497 62.5739 74.507 63.4501C74.3709 63.8775 74.1215 64.2601 73.7854 64.5572C73.4493 64.8542 73.039 65.0547 72.5981 65.1373C72.1571 65.2198 71.7021 65.1814 71.2813 65.0261C70.8604 64.8707 70.4895 64.6043 70.208 64.2551C69.6628 63.5302 69.3089 62.6798 69.179 61.7821C68.9594 60.8968 68.9594 59.9713 69.179 59.0861C69.3186 58.6591 69.5707 58.2777 69.9088 57.9819C70.2468 57.6861 70.6583 57.4869 71.1 57.4051C72 57.2381 72.919 57.5731 73.498 58.2821C74.0582 59.0071 74.4284 59.8596 74.575 60.7641ZM73.236 61.0161C73.1437 60.4455 72.9635 59.8926 72.702 59.3771C72.343 58.7471 71.896 58.4851 71.372 58.5821C70.848 58.6791 70.508 59.0861 70.401 59.8041C70.3392 60.3741 70.3686 60.9503 70.488 61.5111C70.8307 63.3151 71.4777 64.1297 72.429 63.9551C72.963 63.8581 73.283 63.4411 73.4 62.7141C73.4304 62.1433 73.3748 61.5713 73.235 61.0171L73.236 61.0161ZM80.534 59.6491C80.7354 60.5428 80.7121 61.4726 80.466 62.3551C80.3271 62.78 80.0763 63.1596 79.74 63.4541C79.4038 63.7487 78.9945 63.9473 78.555 64.0291C78.1155 64.1108 77.6622 64.0732 77.2422 63.9202C76.8222 63.7672 76.4509 63.5043 76.167 63.1591C75.6171 62.4288 75.2601 61.5718 75.129 60.6671C74.9214 59.7783 74.9382 58.8518 75.178 57.9711C75.3189 57.5441 75.5717 57.1627 75.91 56.8666C76.2483 56.5704 76.6598 56.3703 77.1016 56.2871C77.5435 56.2039 77.9996 56.2406 78.4224 56.3934C78.8453 56.5463 79.2194 56.8096 79.506 57.1561C80.0504 57.8885 80.4041 58.7449 80.535 59.6481L80.534 59.6491ZM79.204 59.8911C79.1075 59.3233 78.924 58.7739 78.66 58.2621C78.301 57.6321 77.854 57.3601 77.33 57.4571C76.806 57.5541 76.476 57.9711 76.359 58.6791C76.2951 59.2554 76.3245 59.8381 76.446 60.4051C76.786 62.2091 77.417 63.0331 78.387 62.8581C78.921 62.7511 79.231 62.3441 79.358 61.6171C79.3996 61.0372 79.3482 60.4543 79.204 59.8911ZM86.494 58.5241C86.7029 59.4166 86.683 60.3474 86.436 61.2301C86.2991 61.6579 86.0492 62.0408 85.7127 62.3384C85.3761 62.6359 84.9655 62.837 84.5242 62.9205C84.0828 63.004 83.6271 62.9667 83.2051 62.8126C82.7832 62.6585 82.4107 62.3933 82.127 62.0451C81.5822 61.319 81.2256 60.4694 81.089 59.5721C80.88 58.6863 80.9 57.762 81.147 56.8861C81.2855 56.4584 81.5367 56.076 81.8743 55.7791C82.2118 55.4822 82.6232 55.2819 83.065 55.1991C83.965 55.0301 84.886 55.3641 85.466 56.0721C86.0082 56.7911 86.3619 57.6344 86.495 58.5251L86.494 58.5241ZM85.164 58.7761C85.0742 58.2067 84.8904 57.6562 84.62 57.1471C84.261 56.5071 83.824 56.2451 83.3 56.3421C82.776 56.4391 82.436 56.8461 82.329 57.5641C82.2566 58.1397 82.283 58.7234 82.407 59.2901C82.743 61.0941 83.39 61.9087 84.348 61.7341C84.882 61.6371 85.192 61.2201 85.319 60.5021C85.3606 59.9222 85.3082 59.3393 85.164 58.7761ZM95.529 56.8371C95.7447 57.7386 95.7248 58.6805 95.471 59.5721C95.3341 59.9999 95.0842 60.3828 94.7477 60.6804C94.4111 60.9779 94.0005 61.179 93.5591 61.2625C93.1178 61.346 92.6621 61.3087 92.2401 61.1546C91.8182 61.0005 91.4457 60.7354 91.162 60.3871C90.6165 59.6506 90.26 58.7915 90.124 57.8851C89.921 56.9987 89.9409 56.0759 90.182 55.1991C90.3205 54.7714 90.5717 54.389 90.9093 54.0921C91.2468 53.7952 91.6582 53.5949 92.1 53.5121C93 53.3431 93.921 53.6771 94.501 54.3851C95.0432 55.1041 95.3969 55.9474 95.53 56.8381L95.529 56.8371ZM94.199 57.0791C94.1089 56.5111 93.9286 55.9612 93.665 55.4501C93.296 54.8201 92.859 54.5481 92.335 54.6451C91.811 54.7421 91.471 55.1591 91.364 55.8671C91.3061 56.4588 91.3521 57.0562 91.5 57.6321C91.836 59.4361 92.483 60.2507 93.441 60.0761C93.975 59.9791 94.295 59.5721 94.412 58.8441C94.4387 58.248 94.3674 57.6515 94.199 57.0791ZM101.498 55.6931C101.699 56.5868 101.676 57.5166 101.43 58.3991C101.294 58.8265 101.045 59.2091 100.708 59.5062C100.372 59.8032 99.962 60.0037 99.5211 60.0863C99.0801 60.1688 98.6251 60.1304 98.2043 59.9751C97.7834 59.8197 97.4125 59.5533 97.131 59.2041C96.5798 58.4735 96.2196 57.617 96.083 56.7121C95.8824 55.8221 95.9023 54.8966 96.141 54.0161C96.2826 53.5894 96.5359 53.2085 96.8747 52.913C97.2136 52.6175 97.6254 52.4183 98.0674 52.3361C98.5094 52.2539 98.9653 52.2917 99.3877 52.4456C99.8101 52.5995 100.183 52.8638 100.469 53.2111C101.008 53.9429 101.362 54.7942 101.498 55.6931ZM100.168 55.9451C100.072 55.3739 99.889 54.821 99.624 54.3061C99.265 53.6761 98.818 53.4141 98.294 53.5111C97.77 53.6081 97.44 54.0151 97.323 54.7331C97.2591 55.3094 97.2885 55.8921 97.41 56.4591C97.7527 58.2631 98.3997 59.0777 99.351 58.9031C99.875 58.8061 100.195 58.3891 100.322 57.6621C100.36 57.0918 100.308 56.519 100.167 55.9651L100.168 55.9451ZM107.457 54.5971C107.666 55.4896 107.646 56.4204 107.399 57.3031C107.261 57.7302 107.01 58.1121 106.673 58.4085C106.336 58.705 105.925 58.9049 105.484 58.9874C105.043 59.0698 104.587 59.0316 104.166 58.8769C103.745 58.7221 103.373 58.4565 103.09 58.1081C102.54 57.3778 102.183 56.5208 102.052 55.6161C101.843 54.727 101.863 53.7994 102.11 52.9201C102.248 52.4924 102.5 52.11 102.837 51.8131C103.175 51.5162 103.586 51.3159 104.028 51.2331C104.928 51.0641 105.849 51.3981 106.429 52.1061C106.973 52.8385 107.327 53.6949 107.458 54.5981L107.457 54.5971ZM106.127 54.8391C106.035 54.2701 105.852 53.7199 105.583 53.2101C105.224 52.5801 104.787 52.3081 104.253 52.4051C103.719 52.5021 103.399 52.9191 103.282 53.6271C103.21 54.2027 103.236 54.7864 103.36 55.3531C103.7 57.1571 104.331 57.9811 105.301 57.8061C105.835 57.6991 106.145 57.2921 106.272 56.5651C106.317 55.9856 106.268 55.4028 106.127 54.8391ZM113.426 53.4721C113.628 54.3658 113.604 55.2956 113.358 56.1781C113.223 56.6058 112.974 56.9888 112.638 57.2866C112.303 57.5843 111.893 57.7857 111.452 57.8692C111.011 57.9528 110.556 57.9155 110.135 57.7612C109.713 57.607 109.342 57.3415 109.059 56.9931C108.543 56.2443 108.19 55.3957 108.023 54.5021C107.856 53.6084 107.878 52.6897 108.088 51.8051C108.229 51.3781 108.482 50.9967 108.82 50.7006C109.158 50.4044 109.57 50.2043 110.012 50.1211C110.453 50.0379 110.91 50.0746 111.332 50.2274C111.755 50.3803 112.129 50.6436 112.416 50.9901C112.948 51.7239 113.295 52.5759 113.425 53.4731L113.426 53.4721ZM112.087 53.7241C111.997 53.1561 111.817 52.6062 111.553 52.0951C111.194 51.4551 110.747 51.1931 110.223 51.2901C109.699 51.3871 109.359 51.7941 109.252 52.5121C109.185 53.0879 109.212 53.6707 109.33 54.2381C109.673 56.0421 110.32 56.8567 111.271 56.6821C111.805 56.5851 112.125 56.1681 112.242 55.4501C112.279 54.8798 112.227 54.3073 112.087 53.7531V53.7241ZM122.462 51.8141C122.664 52.7041 122.64 53.6311 122.394 54.5101C122.259 54.9378 122.01 55.3208 121.674 55.6186C121.339 55.9163 120.929 56.1177 120.488 56.2012C120.047 56.2848 119.592 56.2475 119.171 56.0932C118.749 55.939 118.378 55.6735 118.095 55.3251C117.579 54.5763 117.226 53.7277 117.059 52.8341C116.892 51.9404 116.914 51.0217 117.124 50.1371C117.265 49.7101 117.518 49.3287 117.856 49.0326C118.194 48.7364 118.606 48.5363 119.048 48.4531C119.489 48.3699 119.946 48.4066 120.368 48.5594C120.791 48.7123 121.165 48.9756 121.452 49.3221C121.986 50.0585 122.333 50.9138 122.462 51.8141ZM121.123 52.0561C121.036 51.4873 120.856 50.9368 120.589 50.4271C120.23 49.7971 119.783 49.5251 119.259 49.6221C118.735 49.7191 118.395 50.1361 118.288 50.8441C118.226 51.42 118.252 52.0021 118.366 52.5701C118.709 54.3741 119.356 55.1887 120.307 55.0141C120.841 54.9171 121.161 54.5101 121.278 53.7821C121.327 53.1925 121.274 52.599 121.123 52.0271V52.0561ZM128.382 50.6601C128.61 51.5477 128.61 52.4785 128.382 53.3661C128.261 53.8074 128.012 54.203 127.667 54.5031C127.321 54.8033 126.895 54.9946 126.441 55.0531C125.999 55.1516 125.538 55.1208 125.113 54.9644C124.688 54.808 124.317 54.5326 124.044 54.1711C123.53 53.4215 123.178 52.5729 123.011 51.6796C122.844 50.7862 122.865 49.8678 123.073 48.9831C123.194 48.5428 123.444 48.1485 123.789 47.8498C124.135 47.5512 124.561 47.3616 125.014 47.3051C125.457 47.201 125.92 47.2281 126.347 47.3832C126.775 47.5382 127.148 47.8144 127.421 48.1781C127.94 48.9146 128.27 49.7662 128.382 50.6601ZM127.052 50.9121C126.956 50.3409 126.773 49.788 126.508 49.2731C126.149 48.6431 125.712 48.3811 125.178 48.4781C124.644 48.5751 124.324 48.9821 124.207 49.7001C124.135 50.2757 124.161 50.8594 124.285 51.4261C124.621 53.2301 125.268 54.0447 126.226 53.8701C126.76 53.7731 127.07 53.3561 127.197 52.6291C127.253 52.055 127.217 51.4757 127.09 50.9131H127.051L127.052 50.9121ZM134.39 49.5441C134.591 50.4378 134.568 51.3676 134.322 52.2501C134.201 52.6903 133.951 53.0847 133.606 53.3833C133.26 53.682 132.834 53.8716 132.381 53.9281C131.94 54.0301 131.479 54.0019 131.053 53.8469C130.628 53.692 130.256 53.4169 129.984 53.0551C129.439 52.3223 129.082 51.4664 128.946 50.5631C128.745 49.6731 128.765 48.7476 129.004 47.8671C129.142 47.4394 129.394 47.057 129.731 46.7601C130.069 46.4632 130.48 46.2629 130.922 46.1801C131.822 46.0111 132.743 46.3451 133.323 47.0531C133.881 47.7816 134.249 48.6383 134.391 49.5451L134.39 49.5441ZM133.051 49.7861C132.958 49.2189 132.778 48.6695 132.517 48.1571C132.158 47.5271 131.711 47.2551 131.187 47.3521C130.663 47.4491 130.323 47.8661 130.216 48.5741C130.149 49.1499 130.176 49.7327 130.294 50.3001C130.634 52.1041 131.265 52.9281 132.235 52.7531C132.769 52.6461 133.089 52.2391 133.206 51.5121C133.241 50.9322 133.189 50.3504 133.051 49.7861ZM140.349 48.4201C140.551 49.3138 140.527 50.2436 140.281 51.1261C140.146 51.5538 139.897 51.9368 139.561 52.2346C139.226 52.5323 138.816 52.7337 138.375 52.8172C137.934 52.9008 137.479 52.8635 137.058 52.7092C136.636 52.555 136.265 52.2895 135.982 51.9411C135.472 51.1897 135.122 50.3411 134.955 49.4484C134.788 48.5557 134.807 47.6381 135.011 46.7531C135.152 46.3261 135.405 45.9447 135.743 45.6486C136.081 45.3524 136.493 45.1523 136.935 45.0691C137.376 44.9859 137.833 45.0226 138.255 45.1754C138.678 45.3283 139.052 45.5916 139.339 45.9381C139.871 46.6719 140.218 47.5239 140.348 48.4211L140.349 48.4201ZM139.019 48.6721C138.926 48.1035 138.742 47.5536 138.475 47.0431C138.116 46.4031 137.669 46.1411 137.145 46.2381C136.621 46.3351 136.291 46.7421 136.174 47.4601C136.11 48.0364 136.14 48.6191 136.261 49.1861C136.597 50.9901 137.244 51.8047 138.202 51.6301C138.736 51.5331 139.046 51.1161 139.173 50.3981C139.227 49.8202 139.188 49.2374 139.057 48.6721H139.019ZM63.191 42.3011L34.764 47.6351C34.4709 47.6901 34.1699 47.6868 33.8781 47.6255C33.5863 47.5641 33.3095 47.4459 33.0634 47.2775C32.8173 47.1092 32.6068 46.894 32.4439 46.6443C32.281 46.3945 32.1689 46.1151 32.114 45.8221C32.0038 45.2304 32.1331 44.6192 32.4735 44.1228C32.8138 43.6264 33.3374 43.2855 33.929 43.1751L62.385 37.8411C62.9779 37.7301 63.5906 37.8586 64.089 38.1984C64.5873 38.5382 64.9307 39.0616 65.044 39.6541C65.1478 40.2508 65.011 40.8643 64.6636 41.3604C64.3161 41.8565 63.7863 42.1947 63.19 42.3011H63.191ZM131.595 34.3581C131.449 33.5749 131.038 32.866 130.43 32.3511C130.391 32.3164 130.345 32.2906 130.295 32.2755C130.244 32.2605 130.192 32.2565 130.14 32.264C130.088 32.2714 130.039 32.29 129.995 32.3185C129.951 32.347 129.914 32.3848 129.886 32.4291L129.779 32.5941C129.726 32.6674 129.702 32.758 129.713 32.8479C129.724 32.9378 129.768 33.0203 129.837 33.0791C130.275 33.4534 130.57 33.9674 130.672 34.5341C130.777 35.0994 130.689 35.6836 130.42 36.1921C130.38 36.2722 130.37 36.3638 130.391 36.4507C130.413 36.5376 130.464 36.6142 130.536 36.6671L130.701 36.7741C130.744 36.8036 130.793 36.8238 130.845 36.8335C130.896 36.8431 130.949 36.842 131.001 36.8302C131.052 36.8183 131.1 36.796 131.142 36.7647C131.184 36.7334 131.219 36.6937 131.245 36.6481C131.615 35.9461 131.738 35.1401 131.594 34.3591L131.595 34.3581ZM133.429 34.0381C133.201 32.7597 132.51 31.6101 131.488 30.8091C131.447 30.7794 131.401 30.7581 131.352 30.7464C131.303 30.7347 131.252 30.7328 131.203 30.7409C131.153 30.749 131.106 30.7669 131.063 30.7935C131.02 30.8202 130.983 30.855 130.954 30.8961L130.896 30.9931C130.846 31.0714 130.826 31.1659 130.843 31.2576C130.859 31.3494 130.909 31.4317 130.983 31.4881C131.837 32.1677 132.419 33.131 132.623 34.2031C132.828 35.2724 132.634 36.3796 132.079 37.3161C132.03 37.3956 132.012 37.4908 132.03 37.5827C132.048 37.6745 132.1 37.7561 132.176 37.8111L132.273 37.8791C132.357 37.9339 132.459 37.9534 132.557 37.9334C132.655 37.9133 132.741 37.8554 132.797 37.7721C133.46 36.6479 133.684 35.3187 133.428 34.0391L133.429 34.0381ZM135.05 33.7381C134.723 32.0249 133.772 30.494 132.381 29.4421C132.34 29.4124 132.294 29.3911 132.245 29.3794C132.196 29.3677 132.145 29.3658 132.096 29.3739C132.046 29.382 131.999 29.3999 131.956 29.4265C131.913 29.4532 131.876 29.488 131.847 29.5291C131.794 29.6081 131.773 29.7046 131.789 29.7985C131.806 29.8924 131.857 29.9764 131.934 30.0331C133.183 30.9683 134.035 32.3381 134.323 33.8717C134.611 35.4053 134.312 36.9909 133.487 38.3151C133.436 38.3965 133.418 38.4947 133.438 38.5888C133.458 38.6828 133.514 38.7655 133.594 38.8191C133.678 38.8739 133.78 38.8934 133.878 38.8734C133.976 38.8533 134.062 38.7954 134.118 38.7121C135.036 37.227 135.368 35.4546 135.05 33.7381ZM136.797 33.3891C136.389 31.206 135.163 29.2606 133.371 27.9491C133.33 27.9194 133.284 27.8981 133.235 27.8864C133.186 27.8747 133.135 27.8728 133.086 27.8809C133.036 27.889 132.989 27.9069 132.946 27.9335C132.903 27.9602 132.866 27.995 132.837 28.0361L132.73 28.1911C132.679 28.2708 132.66 28.3667 132.676 28.4599C132.692 28.5531 132.742 28.637 132.817 28.6951C134.408 29.8781 135.493 31.6196 135.853 33.5697C136.213 35.5197 135.822 37.5337 134.758 39.2071C134.706 39.2858 134.687 39.3818 134.705 39.4744C134.723 39.567 134.777 39.6487 134.855 39.7021L135.01 39.8181C135.094 39.8729 135.196 39.8924 135.294 39.8724C135.392 39.8523 135.478 39.7944 135.534 39.7111C136.747 37.8421 137.199 35.5796 136.796 33.3881L136.797 33.3891ZM45.304 101.619C45.413 102.049 45.413 102.499 45.304 102.928C45.2372 103.134 45.1162 103.318 44.9537 103.46C44.7912 103.603 44.5933 103.699 44.3807 103.739C44.1682 103.779 43.9488 103.76 43.7458 103.686C43.5428 103.612 43.3635 103.484 43.227 103.316C42.9761 102.956 42.8041 102.547 42.7221 102.116C42.64 101.685 42.6499 101.241 42.751 100.814C42.869 100.384 43.231 100.064 43.673 99.9991C43.8877 99.9514 44.1115 99.9663 44.318 100.042C44.5245 100.118 44.705 100.251 44.838 100.426C45.0868 100.781 45.2466 101.19 45.304 101.619ZM44.663 101.745C44.615 101.472 44.5267 101.207 44.401 100.96C44.226 100.65 44.013 100.524 43.76 100.572C43.507 100.62 43.343 100.814 43.294 101.154C43.2524 101.431 43.2524 101.712 43.294 101.988C43.459 102.861 43.76 103.258 44.206 103.171C44.468 103.171 44.614 102.929 44.662 102.57C44.7042 102.297 44.7042 102.019 44.662 101.746L44.663 101.745ZM48.177 101.086C48.2869 101.512 48.2869 101.959 48.177 102.385C48.1102 102.591 47.9892 102.775 47.8267 102.917C47.6642 103.06 47.4663 103.156 47.2537 103.196C47.0412 103.236 46.8218 103.217 46.6188 103.143C46.4158 103.069 46.2365 102.941 46.1 102.773C45.836 102.42 45.6626 102.007 45.595 101.571C45.4909 101.144 45.4909 100.699 45.595 100.272C45.724 99.8311 46.108 99.5121 46.566 99.4671C47 99.3601 47.456 99.5251 47.721 99.8841C47.968 100.242 48.124 100.655 48.177 101.086ZM47.536 101.202C47.4929 100.928 47.4043 100.662 47.274 100.417C47.099 100.107 46.886 99.9811 46.633 100.029C46.38 100.077 46.216 100.271 46.177 100.621C46.1262 100.897 46.1262 101.179 46.177 101.455C46.332 102.318 46.643 102.716 47.089 102.628C47.341 102.58 47.497 102.386 47.535 102.036C47.5817 101.76 47.5827 101.478 47.536 101.202ZM50.04 99.0591C50.0574 99.1161 50.0574 99.177 50.04 99.2341L49.128 102.618C49.128 102.686 49.1034 102.752 49.0588 102.804C49.0142 102.855 48.9525 102.889 48.885 102.899C48.8191 102.923 48.7469 102.923 48.681 102.899C48.6513 102.88 48.6264 102.854 48.6079 102.824C48.5894 102.793 48.5778 102.759 48.574 102.724C48.5597 102.664 48.5597 102.601 48.574 102.54L49.545 99.1651C49.545 99.0101 49.671 98.9131 49.788 98.8931C49.8545 98.8728 49.9255 98.8728 49.992 98.8931C50.0282 98.9401 50.0456 98.9989 50.041 99.0581L50.04 99.0591ZM53.02 100.174C53.129 100.604 53.129 101.054 53.02 101.483C52.9532 101.689 52.8322 101.873 52.6697 102.015C52.5072 102.158 52.3093 102.254 52.0967 102.294C51.8842 102.334 51.6648 102.315 51.4618 102.241C51.2588 102.167 51.0795 102.039 50.943 101.871C50.6922 101.511 50.5201 101.102 50.4381 100.671C50.3561 100.24 50.3659 99.7962 50.467 99.3691C50.5342 99.1629 50.6556 98.9785 50.8185 98.8353C50.9815 98.6921 51.1799 98.5953 51.393 98.5551C51.827 98.4721 52.272 98.6321 52.554 98.9721C52.804 99.3291 52.964 99.7421 53.02 100.174ZM52.379 100.29C52.3359 100.016 52.2473 99.7504 52.117 99.5051C51.942 99.2041 51.729 99.0691 51.476 99.1171C51.223 99.1651 51.059 99.3691 51.02 99.7091C50.9692 99.9848 50.9692 100.267 51.02 100.543C51.175 101.416 51.486 101.804 51.932 101.726C52.184 101.726 52.34 101.474 52.378 101.125C52.4236 100.852 52.4236 100.574 52.378 100.301V100.291L52.379 100.29ZM55.902 99.6311C56.007 100.061 56.007 100.51 55.902 100.94C55.8414 101.158 55.7162 101.353 55.5429 101.498C55.3696 101.644 55.1562 101.733 54.931 101.755C54.7178 101.802 54.4956 101.787 54.2909 101.711C54.0861 101.635 53.9074 101.502 53.776 101.328C53.5156 100.974 53.3456 100.561 53.281 100.126C53.1773 99.6993 53.1773 99.2539 53.281 98.8271C53.415 98.4041 53.772 98.0901 54.208 98.0081C54.4223 97.9678 54.6435 97.9866 54.8478 98.0625C55.0522 98.1385 55.232 98.2686 55.368 98.4391C55.6447 98.7848 55.8285 99.1954 55.902 99.6321V99.6311ZM55.252 99.7571C55.2089 99.4827 55.1203 99.2174 54.99 98.9721C54.825 98.6621 54.611 98.5361 54.349 98.5841C54.087 98.6321 53.941 98.8261 53.893 99.1661C53.8463 99.4421 53.8463 99.724 53.893 100C54.058 100.873 54.359 101.27 54.805 101.183C55.057 101.183 55.213 100.931 55.261 100.582C55.3033 100.309 55.2999 100.03 55.251 99.7581L55.252 99.7571ZM58.775 99.0981C58.8849 99.5241 58.8849 99.9711 58.775 100.397C58.65 100.842 58.265 101.165 57.804 101.212C57.5908 101.263 57.3674 101.249 57.1619 101.173C56.9563 101.097 56.7779 100.962 56.649 100.785C56.3813 100.434 56.2075 100.02 56.144 99.5831C56.0341 99.1571 56.0341 98.7101 56.144 98.2841C56.2124 98.0786 56.3346 97.8952 56.498 97.7531C56.6615 97.611 56.86 97.5153 57.073 97.4761C57.507 97.3961 57.95 97.5561 58.231 97.8961C58.509 98.2461 58.696 98.6591 58.775 99.0981ZM58.134 99.2141C58.0833 98.9416 57.9952 98.6774 57.872 98.4291C57.697 98.1191 57.484 97.9931 57.231 98.0411C56.978 98.0891 56.814 98.2831 56.765 98.6331C56.7234 98.9095 56.7234 99.1906 56.765 99.4671C56.93 100.33 57.231 100.728 57.677 100.64C57.939 100.64 58.085 100.398 58.133 100.048C58.1746 99.7716 58.1756 99.4905 58.134 99.2141ZM61.648 98.5551C61.757 98.9846 61.757 99.4346 61.648 99.8641C61.5812 100.07 61.4602 100.254 61.2977 100.396C61.1352 100.539 60.9373 100.635 60.7247 100.675C60.5122 100.715 60.2928 100.696 60.0898 100.622C59.8868 100.548 59.7075 100.42 59.571 100.252C59.3201 99.892 59.1481 99.483 59.0661 99.0519C58.9841 98.6207 58.9939 98.1771 59.095 97.7501C59.17 97.5534 59.2948 97.3795 59.4572 97.2455C59.6196 97.1115 59.814 97.0221 60.0214 96.9859C60.2288 96.9497 60.4421 96.968 60.6403 97.039C60.8385 97.1101 61.0148 97.2314 61.152 97.3911C61.4068 97.7344 61.5775 98.1334 61.648 98.5551ZM61.007 98.6711C60.9639 98.3967 60.8753 98.1314 60.745 97.8861C60.57 97.5851 60.357 97.4501 60.104 97.4981C59.851 97.5461 59.687 97.7501 59.648 98.0901C59.6013 98.3661 59.6013 98.648 59.648 98.9241C59.813 99.7971 60.124 100.185 60.57 100.107C60.822 100.107 60.978 99.8551 61.016 99.5061C61.0594 99.2295 61.056 98.9476 61.006 98.6721L61.007 98.6711Z" fill="white"/>
</g>
<path d="M158.101 73.5071C158.101 73.5071 155.937 73.3231 155.5 73.7881C155.063 74.2531 153.025 76.8431 153.559 77.5511C154.093 78.2591 156.335 76.5811 156.81 76.4161C157.285 76.2511 158.606 75.5531 158.606 75.5531L158.101 73.5071Z" fill="#FFB27D"/>
<path d="M173.202 69.0171C173.008 68.6944 172.773 68.3979 172.503 68.1351C172.31 67.9338 172.095 67.755 171.862 67.6021L170.891 66.8071L170.677 67.0011C165.931 65.2941 156.876 68.6401 148.141 75.8161C137.572 84.4761 131.38 95.4921 134.088 100.699L133.787 100.971L135.194 102.086L135.398 102.251C135.757 102.519 136.152 102.735 136.572 102.891C141.269 104.733 150.422 101.388 159.263 94.1631C170.114 85.3581 176.296 74.1191 173.2 69.0181L173.202 69.0171Z" fill="url(#paint3_linear_1_1668)"/>
<path d="M146.619 74.6029C157.382 65.7779 168.612 62.7429 171.708 67.8149C174.804 72.8869 168.573 84.1549 157.81 93.0279C147.047 101.901 135.817 104.898 132.721 99.8159C129.625 94.7339 135.856 83.4369 146.619 74.6029Z" fill="url(#paint4_linear_1_1668)"/>
<path d="M140.941 99.6899C140.079 99.7923 139.207 99.7762 138.35 99.6419C137.691 99.5654 137.057 99.3419 136.496 98.9877C135.935 98.6336 135.461 98.158 135.108 97.5959C133.817 95.4329 134.419 91.9419 136.797 87.7819C139.592 83.171 143.177 79.0875 147.386 75.7179C154.306 70.0349 161.624 66.8449 166.04 67.6109C166.7 67.6899 167.333 67.9155 167.894 68.2713C168.455 68.6271 168.929 69.1039 169.282 69.6669C170.573 71.8299 169.981 75.3109 167.593 79.4809C164.804 84.1046 161.219 88.1986 157.004 91.5739C151.307 96.2289 145.338 99.2059 140.942 99.6909L140.941 99.6899ZM163.574 68.4159C159.372 68.8809 153.451 71.8389 147.929 76.3779C143.797 79.6747 140.281 83.6767 137.544 88.1989C135.351 92.0779 134.729 95.2969 135.846 97.1589C136.138 97.6117 136.528 97.9937 136.986 98.2772C137.445 98.5607 137.96 98.7386 138.496 98.7979C139.265 98.9106 140.047 98.9106 140.816 98.7979C145.018 98.3419 150.948 95.3749 156.461 90.8359C160.592 87.5354 164.111 83.5341 166.856 79.0149C169.04 75.1359 169.661 71.9259 168.545 70.0639C168.255 69.6083 167.866 69.2236 167.407 68.9382C166.949 68.6528 166.432 68.474 165.895 68.4149C165.125 68.3113 164.345 68.3113 163.575 68.4149L163.574 68.4159Z" fill="url(#paint5_linear_1_1668)"/>
<path opacity="0.79" d="M147.842 87.064C148.159 86.881 148.461 86.6733 148.745 86.443C149.007 86.2227 149.242 85.972 149.444 85.696C149.671 85.394 149.866 85.0689 150.026 84.726C150.217 84.3347 150.386 83.934 150.531 83.524L151.502 81.332C151.814 80.653 152.187 80.003 152.618 79.393C153.055 78.779 153.556 78.213 154.113 77.706C154.745 77.14 155.434 76.6426 156.171 76.222C156.766 75.8715 157.402 75.5948 158.064 75.398C158.546 75.2563 159.052 75.2198 159.549 75.291C159.952 75.354 160.322 75.552 160.597 75.853C160.881 76.204 161.063 76.627 161.121 77.075L163.722 75.572V77.065L161.082 78.578C160.981 79.2022 160.784 79.8072 160.5 80.372C160.188 81.0107 159.8 81.6096 159.345 82.156C158.835 82.7659 158.269 83.3275 157.656 83.834C156.968 84.395 156.234 84.8977 155.463 85.337V82.651C156.287 82.217 157.024 81.6354 157.637 80.935C158.064 80.4888 158.316 79.9031 158.345 79.286C158.362 79.0663 158.304 78.8473 158.18 78.665C158.063 78.5315 157.9 78.4455 157.724 78.423C157.493 78.4091 157.261 78.4456 157.045 78.53C156.75 78.63 156.469 78.7594 156.201 78.918C155.914 79.0826 155.642 79.2706 155.386 79.48C155.136 79.6892 154.911 79.9268 154.716 80.188C154.494 80.492 154.302 80.8169 154.143 81.158C153.935 81.568 153.751 81.9884 153.59 82.419L152.619 84.62C152.302 85.2983 151.925 85.9472 151.493 86.559C151.048 87.1721 150.544 87.7404 149.989 88.256C149.36 88.8145 148.673 89.3052 147.941 89.72C147.333 90.0831 146.68 90.3667 146 90.564C145.519 90.7076 145.011 90.7408 144.515 90.661C144.134 90.578 143.792 90.3696 143.544 90.069C143.266 89.709 143.091 89.28 143.039 88.828L140.622 90.224V88.75L142.942 87.373C143.023 86.7685 143.176 86.1759 143.398 85.608C143.659 84.938 144.008 84.305 144.436 83.727C144.932 83.017 145.509 82.3664 146.154 81.788C146.924 81.1081 147.764 80.5102 148.658 80.004V82.69C148.15 82.97 147.671 83.2934 147.222 83.66C146.878 83.9461 146.568 84.2716 146.3 84.63C146.091 84.926 145.93 85.253 145.824 85.6C145.738 85.87 145.696 86.151 145.698 86.434C145.685 86.6685 145.742 86.9017 145.863 87.103C145.912 87.1817 145.977 87.2492 146.054 87.3011C146.131 87.3529 146.218 87.388 146.309 87.404C146.525 87.4608 146.753 87.4608 146.969 87.404C147.272 87.3256 147.565 87.2108 147.842 87.064Z" fill="white"/>
<path d="M124.973 121.56C129.525 116.339 128.982 108.415 123.759 103.862C118.536 99.3094 110.613 99.8517 106.061 105.073C101.509 110.295 102.052 118.219 107.275 122.772C112.497 127.325 120.421 126.782 124.973 121.56Z" fill="url(#paint6_linear_1_1668)"/>
<path d="M114.533 124.854C111.902 124.626 109.431 123.492 107.542 121.647C105.652 119.801 104.461 117.358 104.17 114.733C103.881 112.108 104.512 109.464 105.954 107.252C107.397 105.04 109.562 103.396 112.08 102.601C114.599 101.805 117.316 101.906 119.769 102.887C122.221 103.868 124.259 105.669 125.534 107.982C126.807 110.295 127.238 112.978 126.754 115.574C126.27 118.17 124.901 120.517 122.88 122.216C121.733 123.187 120.405 123.921 118.972 124.374C117.539 124.827 116.03 124.99 114.533 124.854ZM116.474 102.773C110.558 102.265 105.35 106.644 104.84 112.555C104.597 115.394 105.491 118.214 107.326 120.395C109.16 122.575 111.786 123.938 114.625 124.183C120.54 124.695 125.752 120.32 126.266 114.41C126.388 113 126.231 111.58 125.802 110.231C125.374 108.883 124.683 107.632 123.77 106.551C122.856 105.47 121.738 104.579 120.479 103.931C119.22 103.283 117.846 102.889 116.435 102.773H116.474Z" fill="url(#paint7_linear_1_1668)"/>
<path opacity="0.63" d="M116.474 116.098C116.507 115.927 116.507 115.755 116.474 115.584C116.453 115.423 116.393 115.27 116.299 115.138C116.184 114.98 116.047 114.839 115.891 114.721C115.689 114.559 115.475 114.413 115.25 114.285C114.846 114.043 114.454 113.781 114.076 113.5C113.752 113.262 113.461 112.981 113.212 112.666C112.985 112.381 112.822 112.05 112.736 111.696C112.66 111.322 112.659 110.937 112.732 110.562C112.805 110.188 112.952 109.832 113.163 109.514C113.359 109.23 113.614 108.992 113.91 108.816C114.227 108.626 114.576 108.495 114.939 108.428C115.348 108.369 115.763 108.369 116.172 108.428L116.473 106.993L117.628 107.235L117.327 108.69C117.709 108.822 118.069 109.012 118.395 109.252C118.685 109.481 118.932 109.76 119.123 110.076C119.306 110.402 119.425 110.761 119.472 111.133C119.528 111.55 119.508 111.974 119.414 112.384L117.318 111.948C117.444 111.523 117.406 111.066 117.211 110.668C117.116 110.51 116.988 110.375 116.835 110.271C116.683 110.167 116.51 110.098 116.328 110.067C116.138 110.035 115.945 110.035 115.755 110.067C115.597 110.092 115.445 110.148 115.309 110.232C115.186 110.321 115.086 110.431 115.008 110.562C114.928 110.7 114.872 110.851 114.843 111.008C114.815 111.162 114.815 111.319 114.843 111.473C114.866 111.627 114.921 111.769 115.008 111.9C115.123 112.062 115.259 112.204 115.416 112.327C115.631 112.492 115.854 112.644 116.086 112.783L117.251 113.588C117.575 113.827 117.862 114.111 118.105 114.432C118.332 114.717 118.495 115.048 118.581 115.402C118.728 116.165 118.571 116.954 118.144 117.603C117.944 117.881 117.69 118.115 117.397 118.292C117.078 118.475 116.73 118.599 116.368 118.66C115.956 118.714 115.538 118.714 115.126 118.66L114.854 119.998L113.699 119.765L113.971 118.427C113.582 118.308 113.21 118.138 112.865 117.923C112.522 117.726 112.224 117.458 111.992 117.138C111.743 116.812 111.571 116.434 111.487 116.033C111.391 115.559 111.391 115.071 111.487 114.598L113.583 115.034C113.526 115.306 113.526 115.586 113.583 115.858C113.615 116.071 113.702 116.271 113.835 116.44C113.959 116.596 114.115 116.725 114.291 116.818C114.469 116.907 114.659 116.972 114.854 117.012C115.06 117.044 115.269 117.044 115.475 117.012C115.642 116.989 115.803 116.937 115.951 116.857C116.087 116.781 116.203 116.675 116.291 116.547C116.378 116.409 116.44 116.26 116.475 116.101L116.474 116.098Z" fill="white"/>
</g>
</g>
<defs>
<linearGradient id="paint0_linear_1_1668" x1="-379.22" y1="1949.23" x2="4300.92" y2="-3700.82" gradientUnits="userSpaceOnUse">
<stop offset="0.24" stop-color="#DE7F00"/>
<stop offset="0.52" stop-color="#FFAE3D"/>
<stop offset="0.88" stop-color="#FFDA6A"/>
</linearGradient>
<linearGradient id="paint1_linear_1_1668" x1="-662.227" y1="3856" x2="4087.12" y2="199.666" gradientUnits="userSpaceOnUse">
<stop stop-color="#DE7F00"/>
<stop offset="0.3" stop-color="#FFAE3D"/>
<stop offset="0.56" stop-color="#FFDA6A"/>
<stop offset="0.93" stop-color="#FFE9A8"/>
</linearGradient>
<linearGradient id="paint2_linear_1_1668" x1="67.7674" y1="3495.87" x2="12330.4" y2="7839.44" gradientUnits="userSpaceOnUse">
<stop offset="0.2" stop-color="#FF6236"/>
<stop offset="0.56" stop-color="#FF9B59"/>
<stop offset="0.83" stop-color="#FF7C57"/>
</linearGradient>
<linearGradient id="paint3_linear_1_1668" x1="1633.93" y1="4358.76" x2="2489.02" y2="-1377.78" gradientUnits="userSpaceOnUse">
<stop stop-color="#DE7F00"/>
<stop offset="0.52" stop-color="#FFAE3D"/>
<stop offset="0.88" stop-color="#FFDA6A"/>
</linearGradient>
<linearGradient id="paint4_linear_1_1668" x1="-2913.5" y1="4355.03" x2="5106.98" y2="-455.144" gradientUnits="userSpaceOnUse">
<stop offset="0.24" stop-color="#DE7F00"/>
<stop offset="0.43" stop-color="#FFAE3D"/>
<stop offset="0.78" stop-color="#FFDA6A"/>
</linearGradient>
<linearGradient id="paint5_linear_1_1668" x1="-1572" y1="3635.81" x2="4538.42" y2="-695.123" gradientUnits="userSpaceOnUse">
<stop offset="0.24" stop-color="#DE7F00"/>
<stop offset="0.43" stop-color="#FFAE3D"/>
<stop offset="0.66" stop-color="#FFDA6A"/>
<stop offset="0.88" stop-color="#FFE9A8"/>
</linearGradient>
<linearGradient id="paint6_linear_1_1668" x1="-688.415" y1="1038.24" x2="3433.13" y2="-657.516" gradientUnits="userSpaceOnUse">
<stop offset="0.24" stop-color="#DE7F00"/>
<stop offset="0.52" stop-color="#FFAE3D"/>
<stop offset="0.88" stop-color="#FFDA6A"/>
</linearGradient>
<linearGradient id="paint7_linear_1_1668" x1="-682.912" y1="1568.78" x2="2901.94" y2="960.836" gradientUnits="userSpaceOnUse">
<stop stop-color="#DE7F00"/>
<stop offset="0.3" stop-color="#FFAE3D"/>
<stop offset="0.56" stop-color="#FFDA6A"/>
<stop offset="0.93" stop-color="#FFE9A8"/>
</linearGradient>
<clipPath id="clip0_1_1668">
<rect width="175" height="131" fill="white"/>
</clipPath>
<clipPath id="clip1_1_1668">
<rect width="175" height="131" fill="white"/>
</clipPath>
</defs>
</svg>
