<svg width="175" height="132" viewBox="0 0 175 132" fill="none" xmlns="http://www.w3.org/2000/svg">
<g clip-path="url(#clip0_1_1383)">
<g clip-path="url(#clip1_1_1383)">
<path d="M68.8005 1.80552L120.351 9.40147C121.944 9.63754 123.379 10.4962 124.34 11.7891C125.301 13.0819 125.709 14.7032 125.476 16.297L109.48 124.909C109.364 125.699 109.093 126.457 108.684 127.142C108.275 127.827 107.734 128.424 107.094 128.9C106.454 129.376 105.726 129.721 104.953 129.916C104.179 130.11 103.375 130.151 102.585 130.034L51.034 122.438C49.4407 122.202 48.0061 121.343 47.0452 120.051C46.0844 118.758 45.6758 117.137 45.9093 115.543L61.905 6.9303C62.0211 6.14107 62.2916 5.38244 62.701 4.69774C63.1103 4.01304 63.6505 3.41568 64.2907 2.93978C64.931 2.46387 65.6587 2.11874 66.4323 1.9241C67.2059 1.72946 68.0113 1.68926 68.8005 1.80552Z" fill="url(#paint0_linear_1_1383)"/>
<path d="M69.1486 3.10119L119.634 10.5403C120.915 10.7289 122.068 11.4185 122.84 12.4573C123.612 13.4961 123.94 14.799 123.751 16.0794L107.843 124.095C107.655 125.376 106.965 126.528 105.927 127.301C104.888 128.073 103.585 128.4 102.305 128.212L51.8193 120.773C50.5389 120.584 49.3858 119.895 48.6138 118.856C47.8417 117.817 47.514 116.514 47.7026 115.234L63.6105 7.21803C63.7991 5.93777 64.4885 4.78483 65.527 4.0128C66.5656 3.24077 67.8683 2.91286 69.1486 3.10119Z" fill="url(#paint1_linear_1_1383)"/>
<path opacity="0.89" fill-rule="evenodd" clip-rule="evenodd" d="M93.664 12.319C93.5229 12.3001 93.3871 12.2526 93.2648 12.1796C93.1426 12.1065 93.0365 12.0093 92.953 11.894C92.8669 11.7796 92.8045 11.6491 92.7693 11.5103C92.734 11.3715 92.7268 11.2271 92.7479 11.0855C92.769 10.9438 92.8181 10.8078 92.8923 10.6853C92.9665 10.5628 93.0643 10.4563 93.18 10.372C93.411 10.195 93.703 10.121 93.99 10.165C94.582 10.256 94.991 10.806 94.909 11.4C94.839 11.861 94.487 12.228 94.03 12.319C93.9092 12.3393 93.7848 12.3393 93.664 12.319ZM93.931 10.531C93.7422 10.5067 93.5513 10.5561 93.398 10.669C93.321 10.724 93.2565 10.7946 93.2087 10.8763C93.161 10.958 93.1311 11.0489 93.121 11.143C93.1026 11.2562 93.1119 11.3722 93.1482 11.481C93.1844 11.5898 93.2464 11.6882 93.329 11.7679C93.4116 11.8475 93.5122 11.9059 93.6222 11.9381C93.7323 11.9704 93.8485 11.9755 93.961 11.953C94.0692 11.931 94.1706 11.8837 94.257 11.815C94.3316 11.7599 94.3945 11.6905 94.4421 11.6108C94.4896 11.5311 94.5209 11.4428 94.534 11.351C94.5496 11.2574 94.5463 11.1616 94.5242 11.0693C94.5022 10.977 94.4619 10.8901 94.4057 10.8137C94.3494 10.7372 94.2785 10.6728 94.197 10.6243C94.1154 10.5757 94.025 10.544 93.931 10.531ZM98.178 16.064L87.915 14.552C87.8047 14.4432 87.7192 14.3118 87.6647 14.1667C87.6101 14.0217 87.5877 13.8665 87.599 13.712C87.5988 13.5836 87.6271 13.4568 87.6817 13.3406C87.7363 13.2244 87.816 13.1217 87.915 13.04C88.1039 12.9053 88.3374 12.8487 88.567 12.882L98.445 14.344C98.5582 14.3587 98.6672 14.396 98.7657 14.4537C98.8641 14.5114 98.9499 14.5884 99.018 14.68C99.1527 14.8688 99.2093 15.1024 99.176 15.332C99.1501 15.5118 99.0686 15.6789 98.9428 15.81C98.8171 15.9411 98.6535 16.0296 98.475 16.063C98.3775 16.0841 98.2765 16.0841 98.179 16.063L98.178 16.064ZM88.073 14.206L98.228 15.698H98.396C98.4997 15.6789 98.5947 15.6275 98.6674 15.5512C98.7402 15.4749 98.7869 15.3775 98.801 15.273C98.8156 15.1426 98.7797 15.0116 98.7006 14.9069C98.6216 14.8021 98.5054 14.7317 98.376 14.71L88.498 13.248C88.3681 13.2319 88.237 13.2675 88.133 13.347C88.0749 13.3871 88.0268 13.4401 87.9925 13.5019C87.9581 13.5636 87.9385 13.6324 87.935 13.703C87.9142 13.8825 87.9637 14.0621 88.073 14.206Z" stroke="#20283D" stroke-width="0.5"/>
<path fill-rule="evenodd" clip-rule="evenodd" d="M77.74 120.254C77.0431 120.15 76.3734 119.91 75.7692 119.548C75.165 119.185 74.6381 118.707 74.2186 118.141C73.7991 117.575 73.4953 116.932 73.3243 116.248C73.1534 115.565 73.1188 114.854 73.2225 114.157C73.3262 113.461 73.5661 112.791 73.9286 112.187C74.2911 111.582 74.769 111.056 75.3351 110.636C75.9013 110.217 76.5445 109.913 77.228 109.742C77.9116 109.571 78.6221 109.536 79.319 109.64C80.7265 109.849 81.9932 110.609 82.8404 111.753C83.6876 112.896 84.0459 114.329 83.8365 115.736C83.6271 117.144 82.8672 118.411 81.7239 119.258C80.5805 120.105 79.1475 120.463 77.74 120.254ZM79.251 110.008C77.9509 109.834 76.6345 110.179 75.5867 110.968C74.5389 111.757 73.844 112.927 73.6524 114.225C73.4607 115.522 73.7877 116.843 74.5627 117.902C75.3376 118.96 76.4981 119.671 77.793 119.88C79.1013 120.074 80.433 119.74 81.4955 118.952C82.5579 118.164 83.2641 116.987 83.459 115.679C83.6512 114.369 83.3161 113.037 82.5273 111.974C81.7385 110.91 80.5602 110.204 79.251 110.008Z" stroke="#20283D" stroke-width="0.5"/>
<path d="M53.2768 101.027L65.8634 15.5637L119.212 23.4246L106.626 108.888L53.2768 101.027Z" fill="url(#paint2_linear_1_1383)"/>
<path d="M65.3155 19.2475L65.8584 15.5623L119.207 23.4232L118.664 27.1084L65.3155 19.2475Z" fill="url(#paint3_linear_1_1383)"/>
<path opacity="0.81" d="M59.3501 95.809L69.9207 24.0312L111.777 30.1981L101.206 101.976L59.3501 95.809Z" fill="url(#paint4_linear_1_1383)"/>
<path d="M86.117 106.125L89.643 66.228L88.793 65.655L74.954 64.894L74.164 65.23L71.033 103.902L86.117 106.125Z" fill="url(#paint5_linear_1_1383)"/>
<path d="M105.617 109L103.562 73.7859L89.693 65.7239L89.644 66.2279L86.118 106.125L105.617 109Z" fill="url(#paint6_linear_1_1383)"/>
<path d="M71.033 103.902L74.164 65.2299L74.371 62.6309L56.947 71.4639L50.487 100.879L71.033 103.902Z" fill="url(#paint7_linear_1_1383)"/>
<path d="M96.272 36.3198C96.3001 35.69 96.2038 35.0608 95.9886 34.4682C95.7735 33.8755 95.4437 33.3311 95.0181 32.866C94.5925 32.4008 94.0795 32.0241 93.5083 31.7572C92.937 31.4904 92.3188 31.3387 91.689 31.3108C91.4686 31.2962 91.2474 31.2962 91.027 31.3108C88.606 29.4228 86.878 27.3578 82.828 28.0498C82.0511 28.1817 81.3109 28.476 80.6555 28.9135C80.0002 29.351 79.4446 29.9219 79.025 30.5888C78.9067 30.7776 78.8043 30.976 78.719 31.1818C77.2942 31.3456 75.9345 31.8694 74.768 32.7038C74.14 32.9027 73.558 33.2251 73.0565 33.6522C72.5549 34.0793 72.1438 34.6024 71.8474 35.1907C71.551 35.7791 71.3753 36.4207 71.3306 37.078C71.2859 37.7352 71.373 38.3948 71.587 39.0178L71.923 40.1938C72.0301 42.3444 72.4495 44.468 73.168 46.4978C73.366 46.4978 73.948 47.1698 73.948 47.1698C73.948 47.1698 76.062 48.8598 76.684 47.8418C76.9238 47.0573 77.1152 46.2588 77.257 45.4508V43.8108C77.1459 42.6116 77.1889 41.4031 77.385 40.2148C77.6143 39.4021 78.0949 38.6827 78.758 38.1598C80.407 38.9157 82.2103 39.2743 84.023 39.2068C84.6094 39.5986 85.2941 39.8176 85.999 39.8388C86.689 39.8738 87.375 39.7088 87.975 39.3648C88.8296 40.2918 90.0146 40.8454 91.274 40.9058C91.5173 40.9258 91.761 40.9258 92.005 40.9058C92.2443 41.2682 92.4274 41.6647 92.548 42.0818C92.746 42.9608 94.524 41.3898 95.225 39.1178C95.8623 38.3208 96.2291 37.3414 96.272 36.3218V36.3198Z" fill="url(#paint8_linear_1_1383)"/>
<path d="M93.842 55.458V54.964L93.516 45.6469V45.034L93.368 40.538C92.7148 40.8218 92.0056 40.9534 91.294 40.923C90.6554 40.9007 90.0276 40.7512 89.4476 40.4831C88.8675 40.2151 88.3468 39.8339 87.916 39.362C87.3165 39.7064 86.6305 39.871 85.94 39.836C85.1827 39.8045 84.4522 39.5467 83.8429 39.0959C83.2337 38.6451 82.7735 38.0219 82.522 37.307C81.6586 37.2545 80.792 37.3144 79.944 37.4849C79.3247 37.6972 78.766 38.056 78.3153 38.5308C77.8647 39.0057 77.5356 39.5824 77.356 40.212C77.1599 41.4002 77.1169 42.6087 77.228 43.808V45.448C77.1236 46.0892 76.965 46.7205 76.754 47.335C76.013 48.56 75.46 47.187 75.233 46.416C75.1922 46.2848 75.1089 46.1709 74.9963 46.0921C74.8838 46.0134 74.7482 45.9743 74.611 45.981C74.1974 45.9825 73.7893 46.0761 73.4164 46.255C73.0435 46.4339 72.7151 46.6936 72.455 47.0152C72.195 47.3369 72.0098 47.7123 71.9129 48.1145C71.816 48.5166 71.8099 48.9352 71.895 49.34L71.974 49.7649C72.1116 50.5478 72.5271 51.2547 73.1442 51.7557C73.7613 52.2567 74.5386 52.5182 75.333 52.492V53.5389L74.187 64.417C74.1128 65.0709 74.1682 65.733 74.35 66.3656C74.5318 66.9981 74.8365 67.5886 75.2466 68.1034C75.6567 68.6181 76.1642 69.047 76.7401 69.3656C77.316 69.6841 77.949 69.8861 78.603 69.9599L82.12 70.3549C83.4416 70.5016 84.7674 70.118 85.8064 69.2882C86.8454 68.4584 87.5128 67.2503 87.662 65.9289L88.057 62.362C89.7088 62.1389 91.2179 61.3072 92.2887 60.0298C93.3594 58.7525 93.9148 57.1213 93.846 55.4559L93.842 55.458Z" fill="url(#paint9_linear_1_1383)"/>
<path opacity="0.46" d="M93.842 55.4578V54.9638C93.8712 55.8016 93.7347 56.6368 93.4404 57.4217C93.1461 58.2066 92.6998 58.9257 92.127 59.5378C91.5545 60.15 90.8669 60.6432 90.1034 60.9892C89.34 61.3351 88.5158 61.527 87.678 61.5538L83.183 61.7118C82.3441 61.7395 81.508 61.6014 80.7226 61.3053C79.9372 61.0093 79.218 60.5613 78.606 59.9868C77.9939 59.4123 77.5011 58.7226 77.156 57.9572C76.8109 57.1919 76.6203 56.366 76.595 55.5268L76.486 52.4248H75.36L75.488 56.0208C75.5325 57.295 75.9402 58.5299 76.663 59.5801C77.3859 60.6304 78.3938 61.4522 79.568 61.9488C79.4956 62.2125 79.4623 62.4854 79.469 62.7588C79.528 64.5178 81.316 65.8908 83.42 65.8118C85.524 65.7328 87.253 64.2408 87.193 62.4818V62.3138H87.371C89.1362 62.2563 90.807 61.5031 92.0191 60.2186C93.2311 58.934 93.886 57.2223 93.841 55.4568L93.842 55.4578Z" fill="#E17460"/>
<path d="M87.342 58.1259C87.2995 58.1206 87.2606 58.0995 87.233 58.0669C87.2157 58.0503 87.2019 58.0305 87.1925 58.0085C87.1831 57.9865 87.1783 57.9628 87.1783 57.9389C87.1783 57.9149 87.1831 57.8913 87.1925 57.8693C87.2019 57.8473 87.2157 57.8274 87.233 57.8109C87.4913 57.5641 87.8174 57.4002 88.1696 57.3404C88.5217 57.2805 88.8837 57.3273 89.209 57.4749C89.2314 57.4862 89.2512 57.502 89.2674 57.5212C89.2835 57.5404 89.2956 57.5626 89.303 57.5866C89.3104 57.6106 89.3128 57.6358 89.3103 57.6608C89.3077 57.6857 89.3001 57.7099 89.288 57.7319C89.263 57.7759 89.228 57.8099 89.182 57.8249C89.136 57.8399 89.084 57.8349 89.041 57.8109C88.7802 57.6889 88.4884 57.6491 88.2044 57.6968C87.9205 57.7445 87.6577 57.8774 87.451 58.0779C87.4205 58.1049 87.3825 58.121 87.342 58.1259ZM74.145 50.4289C74.1182 50.4243 74.0927 50.4141 74.0701 50.399C74.0475 50.3839 74.0283 50.3642 74.0139 50.3411C73.9994 50.3181 73.99 50.2923 73.9862 50.2653C73.9825 50.2384 73.9844 50.211 73.992 50.1849C73.9995 50.1609 74.0117 50.1387 74.0278 50.1195C74.0439 50.1002 74.0637 50.0844 74.086 50.0729L74.995 49.6279L74.205 48.0869C74.1917 48.066 74.1831 48.0425 74.1798 48.018C74.1765 47.9934 74.1786 47.9685 74.186 47.9449C74.201 47.8969 74.237 47.8589 74.284 47.8399C74.331 47.8209 74.378 47.8109 74.425 47.8259C74.472 47.8409 74.51 47.8749 74.531 47.9189L75.519 49.7859L74.274 50.4079C74.2341 50.4267 74.1897 50.4336 74.146 50.4279L74.145 50.4289Z" fill="#E17460"/>
<path d="M90.157 64.3598L91.352 68.6778C91.4233 68.9268 91.4242 69.1907 91.3544 69.4402C91.2847 69.6897 91.1471 69.9149 90.957 70.0908L86.285 74.4578C86.2222 74.5845 86.1238 74.6903 86.002 74.7621C85.8802 74.834 85.7401 74.8689 85.5988 74.8627C85.4575 74.8564 85.321 74.8093 85.206 74.7269C85.091 74.6446 85.0024 74.5306 84.951 74.3988L81.79 69.5768L88.902 63.5798C89.416 63.0958 90.186 63.5498 90.157 64.3608V64.3598Z" fill="white"/>
<path d="M73.878 61.0699L82.719 69.9619L76.298 74.0329C76.0048 74.2242 75.6499 74.297 75.3051 74.2365C74.9604 74.176 74.6515 73.9867 74.441 73.7069L70.134 67.2949C69.9836 67.0642 69.9035 66.7948 69.9035 66.5194C69.9035 66.244 69.9836 65.9746 70.134 65.7439L72.989 61.1399C73.1005 61.0172 73.2546 60.9418 73.4198 60.929C73.585 60.9161 73.749 60.9659 73.878 61.0699Z" fill="white"/>
<path d="M105.784 77.0669V75.5549L105.863 69.9229C102.9 69.0929 100.035 65.2399 100.045 65.2499L97.487 62.9569C97.2595 62.7598 97.1118 62.4863 97.0718 62.188C97.0319 61.8896 97.1024 61.5869 97.27 61.3369C97.3674 61.2028 97.4919 61.0906 97.6353 61.0076C97.7787 60.9245 97.938 60.8725 98.1028 60.8548C98.2676 60.837 98.4343 60.8541 98.5921 60.9047C98.7499 60.9554 98.8953 61.0386 99.019 61.1489L101.449 63.3229C101.536 63.4088 101.647 63.4653 101.767 63.4846C101.888 63.5039 102.011 63.4849 102.12 63.4304C102.229 63.3759 102.319 63.2885 102.375 63.1806C102.432 63.0727 102.454 62.9497 102.437 62.8289C102.294 62.069 101.953 61.3602 101.449 60.7739L95.621 54.4209C95.5152 54.3061 95.4331 54.1716 95.3793 54.0251C95.3256 53.8785 95.3012 53.7228 95.3077 53.5669C95.3142 53.4109 95.3514 53.2578 95.4172 53.1162C95.483 52.9747 95.576 52.8475 95.691 52.7419C95.9891 52.5818 96.3309 52.5223 96.6655 52.5722C97.0001 52.6221 97.3096 52.7788 97.548 53.0189L101.598 57.4359C101.686 57.5324 101.805 57.5958 101.934 57.6156C102.064 57.6354 102.196 57.6105 102.309 57.5449L102.467 57.4459C102.597 57.3712 102.692 57.2487 102.733 57.1046C102.773 56.9605 102.756 56.8063 102.684 56.6749L99.316 49.9659C99.1751 49.6994 99.1365 49.3906 99.2074 49.0975C99.2783 48.8045 99.4538 48.5475 99.701 48.3749C99.8408 48.2853 99.9978 48.226 100.162 48.2009C100.326 48.1758 100.494 48.1854 100.654 48.2292C100.814 48.2729 100.963 48.3498 101.092 48.4548C101.22 48.5598 101.325 48.6907 101.4 48.8389L104.68 55.3599C104.763 55.5252 104.902 55.6556 105.072 55.728C105.242 55.8003 105.432 55.8099 105.609 55.7549C105.719 55.72 105.822 55.6637 105.91 55.5891C105.999 55.5145 106.072 55.4232 106.125 55.3203C106.179 55.2175 106.211 55.1052 106.221 54.9898C106.23 54.8744 106.217 54.7582 106.182 54.6479L104.206 48.4329C104.106 48.1473 104.116 47.8349 104.232 47.5558C104.349 47.2767 104.565 47.0506 104.838 46.9209C104.989 46.853 105.153 46.818 105.319 46.8181C105.485 46.8182 105.649 46.8535 105.8 46.9217C105.951 46.9898 106.086 47.0892 106.196 47.2134C106.306 47.3375 106.389 47.4836 106.438 47.6419L108.503 54.1039C108.645 54.5329 108.918 54.9059 109.283 55.1709C109.38 55.2424 109.495 55.2842 109.616 55.2912C109.736 55.2981 109.856 55.2699 109.96 55.2099C110.065 55.1506 110.15 55.062 110.205 54.9551C110.26 54.8483 110.283 54.7276 110.271 54.6079L110.014 51.5749C109.979 51.275 110.055 50.9727 110.228 50.7251C110.401 50.4775 110.658 50.3017 110.952 50.2309C111.115 50.1998 111.283 50.2031 111.444 50.2404C111.606 50.2778 111.758 50.3485 111.891 50.4479C112.024 50.5474 112.135 50.6735 112.216 50.8181C112.298 50.9627 112.348 51.1227 112.364 51.2879L113.134 57.8979C113.862 61.472 114.092 65.1298 113.816 68.7669L114.32 74.4679L114.458 75.7619L105.785 77.0659L105.784 77.0669Z" fill="url(#paint10_linear_1_1383)"/>
<path d="M105.794 65.1309C105.731 65.1201 105.672 65.0937 105.622 65.054C105.572 65.0143 105.533 64.9627 105.508 64.9039C105.218 64.2815 104.754 63.7563 104.172 63.3917C103.59 63.0271 102.915 62.8386 102.228 62.8489C102.179 62.8505 102.13 62.8422 102.085 62.8245C102.039 62.8069 101.997 62.7801 101.962 62.7459C101.927 62.7118 101.899 62.6709 101.88 62.6257C101.861 62.5805 101.852 62.5319 101.852 62.4829C101.849 62.3849 101.885 62.2896 101.951 62.2176C102.018 62.1456 102.11 62.1026 102.208 62.0979C103.039 62.0958 103.853 62.3321 104.553 62.7788C105.253 63.2255 105.811 63.8638 106.159 64.6179C106.178 64.6639 106.188 64.7132 106.188 64.763C106.188 64.8128 106.178 64.8621 106.158 64.9081C106.139 64.954 106.111 64.9957 106.076 65.0306C106.04 65.0656 105.998 65.0933 105.952 65.1119C105.901 65.127 105.847 65.1327 105.794 65.1309Z" fill="#E27F6D"/>
<path d="M103.048 70.6251C102.277 70.7668 101.586 71.19 101.11 71.8127C100.633 72.4353 100.405 73.2127 100.47 73.9941L103.187 108.279C102.98 111.5 108.729 114.207 114.784 113.13C116.109 112.888 117.373 112.383 118.499 111.644C119.626 110.906 120.593 109.948 121.343 108.829C122.093 107.71 122.61 106.451 122.865 105.128C123.119 103.805 123.106 102.444 122.825 101.126L117.145 71.1981C116.989 70.3734 116.513 69.6441 115.821 69.17C115.128 68.6959 114.276 68.5158 113.451 68.6691L103.048 70.6251Z" fill="url(#paint11_linear_1_1383)"/>
<path d="M95.393 102.774C97.5972 102.774 99.384 100.987 99.384 98.783C99.384 96.5788 97.5972 94.792 95.393 94.792C93.1888 94.792 91.402 96.5788 91.402 98.783C91.402 100.987 93.1888 102.774 95.393 102.774Z" fill="url(#paint12_linear_1_1383)"/>
<path d="M97.734 98.428L96.875 98.527L96.944 98.092C96.955 98.019 96.936 97.944 96.892 97.884C96.848 97.824 96.781 97.785 96.707 97.776L94.228 97.41C94.1549 97.4013 94.0814 97.421 94.0225 97.4652C93.9637 97.5093 93.9241 97.5744 93.912 97.647L93.645 99.465C93.6363 99.538 93.656 99.6116 93.7002 99.6705C93.7443 99.7293 93.8094 99.7689 93.882 99.781L96.352 100.147C96.4266 100.159 96.5028 100.14 96.5638 100.096C96.6249 100.051 96.6659 99.9845 96.678 99.91L96.737 99.475L97.527 99.811L97.794 98.467C97.794 98.467 97.794 98.418 97.735 98.427L97.734 98.428Z" fill="white"/>
<path d="M81.919 100.788C84.1232 100.788 85.91 99.0011 85.91 96.7969C85.91 94.5927 84.1232 92.8059 81.919 92.8059C79.7148 92.8059 77.928 94.5927 77.928 96.7969C77.928 99.0011 79.7148 100.788 81.919 100.788Z" fill="url(#paint13_linear_1_1383)"/>
<path d="M84.3 97.371V97.104C84.359 96.645 84.2359 96.1811 83.957 95.8118C83.6781 95.4424 83.2657 95.197 82.808 95.1281L81.623 94.9501C81.3596 94.9059 81.0899 94.9156 80.8303 94.9784C80.5707 95.0412 80.3265 95.1559 80.1124 95.3155C79.8983 95.4752 79.7186 95.6765 79.5844 95.9074C79.4501 96.1383 79.3639 96.394 79.331 96.659V96.7481C79.2213 96.8292 79.1472 96.9496 79.124 97.0841V97.203C79.1186 97.2155 79.1159 97.229 79.1159 97.2426C79.1159 97.2561 79.1186 97.2696 79.124 97.2821V97.6281C79.1184 97.692 79.1379 97.7557 79.1784 97.8055C79.2189 97.8554 79.2772 97.8875 79.341 97.895L80.763 98.1021C80.8178 98.1016 80.8709 98.0828 80.9138 98.0488C80.9568 98.0147 80.9871 97.9673 81 97.9141V97.5881C81.0055 97.5456 81.0055 97.5025 81 97.4601V97.3511C81.0108 97.253 80.9955 97.1538 80.9556 97.0635C80.9158 96.9733 80.8528 96.8951 80.773 96.8371C80.7971 96.7023 80.8721 96.5819 80.9825 96.5009C81.0929 96.4199 81.2302 96.3845 81.366 96.4021L82.551 96.5801C82.7 96.6001 82.806 96.7371 82.788 96.8861V97.202C82.7211 97.2395 82.6638 97.2921 82.6209 97.3557C82.578 97.4192 82.5507 97.492 82.541 97.5681V97.687C82.5358 97.7131 82.5358 97.74 82.541 97.7661V98.1121C82.538 98.177 82.5598 98.2407 82.6019 98.2902C82.6441 98.3398 82.7034 98.3715 82.768 98.3791L84.181 98.5861C84.2464 98.5977 84.3137 98.5835 84.3689 98.5466C84.424 98.5097 84.4628 98.4529 84.477 98.3881V98.0721C84.4825 98.0296 84.4825 97.9865 84.477 97.9441V97.8251C84.4869 97.7404 84.4758 97.6547 84.4448 97.5753C84.4137 97.496 84.3637 97.4255 84.299 97.37L84.3 97.371Z" fill="white"/>
<path d="M72.472 95.4056C72.7933 93.2244 71.2856 91.1957 69.1044 90.8744C66.9232 90.5531 64.8946 92.0608 64.5732 94.242C64.2519 96.4232 65.7596 98.4519 67.9408 98.7732C70.122 99.0945 72.1507 97.5868 72.472 95.4056Z" fill="url(#paint14_linear_1_1383)"/>
<path d="M68.396 95.671C68.626 95.6991 68.858 95.6363 69.0425 95.4961C69.227 95.3559 69.3495 95.1492 69.384 94.92L69.582 93.626C69.6104 93.469 69.5961 93.3073 69.5405 93.1577C69.4849 93.0082 69.3902 92.8763 69.2662 92.7759C69.1422 92.6755 68.9935 92.6103 68.8357 92.5871C68.6778 92.5639 68.5166 92.5835 68.369 92.644C68.2215 92.7049 68.0931 92.8043 67.9972 92.9319C67.9013 93.0594 67.8415 93.2104 67.824 93.369L67.626 94.663C67.6094 94.7799 67.6163 94.8989 67.6461 95.0131C67.676 95.1273 67.7283 95.2344 67.7999 95.3282C67.8716 95.422 67.9612 95.5007 68.0635 95.5595C68.1659 95.6183 68.2789 95.6562 68.396 95.671ZM69.917 94.594C69.8923 94.5897 69.8671 94.5905 69.8427 94.5961C69.8183 94.6018 69.7953 94.6123 69.7751 94.6271C69.7548 94.6418 69.7378 94.6605 69.7249 94.6819C69.712 94.7034 69.7035 94.7272 69.7 94.752L69.611 95.384C69.5821 95.5608 69.4856 95.7194 69.3419 95.8263C69.1983 95.9332 69.0186 95.9801 68.841 95.957L67.932 95.819C67.7453 95.7901 67.5775 95.6889 67.4647 95.5374C67.3519 95.3859 67.3032 95.1961 67.329 95.009L67.428 94.367C67.4334 94.3184 67.4199 94.2696 67.3902 94.2307C67.3605 94.1918 67.317 94.1659 67.2687 94.1583C67.2204 94.1507 67.171 94.162 67.1308 94.1899C67.0906 94.2178 67.0628 94.2601 67.053 94.308L66.964 94.95C66.9213 95.2369 66.994 95.529 67.1662 95.7624C67.3385 95.9957 67.5963 96.1513 67.883 96.195H68.13L68.051 96.758H67.755C67.7057 96.7527 67.6562 96.766 67.6161 96.7952C67.576 96.8244 67.5481 96.8674 67.538 96.916C67.526 97.016 67.596 97.108 67.696 97.123L68.684 97.271C68.7329 97.2741 68.7814 97.26 68.821 97.2312C68.8607 97.2023 68.889 97.1605 68.901 97.113C68.9063 97.0637 68.893 97.0141 68.8638 96.974C68.8346 96.9339 68.7916 96.9061 68.743 96.896H68.437L68.516 96.343H68.802C69.079 96.385 69.361 96.315 69.585 96.148C69.6961 96.0652 69.7896 95.9613 69.8603 95.8422C69.9311 95.723 69.9775 95.5911 69.997 95.454L70.096 94.822C70.1015 94.7951 70.1012 94.7673 70.0949 94.7406C70.0886 94.7139 70.0766 94.6888 70.0596 94.6672C70.0427 94.6456 70.0212 94.628 69.9968 94.6155C69.9723 94.603 69.9454 94.596 69.918 94.595L69.917 94.594Z" fill="white"/>
<path d="M82.304 42.3759C82.304 42.3759 83.292 42.5138 82.916 43.4228C82.54 44.3318 80.545 43.2348 79.024 44.8848C79.024 44.8848 78.491 42.6829 82.304 42.3759ZM88.448 41.6938C88.448 41.6938 87.46 41.8719 87.865 42.7709C88.27 43.6699 90.236 42.4939 91.816 44.0849C91.865 44.1249 92.261 41.8518 88.448 41.6938ZM86.502 52.4138C85.3626 52.4168 84.2494 52.0721 83.311 51.4258C83.2807 51.4079 83.2545 51.3837 83.2342 51.355C83.2138 51.3262 83.1998 51.2934 83.193 51.2589C83.186 51.2243 83.1867 51.1887 83.195 51.1545C83.2032 51.1203 83.219 51.0883 83.241 51.0608C83.26 51.0304 83.2851 51.0042 83.3147 50.9838C83.3443 50.9635 83.3777 50.9496 83.413 50.9428C83.4484 50.9365 83.4847 50.9376 83.5196 50.9461C83.5546 50.9545 83.5874 50.9701 83.616 50.9918C83.725 51.0708 86.481 52.9679 88.278 50.9029C88.3278 50.8533 88.3952 50.8255 88.4655 50.8255C88.5358 50.8255 88.6032 50.8533 88.653 50.9029C88.7002 50.9539 88.7265 51.0208 88.7265 51.0904C88.7265 51.1599 88.7002 51.2268 88.653 51.2779C88.3894 51.6027 88.0627 51.8708 87.6927 52.066C87.3227 52.2613 86.917 52.3796 86.5 52.4138H86.502ZM86.453 48.6988C86.024 48.7348 85.5927 48.6637 85.198 48.4918C85.1621 48.4805 85.129 48.4617 85.1008 48.4367C85.0727 48.4116 85.0502 48.3809 85.0348 48.3465C85.0193 48.3122 85.0114 48.2749 85.0113 48.2373C85.0113 48.1996 85.0193 48.1624 85.0347 48.128C85.0501 48.0936 85.0726 48.0629 85.1008 48.0378C85.1289 48.0128 85.162 47.994 85.1979 47.9826C85.2338 47.9713 85.2717 47.9677 85.3092 47.972C85.3466 47.9764 85.3826 47.9886 85.415 48.0079C85.764 48.1539 86.146 48.2048 86.521 48.1558L85.454 45.7159C85.4262 45.6513 85.424 45.5787 85.4478 45.5126C85.4715 45.4465 85.5195 45.3919 85.582 45.3598C85.6144 45.345 85.6494 45.3368 85.685 45.3357C85.7206 45.3346 85.756 45.3407 85.7892 45.3535C85.8224 45.3664 85.8527 45.3858 85.8782 45.4106C85.9038 45.4354 85.9241 45.4651 85.938 45.4978L87.143 48.2449C87.172 48.3109 87.172 48.3859 87.143 48.4519C87.114 48.5179 87.057 48.5768 86.985 48.5998C86.8115 48.6521 86.6337 48.6853 86.453 48.6988ZM82.828 47.7509C82.877 48.4029 82.63 48.9468 82.265 48.9758C81.9 49.0048 81.574 48.5018 81.524 47.8598C81.474 47.2178 81.722 46.6638 82.087 46.6348C82.452 46.6058 82.778 47.1089 82.828 47.7509ZM89.229 47.2569C89.229 47.8989 89.022 48.4428 88.666 48.4718C88.31 48.5008 87.965 47.9979 87.915 47.3559C87.865 46.7139 88.122 46.1598 88.478 46.1308C88.834 46.1018 89.179 46.6349 89.229 47.2569Z" fill="#45240C"/>
<path opacity="0.23" d="M75.123 49.865C75.123 50.596 76.111 51.238 77.326 51.288C78.541 51.338 79.608 50.784 79.637 50.043C79.666 49.302 78.649 48.67 77.434 48.62C76.219 48.57 75.152 49.124 75.123 49.865ZM89.209 49.598C89.426 50.309 90.572 50.586 91.767 50.22C92.962 49.854 93.743 48.985 93.545 48.244C93.347 47.503 92.182 47.256 90.987 47.631C89.792 48.006 89.002 48.906 89.209 49.597V49.598Z" fill="#FA6E64"/>
<path d="M16.437 16.667H43.602C44.797 16.667 45.765 17.636 45.765 18.831V35.539C45.7699 35.8263 45.7176 36.1118 45.6111 36.3787C45.5047 36.6456 45.3462 36.8887 45.1449 37.0938C44.9436 37.299 44.7036 37.462 44.4387 37.5734C44.1738 37.6849 43.8894 37.7425 43.602 37.743H39.572L40.501 44.037L32.124 37.743H16.437C15.8649 37.743 15.3161 37.5163 14.9107 37.1126C14.5053 36.709 14.2764 36.1611 14.274 35.589V18.831C14.274 17.636 15.243 16.667 16.437 16.667Z" fill="url(#paint15_linear_1_1383)"/>
<path d="M42.812 22.1799H20.862V21.1519H42.811L42.812 22.1799ZM39.167 25.4409H17.217V24.4129H39.166L39.167 25.4409ZM27.738 28.7409H17.218V27.7129H27.738V28.7409ZM42.357 33.9769H31.837V32.9499H42.357V33.9769Z" fill="white"/>
<path d="M54.893 92.7458H1.748C0.782606 92.7458 0 93.5285 0 94.4939V109.109C0 110.074 0.782606 110.857 1.748 110.857H54.893C55.8584 110.857 56.641 110.074 56.641 109.109V94.4939C56.641 93.5285 55.8584 92.7458 54.893 92.7458Z" fill="url(#paint16_linear_1_1383)"/>
<path d="M50.793 97.825H20.042C19.6604 97.825 19.351 98.1343 19.351 98.516V98.725C19.351 99.1066 19.6604 99.416 20.042 99.416H50.793C51.1746 99.416 51.484 99.1066 51.484 98.725V98.516C51.484 98.1343 51.1746 97.825 50.793 97.825Z" fill="white"/>
<path d="M50.793 101.323H20.042C19.6604 101.323 19.351 101.632 19.351 102.014V102.223C19.351 102.605 19.6604 102.914 20.042 102.914H50.793C51.1746 102.914 51.484 102.605 51.484 102.223V102.014C51.484 101.632 51.1746 101.323 50.793 101.323Z" fill="white"/>
<path d="M50.793 104.504H20.042C19.6604 104.504 19.351 104.813 19.351 105.195V105.404C19.351 105.786 19.6604 106.095 20.042 106.095H50.793C51.1746 106.095 51.484 105.786 51.484 105.404V105.195C51.484 104.813 51.1746 104.504 50.793 104.504Z" fill="white"/>
<path d="M9.927 108.051C8.1933 108.048 6.53146 107.358 5.30574 106.132C4.08001 104.906 3.39038 103.244 3.388 101.51C3.38787 100.651 3.5569 99.8007 3.88545 99.0072C4.21399 98.2136 4.69561 97.4926 5.30282 96.8852C5.91002 96.2778 6.63091 95.796 7.42433 95.4672C8.21775 95.1384 9.06816 94.9691 9.927 94.969C10.7858 94.9691 11.6363 95.1384 12.4297 95.4672C13.2231 95.796 13.944 96.2778 14.5512 96.8852C15.1584 97.4926 15.64 98.2136 15.9686 99.0072C16.2971 99.8007 16.4661 100.651 16.466 101.51C16.4636 103.244 15.774 104.906 14.5483 106.132C13.3225 107.358 11.6607 108.048 9.927 108.051Z" fill="url(#paint17_linear_1_1383)"/>
<path d="M8.88999 100.098C8.85462 99.88 8.87737 99.6567 8.95594 99.4504C9.03451 99.2442 9.16612 99.0623 9.33747 98.9232C9.50883 98.7841 9.71386 98.6927 9.93185 98.6582C10.1498 98.6238 10.3731 98.6474 10.579 98.7268C10.998 98.8868 11.299 99.2588 11.37 99.7018C11.4019 99.9029 11.385 100.109 11.3206 100.302C11.2561 100.495 11.1461 100.67 10.9998 100.811C10.8536 100.953 10.6753 101.057 10.4802 101.115C10.2851 101.173 10.0789 101.183 9.87899 101.145C9.62647 101.093 9.39601 100.965 9.21914 100.778C9.04228 100.59 8.92667 100.353 8.88999 100.098ZM7.15099 100.187C7.13186 100.742 7.27243 101.29 7.55599 101.768L7.95099 102.44L10.104 106.323L11.931 102.954L12.622 101.838C12.9108 101.365 13.0647 100.821 13.067 100.267C13.0771 99.8742 13.0092 99.4834 12.867 99.1173C12.7248 98.7511 12.5113 98.4169 12.2388 98.134C11.9663 97.8511 11.6403 97.6252 11.2797 97.4694C10.9192 97.3136 10.5312 97.231 10.1385 97.2264C9.74573 97.2219 9.35599 97.2954 8.9919 97.4428C8.62781 97.5901 8.29665 97.8084 8.01765 98.0849C7.73865 98.3614 7.51739 98.6905 7.36672 99.0533C7.21605 99.416 7.13899 99.8051 7.13999 100.198L7.14999 100.188L7.15099 100.187ZM149.297 63.9938H129.314C129.105 63.9888 128.939 63.8178 128.939 63.6088C128.939 63.3998 129.107 63.2338 129.314 63.2338H149.297C149.347 63.2322 149.397 63.2407 149.444 63.2589C149.491 63.277 149.533 63.3044 149.569 63.3394C149.605 63.3745 149.634 63.4164 149.653 63.4626C149.672 63.5089 149.682 63.5587 149.682 63.6088C149.681 63.7108 149.641 63.8084 149.569 63.8805C149.497 63.9526 149.399 63.9933 149.297 63.9938Z" fill="white"/>
<path d="M167.384 52.8189H125.294C124.795 52.8172 124.301 52.9141 123.84 53.1042C123.379 53.2943 122.96 53.5737 122.608 53.9263C122.255 54.279 121.976 54.6979 121.786 55.159C121.596 55.6201 121.499 56.1142 121.501 56.6129V77.4409C121.498 77.5806 121.538 77.7179 121.615 77.8346C121.692 77.9513 121.802 78.0419 121.932 78.0944C122.061 78.1468 122.204 78.1587 122.34 78.1285C122.477 78.0982 122.601 78.0272 122.696 77.9249L126.43 73.9729C126.593 73.8017 126.789 73.6653 127.006 73.572C127.224 73.4786 127.458 73.4303 127.694 73.4299H167.354C167.783 73.4286 168.207 73.3426 168.603 73.1769C168.999 73.0113 169.358 72.7692 169.66 72.4644C169.962 72.1597 170.201 71.7984 170.363 71.4013C170.525 71.0041 170.607 70.5788 170.604 70.1499V56.0999C170.607 55.2395 170.27 54.4127 169.667 53.7987C169.065 53.1847 168.244 52.833 167.384 52.8199V52.8189Z" fill="url(#paint18_linear_1_1383)"/>
<path d="M153.9 60.605H127.23C127.023 60.605 126.855 60.437 126.855 60.23C126.855 60.023 127.021 59.85 127.23 59.845H153.9C154.109 59.85 154.275 60.021 154.275 60.23C154.275 60.439 154.107 60.605 153.9 60.605ZM164.865 60.605H155.609C155.402 60.605 155.234 60.437 155.234 60.23C155.234 60.023 155.4 59.85 155.609 59.845H164.865C165.076 59.85 165.245 60.02 165.25 60.23C165.248 60.3304 165.206 60.4259 165.134 60.4961C165.062 60.5662 164.965 60.6053 164.865 60.605ZM164.539 63.994H149.574C149.472 63.994 149.374 63.9534 149.302 63.8812C149.23 63.809 149.189 63.7111 149.189 63.609C149.189 63.559 149.199 63.5095 149.219 63.4634C149.239 63.4174 149.267 63.3757 149.303 63.3408C149.339 63.3059 149.381 63.2785 149.428 63.2602C149.474 63.2418 149.524 63.2329 149.574 63.234H164.539C164.746 63.234 164.914 63.402 164.914 63.609C164.914 63.816 164.748 63.989 164.539 63.994ZM153.11 67.383H127.23C127.14 67.3683 127.058 67.322 126.999 67.2524C126.939 67.1828 126.907 67.0944 126.907 67.003C126.907 66.9116 126.939 66.8232 126.999 66.7536C127.058 66.6839 127.14 66.6377 127.23 66.623H153.111C153.166 66.614 153.222 66.6171 153.276 66.6321C153.33 66.6471 153.38 66.6735 153.422 66.7097C153.465 66.7458 153.499 66.7908 153.522 66.8414C153.546 66.8921 153.558 66.9472 153.558 67.003C153.558 67.0588 153.546 67.1139 153.522 67.1645C153.499 67.2152 153.465 67.2601 153.422 67.2963C153.38 67.3324 153.33 67.3589 153.276 67.3739C153.222 67.3888 153.165 67.3919 153.11 67.383Z" fill="white"/>
<path d="M171.361 56.0264C173.371 54.0164 173.371 50.7575 171.361 48.7475C169.351 46.7374 166.092 46.7375 164.082 48.7475C162.072 50.7575 162.072 54.0164 164.082 56.0264C166.092 58.0365 169.351 58.0365 171.361 56.0264Z" fill="url(#paint19_linear_1_1383)"/>
<path d="M168.303 54.796H167.602V50.518L166.881 50.953V50.222L167.602 49.748H168.303V54.796Z" fill="white"/>
</g>
</g>
<defs>
<linearGradient id="paint0_linear_1_1383" x1="1708.63" y1="8788.18" x2="7265.7" y2="331.252" gradientUnits="userSpaceOnUse">
<stop stop-color="#39466E"/>
<stop offset="0.51" stop-color="#111C36"/>
<stop offset="0.85" stop-color="#33456B"/>
</linearGradient>
<linearGradient id="paint1_linear_1_1383" x1="2120.5" y1="1122.83" x2="6363.79" y2="10774.8" gradientUnits="userSpaceOnUse">
<stop stop-color="#39466E"/>
<stop offset="0.51" stop-color="#111C36"/>
<stop offset="1" stop-color="#33456B"/>
</linearGradient>
<linearGradient id="paint2_linear_1_1383" x1="2022.8" y1="-3488.87" x2="4678.07" y2="-3488.92" gradientUnits="userSpaceOnUse">
<stop stop-color="#99CBDD"/>
<stop offset="0.82" stop-color="#E1E6E5"/>
</linearGradient>
<linearGradient id="paint3_linear_1_1383" x1="122.235" y1="-158.828" x2="5397.82" y2="-159.049" gradientUnits="userSpaceOnUse">
<stop stop-color="#99CBDD"/>
<stop offset="0.82" stop-color="#E1E6E5"/>
</linearGradient>
<linearGradient id="paint4_linear_1_1383" x1="1752.63" y1="-2935.95" x2="3609.09" y2="-2936.01" gradientUnits="userSpaceOnUse">
<stop stop-color="#99CBDD"/>
<stop offset="0.82" stop-color="#E1E6E5"/>
</linearGradient>
<linearGradient id="paint5_linear_1_1383" x1="921.231" y1="732.795" x2="1887.88" y2="4038.91" gradientUnits="userSpaceOnUse">
<stop offset="0.15" stop-color="#193F5C"/>
<stop offset="0.55" stop-color="#163354"/>
</linearGradient>
<linearGradient id="paint6_linear_1_1383" x1="600.638" y1="3243.26" x2="1914.75" y2="2698.98" gradientUnits="userSpaceOnUse">
<stop offset="0.12" stop-color="#DE7F00"/>
<stop offset="0.48" stop-color="#FFAE3D"/>
<stop offset="0.74" stop-color="#FFDA6A"/>
</linearGradient>
<linearGradient id="paint7_linear_1_1383" x1="453.649" y1="3544.54" x2="2811.74" y2="2557.8" gradientUnits="userSpaceOnUse">
<stop offset="0.28" stop-color="#DE7F00"/>
<stop offset="0.48" stop-color="#FFAE3D"/>
<stop offset="0.74" stop-color="#FFDA6A"/>
</linearGradient>
<linearGradient id="paint8_linear_1_1383" x1="-1100.14" y1="1041.57" x2="6228.4" y2="1041.57" gradientUnits="userSpaceOnUse">
<stop stop-color="#663600"/>
<stop offset="0.02" stop-color="#5E3104"/>
<stop offset="0.09" stop-color="#4D260B"/>
<stop offset="0.17" stop-color="#431F10"/>
<stop offset="0.26" stop-color="#401D11"/>
<stop offset="0.49" stop-color="#663600"/>
<stop offset="0.55" stop-color="#5F3300"/>
<stop offset="0.61" stop-color="#512B00"/>
<stop offset="0.69" stop-color="#4A2703"/>
<stop offset="0.8" stop-color="#381B0A"/>
<stop offset="0.84" stop-color="#30160D"/>
</linearGradient>
<linearGradient id="paint9_linear_1_1383" x1="1366.11" y1="828.539" x2="-207.574" y2="3557.89" gradientUnits="userSpaceOnUse">
<stop stop-color="#FCBBA7"/>
<stop offset="0.48" stop-color="#FA9778"/>
<stop offset="0.66" stop-color="#F39071"/>
<stop offset="0.91" stop-color="#E17E5F"/>
<stop offset="1" stop-color="#D97657"/>
</linearGradient>
<linearGradient id="paint10_linear_1_1383" x1="918.008" y1="972.976" x2="1860.24" y2="1961.94" gradientUnits="userSpaceOnUse">
<stop stop-color="#FCBBA7"/>
<stop offset="0.48" stop-color="#FA9778"/>
<stop offset="0.66" stop-color="#F39071"/>
<stop offset="0.91" stop-color="#E17E5F"/>
<stop offset="1" stop-color="#D97657"/>
</linearGradient>
<linearGradient id="paint11_linear_1_1383" x1="-1361.46" y1="2306.89" x2="2466.43" y2="2306.89" gradientUnits="userSpaceOnUse">
<stop offset="0.28" stop-color="#DE7F00"/>
<stop offset="0.48" stop-color="#FFAE3D"/>
<stop offset="0.74" stop-color="#FFDA6A"/>
</linearGradient>
<linearGradient id="paint12_linear_1_1383" x1="91.402" y1="493.892" x2="2011.82" y2="493.892" gradientUnits="userSpaceOnUse">
<stop offset="0.05" stop-color="#3468B5"/>
<stop offset="0.54" stop-color="#94EDFF"/>
</linearGradient>
<linearGradient id="paint13_linear_1_1383" x1="77.928" y1="491.906" x2="876.128" y2="491.906" gradientUnits="userSpaceOnUse">
<stop offset="0.05" stop-color="#C73900"/>
<stop offset="0.77" stop-color="#FF5615"/>
</linearGradient>
<linearGradient id="paint14_linear_1_1383" x1="-49.7133" y1="-238.532" x2="1911.8" y2="-238.67" gradientUnits="userSpaceOnUse">
<stop offset="0.05" stop-color="#3468B5"/>
<stop offset="0.54" stop-color="#94EDFF"/>
</linearGradient>
<linearGradient id="paint15_linear_1_1383" x1="-852.997" y1="2156.86" x2="6938.97" y2="-1360.6" gradientUnits="userSpaceOnUse">
<stop stop-color="#8CEDB1"/>
<stop offset="0.02" stop-color="#90ECB0"/>
<stop offset="0.3" stop-color="#BBE3A1"/>
<stop offset="0.41" stop-color="#D4EAB5"/>
<stop offset="0.54" stop-color="#EBF0C6"/>
<stop offset="0.63" stop-color="#F3F2CD"/>
</linearGradient>
<linearGradient id="paint16_linear_1_1383" x1="58.2836" y1="1008.15" x2="6707.93" y2="777.229" gradientUnits="userSpaceOnUse">
<stop offset="0.01" stop-color="#B4E1DD"/>
<stop offset="0.86" stop-color="#F3F4E5"/>
</linearGradient>
<linearGradient id="paint17_linear_1_1383" x1="-276.677" y1="781.669" x2="6369.72" y2="550.612" gradientUnits="userSpaceOnUse">
<stop stop-color="#F28A00"/>
<stop offset="0.04" stop-color="#F88B10"/>
<stop offset="0.09" stop-color="#FD8D1D"/>
<stop offset="0.14" stop-color="#FF8D21"/>
<stop offset="0.32" stop-color="#FC821D"/>
<stop offset="0.64" stop-color="#F46411"/>
<stop offset="1" stop-color="#E83A00"/>
</linearGradient>
<linearGradient id="paint18_linear_1_1383" x1="1417.48" y1="1609.91" x2="3289.9" y2="-505.225" gradientUnits="userSpaceOnUse">
<stop offset="0.02" stop-color="#B4CBDD"/>
<stop offset="0.6" stop-color="#C1E6DE"/>
</linearGradient>
<linearGradient id="paint19_linear_1_1383" x1="-758.555" y1="52.7076" x2="1263.7" y2="52.7083" gradientUnits="userSpaceOnUse">
<stop stop-color="#DE7F00"/>
<stop offset="0.52" stop-color="#FFAE3D"/>
<stop offset="1" stop-color="#FFDA6A"/>
</linearGradient>
<clipPath id="clip0_1_1383">
<rect width="175" height="131" fill="white" transform="translate(0 0.919922)"/>
</clipPath>
<clipPath id="clip1_1_1383">
<rect width="175" height="131" fill="white" transform="translate(0 0.919922)"/>
</clipPath>
</defs>
</svg>
