<svg width="175" height="132" viewBox="0 0 175 132" fill="none" xmlns="http://www.w3.org/2000/svg">
<g clip-path="url(#clip0_1_1752)">
<g clip-path="url(#clip1_1_1752)">
<path d="M135.349 0.919922H29.698C21.387 0.919922 14.649 6.82292 14.649 14.0899V110.413C14.649 112.613 17.702 113.689 19.442 112.112L34.333 98.5429C35.737 97.32 37.5433 96.659 39.405 96.6869L135.312 96.5379C142.488 96.5379 148.342 91.4419 148.342 85.1589V12.2989C148.351 6.02492 142.525 0.919922 135.349 0.919922Z" fill="url(#paint0_linear_1_1752)"/>
<path d="M101.407 9.0789C111.821 14.2299 113.227 28.9879 111.207 49.8059C110.9 52.9619 82.924 57.2309 70.173 46.8549C68.107 45.1749 72.77 19.8179 78.549 12.7089C85.688 3.8899 94.995 5.8859 101.407 9.0789Z" fill="url(#paint1_linear_1_1752)"/>
<path d="M101.659 9.30102C107.094 12.317 110.38 17.803 111.636 23.65C112.449 27.9873 112.919 32.3819 113.041 36.793C113.381 40.9992 113.184 45.2316 112.455 49.388C112.44 49.44 112.393 49.476 112.339 49.476C112.285 49.476 112.238 49.44 112.223 49.388C112.767 41.5059 112.415 33.5874 111.171 25.785C110.184 19.288 107.123 13.301 101.455 9.54202C101.241 9.37502 101.426 9.17102 101.659 9.30102Z" fill="url(#paint2_linear_1_1752)"/>
<path d="M73.533 19.6778C74.6399 16.4974 76.5297 13.6468 79.0281 11.3889C81.5265 9.13094 84.5532 7.53831 87.829 6.75781C87.829 6.75781 87.894 6.82281 87.829 6.83181C80.235 9.21681 75.73 14.5258 73.385 21.7288C70.863 29.5628 69.532 37.5818 68.35 45.6658C68.3416 45.6976 68.3229 45.7256 68.2968 45.7457C68.2708 45.7657 68.2389 45.7765 68.206 45.7765C68.1732 45.7765 68.1412 45.7657 68.1152 45.7457C68.0891 45.7256 68.0705 45.6976 68.062 45.6658C68.6732 36.7915 70.5138 28.0451 73.533 19.6778Z" fill="url(#paint3_linear_1_1752)"/>
<path d="M109.327 88.1469L100.951 89.9199L98.913 79.3479L100.244 70.2339L100.458 68.7489L102.626 53.8989C104.021 53.9758 105.41 54.1337 106.786 54.3719L107.596 54.5109" fill="url(#paint4_linear_1_1752)"/>
<path d="M63.1 79.534L72.472 83.441L76.381 73.009L76.809 71.84L77.386 70.309L82.616 52.526V52.47L79.172 52.581H78.241L75.393 52.674C75.393 52.674 64.709 57.426 62.736 64.294C61.5273 68.5094 60.1045 72.6605 58.473 76.731L63.126 79.515" fill="url(#paint5_linear_1_1752)"/>
<path d="M65.213 98.579L67.074 110.088H108.415C109.597 98.792 112.789 70.345 112.231 64.683C112.069 61.8779 111.588 59.1003 110.798 56.404L110.742 56.246C110.709 56.1459 110.655 56.0537 110.585 55.9754C110.514 55.8971 110.428 55.8343 110.332 55.791L110.22 55.745H110.118C109.867 55.244 107.391 54.696 103.938 54.204L102.551 54.009C96.4249 53.2098 90.2618 52.7265 84.086 52.561H81.173C79.926 52.626 79.153 52.774 79.042 53.025C78.516 53.2105 78.0132 53.4565 77.544 53.758C76.625 54.3326 75.823 55.0756 75.18 55.948L73.728 57.944C72.425 59.726 69.344 64.441 66.283 69.23C66.283 69.23 62.718 72.943 65.138 98.569" fill="url(#paint6_linear_1_1752)"/>
<path d="M79.75 66.4009C79.87 63.4729 80.364 60.5719 81.22 57.7689C81.834 55.8009 82.486 53.7409 84.17 52.5159L86.711 52.5899L86.879 50.2229L87.465 41.8049L87.651 39.2429L100.82 39.5589L99.889 53.3139V53.6299L102.607 53.9549L102.421 54.5489C101.345 57.9959 99.8545 61.2994 97.982 64.3869C96.096 67.4911 93.4335 70.0502 90.257 71.8119C88.6145 72.7395 86.7431 73.1836 84.859 73.0929C83.9186 73.0386 83.0073 72.7471 82.21 72.2456C81.4127 71.7442 80.7552 71.049 80.299 70.2249C79.8126 69.0126 79.6243 67.7012 79.75 66.4009Z" fill="url(#paint7_linear_1_1752)"/>
<path opacity="0.22" d="M86.498 55.6989C86.5003 55.7235 86.5003 55.7483 86.498 55.7729C99.872 55.5409 98.941 39.7529 98.941 39.7529L87.466 41.8039L86.88 50.2219L86.498 55.6989Z" fill="#A3452F"/>
<path d="M76.502 31.5859L77.051 25.1629C77.172 22.0719 78.912 18.9349 80.681 16.3089C81.7717 14.6259 83.1517 13.1491 84.757 11.9469C87.0507 10.4085 89.6775 9.43784 92.4205 9.11512C95.1635 8.79239 97.9438 9.12688 100.532 10.0909C107.447 12.8199 108.285 19.7159 106.544 25.9619C110.9 23.6969 111.197 29.3029 111.197 29.3029C111.513 34.8719 106.022 34.9929 106.022 34.9929C105.086 38.2812 103.338 41.2814 100.94 43.7179C98.4227 46.249 95.435 48.2637 92.145 49.6489C89.7683 50.5591 87.1522 50.6311 84.729 49.8531C82.3058 49.0751 80.2206 47.4936 78.818 45.3699C76.6098 41.8486 75.7137 37.6616 76.287 33.5449C76.38 32.9419 76.427 32.2359 76.501 31.5869L76.502 31.5859Z" fill="url(#paint8_linear_1_1752)"/>
<path d="M109.057 31.7718C108.718 34.9377 107.294 37.8888 105.027 40.1248C102.76 42.3229 99.7987 43.6648 96.651 43.9208C95.086 44.0478 93.511 43.9008 91.998 43.4848V43.4288C91.9752 43.2285 91.9007 43.0375 91.7816 42.8748C91.6625 42.712 91.5031 42.5831 91.319 42.5008C91.1106 42.4255 90.8957 42.3696 90.677 42.3338L89.979 42.1668C89.7866 42.0954 89.5794 42.0733 89.3763 42.1025C89.1731 42.1316 88.9805 42.2112 88.816 42.3338C88.5643 42.5869 88.3955 42.9106 88.332 43.2618C88.254 43.5993 88.2351 43.9478 88.276 44.2918C88.3048 44.4926 88.3927 44.6802 88.5286 44.8307C88.6645 44.9812 88.8422 45.0878 89.039 45.1368C89.487 45.2552 89.9405 45.3514 90.398 45.4248C90.863 45.5518 91.359 45.3868 91.654 45.0068C91.8192 44.7611 91.8977 44.4672 91.877 44.1718C94.85 44.9348 97.989 44.7458 100.849 43.6338C103.949 42.3863 106.509 40.0858 108.08 37.1368C108.984 35.4789 109.553 33.6594 109.755 31.7818C109.744 31.6981 109.703 31.6213 109.639 31.5653C109.576 31.5093 109.495 31.4778 109.41 31.4766C109.326 31.4754 109.244 31.5045 109.179 31.5587C109.114 31.6129 109.071 31.6885 109.057 31.7718Z" fill="url(#paint9_linear_1_1752)"/>
<path d="M93.078 25.265C93.078 25.265 91.756 25.571 92.389 26.731C93.022 27.891 95.516 26.202 97.731 28.197C97.731 28.197 98.159 25.163 93.078 25.265ZM84.124 24.866C84.124 24.866 85.473 24.987 85.055 26.221C84.637 27.455 81.872 26.137 79.964 28.43C79.927 28.43 79.071 25.516 84.124 24.866ZM88.368 34.797C88.9407 34.7908 89.5032 34.6442 90.006 34.37C90.0499 34.3494 90.089 34.3201 90.121 34.2837C90.153 34.2474 90.1772 34.2048 90.192 34.1587C90.2068 34.1126 90.2119 34.0639 90.207 34.0157C90.2021 33.9676 90.1874 33.9209 90.1636 33.8787C90.1399 33.8365 90.1077 33.7996 90.0691 33.7704C90.0305 33.7412 89.9862 33.7202 89.9391 33.7089C89.8921 33.6976 89.8431 33.6961 89.7955 33.7045C89.7478 33.713 89.7023 33.7312 89.662 33.758C89.2162 33.9953 88.7144 34.1076 88.21 34.083L89.336 30.723C89.3573 30.6365 89.3452 30.5451 89.3021 30.4671C89.2591 30.3892 89.1882 30.3303 89.1036 30.3023C89.019 30.2743 88.927 30.2791 88.8459 30.316C88.7648 30.3528 88.7006 30.4189 88.666 30.501L87.391 34.241C87.3552 34.3336 87.3552 34.4363 87.391 34.529C87.4163 34.5722 87.4499 34.61 87.4899 34.6402C87.5299 34.6704 87.5755 34.6924 87.624 34.705C87.8689 34.7593 88.1183 34.7904 88.369 34.798L88.368 34.797ZM93.022 32.449C93.022 33.303 93.432 33.999 93.953 33.999C94.474 33.999 94.819 33.284 94.809 32.421C94.799 31.558 94.399 30.871 93.878 30.88C93.357 30.889 93.012 31.585 93.022 32.449ZM84.478 32.542C84.478 33.405 84.888 34.101 85.409 34.092C85.93 34.083 86.275 33.387 86.265 32.523C86.255 31.659 85.855 30.973 85.334 30.973C84.813 30.973 84.468 31.688 84.478 32.542Z" fill="#45240C"/>
<path opacity="0.65" d="M100.942 35.2989C101.212 36.2269 100.123 37.3869 98.513 37.8509C96.903 38.3149 95.367 37.9069 95.097 36.9229C94.827 35.9389 95.916 34.8349 97.526 34.3799C99.136 33.9249 100.672 34.3519 100.942 35.2989ZM83.827 35.5769C83.622 36.4119 82.31 36.8109 80.886 36.4589C79.462 36.1069 78.485 35.1599 78.69 34.3239C78.895 33.4879 80.207 33.0989 81.631 33.3959C83.055 33.6929 84.069 34.7969 83.827 35.5769Z" fill="#FA6E64"/>
<path d="M90.686 37.211C90.6129 37.0857 90.4993 36.9889 90.364 36.9366C90.2286 36.8842 90.0794 36.8795 89.941 36.923C89.0231 37.1861 88.0453 37.1504 87.149 36.821C87.008 36.78 86.857 36.808 86.739 36.895C86.621 36.982 86.553 37.12 86.553 37.266C86.553 37.934 86.814 39.122 88.582 39.122C90.778 39.215 91.067 37.878 90.685 37.21L90.686 37.211Z" fill="white"/>
<path d="M77.079 25.1449C78.726 25.7389 84.86 23.2889 88.415 15.8079C88.415 15.8079 84.748 22.3049 83.762 23.0479C82.776 23.7909 87.196 21.6369 90.156 15.6789C90.2828 17.513 91.0502 19.2442 92.324 20.5699C93.996 22.2179 95.8952 23.6181 97.964 24.7279C96.252 22.2779 96.382 21.0149 95.805 19.2149C95.805 19.2149 102.636 35.5039 110.975 38.1959C111.412 38.3349 113.683 21.3039 106.07 13.4699C101.091 8.34486 91.793 6.62786 88.387 7.83486C86.8827 7.77429 85.3841 8.05416 84.003 8.65361C82.622 9.25306 81.3941 10.1566 80.411 11.2969C76.698 15.4269 75.302 24.5139 77.079 25.1449Z" fill="url(#paint10_linear_1_1752)"/>
<path d="M57.181 97.493C48.274 94.366 37.497 60.693 37.497 60.693C34.072 60.22 31.708 54.92 32.639 52.433C33.57 49.946 37.404 49.082 37.404 49.082C37.433 46.628 37.591 44.178 37.879 41.74C38.307 38.761 40.234 39.698 40.289 40.997C40.344 42.296 39.963 49.471 39.963 49.471L41.871 41.582C42.42 39.568 44.281 39.948 44.123 41.898C43.965 43.848 43.006 50.363 43.006 50.363C46.031 51.932 43.546 57.426 43.546 57.426C43.546 57.426 52.853 73.065 57.953 79.107C59.126 80.481 58.223 79.905 58.8 79.989L59.126 77.047C59.126 77.047 64.04 80.073 64.533 80.026C64.4523 86.2219 64.6916 92.4178 65.25 98.589L57.181 97.493Z" fill="url(#paint11_linear_1_1752)"/>
<path opacity="0.43" d="M42.504 53.8708C42.5248 53.8685 42.5448 53.862 42.5631 53.8519C42.5814 53.8418 42.5975 53.8282 42.6105 53.8118C42.6235 53.7955 42.6331 53.7767 42.6389 53.7567C42.6446 53.7366 42.6464 53.7156 42.644 53.6948C42.639 53.6528 42.614 53.6148 42.579 53.5908C42.544 53.5668 42.5 53.5568 42.458 53.5648C41.0337 53.7926 39.5904 53.8796 38.149 53.8248C37.9238 53.7843 37.7178 53.672 37.5617 53.5048C37.4057 53.3375 37.3079 53.1243 37.283 52.8968C37.3157 52.4736 37.4753 52.07 37.7409 51.7389C38.0066 51.4078 38.3659 51.1645 38.772 51.0408C40.142 50.6398 41.572 50.4828 42.997 50.5768C43.04 50.5818 43.082 50.5688 43.115 50.5408C43.148 50.5128 43.165 50.4718 43.165 50.4288C43.165 50.3858 43.153 50.3458 43.125 50.3148C43.097 50.2838 43.058 50.2648 43.016 50.2618C41.767 50.2058 40.516 50.3088 39.293 50.5678C39.2186 50.0679 38.9596 49.6141 38.567 49.2958C38.2243 49.0442 37.7976 48.9346 37.376 48.9898C37.3414 48.9978 37.3105 49.0173 37.2884 49.0451C37.2663 49.0728 37.2542 49.1073 37.2542 49.1428C37.2542 49.1784 37.2663 49.2128 37.2884 49.2406C37.3105 49.2684 37.3414 49.2879 37.376 49.2958C37.707 49.2738 38.035 49.3658 38.307 49.5558C38.643 49.8328 38.86 50.2288 38.912 50.6598L38.568 50.7808C38.0859 50.9803 37.6629 51.2998 37.339 51.7088C37.1769 51.267 36.929 50.8617 36.6096 50.516C36.2902 50.1704 35.9056 49.8913 35.478 49.6948C35.4383 49.6795 35.3943 49.6796 35.3547 49.6952C35.315 49.7107 35.2827 49.7406 35.264 49.7788C35.246 49.8168 35.244 49.8608 35.26 49.8998C35.276 49.9388 35.308 49.9688 35.347 49.9838C35.77 50.1848 36.143 50.4773 36.4391 50.8402C36.7352 51.203 36.9469 51.6271 37.059 52.0818C36.9037 52.3656 36.8297 52.6867 36.845 53.0098C36.895 53.5448 37.262 53.9988 37.776 54.1608H37.869C38.037 54.7548 38.306 56.2028 37.869 56.7878C37.8109 56.8719 37.7306 56.9382 37.637 56.9792C37.5434 57.0201 37.4402 57.0342 37.339 57.0198C37.069 57.0198 36.101 56.6388 34.966 53.7618C34.9561 53.7357 34.9395 53.7127 34.918 53.695C34.8964 53.6772 34.8705 53.6655 34.843 53.6608C34.8154 53.6564 34.7872 53.6592 34.761 53.669C34.7349 53.6788 34.7118 53.6953 34.694 53.7168C34.6765 53.7384 34.6649 53.7641 34.6604 53.7914C34.6558 53.8187 34.6584 53.8468 34.668 53.8728C35.413 55.7288 36.278 56.9818 37.06 57.2698C37.1355 57.2987 37.2135 57.3205 37.293 57.3348C37.4497 57.3567 37.6093 57.3344 37.754 57.2704C37.8987 57.2065 38.0227 57.1034 38.112 56.9728L38.326 57.0748C38.675 57.2048 39.064 57.1638 39.378 56.9638C40.104 56.5088 40.253 55.1078 40.132 54.1798C40.681 54.1798 41.221 54.0688 41.64 54.0218V55.4138C41.6396 55.4473 41.649 55.4801 41.6672 55.5082C41.6853 55.5363 41.7113 55.5585 41.742 55.5718H41.798C41.839 55.569 41.8776 55.5515 41.9066 55.5224C41.9357 55.4934 41.9532 55.4548 41.956 55.4138V53.9748L42.505 53.8728L42.504 53.8708ZM39.321 56.6548C39.1818 56.743 39.0203 56.7898 38.8555 56.7898C38.6907 56.7898 38.5292 56.743 38.39 56.6548C38.5854 55.8439 38.5661 54.996 38.334 54.1948C38.8667 54.2404 39.4023 54.2404 39.935 54.1948C40.084 55.1138 39.861 56.2928 39.321 56.6268V56.6548Z" fill="#D5734E"/>
<path d="M108.76 67.8299C108.76 67.8299 108.834 66.5859 114.474 71.7469C121.426 78.1049 118.085 113.291 118.085 113.291C121.045 115.073 121.119 120.865 119.304 122.777C117.489 124.689 113.608 123.993 113.608 123.993C112.615 126.238 111.503 128.428 110.276 130.555C108.712 133.135 107.307 131.483 107.772 130.295C108.237 129.107 111.402 122.638 111.402 122.638L106.544 129.135C105.241 130.759 103.687 129.701 104.599 127.975C105.511 126.249 108.955 120.615 108.955 120.615C106.796 117.998 111.244 113.923 111.244 113.923C111.244 113.923 107.661 86.7469 104.962 85.1509L108.759 67.8319L108.76 67.8299Z" fill="url(#paint12_linear_1_1752)"/>
<path d="M108.086 54C108.086 54 116.183 55.169 119.059 65.37C122.009 75.839 123.982 81.408 123.982 81.408C123.982 81.408 114.954 87.905 105.601 86.671C105.601 86.671 102.167 68.433 103.191 62.326C104.094 56.906 104.838 54.102 108.086 54Z" fill="url(#paint13_linear_1_1752)"/>
<path d="M129.007 60.4507H161.097C162.148 60.4507 163 59.5987 163 58.5477V47.1697C163 46.1187 162.148 45.2667 161.097 45.2667H129.007C127.956 45.2667 127.104 46.1187 127.104 47.1697V58.5477C127.104 59.5987 127.956 60.4507 129.007 60.4507Z" fill="url(#paint14_linear_1_1752)"/>
<path d="M148.695 50.4359H142.636C142.582 50.4459 142.526 50.4399 142.476 50.4186C142.426 50.3972 142.382 50.3615 142.352 50.3159C142.322 50.2703 142.306 50.217 142.306 50.1624C142.306 50.1079 142.322 50.0546 142.352 50.0089C142.382 49.9633 142.426 49.9277 142.476 49.9063C142.526 49.885 142.582 49.879 142.636 49.8889H148.695C148.749 49.879 148.805 49.885 148.855 49.9063C148.905 49.9277 148.949 49.9633 148.979 50.0089C149.009 50.0546 149.025 50.1079 149.025 50.1624C149.025 50.217 149.009 50.2703 148.979 50.3159C148.949 50.3615 148.905 50.3972 148.855 50.4186C148.805 50.4399 148.749 50.4459 148.695 50.4359ZM155.676 50.4359H150.278C150.224 50.4459 150.168 50.4399 150.118 50.4186C150.068 50.3972 150.024 50.3615 149.994 50.3159C149.964 50.2703 149.948 50.217 149.948 50.1624C149.948 50.1079 149.964 50.0546 149.994 50.0089C150.024 49.9633 150.068 49.9277 150.118 49.9063C150.168 49.885 150.224 49.879 150.278 49.8889H155.676C155.73 49.879 155.786 49.885 155.836 49.9063C155.886 49.9277 155.93 49.9633 155.96 50.0089C155.99 50.0546 156.006 50.1079 156.006 50.1624C156.006 50.217 155.99 50.2703 155.96 50.3159C155.93 50.3615 155.886 50.3972 155.836 50.4186C155.786 50.4399 155.73 50.4459 155.676 50.4359ZM148.044 55.8199H142.637C142.583 55.8299 142.527 55.8239 142.477 55.8026C142.427 55.7812 142.383 55.7455 142.353 55.6999C142.323 55.6543 142.307 55.601 142.307 55.5464C142.307 55.4919 142.323 55.4386 142.353 55.3929C142.383 55.3473 142.427 55.3117 142.477 55.2903C142.527 55.269 142.583 55.263 142.637 55.2729H148.044C148.108 55.285 148.166 55.319 148.207 55.369C148.249 55.419 148.272 55.4819 148.272 55.5469C148.272 55.612 148.249 55.6749 148.207 55.7249C148.166 55.7749 148.108 55.8079 148.044 55.8199ZM153.153 52.9799H147.746C147.682 52.9679 147.624 52.9339 147.583 52.8839C147.541 52.8339 147.518 52.771 147.518 52.7059C147.518 52.6409 147.541 52.578 147.583 52.528C147.624 52.478 147.682 52.444 147.746 52.4319H153.153C153.207 52.422 153.263 52.428 153.313 52.4493C153.363 52.4707 153.407 52.5063 153.437 52.5519C153.467 52.5976 153.483 52.6509 153.483 52.7054C153.483 52.76 153.467 52.8133 153.437 52.8589C153.407 52.9045 153.363 52.9402 153.313 52.9616C153.263 52.9829 153.207 52.9889 153.153 52.9789V52.9799ZM146.183 52.9799H142.637C142.583 52.9899 142.527 52.9839 142.477 52.9626C142.427 52.9412 142.383 52.9055 142.353 52.8599C142.323 52.8143 142.307 52.761 142.307 52.7064C142.307 52.6519 142.323 52.5986 142.353 52.5529C142.383 52.5073 142.427 52.4717 142.477 52.4503C142.527 52.429 142.583 52.423 142.637 52.4329H146.183C146.237 52.423 146.293 52.429 146.343 52.4503C146.393 52.4717 146.437 52.5073 146.467 52.5529C146.497 52.5986 146.513 52.6519 146.513 52.7064C146.513 52.761 146.497 52.8143 146.467 52.8599C146.437 52.9055 146.393 52.9412 146.343 52.9626C146.293 52.9839 146.237 52.9899 146.183 52.9799ZM151.878 55.8199H149.7C149.636 55.8079 149.578 55.7739 149.537 55.7239C149.495 55.6739 149.472 55.611 149.472 55.5459C149.472 55.4809 149.495 55.418 149.537 55.368C149.578 55.318 149.636 55.284 149.7 55.2719H151.878C151.932 55.262 151.988 55.268 152.038 55.2893C152.088 55.3107 152.132 55.3463 152.162 55.3919C152.192 55.4376 152.208 55.4909 152.208 55.5454C152.208 55.6 152.192 55.6533 152.162 55.6989C152.132 55.7445 152.088 55.7802 152.038 55.8016C151.988 55.8229 151.932 55.8289 151.878 55.8189V55.8199ZM138.56 49.3879C137.75 48.848 136.778 48.6057 135.81 48.7021C134.841 48.7986 133.936 49.2279 133.249 49.9169C132.563 50.605 132.138 51.5104 132.048 52.4776C131.957 53.4448 132.206 54.4134 132.752 55.2169C133.025 55.6931 133.42 56.0874 133.897 56.3589C134.703 56.8592 135.655 57.0719 136.598 56.9626C137.541 56.8533 138.418 56.4284 139.089 55.7569C139.758 55.0866 140.179 54.2091 140.284 53.2681C140.389 52.327 140.172 51.3782 139.667 50.5769C139.411 50.0886 139.028 49.6783 138.559 49.3889L138.56 49.3879ZM136.326 56.1449C134.976 56.2049 133.723 55.4449 133.155 54.2219C132.587 52.9989 132.816 51.5549 133.735 50.5669C134.185 50.0835 134.768 49.7444 135.411 49.5924C136.054 49.4403 136.727 49.4823 137.346 49.7129C137.964 49.9425 138.501 50.3512 138.886 50.8868C139.271 51.4223 139.488 52.0605 139.509 52.7199C139.526 53.1536 139.457 53.5864 139.306 53.9934C139.156 54.4004 138.926 54.7737 138.631 55.0919C138.335 55.4107 137.979 55.6678 137.584 55.8485C137.188 56.0292 136.761 56.13 136.326 56.1449ZM136.14 50.8449C136.12 50.8449 136.099 50.8491 136.081 50.8572C136.062 50.8653 136.045 50.8771 136.031 50.8919C136.017 50.9068 136.007 50.9243 136 50.9433C135.993 50.9624 135.99 50.9827 135.991 51.0029L136.047 52.9429C136.065 53.0179 136.132 53.0709 136.21 53.0709C136.288 53.0709 136.355 53.0179 136.373 52.9429L136.308 51.0029C136.308 50.9814 136.303 50.9601 136.295 50.9403C136.286 50.9206 136.274 50.9028 136.258 50.8879C136.242 50.8732 136.224 50.8618 136.203 50.8544C136.183 50.847 136.162 50.8438 136.14 50.8449Z" fill="white"/>
<path d="M136.066 52.9049C136.065 52.8847 136.068 52.8644 136.075 52.8453C136.082 52.8262 136.093 52.8088 136.107 52.794C136.121 52.7792 136.137 52.7675 136.156 52.7594C136.175 52.7513 136.195 52.747 136.215 52.7469L137.713 52.7009C137.754 52.7011 137.794 52.7163 137.825 52.7437C137.856 52.7712 137.876 52.8089 137.881 52.8499C137.881 52.8927 137.865 52.9339 137.835 52.9649C137.806 52.996 137.766 53.0146 137.723 53.0169H136.225C136.19 53.0182 136.156 53.008 136.127 52.9879C136.099 52.9679 136.078 52.9391 136.067 52.9059L136.066 52.9049Z" fill="white"/>
<path d="M9.558 20.717H37.832C38.5066 20.6755 39.1704 20.9017 39.6792 21.3465C40.1881 21.7913 40.501 22.4189 40.55 23.093V36.143C40.539 36.2378 40.5015 36.3277 40.4419 36.4023C40.3824 36.4769 40.303 36.5333 40.213 36.565C40.1231 36.5972 40.0259 36.6035 39.9325 36.5832C39.8392 36.5629 39.7534 36.5167 39.685 36.45L36.986 34C36.731 33.7708 36.3978 33.648 36.055 33.657H9.549C8.96503 33.696 8.38937 33.5022 7.94802 33.1178C7.50666 32.7334 7.23554 32.1898 7.194 31.606V22.733C7.24474 22.1542 7.5211 21.6185 7.9634 21.2417C8.4057 20.8649 8.97846 20.6771 9.558 20.719V20.717Z" fill="url(#paint15_linear_1_1752)"/>
<path d="M25.864 25.6919H32.556C32.602 25.6955 32.6483 25.6895 32.6919 25.6744C32.7355 25.6592 32.7755 25.6352 32.8094 25.6038C32.8433 25.5724 32.8703 25.5344 32.8888 25.4921C32.9073 25.4498 32.9169 25.4041 32.9169 25.3579C32.9169 25.3118 32.9073 25.2661 32.8888 25.2238C32.8703 25.1815 32.8433 25.1435 32.8094 25.1121C32.7755 25.0807 32.7355 25.0567 32.6919 25.0415C32.6483 25.0264 32.602 25.0204 32.556 25.0239H25.864C25.818 25.0204 25.7717 25.0264 25.7281 25.0415C25.6845 25.0567 25.6445 25.0807 25.6106 25.1121C25.5767 25.1435 25.5497 25.1815 25.5312 25.2238C25.5127 25.2661 25.5031 25.3118 25.5031 25.3579C25.5031 25.4041 25.5127 25.4498 25.5312 25.4921C25.5497 25.5344 25.5767 25.5724 25.6106 25.6038C25.6445 25.6352 25.6845 25.6592 25.7281 25.6744C25.7717 25.6895 25.818 25.6955 25.864 25.6919ZM21.471 27.8079H32.323C32.3706 27.8154 32.4193 27.8124 32.4657 27.7993C32.5121 27.7861 32.5551 27.763 32.5917 27.7317C32.6284 27.7003 32.6578 27.6614 32.6779 27.6176C32.6981 27.5738 32.7085 27.5262 32.7085 27.4779C32.7085 27.4297 32.6981 27.3821 32.6779 27.3383C32.6578 27.2945 32.6284 27.2556 32.5917 27.2242C32.5551 27.1929 32.5121 27.1698 32.4657 27.1566C32.4193 27.1435 32.3706 27.1405 32.323 27.1479H21.471C21.3936 27.1615 21.3234 27.2019 21.2729 27.2621C21.2223 27.3223 21.1946 27.3984 21.1946 27.4769C21.1946 27.5555 21.2223 27.6316 21.2729 27.6918C21.3234 27.752 21.3936 27.7924 21.471 27.8059V27.8079Z" fill="white"/>
<path d="M12.276 25.6919H24.319C24.365 25.6955 24.4113 25.6895 24.4549 25.6744C24.4985 25.6592 24.5385 25.6352 24.5724 25.6038C24.6063 25.5724 24.6333 25.5344 24.6518 25.4921C24.6703 25.4498 24.6799 25.4041 24.6799 25.3579C24.6799 25.3118 24.6703 25.2661 24.6518 25.2238C24.6333 25.1815 24.6063 25.1435 24.5724 25.1121C24.5385 25.0807 24.4985 25.0567 24.4549 25.0415C24.4113 25.0264 24.365 25.0204 24.319 25.0239H12.276C12.23 25.0204 12.1837 25.0264 12.1401 25.0415C12.0965 25.0567 12.0565 25.0807 12.0226 25.1121C11.9887 25.1435 11.9617 25.1815 11.9432 25.2238C11.9247 25.2661 11.9151 25.3118 11.9151 25.3579C11.9151 25.4041 11.9247 25.4498 11.9432 25.4921C11.9617 25.5344 11.9887 25.5724 12.0226 25.6038C12.0565 25.6352 12.0965 25.6592 12.1401 25.6744C12.1837 25.6895 12.23 25.6955 12.276 25.6919ZM21.303 27.8079H33.402C33.4861 27.8014 33.5647 27.7634 33.622 27.7015C33.6793 27.6396 33.7111 27.5583 33.7111 27.4739C33.7111 27.3896 33.6793 27.3083 33.622 27.2464C33.5647 27.1845 33.4861 27.1465 33.402 27.1399H21.303C21.2143 27.1399 21.1293 27.1751 21.0665 27.2377C21.0037 27.3003 20.9683 27.3853 20.968 27.4739C20.9696 27.5622 21.0054 27.6464 21.0679 27.7088C21.1304 27.7711 21.2147 27.8067 21.303 27.8079ZM12.276 27.8079H19.47C19.5177 27.8154 19.5663 27.8124 19.6127 27.7993C19.6591 27.7861 19.7021 27.763 19.7387 27.7317C19.7754 27.7003 19.8048 27.6614 19.8249 27.6176C19.8451 27.5738 19.8555 27.5262 19.8555 27.4779C19.8555 27.4297 19.8451 27.3821 19.8249 27.3383C19.8048 27.2945 19.7754 27.2556 19.7387 27.2242C19.7021 27.1929 19.6591 27.1698 19.6127 27.1566C19.5663 27.1435 19.5177 27.1405 19.47 27.1479H12.276C12.2284 27.1405 12.1797 27.1435 12.1333 27.1566C12.0869 27.1698 12.0439 27.1929 12.0073 27.2242C11.9706 27.2556 11.9412 27.2945 11.9211 27.3383C11.9009 27.3821 11.8905 27.4297 11.8905 27.4779C11.8905 27.5262 11.9009 27.5738 11.9211 27.6176C11.9412 27.6614 11.9706 27.7003 12.0073 27.7317C12.0439 27.763 12.0869 27.7861 12.1333 27.7993C12.1797 27.8124 12.2284 27.8154 12.276 27.8079ZM25.873 25.7009H33.067C33.113 25.7045 33.1593 25.6985 33.2029 25.6834C33.2465 25.6682 33.2865 25.6442 33.3204 25.6128C33.3543 25.5814 33.3813 25.5434 33.3998 25.5011C33.4183 25.4588 33.4279 25.4131 33.4279 25.3669C33.4279 25.3208 33.4183 25.2751 33.3998 25.2328C33.3813 25.1905 33.3543 25.1525 33.3204 25.1211C33.2865 25.0897 33.2465 25.0657 33.2029 25.0505C33.1593 25.0354 33.113 25.0294 33.067 25.033H25.873C25.827 25.0294 25.7807 25.0354 25.7371 25.0505C25.6935 25.0657 25.6535 25.0897 25.6196 25.1211C25.5857 25.1525 25.5587 25.1905 25.5402 25.2328C25.5217 25.2751 25.5121 25.3208 25.5121 25.3669C25.5121 25.4131 25.5217 25.4588 25.5402 25.5011C25.5587 25.5434 25.5857 25.5814 25.6196 25.6128C25.6535 25.6442 25.6935 25.6682 25.7371 25.6834C25.7807 25.6985 25.827 25.7045 25.873 25.7009ZM12.276 29.9339H23.742C23.788 29.9375 23.8343 29.9315 23.8779 29.9164C23.9215 29.9012 23.9615 29.8772 23.9954 29.8458C24.0293 29.8144 24.0563 29.7764 24.0748 29.7341C24.0933 29.6918 24.1029 29.6461 24.1029 29.5999C24.1029 29.5538 24.0933 29.5081 24.0748 29.4658C24.0563 29.4235 24.0293 29.3855 23.9954 29.3541C23.9615 29.3227 23.9215 29.2987 23.8779 29.2835C23.8343 29.2684 23.788 29.2624 23.742 29.2659H12.276C12.23 29.2624 12.1837 29.2684 12.1401 29.2835C12.0965 29.2987 12.0565 29.3227 12.0226 29.3541C11.9887 29.3855 11.9617 29.4235 11.9432 29.4658C11.9247 29.5081 11.9151 29.5538 11.9151 29.5999C11.9151 29.6461 11.9247 29.6918 11.9432 29.7341C11.9617 29.7764 11.9887 29.8144 12.0226 29.8458C12.0565 29.8772 12.0965 29.9012 12.1401 29.9164C12.1837 29.9315 12.23 29.9375 12.276 29.9339Z" fill="white"/>
<path d="M24.161 73.779H1.74C1.30507 73.7533 0.877692 73.901 0.551529 74.1899C0.225367 74.4788 0.027033 74.8852 0 75.32L0 83.673C0.007835 83.7328 0.032041 83.7892 0.0699438 83.8361C0.107846 83.883 0.157971 83.9185 0.214778 83.9386C0.271585 83.9588 0.332865 83.9629 0.391847 83.9504C0.450828 83.938 0.505216 83.9094 0.549 83.868L2.28 82.3C2.43528 82.1501 2.64124 82.0641 2.857 82.059H24.16C24.5328 82.0804 24.8991 81.9541 25.1795 81.7074C25.4599 81.4607 25.6318 81.1135 25.658 80.741V75.172C25.6563 74.9809 25.6155 74.7922 25.5381 74.6174C25.4607 74.4427 25.3484 74.2857 25.208 74.156C25.0677 74.026 24.9025 73.9256 24.7224 73.861C24.5423 73.7964 24.351 73.7688 24.16 73.78L24.161 73.779Z" fill="url(#paint16_linear_1_1752)"/>
<path d="M15.068 76.9809H20.15C20.2091 76.9809 20.2659 76.9574 20.3077 76.9156C20.3495 76.8738 20.373 76.8171 20.373 76.7579C20.373 76.6988 20.3495 76.642 20.3077 76.6002C20.2659 76.5584 20.2091 76.5349 20.15 76.5349H15.068C15.0089 76.5349 14.9521 76.5584 14.9103 76.6002C14.8685 76.642 14.845 76.6988 14.845 76.7579C14.845 76.8171 14.8685 76.8738 14.9103 76.9156C14.9521 76.9574 15.0089 76.9809 15.068 76.9809ZM11.745 78.4199H19.972C20.0311 78.4199 20.0879 78.3964 20.1297 78.3546C20.1715 78.3128 20.195 78.2561 20.195 78.1969C20.195 78.1378 20.1715 78.0811 20.1297 78.0392C20.0879 77.9974 20.0311 77.9739 19.972 77.9739H11.745C11.6859 77.9739 11.6291 77.9974 11.5873 78.0392C11.5455 78.0811 11.522 78.1378 11.522 78.1969C11.522 78.2561 11.5455 78.3128 11.5873 78.3546C11.6291 78.3964 11.6859 78.4199 11.745 78.4199Z" fill="white"/>
<path d="M4.719 76.9809H13.868C13.9271 76.9809 13.9839 76.9574 14.0257 76.9156C14.0675 76.8738 14.091 76.8171 14.091 76.7579C14.091 76.6988 14.0675 76.642 14.0257 76.6002C13.9839 76.5584 13.9271 76.5349 13.868 76.5349H4.719C4.65986 76.5349 4.60314 76.5584 4.56132 76.6002C4.5195 76.642 4.496 76.6988 4.496 76.7579C4.496 76.8171 4.5195 76.8738 4.56132 76.9156C4.60314 76.9574 4.65986 76.9809 4.719 76.9809ZM11.606 78.4199H20.755C20.844 78.4379 20.935 78.4009 20.986 78.3259C21.037 78.2509 21.037 78.1529 20.986 78.0769C20.935 78.0009 20.844 77.9649 20.755 77.9829H11.606C11.517 77.9649 11.426 78.0019 11.375 78.0769C11.324 78.1519 11.324 78.2499 11.375 78.3259C11.426 78.4019 11.517 78.4379 11.606 78.4199ZM4.719 78.4199H10.21C10.2691 78.4199 10.3259 78.3964 10.3677 78.3546C10.4095 78.3128 10.433 78.2561 10.433 78.1969C10.433 78.1378 10.4095 78.0811 10.3677 78.0392C10.3259 77.9974 10.2691 77.9739 10.21 77.9739H4.719C4.65986 77.9739 4.60314 77.9974 4.56132 78.0392C4.5195 78.0811 4.496 78.1378 4.496 78.1969C4.496 78.2561 4.5195 78.3128 4.56132 78.3546C4.60314 78.3964 4.65986 78.4199 4.719 78.4199ZM15.077 76.9809H20.54C20.5705 76.9834 20.6013 76.9798 20.6304 76.9704C20.6596 76.9609 20.6866 76.9458 20.7099 76.926C20.7332 76.9061 20.7524 76.8818 20.7663 76.8545C20.7802 76.8272 20.7886 76.7975 20.791 76.7669C20.7821 76.7077 20.7515 76.654 20.705 76.6163C20.6586 76.5785 20.5997 76.5595 20.54 76.5629H15.077C15.0133 76.5597 14.9507 76.5811 14.9022 76.6225C14.8536 76.664 14.8228 76.7224 14.816 76.7859C14.827 76.8453 14.86 76.8983 14.9083 76.9345C14.9567 76.9706 15.0169 76.9872 15.077 76.9809ZM4.719 79.7839H13.421C13.4801 79.7839 13.5369 79.7604 13.5787 79.7186C13.6205 79.6768 13.644 79.6201 13.644 79.5609C13.644 79.5018 13.6205 79.445 13.5787 79.4032C13.5369 79.3614 13.4801 79.3379 13.421 79.3379H4.719C4.65986 79.3379 4.60314 79.3614 4.56132 79.4032C4.5195 79.445 4.496 79.5018 4.496 79.5609C4.496 79.6201 4.5195 79.6768 4.56132 79.7186C4.60314 79.7604 4.65986 79.7839 4.719 79.7839Z" fill="white"/>
<g opacity="0.45">
<path d="M86.256 57.7778V57.9078C86.2655 57.865 86.2655 57.8206 86.256 57.7778ZM86.237 57.9078V57.9168H86.246L86.237 57.9078Z" fill="#C4643B"/>
<path d="M84.962 58.0008V58.0658C84.962 57.9818 84.962 58.0198 84.962 58.0658C84.962 57.9918 84.962 58.1498 84.962 58.0658H85.027C85.027 58.0658 85.083 58.0658 85.101 58.1398C85.119 58.2138 85.157 58.0658 85.175 58.1398C85.175 58.0468 85.193 58.2138 85.175 58.1398C85.175 58.2328 85.249 58.1398 85.259 58.2138V58.1488C85.2541 58.189 85.2541 58.2296 85.259 58.2698V58.1958V58.2518V58.1868V58.3448V58.2988H85.324C85.3135 58.2626 85.3135 58.2241 85.324 58.1878V58.2618V58.1778C85.3328 58.2112 85.3328 58.2464 85.324 58.2798C85.324 58.2798 85.324 58.3538 85.324 58.2798H85.38C85.436 58.2798 85.38 58.2798 85.38 58.1778C85.38 58.0758 85.38 58.2518 85.427 58.2518C85.474 58.2518 85.427 58.1958 85.427 58.1588V58.2518C85.427 58.2888 85.427 58.2518 85.483 58.2518V58.1868V58.2428C85.483 58.1588 85.539 58.4288 85.576 58.3078V58.2518V58.3358C85.576 58.2338 85.623 58.3358 85.641 58.3358C85.641 58.5118 85.706 58.3358 85.725 58.4378V58.3818C85.725 58.3258 85.818 58.4468 85.874 58.4838C85.93 58.5208 85.874 58.2698 85.874 58.3728V58.4468C85.874 58.3628 85.948 58.4468 85.986 58.3728V58.4378C85.986 58.3728 85.986 58.5028 85.986 58.4378V58.3818V58.3168C85.986 58.3908 85.986 58.4098 85.986 58.3168C85.9906 58.3413 85.9906 58.3664 85.986 58.3908V58.3168V58.3728C86.01 58.3305 86.0415 58.2928 86.079 58.2618V58.3728C86.079 58.3728 86.079 58.2518 86.144 58.2708C86.209 58.2898 86.144 58.2708 86.144 58.3268C86.144 58.3828 86.191 58.3268 86.209 58.3268C86.2048 58.2742 86.2048 58.2214 86.209 58.1688V58.3448V58.2238C86.209 58.2238 86.209 58.1218 86.265 58.1588C86.321 58.1958 86.265 58.1588 86.265 58.2518V58.1958V58.1308V58.2148V58.1408V58.2058C86.265 58.2708 86.265 58.1318 86.339 58.1408H86.479H86.535V58.2428V58.1968H86.479V58.1408C86.479 58.0758 86.479 58.2518 86.423 58.1408V58.2148C86.4194 58.1839 86.4194 58.1527 86.423 58.1218V58.1778C86.4305 58.1922 86.4345 58.2081 86.4345 58.2243C86.4345 58.2405 86.4305 58.2565 86.423 58.2708C86.4142 58.2374 86.4142 58.2022 86.423 58.1688V58.1128C86.4135 58.0891 86.4135 58.0626 86.423 58.0388C86.4281 58.0756 86.4281 58.113 86.423 58.1498C86.4265 58.1283 86.4265 58.1063 86.423 58.0848V58.1778V58.0938C86.423 58.0378 86.423 58.1398 86.423 58.0938V58.3078V58.1868C86.423 58.1308 86.423 58.2518 86.367 58.1868C86.3729 58.1591 86.3729 58.1305 86.367 58.1028V58.1868V58.1308V58.2328V58.1218C86.3696 58.1404 86.3696 58.1592 86.367 58.1778C86.3661 58.2025 86.3661 58.2272 86.367 58.2518C86.367 58.1218 86.32 58.2518 86.311 58.1408L86.618 58.0018V57.8718C86.618 57.8158 86.618 57.9278 86.618 57.8718C86.6305 57.9112 86.6305 57.9535 86.618 57.9928C86.6228 57.962 86.6228 57.9306 86.618 57.8998V58.0108V57.8898C86.6215 57.9237 86.6215 57.9579 86.618 57.9918C86.6148 57.9455 86.6148 57.8991 86.618 57.8528C86.618 57.8528 86.618 57.9638 86.571 57.9638V57.7778C86.571 57.8428 86.571 57.7778 86.497 57.7778C86.423 57.7778 86.497 57.7778 86.497 57.9268V57.6848V57.8058C86.497 57.6848 86.497 57.8798 86.497 57.8058L86.441 57.9168C86.385 58.0278 86.441 57.8608 86.441 57.8518C86.441 57.8428 86.376 57.9628 86.357 57.8518C86.338 57.7408 86.357 57.9168 86.357 57.8518C86.357 57.7868 86.357 57.9078 86.357 57.8518C86.357 57.7958 86.357 57.9448 86.283 57.9628C86.209 57.9808 86.283 57.8328 86.283 57.8138L86.199 57.9248C86.171 57.9618 86.143 57.9248 86.125 57.8318C86.1296 57.8563 86.1296 57.8814 86.125 57.9058C86.125 57.9058 86.125 57.9708 86.125 57.9058V57.8498V57.9518C86.125 57.8028 86.051 58.0078 86.051 57.8678V58.0258V57.9518C86.051 57.9518 86.051 57.8868 85.986 57.9518C85.9896 57.9827 85.9896 58.0139 85.986 58.0448C85.9831 58.0139 85.9831 57.9827 85.986 57.9518C85.986 57.9518 85.986 58.0448 85.93 58.0258C85.9249 58.0472 85.9249 58.0694 85.93 58.0908V58.1558V58.0448C85.93 58.0168 85.883 58.0448 85.865 58.1188C85.865 58.0628 85.791 58.2208 85.763 58.1188H84.758H84.805V58.1748L84.963 57.9988L84.962 58.0008ZM85.26 57.8248H85.251L85.26 57.8338V57.8248Z" fill="#C4643B"/>
<path d="M87.703 58.474L87.712 58.493L87.721 58.456L87.703 58.474ZM87.675 58.177V58.168L87.666 58.177H87.675ZM87.098 58.112V58.186C87.098 58.186 87.107 58.093 87.098 58.112ZM86.856 58.168C86.847 58.177 86.856 58.233 86.856 58.168V58.168ZM95.883 58.929L95.892 58.92H95.883V58.929ZM94.273 58.465V58.604C94.2784 58.5578 94.2784 58.5112 94.273 58.465ZM92.97 58.623H93.017V58.688C93.017 58.614 93.017 58.642 93.017 58.688C93.017 58.623 93.017 58.762 93.017 58.688H93.082C93.082 58.688 93.138 58.688 93.156 58.753C93.156 58.799 93.221 58.679 93.23 58.753V58.707C93.23 58.707 93.304 58.707 93.304 58.791V58.726C93.2991 58.7662 93.2991 58.8068 93.304 58.847V58.773V58.903C93.304 58.838 93.304 58.968 93.304 58.903H93.369C93.388 58.903 93.369 58.801 93.369 58.792V58.866V58.782V58.94H93.425C93.481 58.94 93.425 58.94 93.425 58.847V58.921V58.837V58.93C93.4465 58.9335 93.4685 58.9335 93.49 58.93C93.49 58.856 93.49 59.116 93.574 58.995V58.939V59.013C93.574 59.087 93.574 59.013 93.648 59.013C93.648 59.189 93.704 59.013 93.713 59.124C93.7077 59.1057 93.7077 59.0863 93.713 59.068C93.769 59.068 93.806 59.142 93.853 59.179C93.9 59.216 93.853 58.975 93.853 59.077V59.151C93.853 59.058 93.927 59.151 93.974 59.086C93.9722 59.1076 93.9722 59.1294 93.974 59.151C93.974 59.077 93.974 59.151 93.974 59.151V59.086C93.974 59.17 93.974 59.188 93.974 59.086V59.142C94.0029 59.1033 94.0373 59.0689 94.076 59.04V59.151C94.076 59.151 94.132 59.03 94.16 59.049C94.1653 59.0673 94.1653 59.0867 94.16 59.105H94.234V58.947V59.123V59.058V59.114V59.049C94.234 59.049 94.234 58.956 94.299 58.993C94.364 59.03 94.299 58.993 94.299 59.086C94.299 59.04 94.299 59.179 94.299 59.086V59.021V59.105V59.031V59.086L94.355 59.087C94.411 59.087 94.355 59.087 94.355 59.152C94.355 59.217 94.411 59.078 94.439 59.087H94.579H94.635V59.189V59.133H94.579V59.077C94.579 59.003 94.579 59.179 94.523 59.077V59.151C94.5194 59.1201 94.5194 59.0889 94.523 59.058V59.207C94.5142 59.1736 94.5142 59.1384 94.523 59.105V59.049V59.095V58.919V59.03V58.956V59.021V58.965C94.5242 58.993 94.5242 59.021 94.523 59.049V58.965C94.5269 58.9929 94.5269 59.0211 94.523 59.049V59.114C94.5179 59.1354 94.5179 59.1576 94.523 59.179V59.058C94.523 58.993 94.523 59.114 94.467 59.058V58.974V59.048V58.992C94.467 58.992 94.467 59.113 94.42 59.094C94.373 59.075 94.42 59.02 94.42 58.983V59.039C94.4122 59.0631 94.4122 59.089 94.42 59.113V59.002V59.076V58.937C94.42 58.881 94.42 58.983 94.42 58.937C94.4082 58.9802 94.3893 59.0211 94.364 59.058C94.3688 59.0272 94.3688 58.9958 94.364 58.965V59.076C94.3591 59.0358 94.3591 58.9952 94.364 58.955C94.364 58.955 94.364 59.057 94.308 59.048C94.308 58.992 94.308 59.132 94.308 59.048V58.955C94.2927 58.9907 94.2739 59.0249 94.252 59.057C94.2656 59.0088 94.2844 58.9622 94.308 58.918V59.011V58.825C94.308 58.89 94.308 58.825 94.234 58.825C94.16 58.825 94.234 58.825 94.234 58.974V58.732C94.234 58.695 94.234 58.797 94.234 58.732V58.797C94.234 58.676 94.234 58.871 94.234 58.797C94.234 58.918 94.187 58.797 94.16 58.908C94.1545 58.8867 94.1545 58.8643 94.16 58.843C94.16 58.843 94.086 58.954 94.076 58.843C94.066 58.732 94.076 58.899 94.076 58.843C94.076 58.787 94.076 58.899 94.076 58.843C94.076 58.787 94.02 58.927 93.992 58.945C93.964 58.963 93.992 58.815 93.992 58.806L93.899 58.917C93.871 58.954 93.852 58.917 93.834 58.815C93.8386 58.8395 93.8386 58.8646 93.834 58.889C93.834 58.889 93.834 58.945 93.834 58.889V58.824V58.935C93.834 58.777 93.75 58.935 93.76 58.842C93.77 58.749 93.76 58.991 93.704 58.991V58.917C93.704 58.917 93.704 58.852 93.639 58.917V58.871C93.639 58.825 93.639 58.955 93.583 58.945V59.066V58.955C93.583 58.927 93.583 58.955 93.518 59.029H93.471C93.471 58.964 93.397 59.113 93.369 59.029H93.229H93.173V59.085L92.968 58.621L92.97 58.623ZM93.603 58.883V58.864V58.873V58.883ZM95.306 58.967V58.995L95.315 58.958L95.306 58.967ZM95.297 58.67V58.661L95.288 58.68L95.297 58.67ZM94.729 58.567V58.632C94.729 58.632 94.738 58.548 94.729 58.567ZM93.761 58.4L93.77 58.381L93.751 58.39L93.761 58.4Z" fill="#C4643B"/>
</g>
</g>
</g>
<defs>
<linearGradient id="paint0_linear_1_1752" x1="7435.01" y1="8036.53" x2="5018.61" y2="-2072.05" gradientUnits="userSpaceOnUse">
<stop stop-color="#FFC481"/>
<stop offset="0.24" stop-color="#FFD7BA"/>
<stop offset="0.58" stop-color="#FFF0E6"/>
<stop offset="0.87" stop-color="white"/>
</linearGradient>
<linearGradient id="paint1_linear_1_1752" x1="3885.91" y1="3194.05" x2="477.004" y2="3126.06" gradientUnits="userSpaceOnUse">
<stop stop-color="#663600"/>
<stop offset="0.01" stop-color="#5E3104"/>
<stop offset="0.05" stop-color="#4D260B"/>
<stop offset="0.09" stop-color="#431F10"/>
<stop offset="0.14" stop-color="#401D11"/>
<stop offset="0.25" stop-color="#45200F"/>
<stop offset="0.38" stop-color="#532A08"/>
<stop offset="0.49" stop-color="#663600"/>
<stop offset="0.62" stop-color="#5F3300"/>
<stop offset="0.76" stop-color="#512B00"/>
<stop offset="0.83" stop-color="#4A2703"/>
<stop offset="0.93" stop-color="#381B0A"/>
<stop offset="0.96" stop-color="#30160D"/>
</linearGradient>
<linearGradient id="paint2_linear_1_1752" x1="178644" y1="4277.37" x2="179904" y2="4277.37" gradientUnits="userSpaceOnUse">
<stop stop-color="#663600"/>
<stop offset="0.01" stop-color="#5E3104"/>
<stop offset="0.05" stop-color="#4D260B"/>
<stop offset="0.09" stop-color="#431F10"/>
<stop offset="0.14" stop-color="#401D11"/>
<stop offset="0.25" stop-color="#45200F"/>
<stop offset="0.38" stop-color="#532A08"/>
<stop offset="0.49" stop-color="#663600"/>
<stop offset="0.62" stop-color="#5F3300"/>
<stop offset="0.76" stop-color="#512B00"/>
<stop offset="0.83" stop-color="#4A2703"/>
<stop offset="0.93" stop-color="#381B0A"/>
<stop offset="0.96" stop-color="#30160D"/>
</linearGradient>
<linearGradient id="paint3_linear_1_1752" x1="184562" y1="4284.5" x2="186450" y2="4284.5" gradientUnits="userSpaceOnUse">
<stop stop-color="#663600"/>
<stop offset="0.01" stop-color="#5E3104"/>
<stop offset="0.05" stop-color="#4D260B"/>
<stop offset="0.09" stop-color="#431F10"/>
<stop offset="0.14" stop-color="#401D11"/>
<stop offset="0.25" stop-color="#45200F"/>
<stop offset="0.38" stop-color="#532A08"/>
<stop offset="0.49" stop-color="#663600"/>
<stop offset="0.62" stop-color="#5F3300"/>
<stop offset="0.76" stop-color="#512B00"/>
<stop offset="0.83" stop-color="#4A2703"/>
<stop offset="0.93" stop-color="#381B0A"/>
<stop offset="0.96" stop-color="#30160D"/>
</linearGradient>
<linearGradient id="paint4_linear_1_1752" x1="1139.39" y1="1858.19" x2="97.9861" y2="1858.19" gradientUnits="userSpaceOnUse">
<stop stop-color="#B4CBDD"/>
<stop offset="0.73" stop-color="#C1E6DE"/>
</linearGradient>
<linearGradient id="paint5_linear_1_1752" x1="113224" y1="2012.63" x2="114659" y2="809.894" gradientUnits="userSpaceOnUse">
<stop stop-color="#B4CBDD"/>
<stop offset="0.73" stop-color="#C1E6DE"/>
</linearGradient>
<linearGradient id="paint6_linear_1_1752" x1="181660" y1="2926.15" x2="186458" y2="2926.15" gradientUnits="userSpaceOnUse">
<stop stop-color="#B4CBDD"/>
<stop offset="0.73" stop-color="#C1E6DE"/>
</linearGradient>
<linearGradient id="paint7_linear_1_1752" x1="1115.98" y1="848.602" x2="1820.88" y2="3961.41" gradientUnits="userSpaceOnUse">
<stop offset="0.05" stop-color="#FFCBBA"/>
<stop offset="0.2" stop-color="#FFC4B4"/>
<stop offset="0.41" stop-color="#FFB2A4"/>
<stop offset="0.44" stop-color="#FFAEA0"/>
<stop offset="0.88" stop-color="#E39486"/>
</linearGradient>
<linearGradient id="paint8_linear_1_1752" x1="3054.88" y1="4001.01" x2="-744.879" y2="53.6935" gradientUnits="userSpaceOnUse">
<stop offset="0.05" stop-color="#FFCBBA"/>
<stop offset="0.2" stop-color="#FFC4B4"/>
<stop offset="0.41" stop-color="#FFB2A4"/>
<stop offset="0.44" stop-color="#FFAEA0"/>
<stop offset="0.67" stop-color="#E39486"/>
</linearGradient>
<linearGradient id="paint9_linear_1_1752" x1="1819.11" y1="647.101" x2="-408.99" y2="802.583" gradientUnits="userSpaceOnUse">
<stop stop-color="#26303F"/>
<stop offset="0.22" stop-color="#293A54"/>
<stop offset="0.43" stop-color="#2B4263"/>
<stop offset="0.59" stop-color="#2A3F5C"/>
<stop offset="0.81" stop-color="#28354A"/>
<stop offset="0.91" stop-color="#26303F"/>
</linearGradient>
<linearGradient id="paint10_linear_1_1752" x1="4219.11" y1="2343.26" x2="-338.199" y2="-176.759" gradientUnits="userSpaceOnUse">
<stop stop-color="#663600"/>
<stop offset="0.01" stop-color="#5E3104"/>
<stop offset="0.05" stop-color="#4D260B"/>
<stop offset="0.09" stop-color="#431F10"/>
<stop offset="0.14" stop-color="#401D11"/>
<stop offset="0.25" stop-color="#45200F"/>
<stop offset="0.38" stop-color="#532A08"/>
<stop offset="0.49" stop-color="#663600"/>
<stop offset="0.62" stop-color="#5F3300"/>
<stop offset="0.76" stop-color="#512B00"/>
<stop offset="0.83" stop-color="#4A2703"/>
<stop offset="0.93" stop-color="#381B0A"/>
<stop offset="0.96" stop-color="#30160D"/>
</linearGradient>
<linearGradient id="paint11_linear_1_1752" x1="1001.43" y1="596.077" x2="3807.31" y2="3767.73" gradientUnits="userSpaceOnUse">
<stop offset="0.05" stop-color="#FFCBBA"/>
<stop offset="0.2" stop-color="#FFC4B4"/>
<stop offset="0.41" stop-color="#FFB2A4"/>
<stop offset="0.44" stop-color="#FFAEA0"/>
<stop offset="0.88" stop-color="#E39486"/>
</linearGradient>
<linearGradient id="paint12_linear_1_1752" x1="999.25" y1="5387.97" x2="-710.62" y2="211.602" gradientUnits="userSpaceOnUse">
<stop offset="0.05" stop-color="#FFCBBA"/>
<stop offset="0.2" stop-color="#FFC4B4"/>
<stop offset="0.41" stop-color="#FFB2A4"/>
<stop offset="0.44" stop-color="#FFAEA0"/>
<stop offset="0.88" stop-color="#E39486"/>
</linearGradient>
<linearGradient id="paint13_linear_1_1752" x1="176763" y1="1694.98" x2="178860" y2="1694.98" gradientUnits="userSpaceOnUse">
<stop stop-color="#B4CBDD"/>
<stop offset="0.73" stop-color="#C1E6DE"/>
</linearGradient>
<linearGradient id="paint14_linear_1_1752" x1="-5840.75" y1="-619.701" x2="1125.53" y2="-1351.87" gradientUnits="userSpaceOnUse">
<stop stop-color="#F28A00"/>
<stop offset="0.19" stop-color="#FB9100"/>
<stop offset="0.43" stop-color="#FF9500"/>
<stop offset="1" stop-color="#FFDA6A"/>
</linearGradient>
<linearGradient id="paint15_linear_1_1752" x1="5321.44" y1="810.639" x2="-149.97" y2="838.519" gradientUnits="userSpaceOnUse">
<stop stop-color="#F28A00"/>
<stop offset="0.16" stop-color="#FB9100"/>
<stop offset="0.35" stop-color="#FF9500"/>
<stop offset="1" stop-color="#FFDA6A"/>
</linearGradient>
<linearGradient id="paint16_linear_1_1752" x1="200795" y1="600.499" x2="196111" y2="278.734" gradientUnits="userSpaceOnUse">
<stop stop-color="#F28A00"/>
<stop offset="0.16" stop-color="#FB9100"/>
<stop offset="0.35" stop-color="#FF9500"/>
<stop offset="1" stop-color="#FFDA6A"/>
</linearGradient>
<clipPath id="clip0_1_1752">
<rect width="175" height="131" fill="white" transform="translate(0 0.919922)"/>
</clipPath>
<clipPath id="clip1_1_1752">
<rect width="175" height="131" fill="white" transform="translate(0 0.919922)"/>
</clipPath>
</defs>
</svg>
