<svg width="16" height="17" viewBox="0 0 16 17" fill="none" xmlns="http://www.w3.org/2000/svg">
<path d="M10.9062 10.5637C11.2708 10.0846 11.5547 9.53768 11.7578 8.9231C11.9609 8.30851 12.0625 7.66789 12.0625 7.00122C12.0625 6.16789 11.901 5.38143 11.5781 4.64185C11.2656 3.91268 10.8385 3.27466 10.2969 2.72778C9.75521 2.18091 9.11458 1.75122 8.375 1.43872C7.64583 1.12622 6.86458 0.969971 6.03125 0.969971C5.19792 0.969971 4.41146 1.12622 3.67188 1.43872C2.94271 1.75122 2.30729 2.18091 1.76562 2.72778C1.22396 3.27466 0.791667 3.91268 0.46875 4.64185C0.15625 5.38143 0 6.16789 0 7.00122C0 7.83455 0.15625 8.6158 0.46875 9.34497C0.78125 10.0846 1.21094 10.7252 1.75781 11.2668C2.30469 11.8085 2.94271 12.2356 3.67188 12.5481C4.41146 12.871 5.19792 13.0325 6.03125 13.0325C6.69792 13.0325 7.33073 12.9309 7.92969 12.7278C8.52865 12.5247 9.08333 12.2408 9.59375 11.8762L14.4219 16.6887C14.5156 16.7825 14.6172 16.8528 14.7266 16.8997C14.8359 16.9465 14.9531 16.97 15.0781 16.97C15.1927 16.97 15.3047 16.9465 15.4141 16.8997C15.5234 16.8528 15.625 16.7825 15.7188 16.6887C15.9062 16.5012 16 16.2851 16 16.0403C16 15.7955 15.9062 15.5793 15.7188 15.3918L10.9062 10.5637ZM6.03125 11.1731C5.44792 11.1731 4.90625 11.0637 4.40625 10.845C3.89583 10.6262 3.45312 10.3293 3.07812 9.95435C2.70312 9.57935 2.40625 9.13664 2.1875 8.62622C1.96875 8.12622 1.85938 7.58455 1.85938 7.00122C1.85938 6.41789 1.96875 5.87622 2.1875 5.37622C2.40625 4.8658 2.70312 4.42049 3.07812 4.04028C3.45312 3.66008 3.89583 3.3658 4.40625 3.15747C4.90625 2.93872 5.44792 2.82935 6.03125 2.82935C6.61458 2.82935 7.15625 2.93872 7.65625 3.15747C8.16667 3.3658 8.60938 3.66008 8.98438 4.04028C9.35938 4.42049 9.65625 4.8658 9.875 5.37622C10.0938 5.87622 10.2031 6.41789 10.2031 7.00122C10.2031 7.58455 10.0938 8.12622 9.875 8.62622C9.65625 9.13664 9.35938 9.57935 8.98438 9.95435C8.60938 10.3293 8.16667 10.6262 7.65625 10.845C7.15625 11.0637 6.61458 11.1731 6.03125 11.1731Z" fill="#4A4A4A"/>
</svg>
