<svg width="111" height="29" viewBox="0 0 111 29" fill="none" xmlns="http://www.w3.org/2000/svg">
<path d="M16.1507 19.8245C16.4778 19.5805 16.5489 19.1762 16.3569 18.6256L14.8995 14.3665L18.6319 11.7385C19.1082 11.4039 19.3144 11.0345 19.1793 10.6441C19.0443 10.2607 18.6675 10.0725 18.0774 10.0795L13.4989 10.1074L12.1055 5.82739C11.9277 5.26974 11.6363 4.97 11.2168 4.97C10.8045 4.97 10.513 5.26974 10.3281 5.82739L8.93468 10.1074L4.35622 10.0795C3.76614 10.0725 3.39646 10.2607 3.26138 10.6441C3.1263 11.0345 3.32536 11.4039 3.8088 11.7385L7.54124 14.3665L6.0767 18.6256C5.88475 19.1762 5.95584 19.5805 6.28998 19.8245C6.62412 20.0755 7.03647 19.9918 7.51991 19.6502L11.2168 16.9874L14.9137 19.6502C15.3971 19.9918 15.8166 20.0755 16.1507 19.8245Z" fill="black"/>
<path d="M16.1507 19.8245C16.4778 19.5805 16.5489 19.1762 16.3569 18.6256L14.8995 14.3665L18.6319 11.7385C19.1082 11.4039 19.3144 11.0345 19.1793 10.6441C19.0443 10.2607 18.6675 10.0725 18.0774 10.0795L13.4989 10.1074L12.1055 5.82739C11.9277 5.26974 11.6363 4.97 11.2168 4.97C10.8045 4.97 10.513 5.26974 10.3281 5.82739L8.93468 10.1074L4.35622 10.0795C3.76614 10.0725 3.39646 10.2607 3.26138 10.6441C3.1263 11.0345 3.32536 11.4039 3.8088 11.7385L7.54124 14.3665L6.0767 18.6256C5.88475 19.1762 5.95584 19.5805 6.28998 19.8245C6.62412 20.0755 7.03647 19.9918 7.51991 19.6502L11.2168 16.9874L14.9137 19.6502C15.3971 19.9918 15.8166 20.0755 16.1507 19.8245Z" fill="url(#paint0_linear_10_3)"/>
<path d="M38.1507 19.8245C38.4778 19.5805 38.5489 19.1762 38.3569 18.6256L36.8995 14.3665L40.6319 11.7385C41.1082 11.4039 41.3144 11.0345 41.1793 10.6441C41.0443 10.2607 40.6675 10.0725 40.0774 10.0795L35.4989 10.1074L34.1055 5.82739C33.9277 5.26974 33.6363 4.97 33.2168 4.97C32.8045 4.97 32.513 5.26974 32.3281 5.82739L30.9347 10.1074L26.3562 10.0795C25.7661 10.0725 25.3965 10.2607 25.2614 10.6441C25.1263 11.0345 25.3254 11.4039 25.8088 11.7385L29.5412 14.3665L28.0767 18.6256C27.8847 19.1762 27.9558 19.5805 28.29 19.8245C28.6241 20.0755 29.0365 19.9918 29.5199 19.6502L33.2168 16.9874L36.9137 19.6502C37.3971 19.9918 37.8166 20.0755 38.1507 19.8245Z" fill="black"/>
<path d="M38.1507 19.8245C38.4778 19.5805 38.5489 19.1762 38.3569 18.6256L36.8995 14.3665L40.6319 11.7385C41.1082 11.4039 41.3144 11.0345 41.1793 10.6441C41.0443 10.2607 40.6675 10.0725 40.0774 10.0795L35.4989 10.1074L34.1055 5.82739C33.9277 5.26974 33.6363 4.97 33.2168 4.97C32.8045 4.97 32.513 5.26974 32.3281 5.82739L30.9347 10.1074L26.3562 10.0795C25.7661 10.0725 25.3965 10.2607 25.2614 10.6441C25.1263 11.0345 25.3254 11.4039 25.8088 11.7385L29.5412 14.3665L28.0767 18.6256C27.8847 19.1762 27.9558 19.5805 28.29 19.8245C28.6241 20.0755 29.0365 19.9918 29.5199 19.6502L33.2168 16.9874L36.9137 19.6502C37.3971 19.9918 37.8166 20.0755 38.1507 19.8245Z" fill="url(#paint1_linear_10_3)"/>
<path d="M60.1507 19.8245C60.4778 19.5805 60.5489 19.1762 60.3569 18.6256L58.8995 14.3665L62.6319 11.7385C63.1082 11.4039 63.3144 11.0345 63.1793 10.6441C63.0443 10.2607 62.6675 10.0725 62.0774 10.0795L57.4989 10.1074L56.1055 5.82739C55.9277 5.26974 55.6363 4.97 55.2168 4.97C54.8045 4.97 54.513 5.26974 54.3281 5.82739L52.9347 10.1074L48.3562 10.0795C47.7661 10.0725 47.3965 10.2607 47.2614 10.6441C47.1263 11.0345 47.3254 11.4039 47.8088 11.7385L51.5412 14.3665L50.0767 18.6256C49.8847 19.1762 49.9558 19.5805 50.29 19.8245C50.6241 20.0755 51.0365 19.9918 51.5199 19.6502L55.2168 16.9874L58.9137 19.6502C59.3971 19.9918 59.8166 20.0755 60.1507 19.8245Z" fill="black"/>
<path d="M60.1507 19.8245C60.4778 19.5805 60.5489 19.1762 60.3569 18.6256L58.8995 14.3665L62.6319 11.7385C63.1082 11.4039 63.3144 11.0345 63.1793 10.6441C63.0443 10.2607 62.6675 10.0725 62.0774 10.0795L57.4989 10.1074L56.1055 5.82739C55.9277 5.26974 55.6363 4.97 55.2168 4.97C54.8045 4.97 54.513 5.26974 54.3281 5.82739L52.9347 10.1074L48.3562 10.0795C47.7661 10.0725 47.3965 10.2607 47.2614 10.6441C47.1263 11.0345 47.3254 11.4039 47.8088 11.7385L51.5412 14.3665L50.0767 18.6256C49.8847 19.1762 49.9558 19.5805 50.29 19.8245C50.6241 20.0755 51.0365 19.9918 51.5199 19.6502L55.2168 16.9874L58.9137 19.6502C59.3971 19.9918 59.8166 20.0755 60.1507 19.8245Z" fill="url(#paint2_linear_10_3)"/>
<path d="M82.1507 19.8245C82.4778 19.5805 82.5489 19.1762 82.3569 18.6256L80.8995 14.3665L84.6319 11.7385C85.1082 11.4039 85.3144 11.0345 85.1793 10.6441C85.0443 10.2607 84.6675 10.0725 84.0774 10.0795L79.4989 10.1074L78.1055 5.82739C77.9277 5.26974 77.6363 4.97 77.2168 4.97C76.8045 4.97 76.513 5.26974 76.3281 5.82739L74.9347 10.1074L70.3562 10.0795C69.7661 10.0725 69.3965 10.2607 69.2614 10.6441C69.1263 11.0345 69.3254 11.4039 69.8088 11.7385L73.5412 14.3665L72.0767 18.6256C71.8847 19.1762 71.9558 19.5805 72.29 19.8245C72.6241 20.0755 73.0365 19.9918 73.5199 19.6502L77.2168 16.9874L80.9137 19.6502C81.3971 19.9918 81.8166 20.0755 82.1507 19.8245Z" fill="black"/>
<path d="M82.1507 19.8245C82.4778 19.5805 82.5489 19.1762 82.3569 18.6256L80.8995 14.3665L84.6319 11.7385C85.1082 11.4039 85.3144 11.0345 85.1793 10.6441C85.0443 10.2607 84.6675 10.0725 84.0774 10.0795L79.4989 10.1074L78.1055 5.82739C77.9277 5.26974 77.6363 4.97 77.2168 4.97C76.8045 4.97 76.513 5.26974 76.3281 5.82739L74.9347 10.1074L70.3562 10.0795C69.7661 10.0725 69.3965 10.2607 69.2614 10.6441C69.1263 11.0345 69.3254 11.4039 69.8088 11.7385L73.5412 14.3665L72.0767 18.6256C71.8847 19.1762 71.9558 19.5805 72.29 19.8245C72.6241 20.0755 73.0365 19.9918 73.5199 19.6502L77.2168 16.9874L80.9137 19.6502C81.3971 19.9918 81.8166 20.0755 82.1507 19.8245Z" fill="url(#paint3_linear_10_3)"/>
<path d="M104.151 19.8245C104.478 19.5805 104.549 19.1762 104.357 18.6256L102.899 14.3665L106.632 11.7385C107.108 11.4039 107.314 11.0345 107.179 10.6441C107.044 10.2607 106.667 10.0725 106.077 10.0795L101.499 10.1074L100.105 5.82739C99.9277 5.26974 99.6363 4.97 99.2168 4.97C98.8045 4.97 98.513 5.26974 98.3281 5.82739L96.9347 10.1074L92.3562 10.0795C91.7661 10.0725 91.3965 10.2607 91.2614 10.6441C91.1263 11.0345 91.3254 11.4039 91.8088 11.7385L95.5412 14.3665L94.0767 18.6256C93.8847 19.1762 93.9558 19.5805 94.29 19.8245C94.6241 20.0755 95.0365 19.9918 95.5199 19.6502L99.2168 16.9874L102.914 19.6502C103.397 19.9918 103.817 20.0755 104.151 19.8245Z" fill="black"/>
<path d="M104.151 19.8245C104.478 19.5805 104.549 19.1762 104.357 18.6256L102.899 14.3665L106.632 11.7385C107.108 11.4039 107.314 11.0345 107.179 10.6441C107.044 10.2607 106.667 10.0725 106.077 10.0795L101.499 10.1074L100.105 5.82739C99.9277 5.26974 99.6363 4.97 99.2168 4.97C98.8045 4.97 98.513 5.26974 98.3281 5.82739L96.9347 10.1074L92.3562 10.0795C91.7661 10.0725 91.3965 10.2607 91.2614 10.6441C91.1263 11.0345 91.3254 11.4039 91.8088 11.7385L95.5412 14.3665L94.0767 18.6256C93.8847 19.1762 93.9558 19.5805 94.29 19.8245C94.6241 20.0755 95.0365 19.9918 95.5199 19.6502L99.2168 16.9874L102.914 19.6502C103.397 19.9918 103.817 20.0755 104.151 19.8245Z" fill="url(#paint4_linear_10_3)"/>
<g clip-path="url(#clip0_10_3)">
<path d="M104.151 19.8245C104.478 19.5805 104.549 19.1762 104.357 18.6256L102.899 14.3665L106.632 11.7385C107.108 11.4039 107.314 11.0345 107.179 10.6441C107.044 10.2607 106.667 10.0725 106.077 10.0795L101.499 10.1074L100.105 5.82739C99.9277 5.26974 99.6363 4.97 99.2168 4.97C98.8045 4.97 98.513 5.26974 98.3281 5.82739L96.9347 10.1074L92.3562 10.0795C91.7661 10.0725 91.3965 10.2607 91.2614 10.6441C91.1263 11.0345 91.3254 11.4039 91.8088 11.7385L95.5412 14.3665L94.0767 18.6256C93.8847 19.1762 93.9558 19.5805 94.29 19.8245C94.6241 20.0755 95.0365 19.9918 95.5199 19.6502L99.2168 16.9874L102.914 19.6502C103.397 19.9918 103.817 20.0755 104.151 19.8245Z" fill="black"/>
<path d="M104.151 19.8245C104.478 19.5805 104.549 19.1762 104.357 18.6256L102.899 14.3665L106.632 11.7385C107.108 11.4039 107.314 11.0345 107.179 10.6441C107.044 10.2607 106.667 10.0725 106.077 10.0795L101.499 10.1074L100.105 5.82739C99.9277 5.26974 99.6363 4.97 99.2168 4.97C98.8045 4.97 98.513 5.26974 98.3281 5.82739L96.9347 10.1074L92.3562 10.0795C91.7661 10.0725 91.3965 10.2607 91.2614 10.6441C91.1263 11.0345 91.3254 11.4039 91.8088 11.7385L95.5412 14.3665L94.0767 18.6256C93.8847 19.1762 93.9558 19.5805 94.29 19.8245C94.6241 20.0755 95.0365 19.9918 95.5199 19.6502L99.2168 16.9874L102.914 19.6502C103.397 19.9918 103.817 20.0755 104.151 19.8245Z" fill="url(#paint5_linear_10_3)"/>
</g>
<defs>
<linearGradient id="paint0_linear_10_3" x1="3.22" y1="754.97" x2="1603.22" y2="754.97" gradientUnits="userSpaceOnUse">
<stop stop-color="#FBB034"/>
<stop offset="1" stop-color="#FFCC00"/>
</linearGradient>
<linearGradient id="paint1_linear_10_3" x1="25.22" y1="754.97" x2="1625.22" y2="754.97" gradientUnits="userSpaceOnUse">
<stop stop-color="#FBB034"/>
<stop offset="1" stop-color="#FFCC00"/>
</linearGradient>
<linearGradient id="paint2_linear_10_3" x1="47.22" y1="754.97" x2="1647.22" y2="754.97" gradientUnits="userSpaceOnUse">
<stop stop-color="#FBB034"/>
<stop offset="1" stop-color="#FFCC00"/>
</linearGradient>
<linearGradient id="paint3_linear_10_3" x1="69.22" y1="754.97" x2="1669.22" y2="754.97" gradientUnits="userSpaceOnUse">
<stop stop-color="#FBB034"/>
<stop offset="1" stop-color="#FFCC00"/>
</linearGradient>
<linearGradient id="paint4_linear_10_3" x1="91.22" y1="754.97" x2="1691.22" y2="754.97" gradientUnits="userSpaceOnUse">
<stop stop-color="#DDDDDD"/>
<stop offset="1" stop-color="#DDDDDD"/>
</linearGradient>
<linearGradient id="paint5_linear_10_3" x1="91.22" y1="754.97" x2="1691.22" y2="754.97" gradientUnits="userSpaceOnUse">
<stop stop-color="#FBB034"/>
<stop offset="1" stop-color="#FFCC00"/>
</linearGradient>
<clipPath id="clip0_10_3">
<rect width="11" height="28" fill="white" transform="translate(88.22 0.970001)"/>
</clipPath>
</defs>
</svg>
